<svg width="391" height="320" viewBox="0 0 391 320" fill="none" xmlns="http://www.w3.org/2000/svg">
<g clip-path="url(#clip0_25_7)">
<g filter="url(#filter0_d_25_7)">
<path d="M204.163 300.043L194.521 297.102V118.735L191.63 118.1L190.007 106.63L197.869 105.881V102.262L192.443 102.056V89.6858H190.273V86.5552H197.869V83.9509H196.784V76.431C196.784 76.431 189.741 77.2882 190.007 77.2285V68.1189L197.869 67.0121V62.4165L190.414 62.6878V61.3151L197.869 60.2354V52.6233L190.517 52.8945V51.511L197.869 50.4422V43.7903L196.513 44.0725V40.421C196.513 40.421 200.582 39.2057 202.752 38.9018V35.9883H205.291V11.7465H206.5V2.09808e-05L210 0V11.7465H211.053V35.9883H214.146V38.9073C214.146 38.9073 218.638 39.6777 219.919 40.4373V44.067L219.029 43.812V50.3445L226.321 51.5056V53.1658L219.029 52.6124V60.1595L226.218 61.3097V62.97L219.029 62.422V67.1803L225.811 68.1189V78.1075C225.811 78.1075 221.199 76.5666 220.114 76.6046V83.9455H219.029V86.5498H226.082V89.6804H223.739V102.051L219.029 102.3V106.131L225.811 106.625L224.428 118.094L221.742 118.751V297.173L204.163 300.043Z" fill="#D9D9D9" fill-opacity="0.4"/>
</g>
<path d="M251.988 38V29.945H249.243V28.22H256.788V29.945H254.043V38H251.988ZM262.274 38.18C261.404 38.18 260.634 37.975 259.964 37.565C259.304 37.155 258.789 36.57 258.419 35.81C258.049 35.04 257.864 34.125 257.864 33.065C257.864 32.005 258.049 31.1 258.419 30.35C258.789 29.6 259.304 29.03 259.964 28.64C260.634 28.24 261.404 28.04 262.274 28.04C263.144 28.04 263.909 28.24 264.569 28.64C265.229 29.03 265.744 29.6 266.114 30.35C266.484 31.1 266.669 32.005 266.669 33.065C266.669 34.125 266.484 35.04 266.114 35.81C265.744 36.57 265.229 37.155 264.569 37.565C263.909 37.975 263.144 38.18 262.274 38.18ZM262.274 36.395C262.734 36.395 263.134 36.26 263.474 35.99C263.824 35.72 264.089 35.335 264.269 34.835C264.459 34.335 264.554 33.745 264.554 33.065C264.554 32.385 264.459 31.805 264.269 31.325C264.089 30.835 263.824 30.46 263.474 30.2C263.134 29.94 262.734 29.81 262.274 29.81C261.804 29.81 261.394 29.94 261.044 30.2C260.704 30.46 260.439 30.835 260.249 31.325C260.069 31.805 259.979 32.385 259.979 33.065C259.979 33.745 260.069 34.335 260.249 34.835C260.439 35.335 260.704 35.72 261.044 35.99C261.394 36.26 261.804 36.395 262.274 36.395ZM268.554 38V28.22H272.004C272.694 28.22 273.319 28.31 273.879 28.49C274.439 28.67 274.884 28.98 275.214 29.42C275.554 29.86 275.724 30.46 275.724 31.22C275.724 31.95 275.554 32.55 275.214 33.02C274.884 33.48 274.439 33.825 273.879 34.055C273.319 34.275 272.694 34.385 272.004 34.385H270.609V38H268.554ZM273.864 38L271.629 33.83L273.069 32.54L276.174 38H273.864ZM270.609 32.735H271.824C272.434 32.735 272.899 32.61 273.219 32.36C273.539 32.1 273.699 31.72 273.699 31.22C273.699 30.71 273.539 30.355 273.219 30.155C272.899 29.955 272.434 29.855 271.824 29.855H270.609V32.735ZM277.651 38V28.22H281.101C281.791 28.22 282.416 28.31 282.976 28.49C283.536 28.67 283.981 28.98 284.311 29.42C284.651 29.86 284.821 30.46 284.821 31.22C284.821 31.95 284.651 32.55 284.311 33.02C283.981 33.48 283.536 33.825 282.976 34.055C282.416 34.275 281.791 34.385 281.101 34.385H279.706V38H277.651ZM282.961 38L280.726 33.83L282.166 32.54L285.271 38H282.961ZM279.706 32.735H280.921C281.531 32.735 281.996 32.61 282.316 32.36C282.636 32.1 282.796 31.72 282.796 31.22C282.796 30.71 282.636 30.355 282.316 30.155C281.996 29.955 281.531 29.855 280.921 29.855H279.706V32.735ZM286.748 38V28.22H292.808V29.945H288.803V32.075H292.208V33.815H288.803V36.275H292.958V38H286.748ZM297.924 38V28.22H303.984V29.945H299.979V32.075H303.384V33.815H299.979V36.275H304.134V38H297.924ZM306.098 38V28.22H308.213L310.913 33.29L311.903 35.42H311.963C311.913 34.9 311.853 34.33 311.783 33.71C311.723 33.09 311.693 32.495 311.693 31.925V28.22H313.658V38H311.543L308.843 32.915L307.853 30.8H307.793C307.843 31.32 307.898 31.885 307.958 32.495C308.028 33.105 308.063 33.695 308.063 34.265V38H306.098ZM317.965 38V29.945H315.22V28.22H322.765V29.945H320.02V38H317.965ZM324.321 38V28.22H330.381V29.945H326.376V32.075H329.781V33.815H326.376V36.275H330.531V38H324.321ZM332.495 38V28.22H334.55V36.275H338.48V38H332.495Z" fill="white"/>
<path d="M218.5 41.5H340.5" stroke="#BBECF9"/>
<circle r="1.5" transform="matrix(-1 0 0 1 218.5 41.5)" fill="white"/>
<path d="M171.176 292.15L178.908 276.959L178.571 162.749L177.144 153.39L178.539 147.829V138.062H182.744V139.69H185.863V138.062H193.73V139.69H196.443C196.308 139.148 196.118 138.062 196.443 138.062H200.241L200.377 147.829C200.599 149.717 201.006 151.583 201.598 153.39L200.241 162.206V276.959L208.244 292.15V299.611L206.752 300.018L201.326 297.034L201.435 298.932H199.943L201.435 301.103H177.665L178.75 298.932H177.529L177.643 297.034L173.732 300.018L171.154 299.611L171.176 292.15Z" fill="#B2B2B2"/>
<path d="M166.016 123.956L178.495 90.588C178.463 79.3461 178.495 60.1556 178.756 47.7255L170.221 45.6909V39.8529L185.223 18.9642C186.91 15.1174 188.592 12.1821 189.753 12.1821C190.915 12.1821 192.797 15.1011 194.599 18.9642L209.014 39.8529V46.0924L200.333 47.7201C200.534 58.8752 200.719 75.5753 200.719 90.5826L212.926 123.95V136.022L204.11 138.057H196.677V139.685H193.692V138.057H185.825V139.685H182.706V138.057H174.703L166.022 136.022L166.016 123.956Z" fill="#DADADA"/>
<path d="M178.501 90.588L166.022 123.956V136.028L174.703 138.062M178.501 90.588C178.468 79.3461 178.501 60.1556 178.761 47.7255M178.501 90.588L181.078 133.179L178.501 138.062M178.501 90.588L174.703 138.062M200.746 90.588L212.953 123.956V136.028L204.137 138.062M200.746 90.588C200.746 75.5753 200.561 58.8752 200.361 47.7255M200.746 90.588L198.44 133.179L200.203 138.062M200.746 90.588L204.137 138.062M174.703 138.062H178.501M178.501 138.062H182.841M178.501 138.062V147.693M178.88 276.959L171.149 292.15V299.611L173.726 300.018L177.638 297.033M178.88 276.959L177.638 297.033M178.88 276.959L178.55 164.105M200.176 276.959L208.179 292.15V299.611L206.687 300.018L201.261 297.033M200.176 276.959L201.261 297.033M200.176 276.959V164.105M200.176 138.062H204.11M200.176 138.062H196.481M200.176 138.062L200.22 147.693M185.228 18.9642C182.559 25.0463 179.895 33.4018 179.315 36.0549C179.065 37.1943 178.886 41.6542 178.772 47.72M185.239 18.9642C186.927 15.1174 188.609 12.1821 189.77 12.1821C190.931 12.1821 192.814 15.1011 194.615 18.9642M185.239 18.9642L170.237 39.8529V45.6854L178.772 47.72M194.615 18.9642C197.328 24.7479 199.916 32.6422 200.078 36.0549C200.165 37.9539 200.274 42.1479 200.371 47.72M194.615 18.9642L209.031 39.8529V46.0924L200.35 47.72M177.665 297.033L177.551 298.932H178.772M201.315 297.033L201.424 298.932H199.932M178.772 298.932L177.687 301.103H201.446L199.954 298.932M178.794 298.932H180.286M199.954 298.932H199.14M182.863 138.062C183.118 131.036 184.805 125.269 185.684 123.142V138.062M182.863 138.062C182.863 138.643 182.863 139.229 182.863 139.826H185.711V138.062M185.711 138.062H193.714M193.714 138.062V139.826H196.563C196.563 139.229 196.563 138.643 196.53 138.062M193.714 138.062V123.142C194.588 125.269 196.275 131.036 196.53 138.062M178.539 147.693H181.631L183.937 155.967L181.631 164.105H178.588M178.539 147.693L177.155 153.39L178.588 164.105M200.241 147.693H197.154L194.848 155.967L197.154 164.105H200.198M200.241 147.693L201.63 153.39L200.198 164.105M186.091 298.932L185.684 276.28L180.259 292.693V298.932M186.091 298.932L180.259 300.018V298.932M186.091 298.932H193.009M193.009 298.932L199.113 300.018V298.932M193.009 298.932L193.416 276.145L199.113 292.693V298.932M182.564 30.7649H197.078C195.673 25.7462 192.249 15.7359 189.753 15.8444C187.258 15.9529 183.926 25.8385 182.57 30.7649H182.564Z" stroke="#010101" stroke-width="0.5"/>
<path d="M166.016 123.956L178.495 90.588C178.463 79.3461 178.495 60.1556 178.756 47.7255L170.221 45.6909V39.8529L185.223 18.9642C186.91 15.1174 188.592 12.1821 189.753 12.1821C190.915 12.1821 192.797 15.1011 194.599 18.9642L209.014 39.8529V46.0924L200.333 47.72C200.534 58.8752 200.719 75.5753 200.719 90.5826L212.926 123.95V136.022L204.11 138.057H200.176V276.953L208.179 292.145V299.605L206.687 300.012L201.261 297.028L201.37 298.927H199.878L201.37 301.097H177.665L178.75 298.927H177.529L177.643 297.028L173.732 300.012L171.154 299.605V292.15L178.886 276.959L178.479 138.062H174.681L166 136.028L166.016 123.956Z" stroke="#010101" stroke-width="1.5"/>
<path d="M58.92 226V219.43H60.74C61.2267 219.43 61.6533 219.493 62.02 219.62C62.3867 219.74 62.67 219.94 62.87 220.22C63.0767 220.493 63.18 220.867 63.18 221.34C63.18 221.793 63.08 222.167 62.88 222.46C62.68 222.753 62.4 222.973 62.04 223.12C61.68 223.267 61.26 223.34 60.78 223.34H59.66V226H58.92ZM59.66 222.73H60.67C61.27 222.73 61.7133 222.62 62 222.4C62.2933 222.173 62.44 221.82 62.44 221.34C62.44 220.847 62.2867 220.507 61.98 220.32C61.68 220.127 61.23 220.03 60.63 220.03H59.66V222.73ZM64.4652 226V221.15H65.0652L65.1252 222.04H65.1552C65.3219 221.733 65.5219 221.49 65.7552 221.31C65.9952 221.123 66.2552 221.03 66.5352 221.03C66.6352 221.03 66.7252 221.04 66.8052 221.06C66.8852 221.073 66.9619 221.097 67.0352 221.13L66.8952 221.77C66.8152 221.743 66.7419 221.723 66.6752 221.71C66.6152 221.697 66.5352 221.69 66.4352 221.69C66.2286 221.69 66.0119 221.777 65.7852 221.95C65.5586 222.117 65.3586 222.413 65.1852 222.84V226H64.4652ZM69.7137 226.12C69.3203 226.12 68.9537 226.02 68.6137 225.82C68.2737 225.62 68.0003 225.333 67.7937 224.96C67.587 224.58 67.4837 224.12 67.4837 223.58C67.4837 223.04 67.587 222.58 67.7937 222.2C68.0003 221.82 68.2737 221.53 68.6137 221.33C68.9537 221.13 69.3203 221.03 69.7137 221.03C70.107 221.03 70.4703 221.13 70.8037 221.33C71.1437 221.53 71.417 221.82 71.6237 222.2C71.837 222.58 71.9437 223.04 71.9437 223.58C71.9437 224.12 71.837 224.58 71.6237 224.96C71.417 225.333 71.1437 225.62 70.8037 225.82C70.4703 226.02 70.107 226.12 69.7137 226.12ZM69.7137 225.51C70.007 225.51 70.2637 225.43 70.4837 225.27C70.7103 225.11 70.8837 224.887 71.0037 224.6C71.1303 224.307 71.1937 223.967 71.1937 223.58C71.1937 223.2 71.1303 222.863 71.0037 222.57C70.8837 222.277 70.7103 222.05 70.4837 221.89C70.2637 221.723 70.007 221.64 69.7137 221.64C69.427 221.64 69.1703 221.723 68.9437 221.89C68.7237 222.05 68.5503 222.277 68.4237 222.57C68.3037 222.863 68.2437 223.2 68.2437 223.58C68.2437 223.967 68.3037 224.307 68.4237 224.6C68.5503 224.887 68.7237 225.11 68.9437 225.27C69.1703 225.43 69.427 225.51 69.7137 225.51ZM73.2641 228.08V221.15H73.8641L73.9241 221.73H73.9541C74.1741 221.537 74.4174 221.373 74.6841 221.24C74.9574 221.1 75.2374 221.03 75.5241 221.03C75.9441 221.03 76.2974 221.133 76.5841 221.34C76.8707 221.54 77.0841 221.827 77.2241 222.2C77.3707 222.567 77.4441 223 77.4441 223.5C77.4441 224.053 77.3441 224.527 77.1441 224.92C76.9507 225.307 76.6941 225.603 76.3741 225.81C76.0541 226.017 75.7107 226.12 75.3441 226.12C75.1241 226.12 74.8974 226.07 74.6641 225.97C74.4307 225.87 74.1974 225.73 73.9641 225.55L73.9841 226.41V228.08H73.2641ZM75.2241 225.5C75.5107 225.5 75.7641 225.42 75.9841 225.26C76.2041 225.1 76.3774 224.87 76.5041 224.57C76.6307 224.27 76.6941 223.917 76.6941 223.51C76.6941 223.143 76.6474 222.82 76.5541 222.54C76.4674 222.26 76.3241 222.043 76.1241 221.89C75.9307 221.73 75.6741 221.65 75.3541 221.65C75.1407 221.65 74.9207 221.71 74.6941 221.83C74.4741 221.943 74.2374 222.117 73.9841 222.35V224.97C74.2241 225.163 74.4507 225.3 74.6641 225.38C74.8774 225.46 75.0641 225.5 75.2241 225.5ZM80.1816 226.12C79.6816 226.12 79.3116 225.96 79.0716 225.64C78.8316 225.32 78.7116 224.85 78.7116 224.23V221.15H79.4316V224.14C79.4316 224.607 79.5083 224.95 79.6616 225.17C79.815 225.383 80.0616 225.49 80.4016 225.49C80.655 225.49 80.885 225.423 81.0916 225.29C81.2983 225.15 81.5216 224.93 81.7616 224.63V221.15H82.4916V226H81.8816L81.8216 225.23H81.7916C81.565 225.497 81.325 225.713 81.0716 225.88C80.8183 226.04 80.5216 226.12 80.1816 226.12ZM84.972 226.12C84.792 226.12 84.642 226.08 84.522 226C84.402 225.927 84.3154 225.817 84.262 225.67C84.2087 225.517 84.182 225.33 84.182 225.11V218.86H84.902V225.17C84.902 225.29 84.9254 225.377 84.972 225.43C85.0187 225.483 85.072 225.51 85.132 225.51C85.152 225.51 85.1754 225.51 85.202 225.51C85.2287 225.503 85.2654 225.497 85.312 225.49L85.412 226.05C85.3587 226.063 85.2954 226.077 85.222 226.09C85.1554 226.11 85.072 226.12 84.972 226.12ZM87.922 226.12C87.5754 226.12 87.2454 226.057 86.932 225.93C86.6187 225.797 86.3487 225.637 86.122 225.45L86.492 224.96C86.7054 225.127 86.9254 225.267 87.152 225.38C87.3787 225.493 87.6454 225.55 87.952 225.55C88.2854 225.55 88.5354 225.47 88.702 225.31C88.8687 225.15 88.952 224.96 88.952 224.74C88.952 224.567 88.8954 224.423 88.782 224.31C88.6687 224.19 88.5254 224.09 88.352 224.01C88.1787 223.923 88.002 223.847 87.822 223.78C87.5954 223.7 87.3687 223.603 87.142 223.49C86.9154 223.377 86.7254 223.233 86.572 223.06C86.4254 222.887 86.352 222.663 86.352 222.39C86.352 222.01 86.4954 221.69 86.782 221.43C87.0754 221.163 87.482 221.03 88.002 221.03C88.2954 221.03 88.5687 221.083 88.822 221.19C89.0754 221.297 89.292 221.423 89.472 221.57L89.122 222.04C88.9554 221.92 88.782 221.82 88.602 221.74C88.4287 221.653 88.2287 221.61 88.002 221.61C87.682 221.61 87.4454 221.687 87.292 221.84C87.1387 221.987 87.062 222.157 87.062 222.35C87.062 222.51 87.112 222.643 87.212 222.75C87.3187 222.85 87.4554 222.937 87.622 223.01C87.7887 223.083 87.9654 223.157 88.152 223.23C88.392 223.317 88.6254 223.417 88.852 223.53C89.0854 223.637 89.2787 223.78 89.432 223.96C89.5854 224.14 89.662 224.387 89.662 224.7C89.662 224.953 89.5954 225.19 89.462 225.41C89.3287 225.623 89.132 225.797 88.872 225.93C88.612 226.057 88.2954 226.12 87.922 226.12ZM92.6922 226.12C92.2989 226.12 91.9322 226.02 91.5922 225.82C91.2522 225.62 90.9789 225.333 90.7722 224.96C90.5655 224.58 90.4622 224.12 90.4622 223.58C90.4622 223.04 90.5655 222.58 90.7722 222.2C90.9789 221.82 91.2522 221.53 91.5922 221.33C91.9322 221.13 92.2989 221.03 92.6922 221.03C93.0855 221.03 93.4489 221.13 93.7822 221.33C94.1222 221.53 94.3955 221.82 94.6022 222.2C94.8155 222.58 94.9222 223.04 94.9222 223.58C94.9222 224.12 94.8155 224.58 94.6022 224.96C94.3955 225.333 94.1222 225.62 93.7822 225.82C93.4489 226.02 93.0855 226.12 92.6922 226.12ZM92.6922 225.51C92.9855 225.51 93.2422 225.43 93.4622 225.27C93.6889 225.11 93.8622 224.887 93.9822 224.6C94.1089 224.307 94.1722 223.967 94.1722 223.58C94.1722 223.2 94.1089 222.863 93.9822 222.57C93.8622 222.277 93.6889 222.05 93.4622 221.89C93.2422 221.723 92.9855 221.64 92.6922 221.64C92.4055 221.64 92.1489 221.723 91.9222 221.89C91.7022 222.05 91.5289 222.277 91.4022 222.57C91.2822 222.863 91.2222 223.2 91.2222 223.58C91.2222 223.967 91.2822 224.307 91.4022 224.6C91.5289 224.887 91.7022 225.11 91.9222 225.27C92.1489 225.43 92.4055 225.51 92.6922 225.51ZM96.2426 226V221.15H96.8426L96.9026 222.04H96.9326C97.0992 221.733 97.2992 221.49 97.5326 221.31C97.7726 221.123 98.0326 221.03 98.3126 221.03C98.4126 221.03 98.5026 221.04 98.5826 221.06C98.6626 221.073 98.7392 221.097 98.8126 221.13L98.6726 221.77C98.5926 221.743 98.5192 221.723 98.4526 221.71C98.3926 221.697 98.3126 221.69 98.2126 221.69C98.0059 221.69 97.7892 221.777 97.5626 221.95C97.3359 222.117 97.1359 222.413 96.9626 222.84V226H96.2426ZM103.273 226.12C102.666 226.12 102.183 225.9 101.823 225.46C101.463 225.013 101.283 224.387 101.283 223.58C101.283 223.06 101.38 222.61 101.573 222.23C101.773 221.85 102.033 221.557 102.353 221.35C102.673 221.137 103.02 221.03 103.393 221.03C103.68 221.03 103.926 221.08 104.133 221.18C104.34 221.28 104.553 221.42 104.773 221.6L104.743 220.76V218.86H105.463V226H104.863L104.803 225.41H104.773C104.586 225.603 104.363 225.77 104.103 225.91C103.85 226.05 103.573 226.12 103.273 226.12ZM103.433 225.5C103.666 225.5 103.89 225.443 104.103 225.33C104.316 225.21 104.53 225.037 104.743 224.81V222.18C104.523 221.987 104.313 221.85 104.113 221.77C103.913 221.69 103.71 221.65 103.503 221.65C103.23 221.65 102.98 221.733 102.753 221.9C102.533 222.06 102.356 222.287 102.223 222.58C102.096 222.867 102.033 223.2 102.033 223.58C102.033 224.173 102.153 224.643 102.393 224.99C102.64 225.33 102.986 225.5 103.433 225.5ZM109.081 226.12C108.661 226.12 108.274 226.02 107.921 225.82C107.574 225.613 107.297 225.323 107.091 224.95C106.884 224.57 106.781 224.113 106.781 223.58C106.781 223.053 106.884 222.6 107.091 222.22C107.297 221.84 107.564 221.547 107.891 221.34C108.224 221.133 108.577 221.03 108.951 221.03C109.351 221.03 109.694 221.123 109.981 221.31C110.267 221.497 110.484 221.76 110.631 222.1C110.784 222.433 110.861 222.833 110.861 223.3C110.861 223.38 110.857 223.46 110.851 223.54C110.851 223.613 110.844 223.68 110.831 223.74H107.351L107.341 223.21H110.211C110.211 222.69 110.101 222.297 109.881 222.03C109.661 221.757 109.354 221.62 108.961 221.62C108.721 221.62 108.487 221.69 108.261 221.83C108.034 221.97 107.847 222.183 107.701 222.47C107.554 222.757 107.481 223.127 107.481 223.58C107.481 224.013 107.557 224.373 107.711 224.66C107.864 224.947 108.067 225.163 108.321 225.31C108.581 225.457 108.864 225.53 109.171 225.53C109.417 225.53 109.637 225.493 109.831 225.42C110.031 225.347 110.221 225.253 110.401 225.14L110.671 225.62C110.464 225.753 110.231 225.87 109.971 225.97C109.717 226.07 109.421 226.12 109.081 226.12ZM114.874 226.12C114.694 226.12 114.544 226.08 114.424 226C114.304 225.927 114.218 225.817 114.164 225.67C114.111 225.517 114.084 225.33 114.084 225.11V218.86H114.804V225.17C114.804 225.29 114.828 225.377 114.874 225.43C114.921 225.483 114.974 225.51 115.034 225.51C115.054 225.51 115.078 225.51 115.104 225.51C115.131 225.503 115.168 225.497 115.214 225.49L115.314 226.05C115.261 226.063 115.198 226.077 115.124 226.09C115.058 226.11 114.974 226.12 114.874 226.12ZM117.684 226.12C117.418 226.12 117.178 226.067 116.964 225.96C116.751 225.853 116.581 225.7 116.454 225.5C116.328 225.293 116.264 225.043 116.264 224.75C116.264 224.223 116.504 223.82 116.984 223.54C117.471 223.253 118.238 223.053 119.284 222.94C119.284 222.72 119.254 222.51 119.194 222.31C119.141 222.11 119.038 221.95 118.884 221.83C118.738 221.703 118.524 221.64 118.244 221.64C117.951 221.64 117.678 221.697 117.424 221.81C117.178 221.923 116.961 222.043 116.774 222.17L116.484 221.67C116.624 221.577 116.791 221.48 116.984 221.38C117.178 221.28 117.391 221.197 117.624 221.13C117.858 221.063 118.104 221.03 118.364 221.03C118.758 221.03 119.074 221.113 119.314 221.28C119.554 221.447 119.728 221.677 119.834 221.97C119.948 222.263 120.004 222.607 120.004 223V226H119.404L119.344 225.41H119.314C119.081 225.603 118.828 225.77 118.554 225.91C118.281 226.05 117.991 226.12 117.684 226.12ZM117.874 225.53C118.128 225.53 118.361 225.473 118.574 225.36C118.794 225.24 119.031 225.07 119.284 224.85V223.43C118.711 223.497 118.258 223.59 117.924 223.71C117.591 223.823 117.351 223.963 117.204 224.13C117.058 224.297 116.984 224.49 116.984 224.71C116.984 224.997 117.071 225.207 117.244 225.34C117.424 225.467 117.634 225.53 117.874 225.53ZM121.594 226V221.15H122.194L122.254 221.87H122.284C122.517 221.63 122.764 221.43 123.024 221.27C123.291 221.11 123.587 221.03 123.914 221.03C124.427 221.03 124.801 221.19 125.034 221.51C125.274 221.83 125.394 222.3 125.394 222.92V226H124.664V223.01C124.664 222.543 124.587 222.203 124.434 221.99C124.287 221.777 124.044 221.67 123.704 221.67C123.451 221.67 123.221 221.737 123.014 221.87C122.807 221.997 122.574 222.19 122.314 222.45V226H121.594ZM126.474 226V225.61L129.104 221.75H126.764V221.15H130.024V221.54L127.394 225.4H130.114V226H126.474ZM132.313 226.12C132.047 226.12 131.807 226.067 131.593 225.96C131.38 225.853 131.21 225.7 131.083 225.5C130.957 225.293 130.893 225.043 130.893 224.75C130.893 224.223 131.133 223.82 131.613 223.54C132.1 223.253 132.867 223.053 133.913 222.94C133.913 222.72 133.883 222.51 133.823 222.31C133.77 222.11 133.667 221.95 133.513 221.83C133.367 221.703 133.153 221.64 132.873 221.64C132.58 221.64 132.307 221.697 132.053 221.81C131.807 221.923 131.59 222.043 131.403 222.17L131.113 221.67C131.253 221.577 131.42 221.48 131.613 221.38C131.807 221.28 132.02 221.197 132.253 221.13C132.487 221.063 132.733 221.03 132.993 221.03C133.387 221.03 133.703 221.113 133.943 221.28C134.183 221.447 134.357 221.677 134.463 221.97C134.577 222.263 134.633 222.607 134.633 223V226H134.033L133.973 225.41H133.943C133.71 225.603 133.457 225.77 133.183 225.91C132.91 226.05 132.62 226.12 132.313 226.12ZM132.503 225.53C132.757 225.53 132.99 225.473 133.203 225.36C133.423 225.24 133.66 225.07 133.913 224.85V223.43C133.34 223.497 132.887 223.59 132.553 223.71C132.22 223.823 131.98 223.963 131.833 224.13C131.687 224.297 131.613 224.49 131.613 224.71C131.613 224.997 131.7 225.207 131.873 225.34C132.053 225.467 132.263 225.53 132.503 225.53ZM136.223 226V221.15H136.823L136.883 221.87H136.913C137.126 221.637 137.36 221.44 137.613 221.28C137.873 221.113 138.143 221.03 138.423 221.03C138.803 221.03 139.096 221.117 139.303 221.29C139.516 221.457 139.67 221.683 139.763 221.97C140.023 221.69 140.283 221.463 140.543 221.29C140.81 221.117 141.086 221.03 141.373 221.03C141.873 221.03 142.243 221.19 142.483 221.51C142.723 221.83 142.843 222.3 142.843 222.92V226H142.113V223.01C142.113 222.543 142.036 222.203 141.883 221.99C141.73 221.777 141.49 221.67 141.163 221.67C140.97 221.67 140.766 221.737 140.553 221.87C140.346 221.997 140.126 222.19 139.893 222.45V226H139.163V223.01C139.163 222.543 139.086 222.203 138.933 221.99C138.786 221.777 138.55 221.67 138.223 221.67C137.836 221.67 137.41 221.93 136.943 222.45V226H136.223ZM144.475 226V221.15H145.195V226H144.475ZM144.845 220.11C144.705 220.11 144.585 220.063 144.485 219.97C144.392 219.877 144.345 219.753 144.345 219.6C144.345 219.453 144.392 219.337 144.485 219.25C144.585 219.157 144.705 219.11 144.845 219.11C144.992 219.11 145.112 219.157 145.205 219.25C145.298 219.337 145.345 219.453 145.345 219.6C145.345 219.753 145.298 219.877 145.205 219.97C145.112 220.063 144.992 220.11 144.845 220.11ZM148.817 226.12C148.397 226.12 148.01 226.02 147.657 225.82C147.31 225.613 147.034 225.323 146.827 224.95C146.62 224.57 146.517 224.113 146.517 223.58C146.517 223.053 146.62 222.6 146.827 222.22C147.034 221.84 147.3 221.547 147.627 221.34C147.96 221.133 148.314 221.03 148.687 221.03C149.087 221.03 149.43 221.123 149.717 221.31C150.004 221.497 150.22 221.76 150.367 222.1C150.52 222.433 150.597 222.833 150.597 223.3C150.597 223.38 150.594 223.46 150.587 223.54C150.587 223.613 150.58 223.68 150.567 223.74H147.087L147.077 223.21H149.947C149.947 222.69 149.837 222.297 149.617 222.03C149.397 221.757 149.09 221.62 148.697 221.62C148.457 221.62 148.224 221.69 147.997 221.83C147.77 221.97 147.584 222.183 147.437 222.47C147.29 222.757 147.217 223.127 147.217 223.58C147.217 224.013 147.294 224.373 147.447 224.66C147.6 224.947 147.804 225.163 148.057 225.31C148.317 225.457 148.6 225.53 148.907 225.53C149.154 225.53 149.374 225.493 149.567 225.42C149.767 225.347 149.957 225.253 150.137 225.14L150.407 225.62C150.2 225.753 149.967 225.87 149.707 225.97C149.454 226.07 149.157 226.12 148.817 226.12ZM151.819 226V221.15H152.419L152.479 221.87H152.509C152.742 221.63 152.989 221.43 153.249 221.27C153.515 221.11 153.812 221.03 154.139 221.03C154.652 221.03 155.025 221.19 155.259 221.51C155.499 221.83 155.619 222.3 155.619 222.92V226H154.889V223.01C154.889 222.543 154.812 222.203 154.659 221.99C154.512 221.777 154.269 221.67 153.929 221.67C153.675 221.67 153.445 221.737 153.239 221.87C153.032 221.997 152.799 222.19 152.539 222.45V226H151.819ZM158.718 226.12C158.218 226.12 157.868 225.973 157.668 225.68C157.475 225.387 157.378 225.007 157.378 224.54V221.75H156.648V221.2L157.408 221.15L157.498 219.78H158.108V221.15H159.438V221.75H158.108V224.56C158.108 224.86 158.162 225.097 158.268 225.27C158.382 225.437 158.585 225.52 158.878 225.52C158.965 225.52 159.058 225.507 159.158 225.48C159.265 225.453 159.358 225.423 159.438 225.39L159.588 225.94C159.455 225.987 159.312 226.027 159.158 226.06C159.005 226.1 158.858 226.12 158.718 226.12ZM162.409 226.12C162.016 226.12 161.649 226.02 161.309 225.82C160.969 225.62 160.696 225.333 160.489 224.96C160.282 224.58 160.179 224.12 160.179 223.58C160.179 223.04 160.282 222.58 160.489 222.2C160.696 221.82 160.969 221.53 161.309 221.33C161.649 221.13 162.016 221.03 162.409 221.03C162.802 221.03 163.166 221.13 163.499 221.33C163.839 221.53 164.112 221.82 164.319 222.2C164.532 222.58 164.639 223.04 164.639 223.58C164.639 224.12 164.532 224.58 164.319 224.96C164.112 225.333 163.839 225.62 163.499 225.82C163.166 226.02 162.802 226.12 162.409 226.12ZM162.409 225.51C162.702 225.51 162.959 225.43 163.179 225.27C163.406 225.11 163.579 224.887 163.699 224.6C163.826 224.307 163.889 223.967 163.889 223.58C163.889 223.2 163.826 222.863 163.699 222.57C163.579 222.277 163.406 222.05 163.179 221.89C162.959 221.723 162.702 221.64 162.409 221.64C162.122 221.64 161.866 221.723 161.639 221.89C161.419 222.05 161.246 222.277 161.119 222.57C160.999 222.863 160.939 223.2 160.939 223.58C160.939 223.967 160.999 224.307 161.119 224.6C161.246 224.887 161.419 225.11 161.639 225.27C161.866 225.43 162.122 225.51 162.409 225.51ZM58.85 241.08V234.15H59.45L59.51 234.73H59.54C59.76 234.537 60.0033 234.373 60.27 234.24C60.5433 234.1 60.8233 234.03 61.11 234.03C61.53 234.03 61.8833 234.133 62.17 234.34C62.4567 234.54 62.67 234.827 62.81 235.2C62.9567 235.567 63.03 236 63.03 236.5C63.03 237.053 62.93 237.527 62.73 237.92C62.5367 238.307 62.28 238.603 61.96 238.81C61.64 239.017 61.2967 239.12 60.93 239.12C60.71 239.12 60.4833 239.07 60.25 238.97C60.0167 238.87 59.7833 238.73 59.55 238.55L59.57 239.41V241.08H58.85ZM60.81 238.5C61.0967 238.5 61.35 238.42 61.57 238.26C61.79 238.1 61.9633 237.87 62.09 237.57C62.2167 237.27 62.28 236.917 62.28 236.51C62.28 236.143 62.2333 235.82 62.14 235.54C62.0533 235.26 61.91 235.043 61.71 234.89C61.5167 234.73 61.26 234.65 60.94 234.65C60.7267 234.65 60.5067 234.71 60.28 234.83C60.06 234.943 59.8233 235.117 59.57 235.35V237.97C59.81 238.163 60.0367 238.3 60.25 238.38C60.4633 238.46 60.65 238.5 60.81 238.5ZM66.2176 239.12C65.8242 239.12 65.4576 239.02 65.1176 238.82C64.7776 238.62 64.5042 238.333 64.2976 237.96C64.0909 237.58 63.9876 237.12 63.9876 236.58C63.9876 236.04 64.0909 235.58 64.2976 235.2C64.5042 234.82 64.7776 234.53 65.1176 234.33C65.4576 234.13 65.8242 234.03 66.2176 234.03C66.6109 234.03 66.9742 234.13 67.3076 234.33C67.6476 234.53 67.9209 234.82 68.1276 235.2C68.3409 235.58 68.4476 236.04 68.4476 236.58C68.4476 237.12 68.3409 237.58 68.1276 237.96C67.9209 238.333 67.6476 238.62 67.3076 238.82C66.9742 239.02 66.6109 239.12 66.2176 239.12ZM66.2176 238.51C66.5109 238.51 66.7676 238.43 66.9876 238.27C67.2142 238.11 67.3876 237.887 67.5076 237.6C67.6342 237.307 67.6976 236.967 67.6976 236.58C67.6976 236.2 67.6342 235.863 67.5076 235.57C67.3876 235.277 67.2142 235.05 66.9876 234.89C66.7676 234.723 66.5109 234.64 66.2176 234.64C65.9309 234.64 65.6742 234.723 65.4476 234.89C65.2276 235.05 65.0542 235.277 64.9276 235.57C64.8076 235.863 64.7476 236.2 64.7476 236.58C64.7476 236.967 64.8076 237.307 64.9276 237.6C65.0542 237.887 65.2276 238.11 65.4476 238.27C65.6742 238.43 65.9309 238.51 66.2176 238.51ZM71.238 239.12C70.738 239.12 70.388 238.973 70.188 238.68C69.9946 238.387 69.898 238.007 69.898 237.54V234.75H69.168V234.2L69.928 234.15L70.018 232.78H70.628V234.15H71.958V234.75H70.628V237.56C70.628 237.86 70.6813 238.097 70.788 238.27C70.9013 238.437 71.1046 238.52 71.398 238.52C71.4846 238.52 71.578 238.507 71.678 238.48C71.7846 238.453 71.878 238.423 71.958 238.39L72.108 238.94C71.9746 238.987 71.8313 239.027 71.678 239.06C71.5246 239.1 71.378 239.12 71.238 239.12ZM74.9985 239.12C74.5785 239.12 74.1918 239.02 73.8385 238.82C73.4918 238.613 73.2152 238.323 73.0085 237.95C72.8018 237.57 72.6985 237.113 72.6985 236.58C72.6985 236.053 72.8018 235.6 73.0085 235.22C73.2152 234.84 73.4818 234.547 73.8085 234.34C74.1418 234.133 74.4952 234.03 74.8685 234.03C75.2685 234.03 75.6118 234.123 75.8985 234.31C76.1852 234.497 76.4018 234.76 76.5485 235.1C76.7018 235.433 76.7785 235.833 76.7785 236.3C76.7785 236.38 76.7752 236.46 76.7685 236.54C76.7685 236.613 76.7618 236.68 76.7485 236.74H73.2685L73.2585 236.21H76.1285C76.1285 235.69 76.0185 235.297 75.7985 235.03C75.5785 234.757 75.2718 234.62 74.8785 234.62C74.6385 234.62 74.4052 234.69 74.1785 234.83C73.9518 234.97 73.7652 235.183 73.6185 235.47C73.4718 235.757 73.3985 236.127 73.3985 236.58C73.3985 237.013 73.4752 237.373 73.6285 237.66C73.7818 237.947 73.9852 238.163 74.2385 238.31C74.4985 238.457 74.7818 238.53 75.0885 238.53C75.3352 238.53 75.5552 238.493 75.7485 238.42C75.9485 238.347 76.1385 238.253 76.3185 238.14L76.5885 238.62C76.3818 238.753 76.1485 238.87 75.8885 238.97C75.6352 239.07 75.3385 239.12 74.9985 239.12ZM78.0004 239V234.15H78.6004L78.6604 234.87H78.6904C78.9237 234.63 79.1704 234.43 79.4304 234.27C79.6971 234.11 79.9937 234.03 80.3204 234.03C80.8337 234.03 81.2071 234.19 81.4404 234.51C81.6804 234.83 81.8004 235.3 81.8004 235.92V239H81.0704V236.01C81.0704 235.543 80.9937 235.203 80.8404 234.99C80.6937 234.777 80.4504 234.67 80.1104 234.67C79.8571 234.67 79.6271 234.737 79.4204 234.87C79.2137 234.997 78.9804 235.19 78.7204 235.45V239H78.0004ZM85.3101 239.12C84.8834 239.12 84.5001 239.02 84.1601 238.82C83.8201 238.62 83.5501 238.333 83.3501 237.96C83.1501 237.58 83.0501 237.12 83.0501 236.58C83.0501 236.04 83.1567 235.58 83.3701 235.2C83.5901 234.82 83.8734 234.53 84.2201 234.33C84.5667 234.13 84.9467 234.03 85.3601 234.03C85.6801 234.03 85.9534 234.09 86.1801 234.21C86.4067 234.323 86.6034 234.457 86.7701 234.61L86.3901 235.09C86.2501 234.957 86.0967 234.85 85.9301 234.77C85.7701 234.683 85.5901 234.64 85.3901 234.64C85.0834 234.64 84.8101 234.723 84.5701 234.89C84.3367 235.05 84.1501 235.277 84.0101 235.57C83.8767 235.863 83.8101 236.2 83.8101 236.58C83.8101 236.967 83.8734 237.307 84.0001 237.6C84.1334 237.887 84.3167 238.11 84.5501 238.27C84.7834 238.43 85.0567 238.51 85.3701 238.51C85.6034 238.51 85.8201 238.46 86.0201 238.36C86.2201 238.26 86.3967 238.143 86.5501 238.01L86.8701 238.5C86.6567 238.693 86.4167 238.847 86.1501 238.96C85.8834 239.067 85.6034 239.12 85.3101 239.12ZM87.9711 239V234.15H88.6911V239H87.9711ZM88.3411 233.11C88.2011 233.11 88.0811 233.063 87.9811 232.97C87.8878 232.877 87.8411 232.753 87.8411 232.6C87.8411 232.453 87.8878 232.337 87.9811 232.25C88.0811 232.157 88.2011 232.11 88.3411 232.11C88.4878 232.11 88.6078 232.157 88.7011 232.25C88.7944 232.337 88.8411 232.453 88.8411 232.6C88.8411 232.753 88.7944 232.877 88.7011 232.97C88.6078 233.063 88.4878 233.11 88.3411 233.11ZM91.493 239.12C91.2263 239.12 90.9863 239.067 90.773 238.96C90.5596 238.853 90.3896 238.7 90.263 238.5C90.1363 238.293 90.073 238.043 90.073 237.75C90.073 237.223 90.313 236.82 90.793 236.54C91.2796 236.253 92.0463 236.053 93.093 235.94C93.093 235.72 93.063 235.51 93.003 235.31C92.9496 235.11 92.8463 234.95 92.693 234.83C92.5463 234.703 92.333 234.64 92.053 234.64C91.7596 234.64 91.4863 234.697 91.233 234.81C90.9863 234.923 90.7696 235.043 90.583 235.17L90.293 234.67C90.433 234.577 90.5996 234.48 90.793 234.38C90.9863 234.28 91.1996 234.197 91.433 234.13C91.6663 234.063 91.913 234.03 92.173 234.03C92.5663 234.03 92.883 234.113 93.123 234.28C93.363 234.447 93.5363 234.677 93.643 234.97C93.7563 235.263 93.813 235.607 93.813 236V239H93.213L93.153 238.41H93.123C92.8896 238.603 92.6363 238.77 92.363 238.91C92.0896 239.05 91.7996 239.12 91.493 239.12ZM91.683 238.53C91.9363 238.53 92.1696 238.473 92.383 238.36C92.603 238.24 92.8396 238.07 93.093 237.85V236.43C92.5196 236.497 92.0663 236.59 91.733 236.71C91.3996 236.823 91.1596 236.963 91.013 237.13C90.8663 237.297 90.793 237.49 90.793 237.71C90.793 237.997 90.8796 238.207 91.053 238.34C91.233 238.467 91.443 238.53 91.683 238.53ZM97.0327 239.12C96.4261 239.12 95.9427 238.9 95.5827 238.46C95.2227 238.013 95.0427 237.387 95.0427 236.58C95.0427 236.06 95.1394 235.61 95.3327 235.23C95.5327 234.85 95.7927 234.557 96.1127 234.35C96.4327 234.137 96.7794 234.03 97.1527 234.03C97.4394 234.03 97.6861 234.08 97.8927 234.18C98.0994 234.28 98.3127 234.42 98.5327 234.6L98.5027 233.76V231.86H99.2227V239H98.6227L98.5627 238.41H98.5327C98.3461 238.603 98.1227 238.77 97.8627 238.91C97.6094 239.05 97.3327 239.12 97.0327 239.12ZM97.1927 238.5C97.4261 238.5 97.6494 238.443 97.8627 238.33C98.0761 238.21 98.2894 238.037 98.5027 237.81V235.18C98.2827 234.987 98.0727 234.85 97.8727 234.77C97.6727 234.69 97.4694 234.65 97.2627 234.65C96.9894 234.65 96.7394 234.733 96.5127 234.9C96.2927 235.06 96.1161 235.287 95.9827 235.58C95.8561 235.867 95.7927 236.2 95.7927 236.58C95.7927 237.173 95.9127 237.643 96.1527 237.99C96.3994 238.33 96.7461 238.5 97.1927 238.5ZM102.77 239.12C102.377 239.12 102.01 239.02 101.67 238.82C101.33 238.62 101.057 238.333 100.85 237.96C100.644 237.58 100.54 237.12 100.54 236.58C100.54 236.04 100.644 235.58 100.85 235.2C101.057 234.82 101.33 234.53 101.67 234.33C102.01 234.13 102.377 234.03 102.77 234.03C103.164 234.03 103.527 234.13 103.86 234.33C104.2 234.53 104.474 234.82 104.68 235.2C104.894 235.58 105 236.04 105 236.58C105 237.12 104.894 237.58 104.68 237.96C104.474 238.333 104.2 238.62 103.86 238.82C103.527 239.02 103.164 239.12 102.77 239.12ZM102.77 238.51C103.064 238.51 103.32 238.43 103.54 238.27C103.767 238.11 103.94 237.887 104.06 237.6C104.187 237.307 104.25 236.967 104.25 236.58C104.25 236.2 104.187 235.863 104.06 235.57C103.94 235.277 103.767 235.05 103.54 234.89C103.32 234.723 103.064 234.64 102.77 234.64C102.484 234.64 102.227 234.723 102 234.89C101.78 235.05 101.607 235.277 101.48 235.57C101.36 235.863 101.3 236.2 101.3 236.58C101.3 236.967 101.36 237.307 101.48 237.6C101.607 237.887 101.78 238.11 102 238.27C102.227 238.43 102.484 238.51 102.77 238.51ZM108.323 241.08V234.15H108.923L108.983 234.73H109.013C109.233 234.537 109.476 234.373 109.743 234.24C110.016 234.1 110.296 234.03 110.583 234.03C111.003 234.03 111.356 234.133 111.643 234.34C111.929 234.54 112.143 234.827 112.283 235.2C112.429 235.567 112.503 236 112.503 236.5C112.503 237.053 112.403 237.527 112.203 237.92C112.009 238.307 111.753 238.603 111.433 238.81C111.113 239.017 110.769 239.12 110.403 239.12C110.183 239.12 109.956 239.07 109.723 238.97C109.489 238.87 109.256 238.73 109.023 238.55L109.043 239.41V241.08H108.323ZM110.283 238.5C110.569 238.5 110.823 238.42 111.043 238.26C111.263 238.1 111.436 237.87 111.563 237.57C111.689 237.27 111.753 236.917 111.753 236.51C111.753 236.143 111.706 235.82 111.613 235.54C111.526 235.26 111.383 235.043 111.183 234.89C110.989 234.73 110.733 234.65 110.413 234.65C110.199 234.65 109.979 234.71 109.753 234.83C109.533 234.943 109.296 235.117 109.043 235.35V237.97C109.283 238.163 109.509 238.3 109.723 238.38C109.936 238.46 110.123 238.5 110.283 238.5ZM115.69 239.12C115.297 239.12 114.93 239.02 114.59 238.82C114.25 238.62 113.977 238.333 113.77 237.96C113.564 237.58 113.46 237.12 113.46 236.58C113.46 236.04 113.564 235.58 113.77 235.2C113.977 234.82 114.25 234.53 114.59 234.33C114.93 234.13 115.297 234.03 115.69 234.03C116.084 234.03 116.447 234.13 116.78 234.33C117.12 234.53 117.394 234.82 117.6 235.2C117.814 235.58 117.92 236.04 117.92 236.58C117.92 237.12 117.814 237.58 117.6 237.96C117.394 238.333 117.12 238.62 116.78 238.82C116.447 239.02 116.084 239.12 115.69 239.12ZM115.69 238.51C115.984 238.51 116.24 238.43 116.46 238.27C116.687 238.11 116.86 237.887 116.98 237.6C117.107 237.307 117.17 236.967 117.17 236.58C117.17 236.2 117.107 235.863 116.98 235.57C116.86 235.277 116.687 235.05 116.46 234.89C116.24 234.723 115.984 234.64 115.69 234.64C115.404 234.64 115.147 234.723 114.92 234.89C114.7 235.05 114.527 235.277 114.4 235.57C114.28 235.863 114.22 236.2 114.22 236.58C114.22 236.967 114.28 237.307 114.4 237.6C114.527 237.887 114.7 238.11 114.92 238.27C115.147 238.43 115.404 238.51 115.69 238.51ZM119.241 239V234.15H119.841L119.901 235.04H119.931C120.097 234.733 120.297 234.49 120.531 234.31C120.771 234.123 121.031 234.03 121.311 234.03C121.411 234.03 121.501 234.04 121.581 234.06C121.661 234.073 121.737 234.097 121.811 234.13L121.671 234.77C121.591 234.743 121.517 234.723 121.451 234.71C121.391 234.697 121.311 234.69 121.211 234.69C121.004 234.69 120.787 234.777 120.561 234.95C120.334 235.117 120.134 235.413 119.961 235.84V239H119.241ZM126.141 239.12C125.801 239.12 125.501 239.077 125.241 238.99C124.981 238.903 124.754 238.793 124.561 238.66C124.368 238.52 124.201 238.373 124.061 238.22L124.431 237.74C124.624 237.94 124.851 238.12 125.111 238.28C125.378 238.433 125.708 238.51 126.101 238.51C126.501 238.51 126.828 238.4 127.081 238.18C127.341 237.953 127.471 237.653 127.471 237.28C127.471 237.02 127.401 236.79 127.261 236.59C127.128 236.39 126.908 236.237 126.601 236.13C126.301 236.017 125.894 235.96 125.381 235.96V235.39C125.841 235.39 126.204 235.337 126.471 235.23C126.744 235.117 126.941 234.967 127.061 234.78C127.181 234.593 127.241 234.383 127.241 234.15C127.241 233.83 127.138 233.577 126.931 233.39C126.724 233.197 126.444 233.1 126.091 233.1C125.818 233.1 125.564 233.163 125.331 233.29C125.098 233.41 124.888 233.567 124.701 233.76L124.301 233.29C124.548 233.063 124.818 232.877 125.111 232.73C125.404 232.577 125.738 232.5 126.111 232.5C126.471 232.5 126.791 232.563 127.071 232.69C127.351 232.817 127.571 233 127.731 233.24C127.898 233.473 127.981 233.76 127.981 234.1C127.981 234.493 127.871 234.817 127.651 235.07C127.438 235.317 127.154 235.503 126.801 235.63V235.67C127.061 235.73 127.298 235.833 127.511 235.98C127.724 236.12 127.894 236.303 128.021 236.53C128.148 236.75 128.211 237.007 128.211 237.3C128.211 237.68 128.118 238.007 127.931 238.28C127.744 238.547 127.494 238.753 127.181 238.9C126.868 239.047 126.521 239.12 126.141 239.12ZM131.063 239.12C130.723 239.12 130.423 239.077 130.163 238.99C129.903 238.903 129.676 238.793 129.483 238.66C129.29 238.52 129.123 238.373 128.983 238.22L129.353 237.74C129.546 237.94 129.773 238.12 130.033 238.28C130.3 238.433 130.63 238.51 131.023 238.51C131.423 238.51 131.75 238.4 132.003 238.18C132.263 237.953 132.393 237.653 132.393 237.28C132.393 237.02 132.323 236.79 132.183 236.59C132.05 236.39 131.83 236.237 131.523 236.13C131.223 236.017 130.816 235.96 130.303 235.96V235.39C130.763 235.39 131.126 235.337 131.393 235.23C131.666 235.117 131.863 234.967 131.983 234.78C132.103 234.593 132.163 234.383 132.163 234.15C132.163 233.83 132.06 233.577 131.853 233.39C131.646 233.197 131.366 233.1 131.013 233.1C130.74 233.1 130.486 233.163 130.253 233.29C130.02 233.41 129.81 233.567 129.623 233.76L129.223 233.29C129.47 233.063 129.74 232.877 130.033 232.73C130.326 232.577 130.66 232.5 131.033 232.5C131.393 232.5 131.713 232.563 131.993 232.69C132.273 232.817 132.493 233 132.653 233.24C132.82 233.473 132.903 233.76 132.903 234.1C132.903 234.493 132.793 234.817 132.573 235.07C132.36 235.317 132.076 235.503 131.723 235.63V235.67C131.983 235.73 132.22 235.833 132.433 235.98C132.646 236.12 132.816 236.303 132.943 236.53C133.07 236.75 133.133 237.007 133.133 237.3C133.133 237.68 133.04 238.007 132.853 238.28C132.666 238.547 132.416 238.753 132.103 238.9C131.79 239.047 131.443 239.12 131.063 239.12ZM58.85 252V247.15H59.45L59.51 247.87H59.54C59.7533 247.637 59.9867 247.44 60.24 247.28C60.5 247.113 60.77 247.03 61.05 247.03C61.43 247.03 61.7233 247.117 61.93 247.29C62.1433 247.457 62.2967 247.683 62.39 247.97C62.65 247.69 62.91 247.463 63.17 247.29C63.4367 247.117 63.7133 247.03 64 247.03C64.5 247.03 64.87 247.19 65.11 247.51C65.35 247.83 65.47 248.3 65.47 248.92V252H64.74V249.01C64.74 248.543 64.6633 248.203 64.51 247.99C64.3567 247.777 64.1167 247.67 63.79 247.67C63.5967 247.67 63.3933 247.737 63.18 247.87C62.9733 247.997 62.7533 248.19 62.52 248.45V252H61.79V249.01C61.79 248.543 61.7133 248.203 61.56 247.99C61.4133 247.777 61.1767 247.67 60.85 247.67C60.4633 247.67 60.0367 247.93 59.57 248.45V252H58.85ZM68.952 252.12C68.5586 252.12 68.192 252.02 67.852 251.82C67.512 251.62 67.2386 251.333 67.032 250.96C66.8253 250.58 66.722 250.12 66.722 249.58C66.722 249.04 66.8253 248.58 67.032 248.2C67.2386 247.82 67.512 247.53 67.852 247.33C68.192 247.13 68.5586 247.03 68.952 247.03C69.3453 247.03 69.7086 247.13 70.042 247.33C70.382 247.53 70.6553 247.82 70.862 248.2C71.0753 248.58 71.182 249.04 71.182 249.58C71.182 250.12 71.0753 250.58 70.862 250.96C70.6553 251.333 70.382 251.62 70.042 251.82C69.7086 252.02 69.3453 252.12 68.952 252.12ZM68.952 251.51C69.2453 251.51 69.502 251.43 69.722 251.27C69.9486 251.11 70.122 250.887 70.242 250.6C70.3686 250.307 70.432 249.967 70.432 249.58C70.432 249.2 70.3686 248.863 70.242 248.57C70.122 248.277 69.9486 248.05 69.722 247.89C69.502 247.723 69.2453 247.64 68.952 247.64C68.6653 247.64 68.4086 247.723 68.182 247.89C67.962 248.05 67.7886 248.277 67.662 248.57C67.542 248.863 67.482 249.2 67.482 249.58C67.482 249.967 67.542 250.307 67.662 250.6C67.7886 250.887 67.962 251.11 68.182 251.27C68.4086 251.43 68.6653 251.51 68.952 251.51ZM73.9723 252.12C73.4723 252.12 73.1223 251.973 72.9223 251.68C72.729 251.387 72.6323 251.007 72.6323 250.54V247.75H71.9023V247.2L72.6623 247.15L72.7523 245.78H73.3623V247.15H74.6923V247.75H73.3623V250.56C73.3623 250.86 73.4157 251.097 73.5223 251.27C73.6357 251.437 73.839 251.52 74.1323 251.52C74.219 251.52 74.3123 251.507 74.4123 251.48C74.519 251.453 74.6123 251.423 74.6923 251.39L74.8423 251.94C74.709 251.987 74.5657 252.027 74.4123 252.06C74.259 252.1 74.1123 252.12 73.9723 252.12ZM77.6629 252.12C77.2696 252.12 76.9029 252.02 76.5629 251.82C76.2229 251.62 75.9496 251.333 75.7429 250.96C75.5362 250.58 75.4329 250.12 75.4329 249.58C75.4329 249.04 75.5362 248.58 75.7429 248.2C75.9496 247.82 76.2229 247.53 76.5629 247.33C76.9029 247.13 77.2696 247.03 77.6629 247.03C78.0562 247.03 78.4196 247.13 78.7529 247.33C79.0929 247.53 79.3662 247.82 79.5729 248.2C79.7862 248.58 79.8929 249.04 79.8929 249.58C79.8929 250.12 79.7862 250.58 79.5729 250.96C79.3662 251.333 79.0929 251.62 78.7529 251.82C78.4196 252.02 78.0562 252.12 77.6629 252.12ZM77.6629 251.51C77.9562 251.51 78.2129 251.43 78.4329 251.27C78.6596 251.11 78.8329 250.887 78.9529 250.6C79.0796 250.307 79.1429 249.967 79.1429 249.58C79.1429 249.2 79.0796 248.863 78.9529 248.57C78.8329 248.277 78.6596 248.05 78.4329 247.89C78.2129 247.723 77.9562 247.64 77.6629 247.64C77.3762 247.64 77.1196 247.723 76.8929 247.89C76.6729 248.05 76.4996 248.277 76.3729 248.57C76.2529 248.863 76.1929 249.2 76.1929 249.58C76.1929 249.967 76.2529 250.307 76.3729 250.6C76.4996 250.887 76.6729 251.11 76.8929 251.27C77.1196 251.43 77.3762 251.51 77.6629 251.51ZM81.2133 252V247.15H81.8133L81.8733 248.04H81.9033C82.0699 247.733 82.2699 247.49 82.5033 247.31C82.7433 247.123 83.0033 247.03 83.2833 247.03C83.3833 247.03 83.4733 247.04 83.5533 247.06C83.6333 247.073 83.7099 247.097 83.7833 247.13L83.6433 247.77C83.5633 247.743 83.4899 247.723 83.4233 247.71C83.3633 247.697 83.2833 247.69 83.1833 247.69C82.9766 247.69 82.7599 247.777 82.5333 247.95C82.3066 248.117 82.1066 248.413 81.9333 248.84V252H81.2133ZM86.5317 252.12C86.1117 252.12 85.7251 252.02 85.3717 251.82C85.0251 251.613 84.7484 251.323 84.5417 250.95C84.3351 250.57 84.2317 250.113 84.2317 249.58C84.2317 249.053 84.3351 248.6 84.5417 248.22C84.7484 247.84 85.0151 247.547 85.3417 247.34C85.6751 247.133 86.0284 247.03 86.4017 247.03C86.8017 247.03 87.1451 247.123 87.4317 247.31C87.7184 247.497 87.9351 247.76 88.0817 248.1C88.2351 248.433 88.3117 248.833 88.3117 249.3C88.3117 249.38 88.3084 249.46 88.3017 249.54C88.3017 249.613 88.2951 249.68 88.2817 249.74H84.8017L84.7917 249.21H87.6617C87.6617 248.69 87.5517 248.297 87.3317 248.03C87.1117 247.757 86.8051 247.62 86.4117 247.62C86.1717 247.62 85.9384 247.69 85.7117 247.83C85.4851 247.97 85.2984 248.183 85.1517 248.47C85.0051 248.757 84.9317 249.127 84.9317 249.58C84.9317 250.013 85.0084 250.373 85.1617 250.66C85.3151 250.947 85.5184 251.163 85.7717 251.31C86.0317 251.457 86.3151 251.53 86.6217 251.53C86.8684 251.53 87.0884 251.493 87.2817 251.42C87.4817 251.347 87.6717 251.253 87.8517 251.14L88.1217 251.62C87.9151 251.753 87.6817 251.87 87.4217 251.97C87.1684 252.07 86.8717 252.12 86.5317 252.12ZM90.7736 252.12C90.4269 252.12 90.0969 252.057 89.7836 251.93C89.4703 251.797 89.2003 251.637 88.9736 251.45L89.3436 250.96C89.5569 251.127 89.7769 251.267 90.0036 251.38C90.2303 251.493 90.4969 251.55 90.8036 251.55C91.1369 251.55 91.3869 251.47 91.5536 251.31C91.7203 251.15 91.8036 250.96 91.8036 250.74C91.8036 250.567 91.7469 250.423 91.6336 250.31C91.5203 250.19 91.3769 250.09 91.2036 250.01C91.0303 249.923 90.8536 249.847 90.6736 249.78C90.4469 249.7 90.2203 249.603 89.9936 249.49C89.7669 249.377 89.5769 249.233 89.4236 249.06C89.2769 248.887 89.2036 248.663 89.2036 248.39C89.2036 248.01 89.3469 247.69 89.6336 247.43C89.9269 247.163 90.3336 247.03 90.8536 247.03C91.1469 247.03 91.4203 247.083 91.6736 247.19C91.9269 247.297 92.1436 247.423 92.3236 247.57L91.9736 248.04C91.8069 247.92 91.6336 247.82 91.4536 247.74C91.2803 247.653 91.0803 247.61 90.8536 247.61C90.5336 247.61 90.2969 247.687 90.1436 247.84C89.9903 247.987 89.9136 248.157 89.9136 248.35C89.9136 248.51 89.9636 248.643 90.0636 248.75C90.1703 248.85 90.3069 248.937 90.4736 249.01C90.6403 249.083 90.8169 249.157 91.0036 249.23C91.2436 249.317 91.4769 249.417 91.7036 249.53C91.9369 249.637 92.1303 249.78 92.2836 249.96C92.4369 250.14 92.5136 250.387 92.5136 250.7C92.5136 250.953 92.4469 251.19 92.3136 251.41C92.1803 251.623 91.9836 251.797 91.7236 251.93C91.4636 252.057 91.1469 252.12 90.7736 252.12ZM95.7657 252V245.43H97.7757C98.2157 245.43 98.6057 245.49 98.9457 245.61C99.2857 245.723 99.5524 245.913 99.7457 246.18C99.939 246.447 100.036 246.803 100.036 247.25C100.036 247.677 99.939 248.033 99.7457 248.32C99.5524 248.6 99.2857 248.81 98.9457 248.95C98.6057 249.09 98.2157 249.16 97.7757 249.16H96.5057V252H95.7657ZM99.3757 252L97.6257 248.96L98.2257 248.6L100.216 252H99.3757ZM96.5057 248.56H97.6557C98.1824 248.56 98.5857 248.453 98.8657 248.24C99.1524 248.02 99.2957 247.69 99.2957 247.25C99.2957 246.803 99.1524 246.49 98.8657 246.31C98.5857 246.123 98.1824 246.03 97.6557 246.03H96.5057V248.56ZM102.43 252.12C102.164 252.12 101.924 252.067 101.71 251.96C101.497 251.853 101.327 251.7 101.2 251.5C101.074 251.293 101.01 251.043 101.01 250.75C101.01 250.223 101.25 249.82 101.73 249.54C102.217 249.253 102.984 249.053 104.03 248.94C104.03 248.72 104 248.51 103.94 248.31C103.887 248.11 103.784 247.95 103.63 247.83C103.484 247.703 103.27 247.64 102.99 247.64C102.697 247.64 102.424 247.697 102.17 247.81C101.924 247.923 101.707 248.043 101.52 248.17L101.23 247.67C101.37 247.577 101.537 247.48 101.73 247.38C101.924 247.28 102.137 247.197 102.37 247.13C102.604 247.063 102.85 247.03 103.11 247.03C103.504 247.03 103.82 247.113 104.06 247.28C104.3 247.447 104.474 247.677 104.58 247.97C104.694 248.263 104.75 248.607 104.75 249V252H104.15L104.09 251.41H104.06C103.827 251.603 103.574 251.77 103.3 251.91C103.027 252.05 102.737 252.12 102.43 252.12ZM102.62 251.53C102.874 251.53 103.107 251.473 103.32 251.36C103.54 251.24 103.777 251.07 104.03 250.85V249.43C103.457 249.497 103.004 249.59 102.67 249.71C102.337 249.823 102.097 249.963 101.95 250.13C101.804 250.297 101.73 250.49 101.73 250.71C101.73 250.997 101.817 251.207 101.99 251.34C102.17 251.467 102.38 251.53 102.62 251.53ZM106.34 254.08V247.15H106.94L107 247.73H107.03C107.25 247.537 107.494 247.373 107.76 247.24C108.034 247.1 108.314 247.03 108.6 247.03C109.02 247.03 109.374 247.133 109.66 247.34C109.947 247.54 110.16 247.827 110.3 248.2C110.447 248.567 110.52 249 110.52 249.5C110.52 250.053 110.42 250.527 110.22 250.92C110.027 251.307 109.77 251.603 109.45 251.81C109.13 252.017 108.787 252.12 108.42 252.12C108.2 252.12 107.974 252.07 107.74 251.97C107.507 251.87 107.274 251.73 107.04 251.55L107.06 252.41V254.08H106.34ZM108.3 251.5C108.587 251.5 108.84 251.42 109.06 251.26C109.28 251.1 109.454 250.87 109.58 250.57C109.707 250.27 109.77 249.917 109.77 249.51C109.77 249.143 109.724 248.82 109.63 248.54C109.544 248.26 109.4 248.043 109.2 247.89C109.007 247.73 108.75 247.65 108.43 247.65C108.217 247.65 107.997 247.71 107.77 247.83C107.55 247.943 107.314 248.117 107.06 248.35V250.97C107.3 251.163 107.527 251.3 107.74 251.38C107.954 251.46 108.14 251.5 108.3 251.5ZM113.328 252.12C112.828 252.12 112.478 251.973 112.278 251.68C112.084 251.387 111.988 251.007 111.988 250.54V247.75H111.258V247.2L112.018 247.15L112.108 245.78H112.718V247.15H114.048V247.75H112.718V250.56C112.718 250.86 112.771 251.097 112.878 251.27C112.991 251.437 113.194 251.52 113.488 251.52C113.574 251.52 113.668 251.507 113.768 251.48C113.874 251.453 113.968 251.423 114.048 251.39L114.198 251.94C114.064 251.987 113.921 252.027 113.768 252.06C113.614 252.1 113.468 252.12 113.328 252.12ZM117.018 252.12C116.625 252.12 116.258 252.02 115.918 251.82C115.578 251.62 115.305 251.333 115.098 250.96C114.892 250.58 114.788 250.12 114.788 249.58C114.788 249.04 114.892 248.58 115.098 248.2C115.305 247.82 115.578 247.53 115.918 247.33C116.258 247.13 116.625 247.03 117.018 247.03C117.412 247.03 117.775 247.13 118.108 247.33C118.448 247.53 118.722 247.82 118.928 248.2C119.142 248.58 119.248 249.04 119.248 249.58C119.248 250.12 119.142 250.58 118.928 250.96C118.722 251.333 118.448 251.62 118.108 251.82C117.775 252.02 117.412 252.12 117.018 252.12ZM117.018 251.51C117.312 251.51 117.568 251.43 117.788 251.27C118.015 251.11 118.188 250.887 118.308 250.6C118.435 250.307 118.498 249.967 118.498 249.58C118.498 249.2 118.435 248.863 118.308 248.57C118.188 248.277 118.015 248.05 117.788 247.89C117.568 247.723 117.312 247.64 117.018 247.64C116.732 247.64 116.475 247.723 116.248 247.89C116.028 248.05 115.855 248.277 115.728 248.57C115.608 248.863 115.548 249.2 115.548 249.58C115.548 249.967 115.608 250.307 115.728 250.6C115.855 250.887 116.028 251.11 116.248 251.27C116.475 251.43 116.732 251.51 117.018 251.51ZM120.569 252V247.15H121.169L121.229 248.04H121.259C121.425 247.733 121.625 247.49 121.859 247.31C122.099 247.123 122.359 247.03 122.639 247.03C122.739 247.03 122.829 247.04 122.909 247.06C122.989 247.073 123.065 247.097 123.139 247.13L122.999 247.77C122.919 247.743 122.845 247.723 122.779 247.71C122.719 247.697 122.639 247.69 122.539 247.69C122.332 247.69 122.115 247.777 121.889 247.95C121.662 248.117 121.462 248.413 121.289 248.84V252H120.569Z" fill="white"/>
<path d="M61.14 208.18C60.5 208.18 59.86 208.06 59.22 207.82C58.59 207.57 58.03 207.215 57.54 206.755L58.725 205.345C59.075 205.665 59.465 205.92 59.895 206.11C60.335 206.3 60.765 206.395 61.185 206.395C61.675 206.395 62.04 206.305 62.28 206.125C62.53 205.935 62.655 205.675 62.655 205.345C62.655 205.125 62.595 204.945 62.475 204.805C62.355 204.665 62.185 204.545 61.965 204.445C61.755 204.335 61.505 204.22 61.215 204.1L59.925 203.545C59.585 203.405 59.265 203.22 58.965 202.99C58.665 202.76 58.42 202.475 58.23 202.135C58.04 201.785 57.945 201.375 57.945 200.905C57.945 200.365 58.09 199.88 58.38 199.45C58.68 199.02 59.085 198.68 59.595 198.43C60.115 198.17 60.705 198.04 61.365 198.04C61.935 198.04 62.49 198.15 63.03 198.37C63.58 198.59 64.06 198.9 64.47 199.3L63.42 200.605C63.11 200.355 62.79 200.16 62.46 200.02C62.13 199.88 61.765 199.81 61.365 199.81C60.965 199.81 60.64 199.895 60.39 200.065C60.15 200.235 60.03 200.475 60.03 200.785C60.03 200.995 60.095 201.17 60.225 201.31C60.355 201.45 60.535 201.575 60.765 201.685C61.005 201.785 61.265 201.895 61.545 202.015L62.805 202.525C63.205 202.685 63.55 202.885 63.84 203.125C64.13 203.365 64.355 203.655 64.515 203.995C64.685 204.325 64.77 204.72 64.77 205.18C64.77 205.72 64.625 206.22 64.335 206.68C64.055 207.13 63.64 207.495 63.09 207.775C62.55 208.045 61.9 208.18 61.14 208.18ZM70.2564 208.18C69.6464 208.18 69.1014 208.09 68.6214 207.91C68.1414 207.73 67.7364 207.455 67.4064 207.085C67.0764 206.715 66.8264 206.235 66.6564 205.645C66.4864 205.055 66.4014 204.355 66.4014 203.545V198.22H68.4714V203.74C68.4714 204.4 68.5414 204.925 68.6814 205.315C68.8214 205.705 69.0264 205.985 69.2964 206.155C69.5664 206.315 69.8864 206.395 70.2564 206.395C70.6364 206.395 70.9614 206.315 71.2314 206.155C71.5014 205.985 71.7114 205.705 71.8614 205.315C72.0114 204.925 72.0864 204.4 72.0864 203.74V198.22H74.0664V203.545C74.0664 204.355 73.9814 205.055 73.8114 205.645C73.6514 206.235 73.4064 206.715 73.0764 207.085C72.7564 207.455 72.3564 207.73 71.8764 207.91C71.4064 208.09 70.8664 208.18 70.2564 208.18ZM76.393 208V198.22H79.663C80.383 198.22 81.033 198.315 81.613 198.505C82.193 198.695 82.653 199.02 82.993 199.48C83.343 199.93 83.518 200.545 83.518 201.325C83.518 202.075 83.348 202.69 83.008 203.17C82.668 203.65 82.208 204.01 81.628 204.25C81.058 204.48 80.423 204.595 79.723 204.595H78.448V208H76.393ZM78.448 202.945H79.588C80.238 202.945 80.718 202.81 81.028 202.54C81.338 202.26 81.493 201.855 81.493 201.325C81.493 200.775 81.323 200.395 80.983 200.185C80.653 199.965 80.168 199.855 79.528 199.855H78.448V202.945ZM85.27 208V198.22H91.33V199.945H87.325V202.075H90.73V203.815H87.325V206.275H91.48V208H85.27ZM93.4438 208V198.22H96.8938C97.5838 198.22 98.2088 198.31 98.7688 198.49C99.3288 198.67 99.7738 198.98 100.104 199.42C100.444 199.86 100.614 200.46 100.614 201.22C100.614 201.95 100.444 202.55 100.104 203.02C99.7738 203.48 99.3288 203.825 98.7688 204.055C98.2088 204.275 97.5838 204.385 96.8938 204.385H95.4988V208H93.4438ZM98.7538 208L96.5188 203.83L97.9588 202.54L101.064 208H98.7538ZM95.4988 202.735H96.7138C97.3238 202.735 97.7888 202.61 98.1088 202.36C98.4288 202.1 98.5888 201.72 98.5888 201.22C98.5888 200.71 98.4288 200.355 98.1088 200.155C97.7888 199.955 97.3238 199.855 96.7138 199.855H95.4988V202.735ZM102.54 208V198.22H104.595V202.03H108.165V198.22H110.22V208H108.165V203.83H104.595V208H102.54ZM112.589 208V198.22H118.649V199.945H114.644V202.075H118.049V203.815H114.644V206.275H118.799V208H112.589ZM119.503 208L122.608 198.22H125.068L128.173 208H125.998L124.648 202.96C124.508 202.46 124.368 201.935 124.228 201.385C124.098 200.835 123.963 200.3 123.823 199.78H123.763C123.643 200.3 123.513 200.835 123.373 201.385C123.243 201.935 123.108 202.46 122.968 202.96L121.603 208H119.503ZM121.483 205.57V203.965H126.163V205.57H121.483ZM130.999 208L128.014 198.22H130.189L131.434 202.885C131.594 203.435 131.729 203.965 131.839 204.475C131.959 204.975 132.094 205.5 132.244 206.05H132.304C132.464 205.5 132.604 204.975 132.724 204.475C132.844 203.965 132.974 203.435 133.114 202.885L134.329 198.22H136.444L133.459 208H130.999ZM139.201 208V204.46L136.246 198.22H138.451L139.396 200.545C139.526 200.915 139.656 201.275 139.786 201.625C139.926 201.975 140.066 202.335 140.206 202.705H140.266C140.416 202.335 140.561 201.975 140.701 201.625C140.841 201.275 140.981 200.915 141.121 200.545L142.051 198.22H144.211L141.256 204.46V208H139.201Z" fill="white"/>
<path d="M179.5 213.5H57.5" stroke="#BBECF9"/>
<circle cx="179.5" cy="213.5" r="1.5" fill="white"/>
<path d="M59.3 107V101.06H57.28V100.43H62.05V101.06H60.04V107H59.3ZM63.182 107V102.15H63.782L63.842 103.04H63.872C64.0387 102.733 64.2387 102.49 64.472 102.31C64.712 102.123 64.972 102.03 65.252 102.03C65.352 102.03 65.442 102.04 65.522 102.06C65.602 102.073 65.6787 102.097 65.752 102.13L65.612 102.77C65.532 102.743 65.4587 102.723 65.392 102.71C65.332 102.697 65.252 102.69 65.152 102.69C64.9454 102.69 64.7287 102.777 64.502 102.95C64.2754 103.117 64.0754 103.413 63.902 103.84V107H63.182ZM67.6805 107.12C67.4138 107.12 67.1738 107.067 66.9605 106.96C66.7471 106.853 66.5771 106.7 66.4505 106.5C66.3238 106.293 66.2605 106.043 66.2605 105.75C66.2605 105.223 66.5005 104.82 66.9805 104.54C67.4671 104.253 68.2338 104.053 69.2805 103.94C69.2805 103.72 69.2505 103.51 69.1905 103.31C69.1371 103.11 69.0338 102.95 68.8805 102.83C68.7338 102.703 68.5205 102.64 68.2405 102.64C67.9471 102.64 67.6738 102.697 67.4205 102.81C67.1738 102.923 66.9571 103.043 66.7705 103.17L66.4805 102.67C66.6205 102.577 66.7871 102.48 66.9805 102.38C67.1738 102.28 67.3871 102.197 67.6205 102.13C67.8538 102.063 68.1005 102.03 68.3605 102.03C68.7538 102.03 69.0705 102.113 69.3105 102.28C69.5505 102.447 69.7238 102.677 69.8305 102.97C69.9438 103.263 70.0005 103.607 70.0005 104V107H69.4005L69.3405 106.41H69.3105C69.0771 106.603 68.8238 106.77 68.5505 106.91C68.2771 107.05 67.9871 107.12 67.6805 107.12ZM67.8705 106.53C68.1238 106.53 68.3571 106.473 68.5705 106.36C68.7905 106.24 69.0271 106.07 69.2805 105.85V104.43C68.7071 104.497 68.2538 104.59 67.9205 104.71C67.5871 104.823 67.3471 104.963 67.2005 105.13C67.0538 105.297 66.9805 105.49 66.9805 105.71C66.9805 105.997 67.0671 106.207 67.2405 106.34C67.4205 106.467 67.6305 106.53 67.8705 106.53ZM71.5902 107V102.15H72.1902L72.2502 102.87H72.2802C72.5136 102.63 72.7602 102.43 73.0202 102.27C73.2869 102.11 73.5836 102.03 73.9102 102.03C74.4236 102.03 74.7969 102.19 75.0302 102.51C75.2702 102.83 75.3902 103.3 75.3902 103.92V107H74.6602V104.01C74.6602 103.543 74.5836 103.203 74.4302 102.99C74.2836 102.777 74.0402 102.67 73.7002 102.67C73.4469 102.67 73.2169 102.737 73.0102 102.87C72.8036 102.997 72.5702 103.19 72.3102 103.45V107H71.5902ZM78.2599 107.12C77.9133 107.12 77.5833 107.057 77.2699 106.93C76.9566 106.797 76.6866 106.637 76.4599 106.45L76.8299 105.96C77.0433 106.127 77.2633 106.267 77.4899 106.38C77.7166 106.493 77.9833 106.55 78.2899 106.55C78.6233 106.55 78.8733 106.47 79.0399 106.31C79.2066 106.15 79.2899 105.96 79.2899 105.74C79.2899 105.567 79.2333 105.423 79.1199 105.31C79.0066 105.19 78.8633 105.09 78.6899 105.01C78.5166 104.923 78.3399 104.847 78.1599 104.78C77.9333 104.7 77.7066 104.603 77.4799 104.49C77.2533 104.377 77.0633 104.233 76.9099 104.06C76.7633 103.887 76.6899 103.663 76.6899 103.39C76.6899 103.01 76.8333 102.69 77.1199 102.43C77.4133 102.163 77.8199 102.03 78.3399 102.03C78.6333 102.03 78.9066 102.083 79.1599 102.19C79.4133 102.297 79.6299 102.423 79.8099 102.57L79.4599 103.04C79.2933 102.92 79.1199 102.82 78.9399 102.74C78.7666 102.653 78.5666 102.61 78.3399 102.61C78.0199 102.61 77.7833 102.687 77.6299 102.84C77.4766 102.987 77.3999 103.157 77.3999 103.35C77.3999 103.51 77.4499 103.643 77.5499 103.75C77.6566 103.85 77.7933 103.937 77.9599 104.01C78.1266 104.083 78.3033 104.157 78.4899 104.23C78.7299 104.317 78.9633 104.417 79.1899 104.53C79.4233 104.637 79.6166 104.78 79.7699 104.96C79.9233 105.14 79.9999 105.387 79.9999 105.7C79.9999 105.953 79.9333 106.19 79.7999 106.41C79.6666 106.623 79.4699 106.797 79.2099 106.93C78.9499 107.057 78.6333 107.12 78.2599 107.12ZM81.1801 109.08V102.15H81.7801L81.8401 102.73H81.8701C82.0901 102.537 82.3334 102.373 82.6001 102.24C82.8734 102.1 83.1534 102.03 83.4401 102.03C83.8601 102.03 84.2134 102.133 84.5001 102.34C84.7867 102.54 85.0001 102.827 85.1401 103.2C85.2867 103.567 85.3601 104 85.3601 104.5C85.3601 105.053 85.2601 105.527 85.0601 105.92C84.8667 106.307 84.6101 106.603 84.2901 106.81C83.9701 107.017 83.6267 107.12 83.2601 107.12C83.0401 107.12 82.8134 107.07 82.5801 106.97C82.3467 106.87 82.1134 106.73 81.8801 106.55L81.9001 107.41V109.08H81.1801ZM83.1401 106.5C83.4267 106.5 83.6801 106.42 83.9001 106.26C84.1201 106.1 84.2934 105.87 84.4201 105.57C84.5467 105.27 84.6101 104.917 84.6101 104.51C84.6101 104.143 84.5634 103.82 84.4701 103.54C84.3834 103.26 84.2401 103.043 84.0401 102.89C83.8467 102.73 83.5901 102.65 83.2701 102.65C83.0567 102.65 82.8367 102.71 82.6101 102.83C82.3901 102.943 82.1534 103.117 81.9001 103.35V105.97C82.1401 106.163 82.3667 106.3 82.5801 106.38C82.7934 106.46 82.9801 106.5 83.1401 106.5ZM88.5477 107.12C88.1543 107.12 87.7877 107.02 87.4477 106.82C87.1077 106.62 86.8343 106.333 86.6277 105.96C86.421 105.58 86.3177 105.12 86.3177 104.58C86.3177 104.04 86.421 103.58 86.6277 103.2C86.8343 102.82 87.1077 102.53 87.4477 102.33C87.7877 102.13 88.1543 102.03 88.5477 102.03C88.941 102.03 89.3043 102.13 89.6377 102.33C89.9777 102.53 90.251 102.82 90.4577 103.2C90.671 103.58 90.7777 104.04 90.7777 104.58C90.7777 105.12 90.671 105.58 90.4577 105.96C90.251 106.333 89.9777 106.62 89.6377 106.82C89.3043 107.02 88.941 107.12 88.5477 107.12ZM88.5477 106.51C88.841 106.51 89.0977 106.43 89.3177 106.27C89.5443 106.11 89.7177 105.887 89.8377 105.6C89.9643 105.307 90.0277 104.967 90.0277 104.58C90.0277 104.2 89.9643 103.863 89.8377 103.57C89.7177 103.277 89.5443 103.05 89.3177 102.89C89.0977 102.723 88.841 102.64 88.5477 102.64C88.261 102.64 88.0043 102.723 87.7777 102.89C87.5577 103.05 87.3843 103.277 87.2577 103.57C87.1377 103.863 87.0777 104.2 87.0777 104.58C87.0777 104.967 87.1377 105.307 87.2577 105.6C87.3843 105.887 87.5577 106.11 87.7777 106.27C88.0043 106.43 88.261 106.51 88.5477 106.51ZM92.098 107V102.15H92.698L92.758 103.04H92.788C92.9547 102.733 93.1547 102.49 93.388 102.31C93.628 102.123 93.888 102.03 94.168 102.03C94.268 102.03 94.358 102.04 94.438 102.06C94.518 102.073 94.5947 102.097 94.668 102.13L94.528 102.77C94.448 102.743 94.3747 102.723 94.308 102.71C94.248 102.697 94.168 102.69 94.068 102.69C93.8614 102.69 93.6447 102.777 93.418 102.95C93.1914 103.117 92.9914 103.413 92.818 103.84V107H92.098ZM96.9665 107.12C96.4665 107.12 96.1165 106.973 95.9165 106.68C95.7232 106.387 95.6265 106.007 95.6265 105.54V102.75H94.8965V102.2L95.6565 102.15L95.7465 100.78H96.3565V102.15H97.6865V102.75H96.3565V105.56C96.3565 105.86 96.4098 106.097 96.5165 106.27C96.6298 106.437 96.8332 106.52 97.1265 106.52C97.2132 106.52 97.3065 106.507 97.4065 106.48C97.5132 106.453 97.6065 106.423 97.6865 106.39L97.8365 106.94C97.7032 106.987 97.5598 107.027 97.4065 107.06C97.2532 107.1 97.1065 107.12 96.9665 107.12ZM100.727 107.12C100.307 107.12 99.9204 107.02 99.567 106.82C99.2204 106.613 98.9437 106.323 98.737 105.95C98.5304 105.57 98.427 105.113 98.427 104.58C98.427 104.053 98.5304 103.6 98.737 103.22C98.9437 102.84 99.2104 102.547 99.537 102.34C99.8704 102.133 100.224 102.03 100.597 102.03C100.997 102.03 101.34 102.123 101.627 102.31C101.914 102.497 102.13 102.76 102.277 103.1C102.43 103.433 102.507 103.833 102.507 104.3C102.507 104.38 102.504 104.46 102.497 104.54C102.497 104.613 102.49 104.68 102.477 104.74H98.997L98.987 104.21H101.857C101.857 103.69 101.747 103.297 101.527 103.03C101.307 102.757 101 102.62 100.607 102.62C100.367 102.62 100.134 102.69 99.907 102.83C99.6804 102.97 99.4937 103.183 99.347 103.47C99.2004 103.757 99.127 104.127 99.127 104.58C99.127 105.013 99.2037 105.373 99.357 105.66C99.5104 105.947 99.7137 106.163 99.967 106.31C100.227 106.457 100.51 106.53 100.817 106.53C101.064 106.53 101.284 106.493 101.477 106.42C101.677 106.347 101.867 106.253 102.047 106.14L102.317 106.62C102.11 106.753 101.877 106.87 101.617 106.97C101.364 107.07 101.067 107.12 100.727 107.12ZM107.361 107.12C106.754 107.12 106.271 106.9 105.911 106.46C105.551 106.013 105.371 105.387 105.371 104.58C105.371 104.06 105.468 103.61 105.661 103.23C105.861 102.85 106.121 102.557 106.441 102.35C106.761 102.137 107.108 102.03 107.481 102.03C107.768 102.03 108.014 102.08 108.221 102.18C108.428 102.28 108.641 102.42 108.861 102.6L108.831 101.76V99.86H109.551V107H108.951L108.891 106.41H108.861C108.674 106.603 108.451 106.77 108.191 106.91C107.938 107.05 107.661 107.12 107.361 107.12ZM107.521 106.5C107.754 106.5 107.978 106.443 108.191 106.33C108.404 106.21 108.618 106.037 108.831 105.81V103.18C108.611 102.987 108.401 102.85 108.201 102.77C108.001 102.69 107.798 102.65 107.591 102.65C107.318 102.65 107.068 102.733 106.841 102.9C106.621 103.06 106.444 103.287 106.311 103.58C106.184 103.867 106.121 104.2 106.121 104.58C106.121 105.173 106.241 105.643 106.481 105.99C106.728 106.33 107.074 106.5 107.521 106.5ZM113.168 107.12C112.748 107.12 112.362 107.02 112.008 106.82C111.662 106.613 111.385 106.323 111.178 105.95C110.972 105.57 110.868 105.113 110.868 104.58C110.868 104.053 110.972 103.6 111.178 103.22C111.385 102.84 111.652 102.547 111.978 102.34C112.312 102.133 112.665 102.03 113.038 102.03C113.438 102.03 113.782 102.123 114.068 102.31C114.355 102.497 114.572 102.76 114.718 103.1C114.872 103.433 114.948 103.833 114.948 104.3C114.948 104.38 114.945 104.46 114.938 104.54C114.938 104.613 114.932 104.68 114.918 104.74H111.438L111.428 104.21H114.298C114.298 103.69 114.188 103.297 113.968 103.03C113.748 102.757 113.442 102.62 113.048 102.62C112.808 102.62 112.575 102.69 112.348 102.83C112.122 102.97 111.935 103.183 111.788 103.47C111.642 103.757 111.568 104.127 111.568 104.58C111.568 105.013 111.645 105.373 111.798 105.66C111.952 105.947 112.155 106.163 112.408 106.31C112.668 106.457 112.952 106.53 113.258 106.53C113.505 106.53 113.725 106.493 113.918 106.42C114.118 106.347 114.308 106.253 114.488 106.14L114.758 106.62C114.552 106.753 114.318 106.87 114.058 106.97C113.805 107.07 113.508 107.12 113.168 107.12ZM59.73 120.12C59.3033 120.12 58.92 120.02 58.58 119.82C58.24 119.62 57.97 119.333 57.77 118.96C57.57 118.58 57.47 118.12 57.47 117.58C57.47 117.04 57.5767 116.58 57.79 116.2C58.01 115.82 58.2933 115.53 58.64 115.33C58.9867 115.13 59.3667 115.03 59.78 115.03C60.1 115.03 60.3733 115.09 60.6 115.21C60.8267 115.323 61.0233 115.457 61.19 115.61L60.81 116.09C60.67 115.957 60.5167 115.85 60.35 115.77C60.19 115.683 60.01 115.64 59.81 115.64C59.5033 115.64 59.23 115.723 58.99 115.89C58.7567 116.05 58.57 116.277 58.43 116.57C58.2967 116.863 58.23 117.2 58.23 117.58C58.23 117.967 58.2933 118.307 58.42 118.6C58.5533 118.887 58.7367 119.11 58.97 119.27C59.2033 119.43 59.4767 119.51 59.79 119.51C60.0233 119.51 60.24 119.46 60.44 119.36C60.64 119.26 60.8167 119.143 60.97 119.01L61.29 119.5C61.0767 119.693 60.8367 119.847 60.57 119.96C60.3033 120.067 60.0233 120.12 59.73 120.12ZM63.491 120.12C63.2243 120.12 62.9843 120.067 62.771 119.96C62.5577 119.853 62.3877 119.7 62.261 119.5C62.1343 119.293 62.071 119.043 62.071 118.75C62.071 118.223 62.311 117.82 62.791 117.54C63.2777 117.253 64.0443 117.053 65.091 116.94C65.091 116.72 65.061 116.51 65.001 116.31C64.9477 116.11 64.8443 115.95 64.691 115.83C64.5443 115.703 64.331 115.64 64.051 115.64C63.7577 115.64 63.4843 115.697 63.231 115.81C62.9843 115.923 62.7677 116.043 62.581 116.17L62.291 115.67C62.431 115.577 62.5977 115.48 62.791 115.38C62.9843 115.28 63.1977 115.197 63.431 115.13C63.6643 115.063 63.911 115.03 64.171 115.03C64.5643 115.03 64.881 115.113 65.121 115.28C65.361 115.447 65.5343 115.677 65.641 115.97C65.7543 116.263 65.811 116.607 65.811 117V120H65.211L65.151 119.41H65.121C64.8877 119.603 64.6343 119.77 64.361 119.91C64.0877 120.05 63.7977 120.12 63.491 120.12ZM63.681 119.53C63.9343 119.53 64.1677 119.473 64.381 119.36C64.601 119.24 64.8377 119.07 65.091 118.85V117.43C64.5177 117.497 64.0643 117.59 63.731 117.71C63.3977 117.823 63.1577 117.963 63.011 118.13C62.8643 118.297 62.791 118.49 62.791 118.71C62.791 118.997 62.8777 119.207 63.051 119.34C63.231 119.467 63.441 119.53 63.681 119.53ZM67.4008 120V115.15H68.0008L68.0608 116.04H68.0908C68.2574 115.733 68.4574 115.49 68.6908 115.31C68.9308 115.123 69.1908 115.03 69.4708 115.03C69.5708 115.03 69.6608 115.04 69.7408 115.06C69.8208 115.073 69.8974 115.097 69.9708 115.13L69.8308 115.77C69.7508 115.743 69.6774 115.723 69.6108 115.71C69.5508 115.697 69.4708 115.69 69.3708 115.69C69.1641 115.69 68.9474 115.777 68.7208 115.95C68.4941 116.117 68.2941 116.413 68.1208 116.84V120H67.4008ZM72.4192 122.26C72.0192 122.26 71.6692 122.207 71.3692 122.1C71.0692 121.993 70.8359 121.843 70.6692 121.65C70.5026 121.457 70.4192 121.223 70.4192 120.95C70.4192 120.737 70.4826 120.533 70.6092 120.34C70.7359 120.147 70.9092 119.977 71.1292 119.83V119.79C71.0092 119.71 70.9059 119.607 70.8192 119.48C70.7392 119.347 70.6992 119.187 70.6992 119C70.6992 118.793 70.7559 118.613 70.8692 118.46C70.9892 118.307 71.1092 118.187 71.2292 118.1V118.06C71.0759 117.933 70.9326 117.757 70.7992 117.53C70.6726 117.303 70.6092 117.047 70.6092 116.76C70.6092 116.407 70.6892 116.103 70.8492 115.85C71.0159 115.59 71.2326 115.39 71.4992 115.25C71.7726 115.103 72.0726 115.03 72.3992 115.03C72.5326 115.03 72.6559 115.043 72.7692 115.07C72.8892 115.09 72.9892 115.117 73.0692 115.15H74.7492V115.72H73.7192C73.8459 115.84 73.9492 115.99 74.0292 116.17C74.1092 116.35 74.1492 116.55 74.1492 116.77C74.1492 117.117 74.0692 117.417 73.9092 117.67C73.7559 117.923 73.5459 118.12 73.2792 118.26C73.0192 118.393 72.7259 118.46 72.3992 118.46C72.2792 118.46 72.1526 118.447 72.0192 118.42C71.8926 118.387 71.7726 118.343 71.6592 118.29C71.5659 118.363 71.4859 118.447 71.4192 118.54C71.3592 118.633 71.3292 118.75 71.3292 118.89C71.3292 119.05 71.3892 119.183 71.5092 119.29C71.6359 119.39 71.8626 119.44 72.1892 119.44H73.1592C73.7192 119.44 74.1359 119.533 74.4092 119.72C74.6892 119.9 74.8292 120.19 74.8292 120.59C74.8292 120.883 74.7292 121.157 74.5292 121.41C74.3359 121.663 74.0592 121.867 73.6992 122.02C73.3392 122.18 72.9126 122.26 72.4192 122.26ZM72.5192 121.74C72.8392 121.74 73.1159 121.69 73.3492 121.59C73.5892 121.49 73.7759 121.36 73.9092 121.2C74.0426 121.04 74.1092 120.87 74.1092 120.69C74.1092 120.457 74.0226 120.293 73.8492 120.2C73.6826 120.107 73.4326 120.06 73.0992 120.06H72.2092C72.1359 120.06 72.0426 120.053 71.9292 120.04C71.8226 120.027 71.7092 120.007 71.5892 119.98C71.4026 120.113 71.2659 120.253 71.1792 120.4C71.0992 120.553 71.0592 120.703 71.0592 120.85C71.0592 121.123 71.1892 121.34 71.4492 121.5C71.7092 121.66 72.0659 121.74 72.5192 121.74ZM72.3992 117.96C72.5926 117.96 72.7692 117.91 72.9292 117.81C73.0959 117.71 73.2292 117.57 73.3292 117.39C73.4292 117.21 73.4792 117 73.4792 116.76C73.4792 116.513 73.4292 116.303 73.3292 116.13C73.2359 115.95 73.1059 115.813 72.9392 115.72C72.7792 115.62 72.5992 115.57 72.3992 115.57C72.0992 115.57 71.8426 115.677 71.6292 115.89C71.4159 116.097 71.3092 116.387 71.3092 116.76C71.3092 117 71.3592 117.21 71.4592 117.39C71.5592 117.57 71.6926 117.71 71.8592 117.81C72.0259 117.91 72.2059 117.96 72.3992 117.96ZM76.8992 120.12C76.6326 120.12 76.3926 120.067 76.1792 119.96C75.9659 119.853 75.7959 119.7 75.6692 119.5C75.5426 119.293 75.4792 119.043 75.4792 118.75C75.4792 118.223 75.7192 117.82 76.1992 117.54C76.6859 117.253 77.4526 117.053 78.4992 116.94C78.4992 116.72 78.4692 116.51 78.4092 116.31C78.3559 116.11 78.2526 115.95 78.0992 115.83C77.9526 115.703 77.7392 115.64 77.4592 115.64C77.1659 115.64 76.8926 115.697 76.6392 115.81C76.3926 115.923 76.1759 116.043 75.9892 116.17L75.6992 115.67C75.8392 115.577 76.0059 115.48 76.1992 115.38C76.3926 115.28 76.6059 115.197 76.8392 115.13C77.0726 115.063 77.3192 115.03 77.5792 115.03C77.9726 115.03 78.2892 115.113 78.5292 115.28C78.7692 115.447 78.9426 115.677 79.0492 115.97C79.1626 116.263 79.2192 116.607 79.2192 117V120H78.6192L78.5592 119.41H78.5292C78.2959 119.603 78.0426 119.77 77.7692 119.91C77.4959 120.05 77.2059 120.12 76.8992 120.12ZM77.0892 119.53C77.3426 119.53 77.5759 119.473 77.7892 119.36C78.0092 119.24 78.2459 119.07 78.4992 118.85V117.43C77.9259 117.497 77.4726 117.59 77.1392 117.71C76.8059 117.823 76.5659 117.963 76.4192 118.13C76.2726 118.297 76.1992 118.49 76.1992 118.71C76.1992 118.997 76.2859 119.207 76.4592 119.34C76.6392 119.467 76.8492 119.53 77.0892 119.53ZM82.8209 122.12C82.7143 122.12 82.6143 122.11 82.5209 122.09C82.4276 122.07 82.3443 122.047 82.2709 122.02L82.4109 121.43C82.4643 121.45 82.5243 121.467 82.5909 121.48C82.6643 121.5 82.7309 121.51 82.7909 121.51C83.0709 121.51 83.3043 121.403 83.4909 121.19C83.6776 120.983 83.8209 120.72 83.9209 120.4L84.0409 120.03L82.0809 115.15H82.8309L83.8709 117.93C83.9509 118.137 84.0309 118.36 84.1109 118.6C84.1976 118.833 84.2776 119.063 84.3509 119.29H84.3909C84.4643 119.07 84.5376 118.843 84.6109 118.61C84.6843 118.37 84.7509 118.143 84.8109 117.93L85.7209 115.15H86.4309L84.5909 120.45C84.4776 120.757 84.3443 121.037 84.1909 121.29C84.0376 121.543 83.8476 121.743 83.6209 121.89C83.4009 122.043 83.1343 122.12 82.8209 122.12ZM89.4027 122.08V115.15H90.0027L90.0627 115.73H90.0927C90.3127 115.537 90.5561 115.373 90.8227 115.24C91.0961 115.1 91.3761 115.03 91.6627 115.03C92.0827 115.03 92.4361 115.133 92.7227 115.34C93.0094 115.54 93.2227 115.827 93.3627 116.2C93.5094 116.567 93.5827 117 93.5827 117.5C93.5827 118.053 93.4827 118.527 93.2827 118.92C93.0894 119.307 92.8327 119.603 92.5127 119.81C92.1927 120.017 91.8494 120.12 91.4827 120.12C91.2627 120.12 91.0361 120.07 90.8027 119.97C90.5694 119.87 90.3361 119.73 90.1027 119.55L90.1227 120.41V122.08H89.4027ZM91.3627 119.5C91.6494 119.5 91.9027 119.42 92.1227 119.26C92.3427 119.1 92.5161 118.87 92.6427 118.57C92.7694 118.27 92.8327 117.917 92.8327 117.51C92.8327 117.143 92.7861 116.82 92.6927 116.54C92.6061 116.26 92.4627 116.043 92.2627 115.89C92.0694 115.73 91.8127 115.65 91.4927 115.65C91.2794 115.65 91.0594 115.71 90.8327 115.83C90.6127 115.943 90.3761 116.117 90.1227 116.35V118.97C90.3627 119.163 90.5894 119.3 90.8027 119.38C91.0161 119.46 91.2027 119.5 91.3627 119.5ZM96.0203 120.12C95.7536 120.12 95.5136 120.067 95.3003 119.96C95.087 119.853 94.917 119.7 94.7903 119.5C94.6636 119.293 94.6003 119.043 94.6003 118.75C94.6003 118.223 94.8403 117.82 95.3203 117.54C95.807 117.253 96.5736 117.053 97.6203 116.94C97.6203 116.72 97.5903 116.51 97.5303 116.31C97.477 116.11 97.3736 115.95 97.2203 115.83C97.0736 115.703 96.8603 115.64 96.5803 115.64C96.287 115.64 96.0136 115.697 95.7603 115.81C95.5136 115.923 95.297 116.043 95.1103 116.17L94.8203 115.67C94.9603 115.577 95.127 115.48 95.3203 115.38C95.5136 115.28 95.727 115.197 95.9603 115.13C96.1936 115.063 96.4403 115.03 96.7003 115.03C97.0936 115.03 97.4103 115.113 97.6503 115.28C97.8903 115.447 98.0636 115.677 98.1703 115.97C98.2836 116.263 98.3403 116.607 98.3403 117V120H97.7403L97.6803 119.41H97.6503C97.417 119.603 97.1636 119.77 96.8903 119.91C96.617 120.05 96.327 120.12 96.0203 120.12ZM96.2103 119.53C96.4636 119.53 96.697 119.473 96.9103 119.36C97.1303 119.24 97.367 119.07 97.6203 118.85V117.43C97.047 117.497 96.5936 117.59 96.2603 117.71C95.927 117.823 95.687 117.963 95.5403 118.13C95.3936 118.297 95.3203 118.49 95.3203 118.71C95.3203 118.997 95.407 119.207 95.5803 119.34C95.7603 119.467 95.9703 119.53 96.2103 119.53ZM101.17 120.12C100.823 120.12 100.493 120.057 100.18 119.93C99.8667 119.797 99.5967 119.637 99.3701 119.45L99.7401 118.96C99.9534 119.127 100.173 119.267 100.4 119.38C100.627 119.493 100.893 119.55 101.2 119.55C101.533 119.55 101.783 119.47 101.95 119.31C102.117 119.15 102.2 118.96 102.2 118.74C102.2 118.567 102.143 118.423 102.03 118.31C101.917 118.19 101.773 118.09 101.6 118.01C101.427 117.923 101.25 117.847 101.07 117.78C100.843 117.7 100.617 117.603 100.39 117.49C100.163 117.377 99.9734 117.233 99.8201 117.06C99.6734 116.887 99.6001 116.663 99.6001 116.39C99.6001 116.01 99.7434 115.69 100.03 115.43C100.323 115.163 100.73 115.03 101.25 115.03C101.543 115.03 101.817 115.083 102.07 115.19C102.323 115.297 102.54 115.423 102.72 115.57L102.37 116.04C102.203 115.92 102.03 115.82 101.85 115.74C101.677 115.653 101.477 115.61 101.25 115.61C100.93 115.61 100.693 115.687 100.54 115.84C100.387 115.987 100.31 116.157 100.31 116.35C100.31 116.51 100.36 116.643 100.46 116.75C100.567 116.85 100.703 116.937 100.87 117.01C101.037 117.083 101.213 117.157 101.4 117.23C101.64 117.317 101.873 117.417 102.1 117.53C102.333 117.637 102.527 117.78 102.68 117.96C102.833 118.14 102.91 118.387 102.91 118.7C102.91 118.953 102.843 119.19 102.71 119.41C102.577 119.623 102.38 119.797 102.12 119.93C101.86 120.057 101.543 120.12 101.17 120.12ZM105.19 120.12C104.924 120.12 104.684 120.067 104.47 119.96C104.257 119.853 104.087 119.7 103.96 119.5C103.834 119.293 103.77 119.043 103.77 118.75C103.77 118.223 104.01 117.82 104.49 117.54C104.977 117.253 105.744 117.053 106.79 116.94C106.79 116.72 106.76 116.51 106.7 116.31C106.647 116.11 106.544 115.95 106.39 115.83C106.244 115.703 106.03 115.64 105.75 115.64C105.457 115.64 105.184 115.697 104.93 115.81C104.684 115.923 104.467 116.043 104.28 116.17L103.99 115.67C104.13 115.577 104.297 115.48 104.49 115.38C104.684 115.28 104.897 115.197 105.13 115.13C105.364 115.063 105.61 115.03 105.87 115.03C106.264 115.03 106.58 115.113 106.82 115.28C107.06 115.447 107.234 115.677 107.34 115.97C107.454 116.263 107.51 116.607 107.51 117V120H106.91L106.85 119.41H106.82C106.587 119.603 106.334 119.77 106.06 119.91C105.787 120.05 105.497 120.12 105.19 120.12ZM105.38 119.53C105.634 119.53 105.867 119.473 106.08 119.36C106.3 119.24 106.537 119.07 106.79 118.85V117.43C106.217 117.497 105.764 117.59 105.43 117.71C105.097 117.823 104.857 117.963 104.71 118.13C104.564 118.297 104.49 118.49 104.49 118.71C104.49 118.997 104.577 119.207 104.75 119.34C104.93 119.467 105.14 119.53 105.38 119.53ZM108.58 122.2C108.44 122.2 108.313 122.187 108.2 122.16C108.08 122.133 107.977 122.107 107.89 122.08L108.04 121.52C108.1 121.54 108.17 121.557 108.25 121.57C108.337 121.59 108.423 121.6 108.51 121.6C108.757 121.6 108.92 121.51 109 121.33C109.08 121.157 109.12 120.923 109.12 120.63L109.13 115.15H109.85V120.64C109.85 120.967 109.807 121.247 109.72 121.48C109.633 121.713 109.497 121.89 109.31 122.01C109.123 122.137 108.88 122.2 108.58 122.2ZM108.58 122.2C108.44 122.2 108.313 122.187 108.2 122.16C108.08 122.133 107.977 122.107 107.89 122.08L108.04 121.52C108.1 121.54 108.17 121.557 108.25 121.57C108.337 121.59 108.423 121.6 108.51 121.6C108.757 121.6 108.92 121.51 109 121.33C109.08 121.157 109.12 120.923 109.12 120.63L109.13 115.15H109.85V120.64C109.85 120.967 109.807 121.247 109.72 121.48C109.633 121.713 109.497 121.89 109.31 122.01C109.123 122.137 108.88 122.2 108.58 122.2ZM109.47 114.11C109.33 114.11 109.21 114.063 109.11 113.97C109.017 113.877 108.97 113.753 108.97 113.6C108.97 113.453 109.017 113.337 109.11 113.25C109.21 113.157 109.33 113.11 109.47 113.11C109.617 113.11 109.737 113.157 109.83 113.25C109.923 113.337 109.97 113.453 109.97 113.6C109.97 113.753 109.923 113.877 109.83 113.97C109.737 114.063 109.617 114.11 109.47 114.11ZM113.442 120.12C113.022 120.12 112.635 120.02 112.282 119.82C111.935 119.613 111.659 119.323 111.452 118.95C111.245 118.57 111.142 118.113 111.142 117.58C111.142 117.053 111.245 116.6 111.452 116.22C111.659 115.84 111.925 115.547 112.252 115.34C112.585 115.133 112.939 115.03 113.312 115.03C113.712 115.03 114.055 115.123 114.342 115.31C114.629 115.497 114.845 115.76 114.992 116.1C115.145 116.433 115.222 116.833 115.222 117.3C115.222 117.38 115.219 117.46 115.212 117.54C115.212 117.613 115.205 117.68 115.192 117.74H111.712L111.702 117.21H114.572C114.572 116.69 114.462 116.297 114.242 116.03C114.022 115.757 113.715 115.62 113.322 115.62C113.082 115.62 112.849 115.69 112.622 115.83C112.395 115.97 112.209 116.183 112.062 116.47C111.915 116.757 111.842 117.127 111.842 117.58C111.842 118.013 111.919 118.373 112.072 118.66C112.225 118.947 112.429 119.163 112.682 119.31C112.942 119.457 113.225 119.53 113.532 119.53C113.779 119.53 113.999 119.493 114.192 119.42C114.392 119.347 114.582 119.253 114.762 119.14L115.032 119.62C114.825 119.753 114.592 119.87 114.332 119.97C114.079 120.07 113.782 120.12 113.442 120.12ZM116.444 120V115.15H117.044L117.104 116.04H117.134C117.3 115.733 117.5 115.49 117.734 115.31C117.974 115.123 118.234 115.03 118.514 115.03C118.614 115.03 118.704 115.04 118.784 115.06C118.864 115.073 118.94 115.097 119.014 115.13L118.874 115.77C118.794 115.743 118.72 115.723 118.654 115.71C118.594 115.697 118.514 115.69 118.414 115.69C118.207 115.69 117.99 115.777 117.764 115.95C117.537 116.117 117.337 116.413 117.164 116.84V120H116.444ZM121.692 120.12C121.299 120.12 120.932 120.02 120.592 119.82C120.252 119.62 119.979 119.333 119.772 118.96C119.566 118.58 119.462 118.12 119.462 117.58C119.462 117.04 119.566 116.58 119.772 116.2C119.979 115.82 120.252 115.53 120.592 115.33C120.932 115.13 121.299 115.03 121.692 115.03C122.086 115.03 122.449 115.13 122.782 115.33C123.122 115.53 123.396 115.82 123.602 116.2C123.816 116.58 123.922 117.04 123.922 117.58C123.922 118.12 123.816 118.58 123.602 118.96C123.396 119.333 123.122 119.62 122.782 119.82C122.449 120.02 122.086 120.12 121.692 120.12ZM121.692 119.51C121.986 119.51 122.242 119.43 122.462 119.27C122.689 119.11 122.862 118.887 122.982 118.6C123.109 118.307 123.172 117.967 123.172 117.58C123.172 117.2 123.109 116.863 122.982 116.57C122.862 116.277 122.689 116.05 122.462 115.89C122.242 115.723 121.986 115.64 121.692 115.64C121.406 115.64 121.149 115.723 120.922 115.89C120.702 116.05 120.529 116.277 120.402 116.57C120.282 116.863 120.222 117.2 120.222 117.58C120.222 117.967 120.282 118.307 120.402 118.6C120.529 118.887 120.702 119.11 120.922 119.27C121.149 119.43 121.406 119.51 121.692 119.51ZM126.483 120.12C126.136 120.12 125.806 120.057 125.493 119.93C125.179 119.797 124.909 119.637 124.683 119.45L125.053 118.96C125.266 119.127 125.486 119.267 125.713 119.38C125.939 119.493 126.206 119.55 126.513 119.55C126.846 119.55 127.096 119.47 127.263 119.31C127.429 119.15 127.513 118.96 127.513 118.74C127.513 118.567 127.456 118.423 127.343 118.31C127.229 118.19 127.086 118.09 126.913 118.01C126.739 117.923 126.563 117.847 126.383 117.78C126.156 117.7 125.929 117.603 125.703 117.49C125.476 117.377 125.286 117.233 125.133 117.06C124.986 116.887 124.913 116.663 124.913 116.39C124.913 116.01 125.056 115.69 125.343 115.43C125.636 115.163 126.043 115.03 126.563 115.03C126.856 115.03 127.129 115.083 127.383 115.19C127.636 115.297 127.853 115.423 128.033 115.57L127.683 116.04C127.516 115.92 127.343 115.82 127.163 115.74C126.989 115.653 126.789 115.61 126.563 115.61C126.243 115.61 126.006 115.687 125.853 115.84C125.699 115.987 125.623 116.157 125.623 116.35C125.623 116.51 125.673 116.643 125.773 116.75C125.879 116.85 126.016 116.937 126.183 117.01C126.349 117.083 126.526 117.157 126.713 117.23C126.953 117.317 127.186 117.417 127.413 117.53C127.646 117.637 127.839 117.78 127.993 117.96C128.146 118.14 128.223 118.387 128.223 118.7C128.223 118.953 128.156 119.19 128.023 119.41C127.889 119.623 127.693 119.797 127.433 119.93C127.173 120.057 126.856 120.12 126.483 120.12Z" fill="white"/>
<path d="M60.14 90.18C59.5 90.18 58.86 90.06 58.22 89.82C57.59 89.57 57.03 89.215 56.54 88.755L57.725 87.345C58.075 87.665 58.465 87.92 58.895 88.11C59.335 88.3 59.765 88.395 60.185 88.395C60.675 88.395 61.04 88.305 61.28 88.125C61.53 87.935 61.655 87.675 61.655 87.345C61.655 87.125 61.595 86.945 61.475 86.805C61.355 86.665 61.185 86.545 60.965 86.445C60.755 86.335 60.505 86.22 60.215 86.1L58.925 85.545C58.585 85.405 58.265 85.22 57.965 84.99C57.665 84.76 57.42 84.475 57.23 84.135C57.04 83.785 56.945 83.375 56.945 82.905C56.945 82.365 57.09 81.88 57.38 81.45C57.68 81.02 58.085 80.68 58.595 80.43C59.115 80.17 59.705 80.04 60.365 80.04C60.935 80.04 61.49 80.15 62.03 80.37C62.58 80.59 63.06 80.9 63.47 81.3L62.42 82.605C62.11 82.355 61.79 82.16 61.46 82.02C61.13 81.88 60.765 81.81 60.365 81.81C59.965 81.81 59.64 81.895 59.39 82.065C59.15 82.235 59.03 82.475 59.03 82.785C59.03 82.995 59.095 83.17 59.225 83.31C59.355 83.45 59.535 83.575 59.765 83.685C60.005 83.785 60.265 83.895 60.545 84.015L61.805 84.525C62.205 84.685 62.55 84.885 62.84 85.125C63.13 85.365 63.355 85.655 63.515 85.995C63.685 86.325 63.77 86.72 63.77 87.18C63.77 87.72 63.625 88.22 63.335 88.68C63.055 89.13 62.64 89.495 62.09 89.775C61.55 90.045 60.9 90.18 60.14 90.18ZM67.3964 90V81.945H64.6514V80.22H72.1964V81.945H69.4514V90H67.3964ZM72.4924 90L75.5974 80.22H78.0574L81.1624 90H78.9874L77.6374 84.96C77.4974 84.46 77.3574 83.935 77.2174 83.385C77.0874 82.835 76.9524 82.3 76.8124 81.78H76.7524C76.6324 82.3 76.5024 82.835 76.3624 83.385C76.2324 83.935 76.0974 84.46 75.9574 84.96L74.5924 90H72.4924ZM74.4724 87.57V85.965H79.1524V87.57H74.4724ZM82.2778 90V80.22H85.7278C86.4178 80.22 87.0428 80.31 87.6028 80.49C88.1628 80.67 88.6078 80.98 88.9378 81.42C89.2778 81.86 89.4478 82.46 89.4478 83.22C89.4478 83.95 89.2778 84.55 88.9378 85.02C88.6078 85.48 88.1628 85.825 87.6028 86.055C87.0428 86.275 86.4178 86.385 85.7278 86.385H84.3328V90H82.2778ZM87.5878 90L85.3528 85.83L86.7928 84.54L89.8978 90H87.5878ZM84.3328 84.735H85.5478C86.1578 84.735 86.6228 84.61 86.9428 84.36C87.2628 84.1 87.4228 83.72 87.4228 83.22C87.4228 82.71 87.2628 82.355 86.9428 82.155C86.6228 81.955 86.1578 81.855 85.5478 81.855H84.3328V84.735ZM94.3295 90.18C93.6895 90.18 93.0495 90.06 92.4095 89.82C91.7795 89.57 91.2195 89.215 90.7295 88.755L91.9145 87.345C92.2645 87.665 92.6545 87.92 93.0845 88.11C93.5245 88.3 93.9545 88.395 94.3745 88.395C94.8645 88.395 95.2295 88.305 95.4695 88.125C95.7195 87.935 95.8445 87.675 95.8445 87.345C95.8445 87.125 95.7845 86.945 95.6645 86.805C95.5445 86.665 95.3745 86.545 95.1545 86.445C94.9445 86.335 94.6945 86.22 94.4045 86.1L93.1145 85.545C92.7745 85.405 92.4545 85.22 92.1545 84.99C91.8545 84.76 91.6095 84.475 91.4195 84.135C91.2295 83.785 91.1345 83.375 91.1345 82.905C91.1345 82.365 91.2795 81.88 91.5695 81.45C91.8695 81.02 92.2745 80.68 92.7845 80.43C93.3045 80.17 93.8945 80.04 94.5545 80.04C95.1245 80.04 95.6795 80.15 96.2195 80.37C96.7695 80.59 97.2495 80.9 97.6595 81.3L96.6095 82.605C96.2995 82.355 95.9795 82.16 95.6495 82.02C95.3195 81.88 94.9545 81.81 94.5545 81.81C94.1545 81.81 93.8295 81.895 93.5795 82.065C93.3395 82.235 93.2195 82.475 93.2195 82.785C93.2195 82.995 93.2845 83.17 93.4145 83.31C93.5445 83.45 93.7245 83.575 93.9545 83.685C94.1945 83.785 94.4545 83.895 94.7345 84.015L95.9945 84.525C96.3945 84.685 96.7395 84.885 97.0295 85.125C97.3195 85.365 97.5445 85.655 97.7045 85.995C97.8745 86.325 97.9595 86.72 97.9595 87.18C97.9595 87.72 97.8145 88.22 97.5245 88.68C97.2445 89.13 96.8295 89.495 96.2795 89.775C95.7395 90.045 95.0895 90.18 94.3295 90.18ZM99.6508 90V80.22H101.706V84.03H105.276V80.22H107.331V90H105.276V85.83H101.706V90H99.6508ZM109.7 90V80.22H111.755V90H109.7ZM114.123 90V80.22H117.393C118.113 80.22 118.763 80.315 119.343 80.505C119.923 80.695 120.383 81.02 120.723 81.48C121.073 81.93 121.248 82.545 121.248 83.325C121.248 84.075 121.078 84.69 120.738 85.17C120.398 85.65 119.938 86.01 119.358 86.25C118.788 86.48 118.153 86.595 117.453 86.595H116.178V90H114.123ZM116.178 84.945H117.318C117.968 84.945 118.448 84.81 118.758 84.54C119.068 84.26 119.223 83.855 119.223 83.325C119.223 82.775 119.053 82.395 118.713 82.185C118.383 81.965 117.898 81.855 117.258 81.855H116.178V84.945Z" fill="white"/>
<path d="M178.5 94.5H56.5" stroke="#BBECF9"/>
<circle cx="178.5" cy="94.5" r="1.5" fill="white"/>
</g>
<defs>
<filter id="filter0_d_25_7" x="186" y="0" width="44.3211" height="308.043" filterUnits="userSpaceOnUse" color-interpolation-filters="sRGB">
<feFlood flood-opacity="0" result="BackgroundImageFix"/>
<feColorMatrix in="SourceAlpha" type="matrix" values="0 0 0 0 0 0 0 0 0 0 0 0 0 0 0 0 0 0 127 0" result="hardAlpha"/>
<feOffset dy="4"/>
<feGaussianBlur stdDeviation="2"/>
<feComposite in2="hardAlpha" operator="out"/>
<feColorMatrix type="matrix" values="0 0 0 0 0 0 0 0 0 0 0 0 0 0 0 0 0 0 0.25 0"/>
<feBlend mode="normal" in2="BackgroundImageFix" result="effect1_dropShadow_25_7"/>
<feBlend mode="normal" in="SourceGraphic" in2="effect1_dropShadow_25_7" result="shape"/>
</filter>
<clipPath id="clip0_25_7">
<rect width="391" height="320" fill="white"/>
</clipPath>
</defs>
</svg>
