<svg width="367" height="390" viewBox="0 0 367 390" fill="none" xmlns="http://www.w3.org/2000/svg">
<g filter="url(#filter0_d_75_295)">
<path d="M193.467 379.85L181.261 376.127V150.316L177.6 149.513L175.546 134.992L185.499 134.044V129.463L178.63 129.202V113.541H175.883V109.578H185.499V106.281H184.125V96.7604C184.125 96.7604 175.21 97.8457 175.546 97.7701V86.2374L185.499 84.8362V79.0184L176.062 79.3618V77.624L185.499 76.2571V66.6202L176.192 66.9637V65.2121L185.499 63.859V55.4379L183.782 55.795V51.1724C183.782 51.1724 188.934 49.6338 191.681 49.2491V45.5606H194.896V14.8709H196.787V0H199.924V14.8709H202.19V45.5606H206.106V49.256C206.106 49.256 211.793 50.2313 213.414 51.193V55.7882L212.287 55.4653V63.7353L221.519 65.2053V67.3071L212.287 66.6065V76.1609L221.389 77.6171V79.719L212.287 79.0252V85.0491L220.873 86.2374V98.8829C220.873 98.8829 215.035 96.9321 213.661 96.9802V106.274H212.287V109.571H221.217V113.534H218.25V129.195L212.287 129.511V134.36L220.873 134.985L219.122 149.506L215.722 150.337V376.216L193.467 379.85Z" fill="#D9D9D9" fill-opacity="0.4"/>
</g>
<path d="M7.61563 171V169.335H9.71563V163.59H7.93063V162.315C8.43063 162.215 8.86063 162.1 9.22062 161.97C9.58063 161.83 9.92563 161.665 10.2556 161.475H11.7706V169.335H13.5856V171H7.61563ZM14.7787 171V169.335H16.8787V163.59H15.0937V162.315C15.5937 162.215 16.0237 162.1 16.3837 161.97C16.7437 161.83 17.0887 161.665 17.4187 161.475H18.9337V169.335H20.7487V171H14.7787ZM24.7168 171.18C24.1068 171.18 23.5768 171.07 23.1268 170.85C22.6768 170.62 22.3018 170.355 22.0018 170.055L23.0968 168.825C23.2668 169.015 23.4868 169.18 23.7568 169.32C24.0368 169.45 24.3168 169.515 24.5968 169.515C24.9768 169.515 25.3218 169.405 25.6318 169.185C25.9418 168.965 26.1868 168.6 26.3668 168.09C26.5568 167.57 26.6518 166.87 26.6518 165.99C26.6518 165.2 26.5768 164.575 26.4268 164.115C26.2768 163.655 26.0768 163.33 25.8268 163.14C25.5868 162.94 25.3168 162.84 25.0168 162.84C24.7868 162.84 24.5718 162.9 24.3718 163.02C24.1818 163.13 24.0268 163.305 23.9068 163.545C23.7968 163.785 23.7418 164.09 23.7418 164.46C23.7418 164.81 23.7968 165.095 23.9068 165.315C24.0268 165.525 24.1868 165.685 24.3868 165.795C24.5868 165.895 24.8168 165.945 25.0768 165.945C25.3368 165.945 25.6068 165.865 25.8868 165.705C26.1668 165.545 26.4218 165.265 26.6518 164.865L26.7418 166.245C26.4918 166.605 26.1668 166.89 25.7668 167.1C25.3768 167.31 25.0168 167.415 24.6868 167.415C24.1468 167.415 23.6618 167.31 23.2318 167.1C22.8018 166.88 22.4668 166.555 22.2268 166.125C21.9868 165.685 21.8668 165.13 21.8668 164.46C21.8668 163.81 22.0068 163.25 22.2868 162.78C22.5768 162.3 22.9568 161.935 23.4268 161.685C23.8968 161.425 24.4168 161.295 24.9868 161.295C25.4468 161.295 25.8868 161.385 26.3068 161.565C26.7368 161.745 27.1168 162.025 27.4468 162.405C27.7768 162.785 28.0418 163.275 28.2418 163.875C28.4418 164.465 28.5418 165.17 28.5418 165.99C28.5418 166.89 28.4368 167.67 28.2268 168.33C28.0168 168.98 27.7318 169.515 27.3718 169.935C27.0118 170.355 26.6018 170.67 26.1418 170.88C25.6918 171.08 25.2168 171.18 24.7168 171.18ZM33.2013 171V163.575H34.8813L35.0313 164.55H35.0913C35.3913 164.24 35.7213 163.97 36.0813 163.74C36.4413 163.51 36.8613 163.395 37.3413 163.395C37.8713 163.395 38.3013 163.51 38.6313 163.74C38.9613 163.96 39.2163 164.27 39.3963 164.67C39.7263 164.32 40.0763 164.02 40.4463 163.77C40.8263 163.52 41.2563 163.395 41.7363 163.395C42.5363 163.395 43.1213 163.66 43.4913 164.19C43.8613 164.72 44.0463 165.45 44.0463 166.38V171H41.9913V166.65C41.9913 166.09 41.9113 165.7 41.7513 165.48C41.6013 165.26 41.3563 165.15 41.0163 165.15C40.8063 165.15 40.5913 165.215 40.3713 165.345C40.1513 165.475 39.9113 165.675 39.6513 165.945V171H37.5963V166.65C37.5963 166.09 37.5163 165.7 37.3563 165.48C37.2063 165.26 36.9613 165.15 36.6213 165.15C36.2113 165.15 35.7563 165.415 35.2563 165.945V171H33.2013Z" fill="#BBECF9"/>
<path d="M315.156 70V68.335H317.256V62.59H315.471V61.315C315.971 61.215 316.401 61.1 316.761 60.97C317.121 60.83 317.466 60.665 317.796 60.475H319.311V68.335H321.126V70H315.156ZM322.274 70V68.815C323.114 68.025 323.849 67.31 324.479 66.67C325.109 66.02 325.599 65.43 325.949 64.9C326.299 64.37 326.474 63.87 326.474 63.4C326.474 62.92 326.349 62.55 326.099 62.29C325.849 62.03 325.499 61.9 325.049 61.9C324.709 61.9 324.394 62 324.104 62.2C323.814 62.4 323.549 62.635 323.309 62.905L322.184 61.795C322.644 61.295 323.114 60.92 323.594 60.67C324.084 60.42 324.664 60.295 325.334 60.295C325.954 60.295 326.494 60.42 326.954 60.67C327.424 60.91 327.789 61.255 328.049 61.705C328.309 62.155 328.439 62.685 328.439 63.295C328.439 63.835 328.289 64.385 327.989 64.945C327.689 65.505 327.294 66.075 326.804 66.655C326.324 67.225 325.804 67.8 325.244 68.38C325.494 68.35 325.764 68.325 326.054 68.305C326.354 68.285 326.619 68.275 326.849 68.275H328.904V70H322.274ZM332 70C332.06 68.92 332.175 67.95 332.345 67.09C332.515 66.23 332.775 65.41 333.125 64.63C333.485 63.84 333.97 63.03 334.58 62.2H330.23V60.475H336.785V61.735C336.225 62.405 335.775 63.045 335.435 63.655C335.105 64.255 334.845 64.865 334.655 65.485C334.475 66.105 334.34 66.78 334.25 67.51C334.17 68.24 334.11 69.07 334.07 70H332ZM338.547 72.865L338.112 71.755C338.652 71.555 339.062 71.29 339.342 70.96C339.622 70.63 339.757 70.275 339.747 69.895L339.702 68.47L340.407 69.655C340.297 69.745 340.177 69.815 340.047 69.865C339.917 69.905 339.777 69.925 339.627 69.925C339.297 69.925 339.002 69.825 338.742 69.625C338.492 69.415 338.367 69.12 338.367 68.74C338.367 68.38 338.497 68.09 338.757 67.87C339.017 67.65 339.322 67.54 339.672 67.54C340.142 67.54 340.502 67.715 340.752 68.065C341.002 68.415 341.127 68.905 341.127 69.535C341.127 70.325 340.902 71.01 340.452 71.59C340.012 72.17 339.377 72.595 338.547 72.865ZM345.432 70.18C344.922 70.18 344.462 70.12 344.052 70C343.642 69.89 343.277 69.735 342.957 69.535C342.637 69.325 342.362 69.09 342.132 68.83L343.092 67.525C343.382 67.805 343.702 68.04 344.052 68.23C344.412 68.42 344.807 68.515 345.237 68.515C345.717 68.515 346.107 68.41 346.407 68.2C346.707 67.98 346.857 67.675 346.857 67.285C346.857 66.995 346.782 66.745 346.632 66.535C346.482 66.315 346.217 66.145 345.837 66.025C345.457 65.905 344.917 65.845 344.217 65.845V64.375C344.807 64.375 345.267 64.32 345.597 64.21C345.937 64.09 346.177 63.93 346.317 63.73C346.467 63.53 346.542 63.295 346.542 63.025C346.542 62.665 346.432 62.39 346.212 62.2C345.992 62 345.687 61.9 345.297 61.9C344.947 61.9 344.627 61.975 344.337 62.125C344.047 62.275 343.757 62.485 343.467 62.755L342.417 61.51C342.857 61.13 343.317 60.835 343.797 60.625C344.277 60.405 344.807 60.295 345.387 60.295C346.027 60.295 346.587 60.395 347.067 60.595C347.547 60.795 347.922 61.085 348.192 61.465C348.462 61.845 348.597 62.315 348.597 62.875C348.597 63.375 348.457 63.805 348.177 64.165C347.897 64.515 347.502 64.8 346.992 65.02V65.08C347.362 65.18 347.692 65.335 347.982 65.545C348.272 65.755 348.497 66.015 348.657 66.325C348.827 66.635 348.912 66.995 348.912 67.405C348.912 67.995 348.752 68.5 348.432 68.92C348.122 69.33 347.702 69.645 347.172 69.865C346.642 70.075 346.062 70.18 345.432 70.18ZM353.661 70V62.575H355.341L355.491 63.55H355.551C355.851 63.24 356.181 62.97 356.541 62.74C356.901 62.51 357.321 62.395 357.801 62.395C358.331 62.395 358.761 62.51 359.091 62.74C359.421 62.96 359.676 63.27 359.856 63.67C360.186 63.32 360.536 63.02 360.906 62.77C361.286 62.52 361.716 62.395 362.196 62.395C362.996 62.395 363.581 62.66 363.951 63.19C364.321 63.72 364.506 64.45 364.506 65.38V70H362.451V65.65C362.451 65.09 362.371 64.7 362.211 64.48C362.061 64.26 361.816 64.15 361.476 64.15C361.266 64.15 361.051 64.215 360.831 64.345C360.611 64.475 360.371 64.675 360.111 64.945V70H358.056V65.65C358.056 65.09 357.976 64.7 357.816 64.48C357.666 64.26 357.421 64.15 357.081 64.15C356.671 64.15 356.216 64.415 355.716 64.945V70H353.661Z" fill="#BBECF9"/>
<path d="M282.567 46.9155V39.4374H280.018V37.8359H287.023V39.4374H284.475V46.9155H282.567ZM292.116 47.0826C291.309 47.0826 290.594 46.8923 289.972 46.5117C289.359 46.131 288.881 45.5879 288.537 44.8824C288.194 44.1675 288.022 43.318 288.022 42.3339C288.022 41.3498 288.194 40.5096 288.537 39.8134C288.881 39.1171 289.359 38.5879 289.972 38.2258C290.594 37.8545 291.309 37.6688 292.116 37.6688C292.924 37.6688 293.634 37.8545 294.247 38.2258C294.86 38.5879 295.338 39.1171 295.681 39.8134C296.025 40.5096 296.197 41.3498 296.197 42.3339C296.197 43.318 296.025 44.1675 295.681 44.8824C295.338 45.5879 294.86 46.131 294.247 46.5117C293.634 46.8923 292.924 47.0826 292.116 47.0826ZM292.116 45.4255C292.543 45.4255 292.915 45.3001 293.23 45.0495C293.555 44.7988 293.801 44.4414 293.968 43.9772C294.145 43.513 294.233 42.9652 294.233 42.3339C294.233 41.7026 294.145 41.1642 293.968 40.7185C293.801 40.2636 293.555 39.9155 293.23 39.6741C292.915 39.4327 292.543 39.312 292.116 39.312C291.68 39.312 291.299 39.4327 290.974 39.6741C290.659 39.9155 290.413 40.2636 290.236 40.7185C290.069 41.1642 289.986 41.7026 289.986 42.3339C289.986 42.9652 290.069 43.513 290.236 43.9772C290.413 44.4414 290.659 44.7988 290.974 45.0495C291.299 45.3001 291.68 45.4255 292.116 45.4255ZM297.947 46.9155V37.8359H301.149C301.79 37.8359 302.37 37.9194 302.89 38.0866C303.41 38.2537 303.823 38.5415 304.13 38.95C304.445 39.3584 304.603 39.9155 304.603 40.6211C304.603 41.2988 304.445 41.8558 304.13 42.2922C303.823 42.7192 303.41 43.0395 302.89 43.253C302.37 43.4573 301.79 43.5594 301.149 43.5594H299.854V46.9155H297.947ZM302.876 46.9155L300.801 43.0441L302.138 41.8465L305.021 46.9155H302.876ZM299.854 42.0276H300.982C301.549 42.0276 301.98 41.9115 302.277 41.6794C302.575 41.438 302.723 41.0852 302.723 40.6211C302.723 40.1476 302.575 39.818 302.277 39.6323C301.98 39.4466 301.549 39.3538 300.982 39.3538H299.854V42.0276ZM306.392 46.9155V37.8359H309.595C310.235 37.8359 310.816 37.9194 311.335 38.0866C311.855 38.2537 312.268 38.5415 312.575 38.95C312.89 39.3584 313.048 39.9155 313.048 40.6211C313.048 41.2988 312.89 41.8558 312.575 42.2922C312.268 42.7192 311.855 43.0395 311.335 43.253C310.816 43.4573 310.235 43.5594 309.595 43.5594H308.3V46.9155H306.392ZM311.322 46.9155L309.247 43.0441L310.583 41.8465L313.466 46.9155H311.322ZM308.3 42.0276H309.428C309.994 42.0276 310.426 41.9115 310.723 41.6794C311.02 41.438 311.168 41.0852 311.168 40.6211C311.168 40.1476 311.02 39.818 310.723 39.6323C310.426 39.4466 309.994 39.3538 309.428 39.3538H308.3V42.0276ZM314.837 46.9155V37.8359H320.463V39.4374H316.745V41.4148H319.906V43.0302H316.745V45.3141H320.602V46.9155H314.837ZM325.213 46.9155V37.8359H330.839V39.4374H327.121V41.4148H330.282V43.0302H327.121V45.3141H330.979V46.9155H325.213ZM332.802 46.9155V37.8359H334.765L337.272 42.5428L338.191 44.5203H338.247C338.2 44.0375 338.145 43.5083 338.08 42.9327C338.024 42.3571 337.996 41.8047 337.996 41.2756V37.8359H339.821V46.9155H337.857L335.35 42.1947L334.431 40.2311H334.376C334.422 40.7139 334.473 41.2384 334.529 41.8047C334.594 42.3711 334.626 42.9188 334.626 43.448V46.9155H332.802ZM343.819 46.9155V39.4374H341.27V37.8359H348.275V39.4374H345.727V46.9155H343.819ZM349.72 46.9155V37.8359H355.346V39.4374H351.627V41.4148H354.789V43.0302H351.627V45.3141H355.485V46.9155H349.72ZM357.308 46.9155V37.8359H359.216V45.3141H362.864V46.9155H357.308Z" fill="white"/>
<path d="M211.618 53H366.068" stroke="#BBECF9"/>
<circle r="1.89898" transform="matrix(-1 0 0 1 211.618 52.5384)" fill="#BBECF9"/>
<path d="M151.706 369.858L161.494 350.625L161.068 206.038L159.262 194.189L161.027 187.149V174.785H166.35V176.845H170.3V174.785H180.26V176.845H183.694C183.522 176.159 183.282 174.785 183.694 174.785H188.502L188.674 187.149C188.955 189.539 189.471 191.902 190.219 194.189L188.502 205.351V350.625L198.634 369.858V379.302L196.745 379.818L189.876 376.04L190.013 378.444H188.124L190.013 381.191H159.921L161.295 378.444H159.749L159.894 376.04L154.941 379.818L151.679 379.302L151.706 369.858Z" fill="#B2B2B2"/>
<path d="M145.174 156.926L160.972 114.683C160.931 100.451 160.972 76.1561 161.302 60.4197L150.497 57.8439V50.4531L169.489 24.0083C171.625 19.1384 173.755 15.4224 175.225 15.4224C176.695 15.4224 179.078 19.1178 181.358 24.0083L199.609 50.4531V58.3522L188.619 60.4128C188.873 74.535 189.106 95.6771 189.106 114.676L204.561 156.919V172.202L193.399 174.778H183.989V176.839H180.211V174.778H170.252V176.839H166.302V174.778H156.171L145.181 172.202L145.174 156.926Z" fill="#DADADA"/>
<path d="M160.979 114.683L145.181 156.926V172.209L156.171 174.785M160.979 114.683C160.938 100.451 160.979 76.1561 161.309 60.4197M160.979 114.683L164.242 168.603L160.979 174.785M160.979 114.683L156.171 174.785M189.141 114.683L204.596 156.926V172.209L193.434 174.785M189.141 114.683C189.141 95.6771 188.907 74.535 188.653 60.4197M189.141 114.683L186.222 168.603L188.454 174.785M189.141 114.683L193.434 174.785M156.171 174.785H160.979M160.979 174.785H166.474M160.979 174.785V186.977M161.46 350.625L151.672 369.858V379.302L154.934 379.818L159.887 376.04M161.46 350.625L159.887 376.04M161.46 350.625L161.041 207.755M188.42 350.625L198.551 369.858V379.302L196.662 379.818L189.793 376.04M188.42 350.625L189.793 376.04M188.42 350.625V207.755M188.42 174.785H193.399M188.42 174.785H183.742M188.42 174.785L188.475 186.977M169.496 24.0083C166.117 31.7082 162.744 42.2861 162.009 45.645C161.693 47.0874 161.467 52.7335 161.322 60.4128M169.51 24.0083C171.646 19.1384 173.775 15.4224 175.245 15.4224C176.715 15.4224 179.099 19.1178 181.379 24.0083M169.51 24.0083L150.518 50.4531V57.837L161.322 60.4128M181.379 24.0083C184.813 31.3304 188.09 41.3245 188.296 45.645C188.406 48.049 188.543 53.3586 188.667 60.4128M181.379 24.0083L199.629 50.4531V58.3522L188.639 60.4128M159.921 376.04L159.777 378.444H161.322M189.862 376.04L189.999 378.444H188.11M161.322 378.444L159.949 381.191H190.027L188.138 378.444M161.35 378.444H163.239M188.138 378.444H187.108M166.501 174.785C166.824 165.89 168.96 158.588 170.073 155.896V174.785M166.501 174.785C166.501 175.52 166.501 176.262 166.501 177.017H170.107V174.785M170.107 174.785H180.239M180.239 174.785V177.017H183.845C183.845 176.262 183.845 175.52 183.804 174.785M180.239 174.785V155.896C181.345 158.588 183.481 165.89 183.804 174.785M161.027 186.977H164.942L167.861 197.452L164.942 207.755H161.089M161.027 186.977L159.275 194.189L161.089 207.755M188.502 186.977H184.594L181.674 197.452L184.594 207.755H188.447M188.502 186.977L190.26 194.189L188.447 207.755M170.588 378.444L170.073 349.767L163.204 370.545V378.444M170.588 378.444L163.204 379.818V378.444M170.588 378.444H179.346M179.346 378.444L187.073 379.818V378.444M179.346 378.444L179.861 349.595L187.073 370.545V378.444M166.124 38.9479H184.498C182.718 32.5943 178.384 19.9214 175.225 20.0588C172.065 20.1962 167.848 32.7111 166.13 38.9479H166.124Z" stroke="#010101" stroke-width="0.632992"/>
<path d="M145.174 156.926L160.972 114.683C160.931 100.451 160.972 76.156 161.302 60.4197L150.497 57.8439V50.4531L169.489 24.0083C171.626 19.1384 173.755 15.4224 175.225 15.4224C176.695 15.4224 179.078 19.1178 181.359 24.0083L199.609 50.4531V58.3522L188.619 60.4128C188.873 74.535 189.107 95.6771 189.107 114.676L204.561 156.919V172.202L193.4 174.778H188.42V350.618L198.551 369.851V379.296L196.662 379.811L189.793 376.033L189.931 378.437H188.042L189.931 381.184H159.921L161.295 378.437H159.749L159.894 376.033L154.941 379.811L151.679 379.296V369.858L161.467 350.625L160.951 174.785H156.143L145.153 172.209L145.174 156.926Z" stroke="#010101" stroke-width="1.89898"/>
<path d="M9.531 285.453V277.569H11.715C12.299 277.569 12.811 277.645 13.251 277.797C13.691 277.941 14.031 278.181 14.271 278.517C14.519 278.845 14.643 279.293 14.643 279.861C14.643 280.405 14.523 280.853 14.283 281.205C14.043 281.557 13.707 281.821 13.275 281.997C12.843 282.173 12.339 282.261 11.763 282.261H10.419V285.453H9.531ZM10.419 281.529H11.631C12.351 281.529 12.883 281.397 13.227 281.133C13.579 280.861 13.755 280.437 13.755 279.861C13.755 279.269 13.571 278.861 13.203 278.637C12.843 278.405 12.303 278.289 11.583 278.289H10.419V281.529ZM16.1853 285.453V279.633H16.9053L16.9773 280.701H17.0133C17.2133 280.333 17.4533 280.041 17.7333 279.825C18.0213 279.601 18.3333 279.489 18.6693 279.489C18.7893 279.489 18.8973 279.501 18.9933 279.525C19.0893 279.541 19.1813 279.569 19.2693 279.609L19.1013 280.377C19.0053 280.345 18.9173 280.321 18.8373 280.305C18.7653 280.289 18.6693 280.281 18.5493 280.281C18.3013 280.281 18.0413 280.385 17.7693 280.593C17.4973 280.793 17.2573 281.149 17.0493 281.661V285.453H16.1853ZM22.4834 285.597C22.0114 285.597 21.5714 285.477 21.1634 285.237C20.7554 284.997 20.4274 284.653 20.1794 284.205C19.9314 283.749 19.8074 283.197 19.8074 282.549C19.8074 281.901 19.9314 281.349 20.1794 280.893C20.4274 280.437 20.7554 280.089 21.1634 279.849C21.5714 279.609 22.0114 279.489 22.4834 279.489C22.9554 279.489 23.3914 279.609 23.7914 279.849C24.1994 280.089 24.5274 280.437 24.7754 280.893C25.0314 281.349 25.1594 281.901 25.1594 282.549C25.1594 283.197 25.0314 283.749 24.7754 284.205C24.5274 284.653 24.1994 284.997 23.7914 285.237C23.3914 285.477 22.9554 285.597 22.4834 285.597ZM22.4834 284.865C22.8354 284.865 23.1434 284.769 23.4074 284.577C23.6794 284.385 23.8874 284.117 24.0314 283.773C24.1834 283.421 24.2594 283.013 24.2594 282.549C24.2594 282.093 24.1834 281.689 24.0314 281.337C23.8874 280.985 23.6794 280.713 23.4074 280.521C23.1434 280.321 22.8354 280.221 22.4834 280.221C22.1394 280.221 21.8314 280.321 21.5594 280.521C21.2954 280.713 21.0874 280.985 20.9354 281.337C20.7914 281.689 20.7194 282.093 20.7194 282.549C20.7194 283.013 20.7914 283.421 20.9354 283.773C21.0874 284.117 21.2954 284.385 21.5594 284.577C21.8314 284.769 22.1394 284.865 22.4834 284.865ZM26.7439 287.949V279.633H27.4639L27.5359 280.329H27.5719C27.8359 280.097 28.1279 279.901 28.4479 279.741C28.7759 279.573 29.1119 279.489 29.4559 279.489C29.9599 279.489 30.3839 279.613 30.7279 279.861C31.0719 280.101 31.3279 280.445 31.4959 280.893C31.6719 281.333 31.7599 281.853 31.7599 282.453C31.7599 283.117 31.6399 283.685 31.3999 284.157C31.1679 284.621 30.8599 284.977 30.4759 285.225C30.0919 285.473 29.6799 285.597 29.2399 285.597C28.9759 285.597 28.7039 285.537 28.4239 285.417C28.1439 285.297 27.8639 285.129 27.5839 284.913L27.6079 285.945V287.949H26.7439ZM29.0959 284.853C29.4399 284.853 29.7439 284.757 30.0079 284.565C30.2719 284.373 30.4799 284.097 30.6319 283.737C30.7839 283.377 30.8599 282.953 30.8599 282.465C30.8599 282.025 30.8039 281.637 30.6919 281.301C30.5879 280.965 30.4159 280.705 30.1759 280.521C29.9439 280.329 29.6359 280.233 29.2519 280.233C28.9959 280.233 28.7319 280.305 28.4599 280.449C28.1959 280.585 27.9119 280.793 27.6079 281.073V284.217C27.8959 284.449 28.1679 284.613 28.4239 284.709C28.6799 284.805 28.9039 284.853 29.0959 284.853ZM35.045 285.597C34.445 285.597 34.001 285.405 33.713 285.021C33.425 284.637 33.281 284.073 33.281 283.329V279.633H34.145V283.221C34.145 283.781 34.237 284.193 34.421 284.457C34.605 284.713 34.901 284.841 35.309 284.841C35.613 284.841 35.889 284.761 36.137 284.601C36.385 284.433 36.653 284.169 36.941 283.809V279.633H37.817V285.453H37.085L37.013 284.529H36.977C36.705 284.849 36.417 285.109 36.113 285.309C35.809 285.501 35.453 285.597 35.045 285.597ZM40.7934 285.597C40.5774 285.597 40.3974 285.549 40.2534 285.453C40.1094 285.365 40.0054 285.233 39.9414 285.057C39.8774 284.873 39.8454 284.649 39.8454 284.385V276.885H40.7094V284.457C40.7094 284.601 40.7374 284.705 40.7934 284.769C40.8494 284.833 40.9134 284.865 40.9854 284.865C41.0094 284.865 41.0374 284.865 41.0694 284.865C41.1014 284.857 41.1454 284.849 41.2014 284.841L41.3214 285.513C41.2574 285.529 41.1814 285.545 41.0934 285.561C41.0134 285.585 40.9134 285.597 40.7934 285.597ZM44.3334 285.597C43.9174 285.597 43.5214 285.521 43.1454 285.369C42.7694 285.209 42.4454 285.017 42.1734 284.793L42.6174 284.205C42.8734 284.405 43.1374 284.573 43.4094 284.709C43.6814 284.845 44.0014 284.913 44.3694 284.913C44.7694 284.913 45.0694 284.817 45.2694 284.625C45.4694 284.433 45.5694 284.205 45.5694 283.941C45.5694 283.733 45.5014 283.561 45.3654 283.425C45.2294 283.281 45.0574 283.161 44.8494 283.065C44.6414 282.961 44.4294 282.869 44.2134 282.789C43.9414 282.693 43.6694 282.577 43.3974 282.441C43.1254 282.305 42.8974 282.133 42.7134 281.925C42.5374 281.717 42.4494 281.449 42.4494 281.121C42.4494 280.665 42.6214 280.281 42.9654 279.969C43.3174 279.649 43.8054 279.489 44.4294 279.489C44.7814 279.489 45.1094 279.553 45.4134 279.681C45.7174 279.809 45.9774 279.961 46.1934 280.137L45.7734 280.701C45.5734 280.557 45.3654 280.437 45.1494 280.341C44.9414 280.237 44.7014 280.185 44.4294 280.185C44.0454 280.185 43.7614 280.277 43.5774 280.461C43.3934 280.637 43.3014 280.841 43.3014 281.073C43.3014 281.265 43.3614 281.425 43.4814 281.553C43.6094 281.673 43.7734 281.777 43.9734 281.865C44.1734 281.953 44.3854 282.041 44.6094 282.129C44.8974 282.233 45.1774 282.353 45.4494 282.489C45.7294 282.617 45.9614 282.789 46.1454 283.005C46.3294 283.221 46.4214 283.517 46.4214 283.893C46.4214 284.197 46.3414 284.481 46.1814 284.745C46.0214 285.001 45.7854 285.209 45.4734 285.369C45.1614 285.521 44.7814 285.597 44.3334 285.597ZM50.0576 285.597C49.5856 285.597 49.1456 285.477 48.7376 285.237C48.3296 284.997 48.0016 284.653 47.7536 284.205C47.5056 283.749 47.3816 283.197 47.3816 282.549C47.3816 281.901 47.5056 281.349 47.7536 280.893C48.0016 280.437 48.3296 280.089 48.7376 279.849C49.1456 279.609 49.5856 279.489 50.0576 279.489C50.5296 279.489 50.9656 279.609 51.3656 279.849C51.7736 280.089 52.1016 280.437 52.3496 280.893C52.6056 281.349 52.7336 281.901 52.7336 282.549C52.7336 283.197 52.6056 283.749 52.3496 284.205C52.1016 284.653 51.7736 284.997 51.3656 285.237C50.9656 285.477 50.5296 285.597 50.0576 285.597ZM50.0576 284.865C50.4096 284.865 50.7176 284.769 50.9816 284.577C51.2536 284.385 51.4616 284.117 51.6056 283.773C51.7576 283.421 51.8336 283.013 51.8336 282.549C51.8336 282.093 51.7576 281.689 51.6056 281.337C51.4616 280.985 51.2536 280.713 50.9816 280.521C50.7176 280.321 50.4096 280.221 50.0576 280.221C49.7136 280.221 49.4056 280.321 49.1336 280.521C48.8696 280.713 48.6616 280.985 48.5096 281.337C48.3656 281.689 48.2936 282.093 48.2936 282.549C48.2936 283.013 48.3656 283.421 48.5096 283.773C48.6616 284.117 48.8696 284.385 49.1336 284.577C49.4056 284.769 49.7136 284.865 50.0576 284.865ZM54.3181 285.453V279.633H55.0381L55.1101 280.701H55.1461C55.3461 280.333 55.5861 280.041 55.8661 279.825C56.1541 279.601 56.4661 279.489 56.8021 279.489C56.9221 279.489 57.0301 279.501 57.1261 279.525C57.2221 279.541 57.3141 279.569 57.4021 279.609L57.2341 280.377C57.1381 280.345 57.0501 280.321 56.9701 280.305C56.8981 280.289 56.8021 280.281 56.6821 280.281C56.4341 280.281 56.1741 280.385 55.9021 280.593C55.6301 280.793 55.3901 281.149 55.1821 281.661V285.453H54.3181ZM62.7546 285.597C62.0266 285.597 61.4466 285.333 61.0146 284.805C60.5826 284.269 60.3666 283.517 60.3666 282.549C60.3666 281.925 60.4826 281.385 60.7146 280.929C60.9546 280.473 61.2666 280.121 61.6506 279.873C62.0346 279.617 62.4506 279.489 62.8986 279.489C63.2426 279.489 63.5386 279.549 63.7866 279.669C64.0346 279.789 64.2906 279.957 64.5546 280.173L64.5186 279.165V276.885H65.3826V285.453H64.6626L64.5906 284.745H64.5546C64.3306 284.977 64.0626 285.177 63.7506 285.345C63.4466 285.513 63.1146 285.597 62.7546 285.597ZM62.9466 284.853C63.2266 284.853 63.4946 284.785 63.7506 284.649C64.0066 284.505 64.2626 284.297 64.5186 284.025V280.869C64.2546 280.637 64.0026 280.473 63.7626 280.377C63.5226 280.281 63.2786 280.233 63.0306 280.233C62.7026 280.233 62.4026 280.333 62.1306 280.533C61.8666 280.725 61.6546 280.997 61.4946 281.349C61.3426 281.693 61.2666 282.093 61.2666 282.549C61.2666 283.261 61.4106 283.825 61.6986 284.241C61.9946 284.649 62.4106 284.853 62.9466 284.853ZM69.7237 285.597C69.2197 285.597 68.7557 285.477 68.3317 285.237C67.9157 284.989 67.5837 284.641 67.3357 284.193C67.0877 283.737 66.9637 283.189 66.9637 282.549C66.9637 281.917 67.0877 281.373 67.3357 280.917C67.5837 280.461 67.9037 280.109 68.2957 279.861C68.6957 279.613 69.1197 279.489 69.5677 279.489C70.0477 279.489 70.4597 279.601 70.8037 279.825C71.1477 280.049 71.4077 280.365 71.5837 280.773C71.7677 281.173 71.8597 281.653 71.8597 282.213C71.8597 282.309 71.8557 282.405 71.8477 282.501C71.8477 282.589 71.8397 282.669 71.8237 282.741H67.6477L67.6357 282.105H71.0797C71.0797 281.481 70.9477 281.009 70.6837 280.689C70.4197 280.361 70.0517 280.197 69.5797 280.197C69.2917 280.197 69.0117 280.281 68.7397 280.449C68.4677 280.617 68.2437 280.873 68.0677 281.217C67.8917 281.561 67.8037 282.005 67.8037 282.549C67.8037 283.069 67.8957 283.501 68.0797 283.845C68.2637 284.189 68.5077 284.449 68.8117 284.625C69.1237 284.801 69.4637 284.889 69.8317 284.889C70.1277 284.889 70.3917 284.845 70.6237 284.757C70.8637 284.669 71.0917 284.557 71.3077 284.421L71.6317 284.997C71.3837 285.157 71.1037 285.297 70.7917 285.417C70.4877 285.537 70.1317 285.597 69.7237 285.597ZM76.6763 285.597C76.4603 285.597 76.2803 285.549 76.1363 285.453C75.9923 285.365 75.8883 285.233 75.8243 285.057C75.7603 284.873 75.7283 284.649 75.7283 284.385V276.885H76.5923V284.457C76.5923 284.601 76.6203 284.705 76.6763 284.769C76.7323 284.833 76.7963 284.865 76.8683 284.865C76.8923 284.865 76.9203 284.865 76.9523 284.865C76.9843 284.857 77.0283 284.849 77.0843 284.841L77.2043 285.513C77.1403 285.529 77.0643 285.545 76.9763 285.561C76.8963 285.585 76.7963 285.597 76.6763 285.597ZM80.0483 285.597C79.7283 285.597 79.4403 285.533 79.1843 285.405C78.9283 285.277 78.7243 285.093 78.5723 284.853C78.4203 284.605 78.3443 284.305 78.3443 283.953C78.3443 283.321 78.6323 282.837 79.2083 282.501C79.7923 282.157 80.7123 281.917 81.9683 281.781C81.9683 281.517 81.9323 281.265 81.8603 281.025C81.7963 280.785 81.6723 280.593 81.4883 280.449C81.3123 280.297 81.0563 280.221 80.7203 280.221C80.3683 280.221 80.0403 280.289 79.7363 280.425C79.4403 280.561 79.1803 280.705 78.9563 280.857L78.6083 280.257C78.7763 280.145 78.9763 280.029 79.2083 279.909C79.4403 279.789 79.6963 279.689 79.9763 279.609C80.2563 279.529 80.5523 279.489 80.8643 279.489C81.3363 279.489 81.7163 279.589 82.0043 279.789C82.2923 279.989 82.5003 280.265 82.6283 280.617C82.7643 280.969 82.8323 281.381 82.8323 281.853V285.453H82.1123L82.0403 284.745H82.0043C81.7243 284.977 81.4203 285.177 81.0923 285.345C80.7643 285.513 80.4163 285.597 80.0483 285.597ZM80.2763 284.889C80.5803 284.889 80.8603 284.821 81.1163 284.685C81.3803 284.541 81.6643 284.337 81.9683 284.073V282.369C81.2803 282.449 80.7363 282.561 80.3363 282.705C79.9363 282.841 79.6483 283.009 79.4723 283.209C79.2963 283.409 79.2083 283.641 79.2083 283.905C79.2083 284.249 79.3123 284.501 79.5203 284.661C79.7363 284.813 79.9883 284.889 80.2763 284.889ZM84.74 285.453V279.633H85.46L85.532 280.497H85.568C85.848 280.209 86.144 279.969 86.456 279.777C86.776 279.585 87.132 279.489 87.524 279.489C88.14 279.489 88.588 279.681 88.868 280.065C89.156 280.449 89.3 281.013 89.3 281.757V285.453H88.424V281.865C88.424 281.305 88.332 280.897 88.148 280.641C87.972 280.385 87.68 280.257 87.272 280.257C86.968 280.257 86.692 280.337 86.444 280.497C86.196 280.649 85.916 280.881 85.604 281.193V285.453H84.74ZM90.5956 285.453V284.985L93.7516 280.353H90.9436V279.633H94.8556V280.101L91.6996 284.733H94.9636V285.453H90.5956ZM97.6029 285.597C97.2829 285.597 96.9949 285.533 96.7389 285.405C96.4829 285.277 96.2789 285.093 96.1269 284.853C95.9749 284.605 95.8989 284.305 95.8989 283.953C95.8989 283.321 96.1869 282.837 96.7629 282.501C97.3469 282.157 98.2669 281.917 99.5229 281.781C99.5229 281.517 99.4869 281.265 99.4149 281.025C99.3509 280.785 99.2269 280.593 99.0429 280.449C98.8669 280.297 98.6109 280.221 98.2749 280.221C97.9229 280.221 97.5949 280.289 97.2909 280.425C96.9949 280.561 96.7349 280.705 96.5109 280.857L96.1629 280.257C96.3309 280.145 96.5309 280.029 96.7629 279.909C96.9949 279.789 97.2509 279.689 97.5309 279.609C97.8109 279.529 98.1069 279.489 98.4189 279.489C98.8909 279.489 99.2709 279.589 99.5589 279.789C99.8469 279.989 100.055 280.265 100.183 280.617C100.319 280.969 100.387 281.381 100.387 281.853V285.453H99.6669L99.5949 284.745H99.5589C99.2789 284.977 98.9749 285.177 98.6469 285.345C98.3189 285.513 97.9709 285.597 97.6029 285.597ZM97.8309 284.889C98.1349 284.889 98.4149 284.821 98.6709 284.685C98.9349 284.541 99.2189 284.337 99.5229 284.073V282.369C98.8349 282.449 98.2909 282.561 97.8909 282.705C97.4909 282.841 97.2029 283.009 97.0269 283.209C96.8509 283.409 96.7629 283.641 96.7629 283.905C96.7629 284.249 96.8669 284.501 97.0749 284.661C97.2909 284.813 97.5429 284.889 97.8309 284.889ZM102.295 285.453V279.633H103.015L103.087 280.497H103.123C103.379 280.217 103.659 279.981 103.963 279.789C104.275 279.589 104.599 279.489 104.935 279.489C105.391 279.489 105.743 279.593 105.991 279.801C106.247 280.001 106.431 280.273 106.543 280.617C106.855 280.281 107.167 280.009 107.479 279.801C107.799 279.593 108.131 279.489 108.475 279.489C109.075 279.489 109.519 279.681 109.807 280.065C110.095 280.449 110.239 281.013 110.239 281.757V285.453H109.363V281.865C109.363 281.305 109.271 280.897 109.087 280.641C108.903 280.385 108.615 280.257 108.223 280.257C107.991 280.257 107.747 280.337 107.491 280.497C107.243 280.649 106.979 280.881 106.699 281.193V285.453H105.823V281.865C105.823 281.305 105.731 280.897 105.547 280.641C105.371 280.385 105.087 280.257 104.695 280.257C104.231 280.257 103.719 280.569 103.159 281.193V285.453H102.295ZM112.197 285.453V279.633H113.061V285.453H112.197ZM112.641 278.385C112.473 278.385 112.329 278.329 112.209 278.217C112.097 278.105 112.041 277.957 112.041 277.773C112.041 277.597 112.097 277.457 112.209 277.353C112.329 277.241 112.473 277.185 112.641 277.185C112.817 277.185 112.961 277.241 113.073 277.353C113.185 277.457 113.241 277.597 113.241 277.773C113.241 277.957 113.185 278.105 113.073 278.217C112.961 278.329 112.817 278.385 112.641 278.385ZM117.407 285.597C116.903 285.597 116.439 285.477 116.015 285.237C115.599 284.989 115.267 284.641 115.019 284.193C114.771 283.737 114.647 283.189 114.647 282.549C114.647 281.917 114.771 281.373 115.019 280.917C115.267 280.461 115.587 280.109 115.979 279.861C116.379 279.613 116.803 279.489 117.251 279.489C117.731 279.489 118.143 279.601 118.487 279.825C118.831 280.049 119.091 280.365 119.267 280.773C119.451 281.173 119.543 281.653 119.543 282.213C119.543 282.309 119.539 282.405 119.531 282.501C119.531 282.589 119.523 282.669 119.507 282.741H115.331L115.319 282.105H118.763C118.763 281.481 118.631 281.009 118.367 280.689C118.103 280.361 117.735 280.197 117.263 280.197C116.975 280.197 116.695 280.281 116.423 280.449C116.151 280.617 115.927 280.873 115.751 281.217C115.575 281.561 115.487 282.005 115.487 282.549C115.487 283.069 115.579 283.501 115.763 283.845C115.947 284.189 116.191 284.449 116.495 284.625C116.807 284.801 117.147 284.889 117.515 284.889C117.811 284.889 118.075 284.845 118.307 284.757C118.547 284.669 118.775 284.557 118.991 284.421L119.315 284.997C119.067 285.157 118.787 285.297 118.475 285.417C118.171 285.537 117.815 285.597 117.407 285.597ZM121.01 285.453V279.633H121.73L121.802 280.497H121.838C122.118 280.209 122.414 279.969 122.726 279.777C123.046 279.585 123.402 279.489 123.794 279.489C124.41 279.489 124.858 279.681 125.138 280.065C125.426 280.449 125.57 281.013 125.57 281.757V285.453H124.694V281.865C124.694 281.305 124.602 280.897 124.418 280.641C124.242 280.385 123.95 280.257 123.542 280.257C123.238 280.257 122.962 280.337 122.714 280.497C122.466 280.649 122.186 280.881 121.874 281.193V285.453H121.01ZM129.289 285.597C128.689 285.597 128.269 285.421 128.029 285.069C127.797 284.717 127.681 284.261 127.681 283.701V280.353H126.805V279.693L127.717 279.633L127.825 277.989H128.557V279.633H130.153V280.353H128.557V283.725C128.557 284.085 128.621 284.369 128.749 284.577C128.885 284.777 129.129 284.877 129.481 284.877C129.585 284.877 129.697 284.861 129.817 284.829C129.945 284.797 130.057 284.761 130.153 284.721L130.333 285.381C130.173 285.437 130.001 285.485 129.817 285.525C129.633 285.573 129.457 285.597 129.289 285.597ZM133.718 285.597C133.246 285.597 132.806 285.477 132.398 285.237C131.99 284.997 131.662 284.653 131.414 284.205C131.166 283.749 131.042 283.197 131.042 282.549C131.042 281.901 131.166 281.349 131.414 280.893C131.662 280.437 131.99 280.089 132.398 279.849C132.806 279.609 133.246 279.489 133.718 279.489C134.19 279.489 134.626 279.609 135.026 279.849C135.434 280.089 135.762 280.437 136.01 280.893C136.266 281.349 136.394 281.901 136.394 282.549C136.394 283.197 136.266 283.749 136.01 284.205C135.762 284.653 135.434 284.997 135.026 285.237C134.626 285.477 134.19 285.597 133.718 285.597ZM133.718 284.865C134.07 284.865 134.378 284.769 134.642 284.577C134.914 284.385 135.122 284.117 135.266 283.773C135.418 283.421 135.494 283.013 135.494 282.549C135.494 282.093 135.418 281.689 135.266 281.337C135.122 280.985 134.914 280.713 134.642 280.521C134.378 280.321 134.07 280.221 133.718 280.221C133.374 280.221 133.066 280.321 132.794 280.521C132.53 280.713 132.322 280.985 132.17 281.337C132.026 281.689 131.954 282.093 131.954 282.549C131.954 283.013 132.026 283.421 132.17 283.773C132.322 284.117 132.53 284.385 132.794 284.577C133.066 284.769 133.374 284.865 133.718 284.865ZM9.447 303.949V295.633H10.167L10.239 296.329H10.275C10.539 296.097 10.831 295.901 11.151 295.741C11.479 295.573 11.815 295.489 12.159 295.489C12.663 295.489 13.087 295.613 13.431 295.861C13.775 296.101 14.031 296.445 14.199 296.893C14.375 297.333 14.463 297.853 14.463 298.453C14.463 299.117 14.343 299.685 14.103 300.157C13.871 300.621 13.563 300.977 13.179 301.225C12.795 301.473 12.383 301.597 11.943 301.597C11.679 301.597 11.407 301.537 11.127 301.417C10.847 301.297 10.567 301.129 10.287 300.913L10.311 301.945V303.949H9.447ZM11.799 300.853C12.143 300.853 12.447 300.757 12.711 300.565C12.975 300.373 13.183 300.097 13.335 299.737C13.487 299.377 13.563 298.953 13.563 298.465C13.563 298.025 13.507 297.637 13.395 297.301C13.291 296.965 13.119 296.705 12.879 296.521C12.647 296.329 12.339 296.233 11.955 296.233C11.699 296.233 11.435 296.305 11.163 296.449C10.899 296.585 10.615 296.793 10.311 297.073V300.217C10.599 300.449 10.871 300.613 11.127 300.709C11.383 300.805 11.607 300.853 11.799 300.853ZM18.2881 301.597C17.8161 301.597 17.3761 301.477 16.9681 301.237C16.5601 300.997 16.2321 300.653 15.9841 300.205C15.7361 299.749 15.6121 299.197 15.6121 298.549C15.6121 297.901 15.7361 297.349 15.9841 296.893C16.2321 296.437 16.5601 296.089 16.9681 295.849C17.3761 295.609 17.8161 295.489 18.2881 295.489C18.7601 295.489 19.1961 295.609 19.5961 295.849C20.0041 296.089 20.3321 296.437 20.5801 296.893C20.8361 297.349 20.9641 297.901 20.9641 298.549C20.9641 299.197 20.8361 299.749 20.5801 300.205C20.3321 300.653 20.0041 300.997 19.5961 301.237C19.1961 301.477 18.7601 301.597 18.2881 301.597ZM18.2881 300.865C18.6401 300.865 18.9481 300.769 19.2121 300.577C19.4841 300.385 19.6921 300.117 19.8361 299.773C19.9881 299.421 20.0641 299.013 20.0641 298.549C20.0641 298.093 19.9881 297.689 19.8361 297.337C19.6921 296.985 19.4841 296.713 19.2121 296.521C18.9481 296.321 18.6401 296.221 18.2881 296.221C17.9441 296.221 17.6361 296.321 17.3641 296.521C17.1001 296.713 16.8921 296.985 16.7401 297.337C16.5961 297.689 16.5241 298.093 16.5241 298.549C16.5241 299.013 16.5961 299.421 16.7401 299.773C16.8921 300.117 17.1001 300.385 17.3641 300.577C17.6361 300.769 17.9441 300.865 18.2881 300.865ZM24.3126 301.597C23.7126 301.597 23.2926 301.421 23.0526 301.069C22.8206 300.717 22.7046 300.261 22.7046 299.701V296.353H21.8286V295.693L22.7406 295.633L22.8486 293.989H23.5806V295.633H25.1766V296.353H23.5806V299.725C23.5806 300.085 23.6446 300.369 23.7726 300.577C23.9086 300.777 24.1526 300.877 24.5046 300.877C24.6086 300.877 24.7206 300.861 24.8406 300.829C24.9686 300.797 25.0806 300.761 25.1766 300.721L25.3566 301.381C25.1966 301.437 25.0246 301.485 24.8406 301.525C24.6566 301.573 24.4806 301.597 24.3126 301.597ZM28.8252 301.597C28.3212 301.597 27.8572 301.477 27.4332 301.237C27.0172 300.989 26.6852 300.641 26.4372 300.193C26.1892 299.737 26.0652 299.189 26.0652 298.549C26.0652 297.917 26.1892 297.373 26.4372 296.917C26.6852 296.461 27.0052 296.109 27.3972 295.861C27.7972 295.613 28.2212 295.489 28.6692 295.489C29.1492 295.489 29.5612 295.601 29.9052 295.825C30.2492 296.049 30.5092 296.365 30.6852 296.773C30.8692 297.173 30.9612 297.653 30.9612 298.213C30.9612 298.309 30.9572 298.405 30.9492 298.501C30.9492 298.589 30.9412 298.669 30.9252 298.741H26.7492L26.7372 298.105H30.1812C30.1812 297.481 30.0492 297.009 29.7852 296.689C29.5212 296.361 29.1532 296.197 28.6812 296.197C28.3932 296.197 28.1132 296.281 27.8412 296.449C27.5692 296.617 27.3452 296.873 27.1692 297.217C26.9932 297.561 26.9052 298.005 26.9052 298.549C26.9052 299.069 26.9972 299.501 27.1812 299.845C27.3652 300.189 27.6092 300.449 27.9132 300.625C28.2252 300.801 28.5652 300.889 28.9332 300.889C29.2292 300.889 29.4932 300.845 29.7252 300.757C29.9652 300.669 30.1932 300.557 30.4092 300.421L30.7332 300.997C30.4852 301.157 30.2052 301.297 29.8932 301.417C29.5892 301.537 29.2332 301.597 28.8252 301.597ZM32.4275 301.453V295.633H33.1475L33.2195 296.497H33.2555C33.5355 296.209 33.8315 295.969 34.1435 295.777C34.4635 295.585 34.8195 295.489 35.2115 295.489C35.8275 295.489 36.2755 295.681 36.5555 296.065C36.8435 296.449 36.9875 297.013 36.9875 297.757V301.453H36.1115V297.865C36.1115 297.305 36.0195 296.897 35.8355 296.641C35.6595 296.385 35.3675 296.257 34.9595 296.257C34.6555 296.257 34.3795 296.337 34.1315 296.497C33.8835 296.649 33.6035 296.881 33.2915 297.193V301.453H32.4275ZM41.1991 301.597C40.6871 301.597 40.2271 301.477 39.8191 301.237C39.4111 300.997 39.0871 300.653 38.8471 300.205C38.6071 299.749 38.4871 299.197 38.4871 298.549C38.4871 297.901 38.6151 297.349 38.8711 296.893C39.1351 296.437 39.4751 296.089 39.8911 295.849C40.3071 295.609 40.7631 295.489 41.2591 295.489C41.6431 295.489 41.9711 295.561 42.2431 295.705C42.5151 295.841 42.7511 296.001 42.9511 296.185L42.4951 296.761C42.3271 296.601 42.1431 296.473 41.9431 296.377C41.7511 296.273 41.5351 296.221 41.2951 296.221C40.9271 296.221 40.5991 296.321 40.3111 296.521C40.0311 296.713 39.8071 296.985 39.6391 297.337C39.4791 297.689 39.3991 298.093 39.3991 298.549C39.3991 299.013 39.4751 299.421 39.6271 299.773C39.7871 300.117 40.0071 300.385 40.2871 300.577C40.5671 300.769 40.8951 300.865 41.2711 300.865C41.5511 300.865 41.8111 300.805 42.0511 300.685C42.2911 300.565 42.5031 300.425 42.6871 300.265L43.0711 300.853C42.8151 301.085 42.5271 301.269 42.2071 301.405C41.8871 301.533 41.5511 301.597 41.1991 301.597ZM44.3923 301.453V295.633H45.2563V301.453H44.3923ZM44.8363 294.385C44.6683 294.385 44.5243 294.329 44.4043 294.217C44.2923 294.105 44.2363 293.957 44.2363 293.773C44.2363 293.597 44.2923 293.457 44.4043 293.353C44.5243 293.241 44.6683 293.185 44.8363 293.185C45.0123 293.185 45.1563 293.241 45.2683 293.353C45.3803 293.457 45.4363 293.597 45.4363 293.773C45.4363 293.957 45.3803 294.105 45.2683 294.217C45.1563 294.329 45.0123 294.385 44.8363 294.385ZM48.6186 301.597C48.2986 301.597 48.0106 301.533 47.7546 301.405C47.4986 301.277 47.2946 301.093 47.1426 300.853C46.9906 300.605 46.9146 300.305 46.9146 299.953C46.9146 299.321 47.2026 298.837 47.7786 298.501C48.3626 298.157 49.2826 297.917 50.5386 297.781C50.5386 297.517 50.5026 297.265 50.4306 297.025C50.3666 296.785 50.2426 296.593 50.0586 296.449C49.8826 296.297 49.6266 296.221 49.2906 296.221C48.9386 296.221 48.6106 296.289 48.3066 296.425C48.0106 296.561 47.7506 296.705 47.5266 296.857L47.1786 296.257C47.3466 296.145 47.5466 296.029 47.7786 295.909C48.0106 295.789 48.2666 295.689 48.5466 295.609C48.8266 295.529 49.1226 295.489 49.4346 295.489C49.9066 295.489 50.2866 295.589 50.5746 295.789C50.8626 295.989 51.0706 296.265 51.1986 296.617C51.3346 296.969 51.4026 297.381 51.4026 297.853V301.453H50.6826L50.6106 300.745H50.5746C50.2946 300.977 49.9906 301.177 49.6626 301.345C49.3346 301.513 48.9866 301.597 48.6186 301.597ZM48.8466 300.889C49.1506 300.889 49.4306 300.821 49.6866 300.685C49.9506 300.541 50.2346 300.337 50.5386 300.073V298.369C49.8506 298.449 49.3066 298.561 48.9066 298.705C48.5066 298.841 48.2186 299.009 48.0426 299.209C47.8666 299.409 47.7786 299.641 47.7786 299.905C47.7786 300.249 47.8826 300.501 48.0906 300.661C48.3066 300.813 48.5586 300.889 48.8466 300.889ZM55.2663 301.597C54.5383 301.597 53.9583 301.333 53.5263 300.805C53.0943 300.269 52.8783 299.517 52.8783 298.549C52.8783 297.925 52.9943 297.385 53.2263 296.929C53.4663 296.473 53.7783 296.121 54.1623 295.873C54.5463 295.617 54.9623 295.489 55.4103 295.489C55.7543 295.489 56.0503 295.549 56.2983 295.669C56.5463 295.789 56.8023 295.957 57.0663 296.173L57.0303 295.165V292.885H57.8943V301.453H57.1743L57.1023 300.745H57.0663C56.8423 300.977 56.5743 301.177 56.2623 301.345C55.9583 301.513 55.6263 301.597 55.2663 301.597ZM55.4583 300.853C55.7383 300.853 56.0063 300.785 56.2623 300.649C56.5183 300.505 56.7743 300.297 57.0303 300.025V296.869C56.7663 296.637 56.5143 296.473 56.2743 296.377C56.0343 296.281 55.7903 296.233 55.5423 296.233C55.2143 296.233 54.9143 296.333 54.6423 296.533C54.3783 296.725 54.1663 296.997 54.0063 297.349C53.8543 297.693 53.7783 298.093 53.7783 298.549C53.7783 299.261 53.9223 299.825 54.2103 300.241C54.5063 300.649 54.9223 300.853 55.4583 300.853ZM62.1514 301.597C61.6794 301.597 61.2394 301.477 60.8314 301.237C60.4234 300.997 60.0954 300.653 59.8474 300.205C59.5994 299.749 59.4754 299.197 59.4754 298.549C59.4754 297.901 59.5994 297.349 59.8474 296.893C60.0954 296.437 60.4234 296.089 60.8314 295.849C61.2394 295.609 61.6794 295.489 62.1514 295.489C62.6234 295.489 63.0594 295.609 63.4594 295.849C63.8674 296.089 64.1954 296.437 64.4434 296.893C64.6994 297.349 64.8274 297.901 64.8274 298.549C64.8274 299.197 64.6994 299.749 64.4434 300.205C64.1954 300.653 63.8674 300.997 63.4594 301.237C63.0594 301.477 62.6234 301.597 62.1514 301.597ZM62.1514 300.865C62.5034 300.865 62.8114 300.769 63.0754 300.577C63.3474 300.385 63.5554 300.117 63.6994 299.773C63.8514 299.421 63.9274 299.013 63.9274 298.549C63.9274 298.093 63.8514 297.689 63.6994 297.337C63.5554 296.985 63.3474 296.713 63.0754 296.521C62.8114 296.321 62.5034 296.221 62.1514 296.221C61.8074 296.221 61.4994 296.321 61.2274 296.521C60.9634 296.713 60.7554 296.985 60.6034 297.337C60.4594 297.689 60.3874 298.093 60.3874 298.549C60.3874 299.013 60.4594 299.421 60.6034 299.773C60.7554 300.117 60.9634 300.385 61.2274 300.577C61.4994 300.769 61.8074 300.865 62.1514 300.865ZM68.8142 303.949V295.633H69.5342L69.6062 296.329H69.6422C69.9062 296.097 70.1982 295.901 70.5182 295.741C70.8462 295.573 71.1822 295.489 71.5262 295.489C72.0302 295.489 72.4542 295.613 72.7982 295.861C73.1422 296.101 73.3982 296.445 73.5662 296.893C73.7422 297.333 73.8302 297.853 73.8302 298.453C73.8302 299.117 73.7102 299.685 73.4702 300.157C73.2382 300.621 72.9302 300.977 72.5462 301.225C72.1622 301.473 71.7502 301.597 71.3102 301.597C71.0462 301.597 70.7742 301.537 70.4942 301.417C70.2142 301.297 69.9342 301.129 69.6542 300.913L69.6782 301.945V303.949H68.8142ZM71.1662 300.853C71.5102 300.853 71.8142 300.757 72.0782 300.565C72.3422 300.373 72.5502 300.097 72.7022 299.737C72.8542 299.377 72.9302 298.953 72.9302 298.465C72.9302 298.025 72.8742 297.637 72.7622 297.301C72.6582 296.965 72.4862 296.705 72.2462 296.521C72.0142 296.329 71.7062 296.233 71.3222 296.233C71.0662 296.233 70.8022 296.305 70.5302 296.449C70.2662 296.585 69.9822 296.793 69.6782 297.073V300.217C69.9662 300.449 70.2382 300.613 70.4942 300.709C70.7502 300.805 70.9742 300.853 71.1662 300.853ZM77.6553 301.597C77.1833 301.597 76.7433 301.477 76.3353 301.237C75.9273 300.997 75.5993 300.653 75.3513 300.205C75.1033 299.749 74.9793 299.197 74.9793 298.549C74.9793 297.901 75.1033 297.349 75.3513 296.893C75.5993 296.437 75.9273 296.089 76.3353 295.849C76.7433 295.609 77.1833 295.489 77.6553 295.489C78.1273 295.489 78.5633 295.609 78.9633 295.849C79.3713 296.089 79.6993 296.437 79.9473 296.893C80.2033 297.349 80.3313 297.901 80.3313 298.549C80.3313 299.197 80.2033 299.749 79.9473 300.205C79.6993 300.653 79.3713 300.997 78.9633 301.237C78.5633 301.477 78.1273 301.597 77.6553 301.597ZM77.6553 300.865C78.0073 300.865 78.3153 300.769 78.5793 300.577C78.8513 300.385 79.0593 300.117 79.2033 299.773C79.3553 299.421 79.4313 299.013 79.4313 298.549C79.4313 298.093 79.3553 297.689 79.2033 297.337C79.0593 296.985 78.8513 296.713 78.5793 296.521C78.3153 296.321 78.0073 296.221 77.6553 296.221C77.3113 296.221 77.0033 296.321 76.7313 296.521C76.4673 296.713 76.2593 296.985 76.1073 297.337C75.9633 297.689 75.8913 298.093 75.8913 298.549C75.8913 299.013 75.9633 299.421 76.1073 299.773C76.2593 300.117 76.4673 300.385 76.7313 300.577C77.0033 300.769 77.3113 300.865 77.6553 300.865ZM81.9158 301.453V295.633H82.6358L82.7078 296.701H82.7438C82.9438 296.333 83.1838 296.041 83.4638 295.825C83.7518 295.601 84.0638 295.489 84.3998 295.489C84.5198 295.489 84.6278 295.501 84.7238 295.525C84.8198 295.541 84.9118 295.569 84.9998 295.609L84.8318 296.377C84.7358 296.345 84.6478 296.321 84.5678 296.305C84.4958 296.289 84.3998 296.281 84.2798 296.281C84.0318 296.281 83.7718 296.385 83.4998 296.593C83.2278 296.793 82.9878 297.149 82.7798 297.661V301.453H81.9158ZM90.1962 301.597C89.7882 301.597 89.4282 301.545 89.1162 301.441C88.8042 301.337 88.5322 301.205 88.3002 301.045C88.0682 300.877 87.8682 300.701 87.7002 300.517L88.1442 299.941C88.3762 300.181 88.6482 300.397 88.9602 300.589C89.2802 300.773 89.6762 300.865 90.1482 300.865C90.6282 300.865 91.0202 300.733 91.3242 300.469C91.6362 300.197 91.7922 299.837 91.7922 299.389C91.7922 299.077 91.7082 298.801 91.5402 298.561C91.3802 298.321 91.1162 298.137 90.7482 298.009C90.3882 297.873 89.9002 297.805 89.2842 297.805V297.121C89.8362 297.121 90.2722 297.057 90.5922 296.929C90.9202 296.793 91.1562 296.613 91.3002 296.389C91.4442 296.165 91.5162 295.913 91.5162 295.633C91.5162 295.249 91.3922 294.945 91.1442 294.721C90.8962 294.489 90.5602 294.373 90.1362 294.373C89.8082 294.373 89.5042 294.449 89.2242 294.601C88.9442 294.745 88.6922 294.933 88.4682 295.165L87.9882 294.601C88.2842 294.329 88.6082 294.105 88.9602 293.929C89.3122 293.745 89.7122 293.653 90.1602 293.653C90.5922 293.653 90.9762 293.729 91.3122 293.881C91.6482 294.033 91.9122 294.253 92.1042 294.541C92.3042 294.821 92.4042 295.165 92.4042 295.573C92.4042 296.045 92.2722 296.433 92.0082 296.737C91.7522 297.033 91.4122 297.257 90.9882 297.409V297.457C91.3002 297.529 91.5842 297.653 91.8402 297.829C92.0962 297.997 92.3002 298.217 92.4522 298.489C92.6042 298.753 92.6802 299.061 92.6802 299.413C92.6802 299.869 92.5682 300.261 92.3442 300.589C92.1202 300.909 91.8202 301.157 91.4442 301.333C91.0682 301.509 90.6522 301.597 90.1962 301.597ZM96.1025 301.597C95.6945 301.597 95.3345 301.545 95.0225 301.441C94.7105 301.337 94.4385 301.205 94.2065 301.045C93.9745 300.877 93.7745 300.701 93.6065 300.517L94.0505 299.941C94.2825 300.181 94.5545 300.397 94.8665 300.589C95.1865 300.773 95.5825 300.865 96.0545 300.865C96.5345 300.865 96.9265 300.733 97.2305 300.469C97.5425 300.197 97.6985 299.837 97.6985 299.389C97.6985 299.077 97.6145 298.801 97.4465 298.561C97.2865 298.321 97.0225 298.137 96.6545 298.009C96.2945 297.873 95.8065 297.805 95.1905 297.805V297.121C95.7425 297.121 96.1785 297.057 96.4985 296.929C96.8265 296.793 97.0625 296.613 97.2065 296.389C97.3505 296.165 97.4225 295.913 97.4225 295.633C97.4225 295.249 97.2985 294.945 97.0505 294.721C96.8025 294.489 96.4665 294.373 96.0425 294.373C95.7145 294.373 95.4105 294.449 95.1305 294.601C94.8505 294.745 94.5985 294.933 94.3745 295.165L93.8945 294.601C94.1905 294.329 94.5145 294.105 94.8665 293.929C95.2185 293.745 95.6185 293.653 96.0665 293.653C96.4985 293.653 96.8825 293.729 97.2185 293.881C97.5545 294.033 97.8185 294.253 98.0105 294.541C98.2105 294.821 98.3105 295.165 98.3105 295.573C98.3105 296.045 98.1785 296.433 97.9145 296.737C97.6585 297.033 97.3185 297.257 96.8945 297.409V297.457C97.2065 297.529 97.4905 297.653 97.7465 297.829C98.0025 297.997 98.2065 298.217 98.3585 298.489C98.5105 298.753 98.5865 299.061 98.5865 299.413C98.5865 299.869 98.4745 300.261 98.2505 300.589C98.0265 300.909 97.7265 301.157 97.3505 301.333C96.9745 301.509 96.5585 301.597 96.1025 301.597ZM9.447 317.453V311.633H10.167L10.239 312.497H10.275C10.531 312.217 10.811 311.981 11.115 311.789C11.427 311.589 11.751 311.489 12.087 311.489C12.543 311.489 12.895 311.593 13.143 311.801C13.399 312.001 13.583 312.273 13.695 312.617C14.007 312.281 14.319 312.009 14.631 311.801C14.951 311.593 15.283 311.489 15.627 311.489C16.227 311.489 16.671 311.681 16.959 312.065C17.247 312.449 17.391 313.013 17.391 313.757V317.453H16.515V313.865C16.515 313.305 16.423 312.897 16.239 312.641C16.055 312.385 15.767 312.257 15.375 312.257C15.143 312.257 14.899 312.337 14.643 312.497C14.395 312.649 14.131 312.881 13.851 313.193V317.453H12.975V313.865C12.975 313.305 12.883 312.897 12.699 312.641C12.523 312.385 12.239 312.257 11.847 312.257C11.383 312.257 10.871 312.569 10.311 313.193V317.453H9.447ZM21.5693 317.597C21.0973 317.597 20.6573 317.477 20.2493 317.237C19.8413 316.997 19.5133 316.653 19.2653 316.205C19.0173 315.749 18.8933 315.197 18.8933 314.549C18.8933 313.901 19.0173 313.349 19.2653 312.893C19.5133 312.437 19.8413 312.089 20.2493 311.849C20.6573 311.609 21.0973 311.489 21.5693 311.489C22.0413 311.489 22.4773 311.609 22.8773 311.849C23.2853 312.089 23.6133 312.437 23.8613 312.893C24.1173 313.349 24.2453 313.901 24.2453 314.549C24.2453 315.197 24.1173 315.749 23.8613 316.205C23.6133 316.653 23.2853 316.997 22.8773 317.237C22.4773 317.477 22.0413 317.597 21.5693 317.597ZM21.5693 316.865C21.9213 316.865 22.2293 316.769 22.4933 316.577C22.7653 316.385 22.9733 316.117 23.1173 315.773C23.2693 315.421 23.3453 315.013 23.3453 314.549C23.3453 314.093 23.2693 313.689 23.1173 313.337C22.9733 312.985 22.7653 312.713 22.4933 312.521C22.2293 312.321 21.9213 312.221 21.5693 312.221C21.2253 312.221 20.9173 312.321 20.6453 312.521C20.3813 312.713 20.1733 312.985 20.0213 313.337C19.8773 313.689 19.8053 314.093 19.8053 314.549C19.8053 315.013 19.8773 315.421 20.0213 315.773C20.1733 316.117 20.3813 316.385 20.6453 316.577C20.9173 316.769 21.2253 316.865 21.5693 316.865ZM27.5938 317.597C26.9938 317.597 26.5738 317.421 26.3338 317.069C26.1018 316.717 25.9858 316.261 25.9858 315.701V312.353H25.1098V311.693L26.0218 311.633L26.1298 309.989H26.8618V311.633H28.4578V312.353H26.8618V315.725C26.8618 316.085 26.9258 316.369 27.0538 316.577C27.1898 316.777 27.4338 316.877 27.7858 316.877C27.8898 316.877 28.0018 316.861 28.1218 316.829C28.2498 316.797 28.3618 316.761 28.4578 316.721L28.6378 317.381C28.4778 317.437 28.3058 317.485 28.1218 317.525C27.9378 317.573 27.7618 317.597 27.5938 317.597ZM32.0225 317.597C31.5505 317.597 31.1105 317.477 30.7025 317.237C30.2945 316.997 29.9665 316.653 29.7185 316.205C29.4705 315.749 29.3465 315.197 29.3465 314.549C29.3465 313.901 29.4705 313.349 29.7185 312.893C29.9665 312.437 30.2945 312.089 30.7025 311.849C31.1105 311.609 31.5505 311.489 32.0225 311.489C32.4945 311.489 32.9305 311.609 33.3305 311.849C33.7385 312.089 34.0665 312.437 34.3145 312.893C34.5705 313.349 34.6985 313.901 34.6985 314.549C34.6985 315.197 34.5705 315.749 34.3145 316.205C34.0665 316.653 33.7385 316.997 33.3305 317.237C32.9305 317.477 32.4945 317.597 32.0225 317.597ZM32.0225 316.865C32.3745 316.865 32.6825 316.769 32.9465 316.577C33.2185 316.385 33.4265 316.117 33.5705 315.773C33.7225 315.421 33.7985 315.013 33.7985 314.549C33.7985 314.093 33.7225 313.689 33.5705 313.337C33.4265 312.985 33.2185 312.713 32.9465 312.521C32.6825 312.321 32.3745 312.221 32.0225 312.221C31.6785 312.221 31.3705 312.321 31.0985 312.521C30.8345 312.713 30.6265 312.985 30.4745 313.337C30.3305 313.689 30.2585 314.093 30.2585 314.549C30.2585 315.013 30.3305 315.421 30.4745 315.773C30.6265 316.117 30.8345 316.385 31.0985 316.577C31.3705 316.769 31.6785 316.865 32.0225 316.865ZM36.2829 317.453V311.633H37.0029L37.0749 312.701H37.1109C37.3109 312.333 37.5509 312.041 37.8309 311.825C38.1189 311.601 38.4309 311.489 38.7669 311.489C38.8869 311.489 38.9949 311.501 39.0909 311.525C39.1869 311.541 39.2789 311.569 39.3669 311.609L39.1989 312.377C39.1029 312.345 39.0149 312.321 38.9349 312.305C38.8629 312.289 38.7669 312.281 38.6469 312.281C38.3989 312.281 38.1389 312.385 37.8669 312.593C37.5949 312.793 37.3549 313.149 37.1469 313.661V317.453H36.2829ZM42.6651 317.597C42.1611 317.597 41.6971 317.477 41.2731 317.237C40.8571 316.989 40.5251 316.641 40.2771 316.193C40.0291 315.737 39.9051 315.189 39.9051 314.549C39.9051 313.917 40.0291 313.373 40.2771 312.917C40.5251 312.461 40.8451 312.109 41.2371 311.861C41.6371 311.613 42.0611 311.489 42.5091 311.489C42.9891 311.489 43.4011 311.601 43.7451 311.825C44.0891 312.049 44.3491 312.365 44.5251 312.773C44.7091 313.173 44.8011 313.653 44.8011 314.213C44.8011 314.309 44.7971 314.405 44.7891 314.501C44.7891 314.589 44.7811 314.669 44.7651 314.741H40.5891L40.5771 314.105H44.0211C44.0211 313.481 43.8891 313.009 43.6251 312.689C43.3611 312.361 42.9931 312.197 42.5211 312.197C42.2331 312.197 41.9531 312.281 41.6811 312.449C41.4091 312.617 41.1851 312.873 41.0091 313.217C40.8331 313.561 40.7451 314.005 40.7451 314.549C40.7451 315.069 40.8371 315.501 41.0211 315.845C41.2051 316.189 41.4491 316.449 41.7531 316.625C42.0651 316.801 42.4051 316.889 42.7731 316.889C43.0691 316.889 43.3331 316.845 43.5651 316.757C43.8051 316.669 44.0331 316.557 44.2491 316.421L44.5731 316.997C44.3251 317.157 44.0451 317.297 43.7331 317.417C43.4291 317.537 43.0731 317.597 42.6651 317.597ZM47.7553 317.597C47.3393 317.597 46.9433 317.521 46.5673 317.369C46.1913 317.209 45.8673 317.017 45.5953 316.793L46.0393 316.205C46.2953 316.405 46.5593 316.573 46.8313 316.709C47.1033 316.845 47.4233 316.913 47.7913 316.913C48.1913 316.913 48.4913 316.817 48.6913 316.625C48.8913 316.433 48.9913 316.205 48.9913 315.941C48.9913 315.733 48.9233 315.561 48.7873 315.425C48.6513 315.281 48.4793 315.161 48.2713 315.065C48.0633 314.961 47.8513 314.869 47.6353 314.789C47.3633 314.693 47.0913 314.577 46.8193 314.441C46.5473 314.305 46.3193 314.133 46.1353 313.925C45.9593 313.717 45.8713 313.449 45.8713 313.121C45.8713 312.665 46.0433 312.281 46.3873 311.969C46.7393 311.649 47.2273 311.489 47.8513 311.489C48.2033 311.489 48.5313 311.553 48.8353 311.681C49.1393 311.809 49.3993 311.961 49.6153 312.137L49.1953 312.701C48.9953 312.557 48.7873 312.437 48.5713 312.341C48.3633 312.237 48.1233 312.185 47.8513 312.185C47.4673 312.185 47.1833 312.277 46.9993 312.461C46.8153 312.637 46.7233 312.841 46.7233 313.073C46.7233 313.265 46.7833 313.425 46.9033 313.553C47.0313 313.673 47.1953 313.777 47.3953 313.865C47.5953 313.953 47.8073 314.041 48.0313 314.129C48.3193 314.233 48.5993 314.353 48.8713 314.489C49.1513 314.617 49.3833 314.789 49.5673 315.005C49.7513 315.221 49.8433 315.517 49.8433 315.893C49.8433 316.197 49.7633 316.481 49.6033 316.745C49.4433 317.001 49.2073 317.209 48.8953 317.369C48.5833 317.521 48.2033 317.597 47.7553 317.597ZM53.7458 317.453V309.569H56.1578C56.6858 309.569 57.1538 309.641 57.5618 309.785C57.9698 309.921 58.2898 310.149 58.5218 310.469C58.7538 310.789 58.8698 311.217 58.8698 311.753C58.8698 312.265 58.7538 312.693 58.5218 313.037C58.2898 313.373 57.9698 313.625 57.5618 313.793C57.1538 313.961 56.6858 314.045 56.1578 314.045H54.6338V317.453H53.7458ZM58.0778 317.453L55.9778 313.805L56.6978 313.373L59.0858 317.453H58.0778ZM54.6338 313.325H56.0138C56.6458 313.325 57.1298 313.197 57.4658 312.941C57.8098 312.677 57.9818 312.281 57.9818 311.753C57.9818 311.217 57.8098 310.841 57.4658 310.625C57.1298 310.401 56.6458 310.289 56.0138 310.289H54.6338V313.325ZM61.7436 317.597C61.4236 317.597 61.1356 317.533 60.8796 317.405C60.6236 317.277 60.4196 317.093 60.2676 316.853C60.1156 316.605 60.0396 316.305 60.0396 315.953C60.0396 315.321 60.3276 314.837 60.9036 314.501C61.4876 314.157 62.4076 313.917 63.6636 313.781C63.6636 313.517 63.6276 313.265 63.5556 313.025C63.4916 312.785 63.3676 312.593 63.1836 312.449C63.0076 312.297 62.7516 312.221 62.4156 312.221C62.0636 312.221 61.7356 312.289 61.4316 312.425C61.1356 312.561 60.8756 312.705 60.6516 312.857L60.3036 312.257C60.4716 312.145 60.6716 312.029 60.9036 311.909C61.1356 311.789 61.3916 311.689 61.6716 311.609C61.9516 311.529 62.2476 311.489 62.5596 311.489C63.0316 311.489 63.4116 311.589 63.6996 311.789C63.9876 311.989 64.1956 312.265 64.3236 312.617C64.4596 312.969 64.5276 313.381 64.5276 313.853V317.453H63.8076L63.7356 316.745H63.6996C63.4196 316.977 63.1156 317.177 62.7876 317.345C62.4596 317.513 62.1116 317.597 61.7436 317.597ZM61.9716 316.889C62.2756 316.889 62.5556 316.821 62.8116 316.685C63.0756 316.541 63.3596 316.337 63.6636 316.073V314.369C62.9756 314.449 62.4316 314.561 62.0316 314.705C61.6316 314.841 61.3436 315.009 61.1676 315.209C60.9916 315.409 60.9036 315.641 60.9036 315.905C60.9036 316.249 61.0076 316.501 61.2156 316.661C61.4316 316.813 61.6836 316.889 61.9716 316.889ZM66.4353 319.949V311.633H67.1553L67.2273 312.329H67.2633C67.5273 312.097 67.8193 311.901 68.1393 311.741C68.4673 311.573 68.8033 311.489 69.1473 311.489C69.6513 311.489 70.0753 311.613 70.4193 311.861C70.7633 312.101 71.0193 312.445 71.1873 312.893C71.3633 313.333 71.4513 313.853 71.4513 314.453C71.4513 315.117 71.3313 315.685 71.0913 316.157C70.8593 316.621 70.5513 316.977 70.1673 317.225C69.7833 317.473 69.3713 317.597 68.9313 317.597C68.6673 317.597 68.3953 317.537 68.1153 317.417C67.8353 317.297 67.5553 317.129 67.2753 316.913L67.2993 317.945V319.949H66.4353ZM68.7873 316.853C69.1313 316.853 69.4353 316.757 69.6993 316.565C69.9633 316.373 70.1713 316.097 70.3233 315.737C70.4753 315.377 70.5513 314.953 70.5513 314.465C70.5513 314.025 70.4953 313.637 70.3833 313.301C70.2793 312.965 70.1073 312.705 69.8673 312.521C69.6353 312.329 69.3273 312.233 68.9433 312.233C68.6873 312.233 68.4233 312.305 68.1513 312.449C67.8873 312.585 67.6033 312.793 67.2993 313.073V316.217C67.5873 316.449 67.8593 316.613 68.1153 316.709C68.3713 316.805 68.5953 316.853 68.7873 316.853ZM74.8204 317.597C74.2204 317.597 73.8004 317.421 73.5604 317.069C73.3284 316.717 73.2124 316.261 73.2124 315.701V312.353H72.3364V311.693L73.2484 311.633L73.3564 309.989H74.0884V311.633H75.6844V312.353H74.0884V315.725C74.0884 316.085 74.1524 316.369 74.2804 316.577C74.4164 316.777 74.6604 316.877 75.0124 316.877C75.1164 316.877 75.2284 316.861 75.3484 316.829C75.4764 316.797 75.5884 316.761 75.6844 316.721L75.8644 317.381C75.7044 317.437 75.5324 317.485 75.3484 317.525C75.1644 317.573 74.9884 317.597 74.8204 317.597ZM79.249 317.597C78.777 317.597 78.337 317.477 77.929 317.237C77.521 316.997 77.193 316.653 76.945 316.205C76.697 315.749 76.573 315.197 76.573 314.549C76.573 313.901 76.697 313.349 76.945 312.893C77.193 312.437 77.521 312.089 77.929 311.849C78.337 311.609 78.777 311.489 79.249 311.489C79.721 311.489 80.157 311.609 80.557 311.849C80.965 312.089 81.293 312.437 81.541 312.893C81.797 313.349 81.925 313.901 81.925 314.549C81.925 315.197 81.797 315.749 81.541 316.205C81.293 316.653 80.965 316.997 80.557 317.237C80.157 317.477 79.721 317.597 79.249 317.597ZM79.249 316.865C79.601 316.865 79.909 316.769 80.173 316.577C80.445 316.385 80.653 316.117 80.797 315.773C80.949 315.421 81.025 315.013 81.025 314.549C81.025 314.093 80.949 313.689 80.797 313.337C80.653 312.985 80.445 312.713 80.173 312.521C79.909 312.321 79.601 312.221 79.249 312.221C78.905 312.221 78.597 312.321 78.325 312.521C78.061 312.713 77.853 312.985 77.701 313.337C77.557 313.689 77.485 314.093 77.485 314.549C77.485 315.013 77.557 315.421 77.701 315.773C77.853 316.117 78.061 316.385 78.325 316.577C78.597 316.769 78.905 316.865 79.249 316.865ZM83.5095 317.453V311.633H84.2295L84.3015 312.701H84.3375C84.5375 312.333 84.7775 312.041 85.0575 311.825C85.3455 311.601 85.6575 311.489 85.9935 311.489C86.1135 311.489 86.2215 311.501 86.3175 311.525C86.4135 311.541 86.5055 311.569 86.5935 311.609L86.4255 312.377C86.3295 312.345 86.2415 312.321 86.1615 312.305C86.0895 312.289 85.9935 312.281 85.8735 312.281C85.6255 312.281 85.3655 312.385 85.0935 312.593C84.8215 312.793 84.5815 313.149 84.3735 313.661V317.453H83.5095Z" fill="white"/>
<path d="M11.0047 266.098C10.4105 266.098 9.81632 265.987 9.22216 265.764C8.63727 265.532 8.11737 265.202 7.66246 264.775L8.7626 263.466C9.08754 263.763 9.44961 264 9.84882 264.176C10.2573 264.353 10.6565 264.441 11.0464 264.441C11.5013 264.441 11.8402 264.357 12.063 264.19C12.2951 264.014 12.4112 263.772 12.4112 263.466C12.4112 263.262 12.3555 263.095 12.2441 262.965C12.1327 262.835 11.9748 262.723 11.7706 262.63C11.5756 262.528 11.3435 262.422 11.0743 262.31L9.87667 261.795C9.56102 261.665 9.26393 261.493 8.98542 261.28C8.7069 261.066 8.47944 260.802 8.30305 260.486C8.12666 260.161 8.03846 259.78 8.03846 259.344C8.03846 258.843 8.17308 258.392 8.44231 257.993C8.72083 257.594 9.09682 257.278 9.5703 257.046C10.0531 256.805 10.6008 256.684 11.2135 256.684C11.7427 256.684 12.258 256.786 12.7593 256.991C13.2699 257.195 13.7156 257.483 14.0962 257.854L13.1214 259.065C12.8336 258.833 12.5365 258.652 12.2301 258.522C11.9238 258.392 11.5849 258.327 11.2135 258.327C10.8422 258.327 10.5405 258.406 10.3084 258.564C10.0856 258.722 9.97415 258.945 9.97415 259.233C9.97415 259.428 10.0345 259.59 10.1552 259.72C10.2759 259.85 10.443 259.966 10.6565 260.068C10.8793 260.161 11.1207 260.263 11.3807 260.375L12.5504 260.848C12.9218 260.997 13.2421 261.182 13.5113 261.405C13.7805 261.628 13.9894 261.897 14.138 262.213C14.2958 262.519 14.3747 262.886 14.3747 263.313C14.3747 263.814 14.2401 264.278 13.9709 264.705C13.7109 265.123 13.3256 265.462 12.815 265.722C12.3137 265.973 11.7102 266.098 11.0047 266.098ZM19.4682 266.098C18.9019 266.098 18.3959 266.014 17.9503 265.847C17.5047 265.68 17.1287 265.425 16.8223 265.081C16.5159 264.738 16.2838 264.292 16.126 263.745C15.9682 263.197 15.8893 262.547 15.8893 261.795V256.851H17.811V261.976C17.811 262.589 17.876 263.076 18.006 263.438C18.136 263.8 18.3263 264.06 18.5769 264.218C18.8276 264.367 19.1247 264.441 19.4682 264.441C19.821 264.441 20.1227 264.367 20.3734 264.218C20.624 264.06 20.819 263.8 20.9583 263.438C21.0975 263.076 21.1671 262.589 21.1671 261.976V256.851H23.0054V261.795C23.0054 262.547 22.9264 263.197 22.7686 263.745C22.6201 264.292 22.3926 264.738 22.0863 265.081C21.7892 265.425 21.4178 265.68 20.9722 265.847C20.5358 266.014 20.0345 266.098 19.4682 266.098ZM25.1654 265.931V256.851H28.2012C28.8697 256.851 29.4731 256.939 30.0116 257.116C30.55 257.292 30.9771 257.594 31.2927 258.021C31.6177 258.439 31.7802 259.01 31.7802 259.734C31.7802 260.43 31.6223 261.001 31.3067 261.447C30.991 261.892 30.564 262.227 30.0255 262.449C29.4963 262.663 28.9068 262.77 28.2569 262.77H27.0732V265.931H25.1654ZM27.0732 261.238H28.1316C28.735 261.238 29.1807 261.113 29.4685 260.862C29.7563 260.602 29.9002 260.226 29.9002 259.734C29.9002 259.223 29.7423 258.871 29.4267 258.676C29.1203 258.471 28.67 258.369 28.0759 258.369H27.0732V261.238ZM33.4066 265.931V256.851H39.0327V258.453H35.3145V260.43H38.4756V262.046H35.3145V264.329H39.1719V265.931H33.4066ZM40.9951 265.931V256.851H44.1981C44.8387 256.851 45.4189 256.935 45.9388 257.102C46.4587 257.269 46.8718 257.557 47.1782 257.965C47.4939 258.374 47.6517 258.931 47.6517 259.636C47.6517 260.314 47.4939 260.871 47.1782 261.308C46.8718 261.735 46.4587 262.055 45.9388 262.268C45.4189 262.473 44.8387 262.575 44.1981 262.575H42.903V265.931H40.9951ZM45.9249 265.931L43.8499 262.06L45.1868 260.862L48.0695 265.931H45.9249ZM42.903 261.043H44.031C44.5973 261.043 45.029 260.927 45.3261 260.695C45.6232 260.453 45.7717 260.101 45.7717 259.636C45.7717 259.163 45.6232 258.833 45.3261 258.648C45.029 258.462 44.5973 258.369 44.031 258.369H42.903V261.043ZM49.4404 265.931V256.851H51.3482V260.388H54.6626V256.851H56.5704V265.931H54.6626V262.06H51.3482V265.931H49.4404ZM58.7696 265.931V256.851H64.3956V258.453H60.6774V260.43H63.8386V262.046H60.6774V264.329H64.5349V265.931H58.7696ZM65.1883 265.931L68.071 256.851H70.3548L73.2375 265.931H71.2182L69.9649 261.252C69.8349 260.788 69.7049 260.3 69.575 259.79C69.4543 259.279 69.3289 258.782 69.199 258.3H69.1433C69.0319 258.782 68.9112 259.279 68.7812 259.79C68.6605 260.3 68.5352 260.788 68.4052 261.252L67.1379 265.931H65.1883ZM67.0265 263.675V262.185H71.3714V263.675H67.0265ZM75.8605 265.931L73.0893 256.851H75.1085L76.2644 261.182C76.4129 261.693 76.5382 262.185 76.6404 262.658C76.7518 263.123 76.8771 263.61 77.0164 264.121H77.0721C77.2206 263.61 77.3506 263.123 77.462 262.658C77.5734 262.185 77.6941 261.693 77.8241 261.182L78.952 256.851H80.9156L78.1444 265.931H75.8605ZM83.4752 265.931V262.644L80.7318 256.851H82.7789L83.6563 259.01C83.7769 259.353 83.8976 259.687 84.0183 260.012C84.1483 260.337 84.2783 260.672 84.4083 261.015H84.464C84.6032 260.672 84.7378 260.337 84.8678 260.012C84.9978 259.687 85.1278 259.353 85.2577 259.01L86.1211 256.851H88.1265L85.3831 262.644V265.931H83.4752Z" fill="white"/>
<path d="M162.244 270.288H7.79395" stroke="#BBECF9"/>
<circle cx="162.244" cy="270.288" r="1.89898" fill="#BBECF9"/>
<path d="M9.76 135V127.872H7.336V127.116H13.06V127.872H10.648V135H9.76ZM14.4184 135V129.18H15.1384L15.2104 130.248H15.2464C15.4464 129.88 15.6864 129.588 15.9664 129.372C16.2544 129.148 16.5664 129.036 16.9024 129.036C17.0224 129.036 17.1304 129.048 17.2264 129.072C17.3224 129.088 17.4144 129.116 17.5024 129.156L17.3344 129.924C17.2384 129.892 17.1504 129.868 17.0704 129.852C16.9984 129.836 16.9024 129.828 16.7824 129.828C16.5344 129.828 16.2744 129.932 16.0024 130.14C15.7304 130.34 15.4904 130.696 15.2824 131.208V135H14.4184ZM19.8166 135.144C19.4966 135.144 19.2086 135.08 18.9526 134.952C18.6966 134.824 18.4926 134.64 18.3406 134.4C18.1886 134.152 18.1126 133.852 18.1126 133.5C18.1126 132.868 18.4006 132.384 18.9766 132.048C19.5606 131.704 20.4806 131.464 21.7366 131.328C21.7366 131.064 21.7006 130.812 21.6286 130.572C21.5646 130.332 21.4406 130.14 21.2566 129.996C21.0806 129.844 20.8246 129.768 20.4886 129.768C20.1366 129.768 19.8086 129.836 19.5046 129.972C19.2086 130.108 18.9486 130.252 18.7246 130.404L18.3766 129.804C18.5446 129.692 18.7446 129.576 18.9766 129.456C19.2086 129.336 19.4646 129.236 19.7446 129.156C20.0246 129.076 20.3206 129.036 20.6326 129.036C21.1046 129.036 21.4846 129.136 21.7726 129.336C22.0606 129.536 22.2686 129.812 22.3966 130.164C22.5326 130.516 22.6006 130.928 22.6006 131.4V135H21.8806L21.8086 134.292H21.7726C21.4926 134.524 21.1886 134.724 20.8606 134.892C20.5326 135.06 20.1846 135.144 19.8166 135.144ZM20.0446 134.436C20.3486 134.436 20.6286 134.368 20.8846 134.232C21.1486 134.088 21.4326 133.884 21.7366 133.62V131.916C21.0486 131.996 20.5046 132.108 20.1046 132.252C19.7046 132.388 19.4166 132.556 19.2406 132.756C19.0646 132.956 18.9766 133.188 18.9766 133.452C18.9766 133.796 19.0806 134.048 19.2886 134.208C19.5046 134.36 19.7566 134.436 20.0446 134.436ZM24.5083 135V129.18H25.2283L25.3003 130.044H25.3363C25.6163 129.756 25.9123 129.516 26.2243 129.324C26.5443 129.132 26.9003 129.036 27.2923 129.036C27.9083 129.036 28.3563 129.228 28.6363 129.612C28.9243 129.996 29.0683 130.56 29.0683 131.304V135H28.1923V131.412C28.1923 130.852 28.1003 130.444 27.9163 130.188C27.7403 129.932 27.4483 129.804 27.0403 129.804C26.7363 129.804 26.4603 129.884 26.2123 130.044C25.9643 130.196 25.6843 130.428 25.3723 130.74V135H24.5083ZM32.5119 135.144C32.0959 135.144 31.6999 135.068 31.3239 134.916C30.9479 134.756 30.6239 134.564 30.3519 134.34L30.7959 133.752C31.0519 133.952 31.3159 134.12 31.5879 134.256C31.8599 134.392 32.1799 134.46 32.5479 134.46C32.9479 134.46 33.2479 134.364 33.4479 134.172C33.6479 133.98 33.7479 133.752 33.7479 133.488C33.7479 133.28 33.6799 133.108 33.5439 132.972C33.4079 132.828 33.2359 132.708 33.0279 132.612C32.8199 132.508 32.6079 132.416 32.3919 132.336C32.1199 132.24 31.8479 132.124 31.5759 131.988C31.3039 131.852 31.0759 131.68 30.8919 131.472C30.7159 131.264 30.6279 130.996 30.6279 130.668C30.6279 130.212 30.7999 129.828 31.1439 129.516C31.4959 129.196 31.9839 129.036 32.6079 129.036C32.9599 129.036 33.2879 129.1 33.5919 129.228C33.8959 129.356 34.1559 129.508 34.3719 129.684L33.9519 130.248C33.7519 130.104 33.5439 129.984 33.3279 129.888C33.1199 129.784 32.8799 129.732 32.6079 129.732C32.2239 129.732 31.9399 129.824 31.7559 130.008C31.5719 130.184 31.4799 130.388 31.4799 130.62C31.4799 130.812 31.5399 130.972 31.6599 131.1C31.7879 131.22 31.9519 131.324 32.1519 131.412C32.3519 131.5 32.5639 131.588 32.7879 131.676C33.0759 131.78 33.3559 131.9 33.6279 132.036C33.9079 132.164 34.1399 132.336 34.3239 132.552C34.5079 132.768 34.5999 133.064 34.5999 133.44C34.5999 133.744 34.5199 134.028 34.3599 134.292C34.1999 134.548 33.9639 134.756 33.6519 134.916C33.3399 135.068 32.9599 135.144 32.5119 135.144ZM36.0161 137.496V129.18H36.7361L36.8081 129.876H36.8441C37.1081 129.644 37.4001 129.448 37.7201 129.288C38.0481 129.12 38.3841 129.036 38.7281 129.036C39.2321 129.036 39.6561 129.16 40.0001 129.408C40.3441 129.648 40.6001 129.992 40.7681 130.44C40.9441 130.88 41.0321 131.4 41.0321 132C41.0321 132.664 40.9121 133.232 40.6721 133.704C40.4401 134.168 40.1321 134.524 39.7481 134.772C39.3641 135.02 38.9521 135.144 38.5121 135.144C38.2481 135.144 37.9761 135.084 37.6961 134.964C37.4161 134.844 37.1361 134.676 36.8561 134.46L36.8801 135.492V137.496H36.0161ZM38.3681 134.4C38.7121 134.4 39.0161 134.304 39.2801 134.112C39.5441 133.92 39.7521 133.644 39.9041 133.284C40.0561 132.924 40.1321 132.5 40.1321 132.012C40.1321 131.572 40.0761 131.184 39.9641 130.848C39.8601 130.512 39.6881 130.252 39.4481 130.068C39.2161 129.876 38.9081 129.78 38.5241 129.78C38.2681 129.78 38.0041 129.852 37.7321 129.996C37.4681 130.132 37.1841 130.34 36.8801 130.62V133.764C37.1681 133.996 37.4401 134.16 37.6961 134.256C37.9521 134.352 38.1761 134.4 38.3681 134.4ZM44.8572 135.144C44.3852 135.144 43.9452 135.024 43.5372 134.784C43.1292 134.544 42.8012 134.2 42.5532 133.752C42.3052 133.296 42.1812 132.744 42.1812 132.096C42.1812 131.448 42.3052 130.896 42.5532 130.44C42.8012 129.984 43.1292 129.636 43.5372 129.396C43.9452 129.156 44.3852 129.036 44.8572 129.036C45.3292 129.036 45.7652 129.156 46.1652 129.396C46.5732 129.636 46.9012 129.984 47.1492 130.44C47.4052 130.896 47.5332 131.448 47.5332 132.096C47.5332 132.744 47.4052 133.296 47.1492 133.752C46.9012 134.2 46.5732 134.544 46.1652 134.784C45.7652 135.024 45.3292 135.144 44.8572 135.144ZM44.8572 134.412C45.2092 134.412 45.5172 134.316 45.7812 134.124C46.0532 133.932 46.2612 133.664 46.4052 133.32C46.5572 132.968 46.6332 132.56 46.6332 132.096C46.6332 131.64 46.5572 131.236 46.4052 130.884C46.2612 130.532 46.0532 130.26 45.7812 130.068C45.5172 129.868 45.2092 129.768 44.8572 129.768C44.5132 129.768 44.2052 129.868 43.9332 130.068C43.6692 130.26 43.4612 130.532 43.3092 130.884C43.1652 131.236 43.0932 131.64 43.0932 132.096C43.0932 132.56 43.1652 132.968 43.3092 133.32C43.4612 133.664 43.6692 133.932 43.9332 134.124C44.2052 134.316 44.5132 134.412 44.8572 134.412ZM49.1177 135V129.18H49.8377L49.9097 130.248H49.9457C50.1457 129.88 50.3857 129.588 50.6657 129.372C50.9537 129.148 51.2657 129.036 51.6017 129.036C51.7217 129.036 51.8297 129.048 51.9257 129.072C52.0217 129.088 52.1137 129.116 52.2017 129.156L52.0337 129.924C51.9377 129.892 51.8497 129.868 51.7697 129.852C51.6977 129.836 51.6017 129.828 51.4817 129.828C51.2337 129.828 50.9737 129.932 50.7017 130.14C50.4297 130.34 50.1897 130.696 49.9817 131.208V135H49.1177ZM54.9598 135.144C54.3598 135.144 53.9398 134.968 53.6998 134.616C53.4678 134.264 53.3518 133.808 53.3518 133.248V129.9H52.4758V129.24L53.3878 129.18L53.4958 127.536H54.2278V129.18H55.8238V129.9H54.2278V133.272C54.2278 133.632 54.2918 133.916 54.4198 134.124C54.5558 134.324 54.7998 134.424 55.1518 134.424C55.2558 134.424 55.3678 134.408 55.4878 134.376C55.6158 134.344 55.7278 134.308 55.8238 134.268L56.0038 134.928C55.8438 134.984 55.6718 135.032 55.4878 135.072C55.3038 135.12 55.1278 135.144 54.9598 135.144ZM59.4724 135.144C58.9684 135.144 58.5044 135.024 58.0804 134.784C57.6644 134.536 57.3324 134.188 57.0844 133.74C56.8364 133.284 56.7124 132.736 56.7124 132.096C56.7124 131.464 56.8364 130.92 57.0844 130.464C57.3324 130.008 57.6524 129.656 58.0444 129.408C58.4444 129.16 58.8684 129.036 59.3164 129.036C59.7964 129.036 60.2084 129.148 60.5524 129.372C60.8964 129.596 61.1564 129.912 61.3324 130.32C61.5164 130.72 61.6084 131.2 61.6084 131.76C61.6084 131.856 61.6044 131.952 61.5964 132.048C61.5964 132.136 61.5884 132.216 61.5724 132.288H57.3964L57.3844 131.652H60.8284C60.8284 131.028 60.6964 130.556 60.4324 130.236C60.1684 129.908 59.8004 129.744 59.3284 129.744C59.0404 129.744 58.7604 129.828 58.4884 129.996C58.2164 130.164 57.9924 130.42 57.8164 130.764C57.6404 131.108 57.5524 131.552 57.5524 132.096C57.5524 132.616 57.6444 133.048 57.8284 133.392C58.0124 133.736 58.2564 133.996 58.5604 134.172C58.8724 134.348 59.2124 134.436 59.5804 134.436C59.8764 134.436 60.1404 134.392 60.3724 134.304C60.6124 134.216 60.8404 134.104 61.0564 133.968L61.3804 134.544C61.1324 134.704 60.8524 134.844 60.5404 134.964C60.2364 135.084 59.8804 135.144 59.4724 135.144ZM67.433 135.144C66.705 135.144 66.125 134.88 65.693 134.352C65.261 133.816 65.045 133.064 65.045 132.096C65.045 131.472 65.161 130.932 65.393 130.476C65.633 130.02 65.945 129.668 66.329 129.42C66.713 129.164 67.129 129.036 67.577 129.036C67.921 129.036 68.217 129.096 68.465 129.216C68.713 129.336 68.969 129.504 69.233 129.72L69.197 128.712V126.432H70.061V135H69.341L69.269 134.292H69.233C69.009 134.524 68.741 134.724 68.429 134.892C68.125 135.06 67.793 135.144 67.433 135.144ZM67.625 134.4C67.905 134.4 68.173 134.332 68.429 134.196C68.685 134.052 68.941 133.844 69.197 133.572V130.416C68.933 130.184 68.681 130.02 68.441 129.924C68.201 129.828 67.957 129.78 67.709 129.78C67.381 129.78 67.081 129.88 66.809 130.08C66.545 130.272 66.333 130.544 66.173 130.896C66.021 131.24 65.945 131.64 65.945 132.096C65.945 132.808 66.089 133.372 66.377 133.788C66.673 134.196 67.089 134.4 67.625 134.4ZM74.4021 135.144C73.8981 135.144 73.4341 135.024 73.0101 134.784C72.5941 134.536 72.2621 134.188 72.0141 133.74C71.7661 133.284 71.6421 132.736 71.6421 132.096C71.6421 131.464 71.7661 130.92 72.0141 130.464C72.2621 130.008 72.5821 129.656 72.9741 129.408C73.3741 129.16 73.7981 129.036 74.2461 129.036C74.7261 129.036 75.1381 129.148 75.4821 129.372C75.8261 129.596 76.0861 129.912 76.2621 130.32C76.4461 130.72 76.5381 131.2 76.5381 131.76C76.5381 131.856 76.5341 131.952 76.5261 132.048C76.5261 132.136 76.5181 132.216 76.5021 132.288H72.3261L72.3141 131.652H75.7581C75.7581 131.028 75.6261 130.556 75.3621 130.236C75.0981 129.908 74.7301 129.744 74.2581 129.744C73.9701 129.744 73.6901 129.828 73.4181 129.996C73.1461 130.164 72.9221 130.42 72.7461 130.764C72.5701 131.108 72.4821 131.552 72.4821 132.096C72.4821 132.616 72.5741 133.048 72.7581 133.392C72.9421 133.736 73.1861 133.996 73.4901 134.172C73.8021 134.348 74.1421 134.436 74.5101 134.436C74.8061 134.436 75.0701 134.392 75.3021 134.304C75.5421 134.216 75.7701 134.104 75.9861 133.968L76.3101 134.544C76.0621 134.704 75.7821 134.844 75.4701 134.964C75.1661 135.084 74.8101 135.144 74.4021 135.144ZM10.276 151.144C9.764 151.144 9.304 151.024 8.896 150.784C8.488 150.544 8.164 150.2 7.924 149.752C7.684 149.296 7.564 148.744 7.564 148.096C7.564 147.448 7.692 146.896 7.948 146.44C8.212 145.984 8.552 145.636 8.968 145.396C9.384 145.156 9.84 145.036 10.336 145.036C10.72 145.036 11.048 145.108 11.32 145.252C11.592 145.388 11.828 145.548 12.028 145.732L11.572 146.308C11.404 146.148 11.22 146.02 11.02 145.924C10.828 145.82 10.612 145.768 10.372 145.768C10.004 145.768 9.676 145.868 9.388 146.068C9.108 146.26 8.884 146.532 8.716 146.884C8.556 147.236 8.476 147.64 8.476 148.096C8.476 148.56 8.552 148.968 8.704 149.32C8.864 149.664 9.084 149.932 9.364 150.124C9.644 150.316 9.972 150.412 10.348 150.412C10.628 150.412 10.888 150.352 11.128 150.232C11.368 150.112 11.58 149.972 11.764 149.812L12.148 150.4C11.892 150.632 11.604 150.816 11.284 150.952C10.964 151.08 10.628 151.144 10.276 151.144ZM14.7892 151.144C14.4692 151.144 14.1812 151.08 13.9252 150.952C13.6692 150.824 13.4652 150.64 13.3132 150.4C13.1612 150.152 13.0852 149.852 13.0852 149.5C13.0852 148.868 13.3732 148.384 13.9492 148.048C14.5332 147.704 15.4532 147.464 16.7092 147.328C16.7092 147.064 16.6732 146.812 16.6012 146.572C16.5372 146.332 16.4132 146.14 16.2292 145.996C16.0532 145.844 15.7972 145.768 15.4612 145.768C15.1092 145.768 14.7812 145.836 14.4772 145.972C14.1812 146.108 13.9212 146.252 13.6972 146.404L13.3492 145.804C13.5172 145.692 13.7172 145.576 13.9492 145.456C14.1812 145.336 14.4372 145.236 14.7172 145.156C14.9972 145.076 15.2932 145.036 15.6052 145.036C16.0772 145.036 16.4572 145.136 16.7452 145.336C17.0332 145.536 17.2412 145.812 17.3692 146.164C17.5052 146.516 17.5732 146.928 17.5732 147.4V151H16.8532L16.7812 150.292H16.7452C16.4652 150.524 16.1612 150.724 15.8332 150.892C15.5052 151.06 15.1572 151.144 14.7892 151.144ZM15.0172 150.436C15.3212 150.436 15.6012 150.368 15.8572 150.232C16.1212 150.088 16.4052 149.884 16.7092 149.62V147.916C16.0212 147.996 15.4772 148.108 15.0772 148.252C14.6772 148.388 14.3892 148.556 14.2132 148.756C14.0372 148.956 13.9492 149.188 13.9492 149.452C13.9492 149.796 14.0532 150.048 14.2612 150.208C14.4772 150.36 14.7292 150.436 15.0172 150.436ZM19.4809 151V145.18H20.2009L20.2729 146.248H20.3089C20.5089 145.88 20.7489 145.588 21.0289 145.372C21.3169 145.148 21.6289 145.036 21.9649 145.036C22.0849 145.036 22.1929 145.048 22.2889 145.072C22.3849 145.088 22.4769 145.116 22.5649 145.156L22.3969 145.924C22.3009 145.892 22.2129 145.868 22.1329 145.852C22.0609 145.836 21.9649 145.828 21.8449 145.828C21.5969 145.828 21.3369 145.932 21.0649 146.14C20.7929 146.34 20.5529 146.696 20.3449 147.208V151H19.4809ZM25.5031 153.712C25.0231 153.712 24.6031 153.648 24.2431 153.52C23.8831 153.392 23.6031 153.212 23.4031 152.98C23.2031 152.748 23.1031 152.468 23.1031 152.14C23.1031 151.884 23.1791 151.64 23.3311 151.408C23.4831 151.176 23.6911 150.972 23.9551 150.796V150.748C23.8111 150.652 23.6871 150.528 23.5831 150.376C23.4871 150.216 23.4391 150.024 23.4391 149.8C23.4391 149.552 23.5071 149.336 23.6431 149.152C23.7871 148.968 23.9311 148.824 24.0751 148.72V148.672C23.8911 148.52 23.7191 148.308 23.5591 148.036C23.4071 147.764 23.3311 147.456 23.3311 147.112C23.3311 146.688 23.4271 146.324 23.6191 146.02C23.8191 145.708 24.0791 145.468 24.3991 145.3C24.7271 145.124 25.0871 145.036 25.4791 145.036C25.6391 145.036 25.7871 145.052 25.9231 145.084C26.0671 145.108 26.1871 145.14 26.2831 145.18H28.2991V145.864H27.0631C27.2151 146.008 27.3391 146.188 27.4351 146.404C27.5311 146.62 27.5791 146.86 27.5791 147.124C27.5791 147.54 27.4831 147.9 27.2911 148.204C27.1071 148.508 26.8551 148.744 26.5351 148.912C26.2231 149.072 25.8711 149.152 25.4791 149.152C25.3351 149.152 25.1831 149.136 25.0231 149.104C24.8711 149.064 24.7271 149.012 24.5911 148.948C24.4791 149.036 24.3831 149.136 24.3031 149.248C24.2311 149.36 24.1951 149.5 24.1951 149.668C24.1951 149.86 24.2671 150.02 24.4111 150.148C24.5631 150.268 24.8351 150.328 25.2271 150.328H26.3911C27.0631 150.328 27.5631 150.44 27.8911 150.664C28.2271 150.88 28.3951 151.228 28.3951 151.708C28.3951 152.06 28.2751 152.388 28.0351 152.692C27.8031 152.996 27.4711 153.24 27.0391 153.424C26.6071 153.616 26.0951 153.712 25.5031 153.712ZM25.6231 153.088C26.0071 153.088 26.3391 153.028 26.6191 152.908C26.9071 152.788 27.1311 152.632 27.2911 152.44C27.4511 152.248 27.5311 152.044 27.5311 151.828C27.5311 151.548 27.4271 151.352 27.2191 151.24C27.0191 151.128 26.7191 151.072 26.3191 151.072H25.2511C25.1631 151.072 25.0511 151.064 24.9151 151.048C24.7871 151.032 24.6511 151.008 24.5071 150.976C24.2831 151.136 24.1191 151.304 24.0151 151.48C23.9191 151.664 23.8711 151.844 23.8711 152.02C23.8711 152.348 24.0271 152.608 24.3391 152.8C24.6511 152.992 25.0791 153.088 25.6231 153.088ZM25.4791 148.552C25.7111 148.552 25.9231 148.492 26.1151 148.372C26.3151 148.252 26.4751 148.084 26.5951 147.868C26.7151 147.652 26.7751 147.4 26.7751 147.112C26.7751 146.816 26.7151 146.564 26.5951 146.356C26.4831 146.14 26.3271 145.976 26.1271 145.864C25.9351 145.744 25.7191 145.684 25.4791 145.684C25.1191 145.684 24.8111 145.812 24.5551 146.068C24.2991 146.316 24.1711 146.664 24.1711 147.112C24.1711 147.4 24.2311 147.652 24.3511 147.868C24.4711 148.084 24.6311 148.252 24.8311 148.372C25.0311 148.492 25.2471 148.552 25.4791 148.552ZM30.8791 151.144C30.5591 151.144 30.2711 151.08 30.0151 150.952C29.7591 150.824 29.5551 150.64 29.4031 150.4C29.2511 150.152 29.1751 149.852 29.1751 149.5C29.1751 148.868 29.4631 148.384 30.0391 148.048C30.6231 147.704 31.5431 147.464 32.7991 147.328C32.7991 147.064 32.7631 146.812 32.6911 146.572C32.6271 146.332 32.5031 146.14 32.3191 145.996C32.1431 145.844 31.8871 145.768 31.5511 145.768C31.1991 145.768 30.8711 145.836 30.5671 145.972C30.2711 146.108 30.0111 146.252 29.7871 146.404L29.4391 145.804C29.6071 145.692 29.8071 145.576 30.0391 145.456C30.2711 145.336 30.5271 145.236 30.8071 145.156C31.0871 145.076 31.3831 145.036 31.6951 145.036C32.1671 145.036 32.5471 145.136 32.8351 145.336C33.1231 145.536 33.3311 145.812 33.4591 146.164C33.5951 146.516 33.6631 146.928 33.6631 147.4V151H32.9431L32.8711 150.292H32.8351C32.5551 150.524 32.2511 150.724 31.9231 150.892C31.5951 151.06 31.2471 151.144 30.8791 151.144ZM31.1071 150.436C31.4111 150.436 31.6911 150.368 31.9471 150.232C32.2111 150.088 32.4951 149.884 32.7991 149.62V147.916C32.1111 147.996 31.5671 148.108 31.1671 148.252C30.7671 148.388 30.4791 148.556 30.3031 148.756C30.1271 148.956 30.0391 149.188 30.0391 149.452C30.0391 149.796 30.1431 150.048 30.3511 150.208C30.5671 150.36 30.8191 150.436 31.1071 150.436ZM37.9851 153.544C37.8571 153.544 37.7371 153.532 37.6251 153.508C37.5131 153.484 37.4131 153.456 37.3251 153.424L37.4931 152.716C37.5571 152.74 37.6291 152.76 37.7091 152.776C37.7971 152.8 37.8771 152.812 37.9491 152.812C38.2851 152.812 38.5651 152.684 38.7891 152.428C39.0131 152.18 39.1851 151.864 39.3051 151.48L39.4491 151.036L37.0971 145.18H37.9971L39.2451 148.516C39.3411 148.764 39.4371 149.032 39.5331 149.32C39.6371 149.6 39.7331 149.876 39.8211 150.148H39.8691C39.9571 149.884 40.0451 149.612 40.1331 149.332C40.2211 149.044 40.3011 148.772 40.3731 148.516L41.4651 145.18H42.3171L40.1091 151.54C39.9731 151.908 39.8131 152.244 39.6291 152.548C39.4451 152.852 39.2171 153.092 38.9451 153.268C38.6811 153.452 38.3611 153.544 37.9851 153.544ZM45.8833 153.496V145.18H46.6033L46.6753 145.876H46.7113C46.9753 145.644 47.2673 145.448 47.5873 145.288C47.9153 145.12 48.2513 145.036 48.5953 145.036C49.0993 145.036 49.5233 145.16 49.8673 145.408C50.2113 145.648 50.4673 145.992 50.6353 146.44C50.8113 146.88 50.8993 147.4 50.8993 148C50.8993 148.664 50.7793 149.232 50.5393 149.704C50.3073 150.168 49.9993 150.524 49.6153 150.772C49.2313 151.02 48.8193 151.144 48.3793 151.144C48.1153 151.144 47.8433 151.084 47.5633 150.964C47.2833 150.844 47.0033 150.676 46.7233 150.46L46.7473 151.492V153.496H45.8833ZM48.2353 150.4C48.5793 150.4 48.8833 150.304 49.1473 150.112C49.4113 149.92 49.6193 149.644 49.7713 149.284C49.9233 148.924 49.9993 148.5 49.9993 148.012C49.9993 147.572 49.9433 147.184 49.8313 146.848C49.7273 146.512 49.5553 146.252 49.3153 146.068C49.0833 145.876 48.7753 145.78 48.3913 145.78C48.1353 145.78 47.8713 145.852 47.5993 145.996C47.3353 146.132 47.0513 146.34 46.7473 146.62V149.764C47.0353 149.996 47.3073 150.16 47.5633 150.256C47.8193 150.352 48.0433 150.4 48.2353 150.4ZM53.8244 151.144C53.5044 151.144 53.2164 151.08 52.9604 150.952C52.7044 150.824 52.5004 150.64 52.3484 150.4C52.1964 150.152 52.1204 149.852 52.1204 149.5C52.1204 148.868 52.4084 148.384 52.9844 148.048C53.5684 147.704 54.4884 147.464 55.7444 147.328C55.7444 147.064 55.7084 146.812 55.6364 146.572C55.5724 146.332 55.4484 146.14 55.2644 145.996C55.0884 145.844 54.8324 145.768 54.4964 145.768C54.1444 145.768 53.8164 145.836 53.5124 145.972C53.2164 146.108 52.9564 146.252 52.7324 146.404L52.3844 145.804C52.5524 145.692 52.7524 145.576 52.9844 145.456C53.2164 145.336 53.4724 145.236 53.7524 145.156C54.0324 145.076 54.3284 145.036 54.6404 145.036C55.1124 145.036 55.4924 145.136 55.7804 145.336C56.0684 145.536 56.2764 145.812 56.4044 146.164C56.5404 146.516 56.6084 146.928 56.6084 147.4V151H55.8884L55.8164 150.292H55.7804C55.5004 150.524 55.1964 150.724 54.8684 150.892C54.5404 151.06 54.1924 151.144 53.8244 151.144ZM54.0524 150.436C54.3564 150.436 54.6364 150.368 54.8924 150.232C55.1564 150.088 55.4404 149.884 55.7444 149.62V147.916C55.0564 147.996 54.5124 148.108 54.1124 148.252C53.7124 148.388 53.4244 148.556 53.2484 148.756C53.0724 148.956 52.9844 149.188 52.9844 149.452C52.9844 149.796 53.0884 150.048 53.2964 150.208C53.5124 150.36 53.7644 150.436 54.0524 150.436ZM60.0041 151.144C59.5881 151.144 59.1921 151.068 58.8161 150.916C58.4401 150.756 58.1161 150.564 57.8441 150.34L58.2881 149.752C58.5441 149.952 58.8081 150.12 59.0801 150.256C59.3521 150.392 59.6721 150.46 60.0401 150.46C60.4401 150.46 60.7401 150.364 60.9401 150.172C61.1401 149.98 61.2401 149.752 61.2401 149.488C61.2401 149.28 61.1721 149.108 61.0361 148.972C60.9001 148.828 60.7281 148.708 60.5201 148.612C60.3121 148.508 60.1001 148.416 59.8841 148.336C59.6121 148.24 59.3401 148.124 59.0681 147.988C58.7961 147.852 58.5681 147.68 58.3841 147.472C58.2081 147.264 58.1201 146.996 58.1201 146.668C58.1201 146.212 58.2921 145.828 58.6361 145.516C58.9881 145.196 59.4761 145.036 60.1001 145.036C60.4521 145.036 60.7801 145.1 61.0841 145.228C61.3881 145.356 61.6481 145.508 61.8641 145.684L61.4441 146.248C61.2441 146.104 61.0361 145.984 60.8201 145.888C60.6121 145.784 60.3721 145.732 60.1001 145.732C59.7161 145.732 59.4321 145.824 59.2481 146.008C59.0641 146.184 58.9721 146.388 58.9721 146.62C58.9721 146.812 59.0321 146.972 59.1521 147.1C59.2801 147.22 59.4441 147.324 59.6441 147.412C59.8441 147.5 60.0561 147.588 60.2801 147.676C60.5681 147.78 60.8481 147.9 61.1201 148.036C61.4001 148.164 61.6321 148.336 61.8161 148.552C62.0001 148.768 62.0921 149.064 62.0921 149.44C62.0921 149.744 62.0121 150.028 61.8521 150.292C61.6921 150.548 61.4561 150.756 61.1441 150.916C60.8321 151.068 60.4521 151.144 60.0041 151.144ZM64.8283 151.144C64.5083 151.144 64.2203 151.08 63.9643 150.952C63.7083 150.824 63.5043 150.64 63.3523 150.4C63.2003 150.152 63.1243 149.852 63.1243 149.5C63.1243 148.868 63.4123 148.384 63.9883 148.048C64.5723 147.704 65.4923 147.464 66.7483 147.328C66.7483 147.064 66.7123 146.812 66.6403 146.572C66.5763 146.332 66.4523 146.14 66.2683 145.996C66.0923 145.844 65.8363 145.768 65.5003 145.768C65.1483 145.768 64.8203 145.836 64.5163 145.972C64.2203 146.108 63.9603 146.252 63.7363 146.404L63.3883 145.804C63.5563 145.692 63.7563 145.576 63.9883 145.456C64.2203 145.336 64.4763 145.236 64.7563 145.156C65.0363 145.076 65.3323 145.036 65.6443 145.036C66.1163 145.036 66.4963 145.136 66.7843 145.336C67.0723 145.536 67.2803 145.812 67.4083 146.164C67.5443 146.516 67.6123 146.928 67.6123 147.4V151H66.8923L66.8203 150.292H66.7843C66.5043 150.524 66.2003 150.724 65.8723 150.892C65.5443 151.06 65.1963 151.144 64.8283 151.144ZM65.0563 150.436C65.3603 150.436 65.6403 150.368 65.8963 150.232C66.1603 150.088 66.4443 149.884 66.7483 149.62V147.916C66.0603 147.996 65.5163 148.108 65.1163 148.252C64.7163 148.388 64.4283 148.556 64.2523 148.756C64.0763 148.956 63.9883 149.188 63.9883 149.452C63.9883 149.796 64.0923 150.048 64.3003 150.208C64.5163 150.36 64.7683 150.436 65.0563 150.436ZM68.896 153.64C68.728 153.64 68.576 153.624 68.44 153.592C68.296 153.56 68.172 153.528 68.068 153.496L68.248 152.824C68.32 152.848 68.404 152.868 68.5 152.884C68.604 152.908 68.708 152.92 68.812 152.92C69.108 152.92 69.304 152.812 69.4 152.596C69.496 152.388 69.544 152.108 69.544 151.756L69.556 145.18H70.42V151.768C70.42 152.16 70.368 152.496 70.264 152.776C70.16 153.056 69.996 153.268 69.772 153.412C69.548 153.564 69.256 153.64 68.896 153.64ZM68.896 153.64C68.728 153.64 68.576 153.624 68.44 153.592C68.296 153.56 68.172 153.528 68.068 153.496L68.248 152.824C68.32 152.848 68.404 152.868 68.5 152.884C68.604 152.908 68.708 152.92 68.812 152.92C69.108 152.92 69.304 152.812 69.4 152.596C69.496 152.388 69.544 152.108 69.544 151.756L69.556 145.18H70.42V151.768C70.42 152.16 70.368 152.496 70.264 152.776C70.16 153.056 69.996 153.268 69.772 153.412C69.548 153.564 69.256 153.64 68.896 153.64ZM69.964 143.932C69.796 143.932 69.652 143.876 69.532 143.764C69.42 143.652 69.364 143.504 69.364 143.32C69.364 143.144 69.42 143.004 69.532 142.9C69.652 142.788 69.796 142.732 69.964 142.732C70.14 142.732 70.284 142.788 70.396 142.9C70.508 143.004 70.564 143.144 70.564 143.32C70.564 143.504 70.508 143.652 70.396 143.764C70.284 143.876 70.14 143.932 69.964 143.932ZM74.7303 151.144C74.2263 151.144 73.7623 151.024 73.3383 150.784C72.9223 150.536 72.5903 150.188 72.3423 149.74C72.0943 149.284 71.9703 148.736 71.9703 148.096C71.9703 147.464 72.0943 146.92 72.3423 146.464C72.5903 146.008 72.9103 145.656 73.3023 145.408C73.7023 145.16 74.1263 145.036 74.5742 145.036C75.0543 145.036 75.4663 145.148 75.8103 145.372C76.1543 145.596 76.4143 145.912 76.5903 146.32C76.7743 146.72 76.8663 147.2 76.8663 147.76C76.8663 147.856 76.8623 147.952 76.8543 148.048C76.8543 148.136 76.8463 148.216 76.8303 148.288H72.6543L72.6423 147.652H76.0863C76.0863 147.028 75.9543 146.556 75.6903 146.236C75.4263 145.908 75.0583 145.744 74.5863 145.744C74.2983 145.744 74.0183 145.828 73.7463 145.996C73.4743 146.164 73.2503 146.42 73.0743 146.764C72.8983 147.108 72.8103 147.552 72.8103 148.096C72.8103 148.616 72.9023 149.048 73.0863 149.392C73.2703 149.736 73.5143 149.996 73.8183 150.172C74.1303 150.348 74.4703 150.436 74.8383 150.436C75.1343 150.436 75.3983 150.392 75.6303 150.304C75.8703 150.216 76.0983 150.104 76.3143 149.968L76.6383 150.544C76.3903 150.704 76.1103 150.844 75.7983 150.964C75.4943 151.084 75.1383 151.144 74.7303 151.144ZM78.3325 151V145.18H79.0525L79.1245 146.248H79.1605C79.3605 145.88 79.6005 145.588 79.8805 145.372C80.1685 145.148 80.4805 145.036 80.8165 145.036C80.9365 145.036 81.0445 145.048 81.1405 145.072C81.2365 145.088 81.3285 145.116 81.4165 145.156L81.2485 145.924C81.1525 145.892 81.0645 145.868 80.9845 145.852C80.9125 145.836 80.8165 145.828 80.6965 145.828C80.4485 145.828 80.1885 145.932 79.9165 146.14C79.6445 146.34 79.4045 146.696 79.1965 147.208V151H78.3325ZM84.6306 151.144C84.1586 151.144 83.7186 151.024 83.3106 150.784C82.9026 150.544 82.5746 150.2 82.3266 149.752C82.0786 149.296 81.9546 148.744 81.9546 148.096C81.9546 147.448 82.0786 146.896 82.3266 146.44C82.5746 145.984 82.9026 145.636 83.3106 145.396C83.7186 145.156 84.1586 145.036 84.6306 145.036C85.1026 145.036 85.5386 145.156 85.9386 145.396C86.3466 145.636 86.6746 145.984 86.9226 146.44C87.1786 146.896 87.3066 147.448 87.3066 148.096C87.3066 148.744 87.1786 149.296 86.9226 149.752C86.6746 150.2 86.3466 150.544 85.9386 150.784C85.5386 151.024 85.1026 151.144 84.6306 151.144ZM84.6306 150.412C84.9826 150.412 85.2906 150.316 85.5546 150.124C85.8266 149.932 86.0346 149.664 86.1786 149.32C86.3306 148.968 86.4066 148.56 86.4066 148.096C86.4066 147.64 86.3306 147.236 86.1786 146.884C86.0346 146.532 85.8266 146.26 85.5546 146.068C85.2906 145.868 84.9826 145.768 84.6306 145.768C84.2866 145.768 83.9786 145.868 83.7066 146.068C83.4426 146.26 83.2346 146.532 83.0826 146.884C82.9386 147.236 82.8666 147.64 82.8666 148.096C82.8666 148.56 82.9386 148.968 83.0826 149.32C83.2346 149.664 83.4426 149.932 83.7066 150.124C83.9786 150.316 84.2866 150.412 84.6306 150.412ZM90.3791 151.144C89.9631 151.144 89.5671 151.068 89.1911 150.916C88.8151 150.756 88.4911 150.564 88.2191 150.34L88.6631 149.752C88.9191 149.952 89.1831 150.12 89.4551 150.256C89.7271 150.392 90.0471 150.46 90.4151 150.46C90.8151 150.46 91.1151 150.364 91.3151 150.172C91.5151 149.98 91.6151 149.752 91.6151 149.488C91.6151 149.28 91.5471 149.108 91.4111 148.972C91.2751 148.828 91.1031 148.708 90.8951 148.612C90.6871 148.508 90.4751 148.416 90.2591 148.336C89.9871 148.24 89.7151 148.124 89.4431 147.988C89.1711 147.852 88.9431 147.68 88.7591 147.472C88.5831 147.264 88.4951 146.996 88.4951 146.668C88.4951 146.212 88.6671 145.828 89.0111 145.516C89.3631 145.196 89.8511 145.036 90.4751 145.036C90.8271 145.036 91.1551 145.1 91.4591 145.228C91.7631 145.356 92.0231 145.508 92.2391 145.684L91.8191 146.248C91.6191 146.104 91.4111 145.984 91.1951 145.888C90.9871 145.784 90.7471 145.732 90.4751 145.732C90.0911 145.732 89.8071 145.824 89.6231 146.008C89.4391 146.184 89.3471 146.388 89.3471 146.62C89.3471 146.812 89.4071 146.972 89.5271 147.1C89.6551 147.22 89.8191 147.324 90.0191 147.412C90.2191 147.5 90.4311 147.588 90.6551 147.676C90.9431 147.78 91.2231 147.9 91.4951 148.036C91.7751 148.164 92.0071 148.336 92.1911 148.552C92.3751 148.768 92.4671 149.064 92.4671 149.44C92.4671 149.744 92.3871 150.028 92.2271 150.292C92.0671 150.548 91.8311 150.756 91.5191 150.916C91.2071 151.068 90.8271 151.144 90.3791 151.144Z" fill="white"/>
<path d="M9.73855 115.446C9.14438 115.446 8.55021 115.335 7.95604 115.112C7.37116 114.88 6.85126 114.55 6.39635 114.123L7.49649 112.814C7.82143 113.111 8.1835 113.348 8.5827 113.524C8.9912 113.701 9.3904 113.789 9.78033 113.789C10.2352 113.789 10.5741 113.705 10.7969 113.538C11.029 113.362 11.1451 113.12 11.1451 112.814C11.1451 112.61 11.0894 112.443 10.9779 112.313C10.8665 112.183 10.7087 112.071 10.5045 111.978C10.3095 111.876 10.0774 111.769 9.80818 111.658L8.61056 111.143C8.2949 111.013 7.99782 110.841 7.7193 110.628C7.44079 110.414 7.21333 110.149 7.03694 109.834C6.86054 109.509 6.77235 109.128 6.77235 108.692C6.77235 108.191 6.90696 107.74 7.1762 107.341C7.45471 106.942 7.83071 106.626 8.30419 106.394C8.78695 106.153 9.3347 106.032 9.94744 106.032C10.4766 106.032 10.9919 106.134 11.4932 106.338C12.0038 106.543 12.4494 106.83 12.8301 107.202L11.8553 108.413C11.5675 108.181 11.2704 108 10.964 107.87C10.6577 107.74 10.3188 107.675 9.94744 107.675C9.57608 107.675 9.27435 107.754 9.04226 107.912C8.81944 108.07 8.70804 108.293 8.70804 108.58C8.70804 108.775 8.76838 108.938 8.88907 109.068C9.00976 109.198 9.17687 109.314 9.3904 109.416C9.61322 109.509 9.8546 109.611 10.1145 109.722L11.2843 110.196C11.6557 110.344 11.976 110.53 12.2452 110.753C12.5144 110.976 12.7233 111.245 12.8719 111.561C13.0297 111.867 13.1086 112.234 13.1086 112.661C13.1086 113.162 12.974 113.626 12.7048 114.053C12.4448 114.471 12.0595 114.81 11.5489 115.07C11.0476 115.321 10.4441 115.446 9.73855 115.446ZM16.4753 115.279V107.801H13.9269V106.199H20.9315V107.801H18.3831V115.279H16.4753ZM21.2064 115.279L24.089 106.199H26.3728L29.2555 115.279H27.2362L25.9829 110.6C25.8529 110.136 25.723 109.648 25.593 109.138C25.4723 108.627 25.347 108.13 25.217 107.647H25.1613C25.0499 108.13 24.9292 108.627 24.7992 109.138C24.6785 109.648 24.5532 110.136 24.4232 110.6L23.156 115.279H21.2064ZM23.0446 113.023V111.533H27.3894V113.023H23.0446ZM30.291 115.279V106.199H33.4939C34.1345 106.199 34.7148 106.283 35.2347 106.45C35.7546 106.617 36.1677 106.905 36.4741 107.313C36.7897 107.722 36.9476 108.279 36.9476 108.984C36.9476 109.662 36.7897 110.219 36.4741 110.655C36.1677 111.082 35.7546 111.403 35.2347 111.616C34.7148 111.821 34.1345 111.923 33.4939 111.923H32.1988V115.279H30.291ZM35.2207 115.279L33.1458 111.407L34.4827 110.21L37.3653 115.279H35.2207ZM32.1988 110.391H33.3268C33.8932 110.391 34.3249 110.275 34.6219 110.043C34.919 109.801 35.0676 109.449 35.0676 108.984C35.0676 108.511 34.919 108.181 34.6219 107.996C34.3249 107.81 33.8932 107.717 33.3268 107.717H32.1988V110.391ZM41.4796 115.446C40.8855 115.446 40.2913 115.335 39.6971 115.112C39.1123 114.88 38.5924 114.55 38.1374 114.123L39.2376 112.814C39.5625 113.111 39.9246 113.348 40.3238 113.524C40.7323 113.701 41.1315 113.789 41.5214 113.789C41.9763 113.789 42.3152 113.705 42.538 113.538C42.7701 113.362 42.8862 113.12 42.8862 112.814C42.8862 112.61 42.8305 112.443 42.719 112.313C42.6076 112.183 42.4498 112.071 42.2456 111.978C42.0506 111.876 41.8185 111.769 41.5493 111.658L40.3517 111.143C40.036 111.013 39.7389 110.841 39.4604 110.628C39.1819 110.414 38.9544 110.149 38.778 109.834C38.6016 109.509 38.5134 109.128 38.5134 108.692C38.5134 108.191 38.6481 107.74 38.9173 107.341C39.1958 106.942 39.5718 106.626 40.0453 106.394C40.5281 106.153 41.0758 106.032 41.6885 106.032C42.2177 106.032 42.733 106.134 43.2343 106.338C43.7449 106.543 44.1905 106.83 44.5712 107.202L43.5964 108.413C43.3086 108.181 43.0115 108 42.7051 107.87C42.3988 107.74 42.0599 107.675 41.6885 107.675C41.3172 107.675 41.0155 107.754 40.7834 107.912C40.5605 108.07 40.4491 108.293 40.4491 108.58C40.4491 108.775 40.5095 108.938 40.6302 109.068C40.7509 109.198 40.918 109.314 41.1315 109.416C41.3543 109.509 41.5957 109.611 41.8556 109.722L43.0254 110.196C43.3968 110.344 43.7171 110.53 43.9863 110.753C44.2555 110.976 44.4644 111.245 44.613 111.561C44.7708 111.867 44.8497 112.234 44.8497 112.661C44.8497 113.162 44.7151 113.626 44.4459 114.053C44.1859 114.471 43.8006 114.81 43.29 115.07C42.7887 115.321 42.1852 115.446 41.4796 115.446ZM46.4199 115.279V106.199H48.3278V109.736H51.6421V106.199H53.55V115.279H51.6421V111.407H48.3278V115.279H46.4199ZM55.7492 115.279V106.199H57.657V115.279H55.7492ZM59.8562 115.279V106.199H62.892C63.5605 106.199 64.1639 106.287 64.7024 106.464C65.2408 106.64 65.6679 106.942 65.9836 107.369C66.3085 107.787 66.471 108.358 66.471 109.082C66.471 109.778 66.3131 110.349 65.9975 110.795C65.6818 111.24 65.2548 111.575 64.7163 111.797C64.1871 112.011 63.5976 112.118 62.9477 112.118H61.764V115.279H59.8562ZM61.764 110.586H62.8224C63.4258 110.586 63.8715 110.46 64.1593 110.21C64.4471 109.95 64.591 109.574 64.591 109.082C64.591 108.571 64.4332 108.218 64.1175 108.023C63.8111 107.819 63.3609 107.717 62.7667 107.717H61.764V110.586Z" fill="white"/>
<path d="M160.978 119.635H6.52808" stroke="#BBECF9"/>
<circle cx="160.978" cy="119.636" r="1.89898" fill="#BBECF9"/>
<defs>
<filter id="filter0_d_75_295" x="170.473" y="0" width="56.1098" height="389.978" filterUnits="userSpaceOnUse" color-interpolation-filters="sRGB">
<feFlood flood-opacity="0" result="BackgroundImageFix"/>
<feColorMatrix in="SourceAlpha" type="matrix" values="0 0 0 0 0 0 0 0 0 0 0 0 0 0 0 0 0 0 127 0" result="hardAlpha"/>
<feOffset dy="5.06394"/>
<feGaussianBlur stdDeviation="2.53197"/>
<feComposite in2="hardAlpha" operator="out"/>
<feColorMatrix type="matrix" values="0 0 0 0 0 0 0 0 0 0 0 0 0 0 0 0 0 0 0.25 0"/>
<feBlend mode="normal" in2="BackgroundImageFix" result="effect1_dropShadow_75_295"/>
<feBlend mode="normal" in="SourceGraphic" in2="effect1_dropShadow_75_295" result="shape"/>
</filter>
</defs>
</svg>
