<svg width="329" height="263" viewBox="0 0 329 263" fill="none" xmlns="http://www.w3.org/2000/svg">
<path d="M134.63 133.87H141.24L142.69 131.51H133.23L134.63 133.87Z" fill="#DADADA" stroke="black" stroke-width="0.5" stroke-miterlimit="10"/>
<path d="M142.03 114.27L140.84 110.01C139.96 106.88 135.68 106.93 134.88 110.09L133.81 114.32C133.42 115.84 133.23 117.41 133.23 118.99V131.51H142.69V119.07C142.69 117.44 142.47 115.83 142.03 114.27Z" fill="#DADADA" stroke="black" stroke-width="0.5" stroke-miterlimit="10"/>
<path d="M137.94 107.68V131.52" stroke="black" stroke-width="0.5" stroke-miterlimit="10"/>
<path d="M135.23 246.03L134.55 248.25H141.57L140.78 246.03H135.23Z" fill="#4D4D4D" stroke="black" stroke-width="0.5" stroke-miterlimit="10"/>
<path d="M139.21 248.25H136.74V248.67H139.21V248.25Z" fill="#4D4D4D" stroke="black" stroke-width="0.5" stroke-miterlimit="10"/>
<path d="M140.77 246.03L139.21 248.25L138.05 246.03L136.73 248.25L135.22 246.03H140.77Z" fill="#4D4D4D" stroke="black" stroke-width="0.5" stroke-miterlimit="10" stroke-linecap="round" stroke-linejoin="round"/>
<path d="M141.45 239.31H134.84V246.18H141.45V239.31Z" fill="#4D4D4D" stroke="black" stroke-width="0.5" stroke-miterlimit="10"/>
<path d="M134.42 165.01H141.44V239.31H134.83L134.42 165.01Z" fill="#B2B2B2" stroke="black" stroke-width="0.5" stroke-miterlimit="10"/>
<path d="M134.42 224.34L133.72 244.8H137.97L135.45 224.29C135.37 223.63 134.45 223.68 134.42 224.34Z" fill="#4D4D4D" stroke="black" stroke-width="0.5" stroke-miterlimit="10"/>
<path d="M138.32 244.8H142.48L141.7 224.49C141.68 223.83 140.74 223.79 140.67 224.45L138.32 244.8Z" fill="#4D4D4D" stroke="black" stroke-width="0.5" stroke-miterlimit="10"/>
<path d="M137.49 244.8L135.57 237.25C135.39 236.54 134.4 236.63 134.34 237.36L133.72 244.8H142.48L141.66 237.25C141.59 236.55 140.63 236.5 140.48 237.18L138.8 244.8" fill="#4D4D4D"/>
<path d="M137.49 244.8L135.57 237.25C135.39 236.54 134.4 236.63 134.34 237.36L133.72 244.8H142.48L141.66 237.25C141.59 236.55 140.63 236.5 140.48 237.18L138.8 244.8" stroke="black" stroke-width="0.5" stroke-miterlimit="10"/>
<path d="M134.75 236.76L134.96 223.82" stroke="black" stroke-width="0.5" stroke-miterlimit="10"/>
<path d="M141.06 236.76L141.28 223.98" stroke="black" stroke-width="0.5" stroke-miterlimit="10"/>
<path d="M141.45 151.27H134.43V165.01H141.45V151.27Z" fill="#4D4D4D" stroke="black" stroke-width="0.5" stroke-miterlimit="10"/>
<path d="M134.01 167.59H136.43V164.28C136.09 163 134.35 163 134.01 164.28V167.59Z" fill="#4D4D4D" stroke="black" stroke-width="0.5" stroke-miterlimit="10"/>
<path d="M139.5 167.59H142.08V164.16C141.7 162.85 139.91 162.86 139.55 164.18L139.5 164.36V167.59Z" fill="#4D4D4D" stroke="black" stroke-width="0.5" stroke-miterlimit="10"/>
<path d="M141.45 133.66H134.43V151.27H141.45V133.66Z" fill="#B2B2B2" stroke="black" stroke-width="0.5" stroke-miterlimit="10"/>
<path d="M141.45 167.59V223.98L141.7 224.5L142.48 244.81H141.45V246.19H140.83L141.57 248.26H139.22V248.68H136.75V248.26H134.56L135.24 246.19H134.85V244.81H133.74L134.44 224.34L134.76 223.82L134.44 167.59H134.03V164.28L134.44 163.61V133.66L133.01 131.41V118.89C133.01 117.31 133.2 115.75 133.59 114.22L134.66 109.99C135.46 106.84 139.75 106.78 140.62 109.91L141.81 114.17C142.24 115.72 142.47 117.34 142.47 118.96V131.41L141.45 133.66L141.65 163.51L142.07 164.16V167.59H141.45V167.59Z" stroke="black" stroke-width="1.5" stroke-miterlimit="10"/>
<path d="M185.06 133.91H191.67L193.12 131.55H183.66L185.06 133.91Z" fill="#DADADA" stroke="black" stroke-width="0.5" stroke-miterlimit="10"/>
<path d="M192.46 114.31L191.27 110.05C190.39 106.92 186.11 106.97 185.31 110.13L184.24 114.36C183.85 115.88 183.66 117.45 183.66 119.03V131.55H193.12V119.1C193.12 117.48 192.9 115.87 192.46 114.31Z" fill="#DADADA" stroke="black" stroke-width="0.5" stroke-miterlimit="10"/>
<path d="M188.37 107.72V131.56" stroke="black" stroke-width="0.5" stroke-miterlimit="10"/>
<path d="M185.66 246.07L184.98 248.29H192L191.2 246.07H185.66Z" fill="#4D4D4D" stroke="black" stroke-width="0.5" stroke-miterlimit="10"/>
<path d="M189.64 248.29H187.17V248.71H189.64V248.29Z" fill="#4D4D4D" stroke="black" stroke-width="0.5" stroke-miterlimit="10"/>
<path d="M191.2 246.07L189.64 248.29L188.48 246.07L187.16 248.29L185.65 246.07H191.2Z" fill="#4D4D4D" stroke="black" stroke-width="0.5" stroke-miterlimit="10" stroke-linecap="round" stroke-linejoin="round"/>
<path d="M191.88 239.35H185.27V246.22H191.88V239.35Z" fill="#4D4D4D" stroke="black" stroke-width="0.5" stroke-miterlimit="10"/>
<path d="M184.86 165.05H191.88V239.35H185.27L184.86 165.05Z" fill="#B2B2B2" stroke="black" stroke-width="0.5" stroke-miterlimit="10"/>
<path d="M184.86 224.38L184.16 244.84H188.41L185.9 224.33C185.81 223.67 184.88 223.71 184.86 224.38Z" fill="#B2B2B2" stroke="black" stroke-width="0.5" stroke-miterlimit="10"/>
<path d="M188.75 244.84H192.91L192.13 224.53C192.11 223.87 191.17 223.83 191.1 224.49L188.75 244.84Z" fill="#B2B2B2" stroke="black" stroke-width="0.5" stroke-miterlimit="10"/>
<path d="M187.92 244.84L186 237.29C185.82 236.58 184.83 236.67 184.77 237.4L184.15 244.84H192.91L192.09 237.29C192.02 236.59 191.06 236.54 190.91 237.22L189.23 244.84" fill="#B2B2B2"/>
<path d="M187.92 244.84L186 237.29C185.82 236.58 184.83 236.67 184.77 237.4L184.15 244.84H192.91L192.09 237.29C192.02 236.59 191.06 236.54 190.91 237.22L189.23 244.84" stroke="black" stroke-width="0.5" stroke-miterlimit="10"/>
<path d="M185.18 236.81L185.39 223.86" stroke="black" stroke-width="0.5" stroke-miterlimit="10"/>
<path d="M191.49 236.81L191.71 224.03" stroke="black" stroke-width="0.5" stroke-miterlimit="10"/>
<path d="M191.88 151.31H184.86V165.05H191.88V151.31Z" fill="#B2B2B2" stroke="black" stroke-width="0.5" stroke-miterlimit="10"/>
<path d="M184.44 167.63H186.86V164.32C186.52 163.04 184.78 163.04 184.44 164.32V167.63Z" fill="#4D4D4D" stroke="black" stroke-width="0.5" stroke-miterlimit="10"/>
<path d="M189.51 167.63H192.09V164.2C191.71 162.89 189.92 162.9 189.56 164.22L189.51 164.4V167.63Z" fill="#4D4D4D" stroke="black" stroke-width="0.5" stroke-miterlimit="10"/>
<path d="M191.88 133.7H184.86V151.31H191.88V133.7Z" fill="#B2B2B2" stroke="black" stroke-width="0.5" stroke-miterlimit="10"/>
<path d="M177.11 165.64H183.79V164.08C183.79 162.43 183.53 160.8 183.04 159.24C182.19 156.59 178.56 156.65 177.8 159.33C177.39 160.77 177.17 162.26 177.15 163.76L177.11 165.64Z" fill="#B2B2B2" stroke="black" stroke-width="0.5" stroke-miterlimit="10"/>
<path d="M192.81 165.64H199.49V164.08C199.49 162.43 199.23 160.8 198.74 159.24C197.89 156.59 194.26 156.65 193.5 159.33C193.09 160.77 192.87 162.26 192.85 163.76L192.81 165.64Z" fill="#B2B2B2" stroke="black" stroke-width="0.5" stroke-miterlimit="10"/>
<path d="M183.79 165.64H176.77V244.66H183.79V165.64Z" fill="#B2B2B2" stroke="black" stroke-width="0.5" stroke-miterlimit="10"/>
<path d="M199.9 165.64H192.88V244.66H199.9V165.64Z" fill="#B2B2B2" stroke="black" stroke-width="0.5" stroke-miterlimit="10"/>
<path d="M176.42 168.24H178.84V164.93C178.5 163.65 176.76 163.65 176.42 164.93V168.24Z" fill="#4D4D4D" stroke="black" stroke-width="0.5" stroke-miterlimit="10"/>
<path d="M181.49 168.24H184.07V164.81C183.69 163.5 181.9 163.51 181.54 164.83L181.49 165.01V168.24Z" fill="#4D4D4D" stroke="black" stroke-width="0.5" stroke-miterlimit="10"/>
<path d="M192.53 168.24H194.95V164.93C194.62 163.65 192.87 163.65 192.53 164.93V168.24Z" fill="#4D4D4D" stroke="black" stroke-width="0.5" stroke-miterlimit="10"/>
<path d="M183.83 239.44H177.22V246.31H183.83V239.44Z" fill="#4D4D4D" stroke="black" stroke-width="0.5" stroke-miterlimit="10"/>
<path d="M197.6 168.24H200.18V164.81C199.8 163.5 198.01 163.51 197.65 164.83L197.6 165.01V168.24Z" fill="#4D4D4D" stroke="black" stroke-width="0.5" stroke-miterlimit="10"/>
<path d="M199.94 239.44H193.33V246.31H199.94V239.44Z" fill="#4D4D4D" stroke="black" stroke-width="0.5" stroke-miterlimit="10"/>
<path d="M176.71 224.67L176.01 245.13H180.26L177.74 224.62C177.65 223.97 176.73 224.01 176.71 224.67Z" fill="#B2B2B2" stroke="black" stroke-width="0.5" stroke-miterlimit="10"/>
<path d="M180.6 245.14H184.76L183.98 224.83C183.95 224.17 183.02 224.13 182.95 224.79L180.6 245.14Z" fill="#B2B2B2" stroke="black" stroke-width="0.5" stroke-miterlimit="10"/>
<path d="M179.77 245.14L177.85 237.59C177.67 236.88 176.68 236.97 176.62 237.7L176 245.14H184.76L183.94 237.59C183.87 236.89 182.91 236.84 182.76 237.52L181.08 245.14" fill="#B2B2B2"/>
<path d="M179.77 245.14L177.85 237.59C177.67 236.88 176.68 236.97 176.62 237.7L176 245.14H184.76L183.94 237.59C183.87 236.89 182.91 236.84 182.76 237.52L181.08 245.14" stroke="black" stroke-width="0.5" stroke-miterlimit="10"/>
<path d="M177.03 237.1L177.24 224.15" stroke="black" stroke-width="0.5" stroke-miterlimit="10"/>
<path d="M183.55 224.32L183.33 237.1" stroke="black" stroke-width="0.5" stroke-miterlimit="10"/>
<path d="M192.74 224.74L192.04 245.2H196.29L193.78 224.69C193.69 224.03 192.76 224.08 192.74 224.74Z" fill="#B2B2B2" stroke="black" stroke-width="0.5" stroke-miterlimit="10"/>
<path d="M196.63 245.2H200.79L200.01 224.89C199.99 224.23 199.05 224.19 198.98 224.85L196.63 245.2Z" fill="#B2B2B2" stroke="black" stroke-width="0.5" stroke-miterlimit="10"/>
<path d="M195.81 245.2L193.89 237.65C193.71 236.94 192.72 237.03 192.66 237.76L192.04 245.2H200.8L199.98 237.65C199.91 236.95 198.95 236.9 198.8 237.58L197.11 245.2" fill="#B2B2B2"/>
<path d="M195.81 245.2L193.89 237.65C193.71 236.94 192.72 237.03 192.66 237.76L192.04 245.2H200.8L199.98 237.65C199.91 236.95 198.95 236.9 198.8 237.58L197.11 245.2" stroke="black" stroke-width="0.5" stroke-miterlimit="10"/>
<path d="M193.06 237.17L193.27 224.23" stroke="black" stroke-width="0.5" stroke-miterlimit="10"/>
<path d="M199.37 237.17L199.59 224.39" stroke="black" stroke-width="0.5" stroke-miterlimit="10"/>
<path d="M193.72 246.15L193.04 248.38H200.06L199.26 246.15H193.72Z" fill="#4D4D4D" stroke="black" stroke-width="0.5" stroke-miterlimit="10"/>
<path d="M197.71 248.38H195.24V248.8H197.71V248.38Z" fill="#4D4D4D" stroke="black" stroke-width="0.5" stroke-miterlimit="10"/>
<path d="M199.26 246.15L197.7 248.38L196.54 246.15L195.22 248.38L193.7 246.15H199.26Z" fill="#4D4D4D" stroke="black" stroke-width="0.5" stroke-miterlimit="10" stroke-linecap="round" stroke-linejoin="round"/>
<path d="M177.61 246.15L176.93 248.38H183.95L183.15 246.15H177.61Z" fill="#4D4D4D" stroke="black" stroke-width="0.5" stroke-miterlimit="10"/>
<path d="M181.6 248.38H179.13V248.8H181.6V248.38Z" fill="#4D4D4D" stroke="black" stroke-width="0.5" stroke-miterlimit="10"/>
<path d="M183.15 246.15L181.59 248.38L180.43 246.15L179.11 248.38L177.59 246.15H183.15Z" fill="#4D4D4D" stroke="black" stroke-width="0.5" stroke-miterlimit="10" stroke-linecap="round" stroke-linejoin="round"/>
<path d="M196.18 162.2H180.07V162.63H196.18V162.2Z" fill="#B2B2B2" stroke="black" stroke-width="0.5" stroke-miterlimit="10"/>
<path d="M191.91 133.66L192.93 131.41V118.97C192.93 117.35 192.71 115.74 192.27 114.18L191.08 109.92C190.2 106.79 185.92 106.84 185.12 110L184.05 114.23C183.66 115.75 183.47 117.32 183.47 118.9V131.42L184.9 133.67L184.87 162.21H183.8C183.8 162.21 183.52 157.29 180.46 157.28C180.46 157.28 176.89 156.72 177.15 164.08L176.43 164.94V168.25H176.78L176.72 224.68L176.02 245.14H177.24V246.32H177.58L176.95 248.39H179.14V248.81H181.61V248.39H183.97L183.23 246.32H183.85V245.14H184.78V244.84H185.29V246.22H185.63L185 248.29H187.19V248.71H189.66V248.29H192.01L191.27 246.22H191.89V244.84H192.07L192.05 245.2H193.34V246.31H193.68L193.05 248.38H195.24V248.8H197.71V248.38H200.06L199.32 246.31H199.94V245.2H200.79L199.9 224.38V168.24H200.18V164.81L199.49 163.83C199.49 163.83 199.63 157.28 196.15 157.27C196.15 157.27 193.5 156.4 192.88 162.2H191.88L191.91 133.66Z" stroke="black" stroke-width="1.5" stroke-miterlimit="10"/>
<path d="M183.67 162.63L183.79 164.07L184.07 164.81V168.24H183.79V224.22L183.98 224.82L184.45 234.05L184.87 224.37L185.19 223.85L184.86 167.62H184.45V164.31L184.86 163.64V162.62" stroke="black" stroke-width="1.5" stroke-miterlimit="10"/>
<path d="M191.88 162.63V163.75L192.09 164.2V167.63H191.88V223.86L192.13 224.53L192.43 233.7L192.74 224.73L192.88 224.02V168.23H192.53V164.92L192.88 164.31V162.63" stroke="black" stroke-width="1.5" stroke-miterlimit="10"/>
<path d="M245 137.14V148.14H314" stroke="white"/>
<path d="M99 137.14V148.14H21" stroke="white"/>
<path d="M245 166.14V177.14H314" stroke="white"/>
<path d="M99 166.14V177.14H21" stroke="white"/>
<path d="M245 195.14V206.14H314" stroke="white"/>
<path d="M99 195.14V206.14H21" stroke="white"/>
<path d="M252.85 145.29C252.44 145.29 252.08 145.24 251.76 145.15C251.44 145.05 251.16 144.91 250.92 144.75C250.68 144.58 250.47 144.4 250.3 144.21L250.89 143.43C251.12 143.66 251.39 143.87 251.68 144.04C251.98 144.21 252.34 144.29 252.76 144.29C253.2 144.29 253.56 144.18 253.83 143.95C254.11 143.73 254.25 143.42 254.25 143.03C254.25 142.75 254.18 142.51 254.03 142.3C253.89 142.09 253.65 141.93 253.31 141.82C252.97 141.7 252.51 141.64 251.92 141.64V140.74C252.44 140.74 252.85 140.68 253.14 140.57C253.44 140.45 253.66 140.29 253.79 140.1C253.92 139.9 253.98 139.68 253.98 139.43C253.98 139.09 253.87 138.82 253.66 138.63C253.44 138.43 253.15 138.33 252.77 138.33C252.47 138.33 252.18 138.4 251.92 138.53C251.66 138.67 251.42 138.85 251.2 139.07L250.56 138.31C250.88 138.02 251.22 137.79 251.58 137.61C251.95 137.43 252.36 137.35 252.82 137.35C253.28 137.35 253.7 137.43 254.06 137.59C254.42 137.74 254.7 137.97 254.9 138.26C255.11 138.55 255.21 138.9 255.21 139.33C255.21 139.77 255.09 140.14 254.84 140.43C254.6 140.73 254.27 140.95 253.86 141.11V141.16C254.16 141.23 254.44 141.36 254.68 141.53C254.93 141.7 255.12 141.91 255.27 142.18C255.41 142.44 255.49 142.74 255.49 143.08C255.49 143.54 255.37 143.94 255.13 144.27C254.9 144.59 254.58 144.84 254.18 145.01C253.77 145.2 253.33 145.29 252.85 145.29ZM259.78 145.24C259.63 145.24 259.51 145.21 259.41 145.14C259.32 145.08 259.25 144.99 259.21 144.88C259.17 144.76 259.15 144.61 259.15 144.43V139.43H259.73V144.48C259.73 144.58 259.75 144.65 259.79 144.69C259.83 144.73 259.87 144.75 259.92 144.75C259.94 144.75 259.95 144.75 259.98 144.75C260 144.74 260.03 144.74 260.07 144.73L260.15 145.18C260.11 145.2 260.06 145.21 260 145.22C259.93 145.23 259.86 145.24 259.78 145.24ZM262.03 145.24C261.82 145.24 261.62 145.2 261.45 145.11C261.28 145.02 261.14 144.9 261.04 144.74C260.94 144.57 260.89 144.38 260.89 144.15C260.89 143.72 261.08 143.4 261.47 143.17C261.86 142.94 262.47 142.78 263.31 142.69C263.31 142.52 263.29 142.35 263.24 142.19C263.2 142.02 263.11 141.89 262.99 141.8C262.87 141.7 262.7 141.65 262.48 141.65C262.25 141.65 262.03 141.7 261.82 141.79C261.62 141.88 261.45 141.98 261.3 142.08L261.07 141.68C261.18 141.61 261.31 141.53 261.47 141.45C261.62 141.37 261.8 141.3 261.98 141.25C262.17 141.2 262.36 141.17 262.57 141.17C262.88 141.17 263.13 141.24 263.32 141.37C263.52 141.5 263.66 141.69 263.74 141.92C263.83 142.15 263.88 142.43 263.88 142.74V145.14H263.4L263.35 144.67H263.33C263.14 144.82 262.94 144.96 262.72 145.07C262.51 145.18 262.28 145.24 262.03 145.24ZM262.18 144.77C262.38 144.77 262.56 144.72 262.74 144.63C262.92 144.53 263.1 144.4 263.31 144.22V143.08C262.85 143.13 262.49 143.21 262.22 143.3C261.95 143.39 261.76 143.5 261.64 143.64C261.52 143.77 261.46 143.93 261.46 144.1C261.46 144.33 261.53 144.5 261.67 144.6C261.82 144.72 261.99 144.77 262.18 144.77ZM265.16 145.14V141.26H265.64L265.69 141.84H265.71C265.9 141.65 266.09 141.49 266.3 141.36C266.51 141.23 266.75 141.17 267.01 141.17C267.42 141.17 267.72 141.3 267.91 141.55C268.1 141.81 268.2 142.18 268.2 142.68V145.14H267.62V142.75C267.62 142.38 267.56 142.1 267.44 141.93C267.32 141.76 267.13 141.67 266.86 141.67C266.65 141.67 266.47 141.72 266.3 141.83C266.14 141.93 265.96 142.09 265.75 142.29V145.13H265.16V145.14ZM269.06 145.14V144.83L271.16 141.74H269.29V141.26H271.9V141.57L269.8 144.66H271.98V145.14H269.06ZM273.54 145.24C273.33 145.24 273.14 145.2 272.96 145.11C272.79 145.02 272.65 144.9 272.55 144.74C272.45 144.57 272.4 144.38 272.4 144.15C272.4 143.72 272.59 143.4 272.98 143.17C273.37 142.94 273.98 142.78 274.82 142.69C274.82 142.52 274.8 142.35 274.75 142.19C274.71 142.02 274.63 141.89 274.5 141.8C274.38 141.7 274.21 141.65 273.99 141.65C273.76 141.65 273.54 141.7 273.33 141.79C273.13 141.88 272.96 141.98 272.81 142.08L272.58 141.68C272.69 141.61 272.83 141.53 272.98 141.45C273.13 141.37 273.31 141.3 273.49 141.25C273.68 141.2 273.87 141.17 274.08 141.17C274.39 141.17 274.64 141.24 274.83 141.37C275.03 141.5 275.17 141.69 275.25 141.92C275.34 142.15 275.39 142.43 275.39 142.74V145.14H274.91L274.86 144.67H274.84C274.65 144.82 274.45 144.96 274.23 145.07C274.02 145.18 273.78 145.24 273.54 145.24ZM273.69 144.77C273.89 144.77 274.07 144.72 274.25 144.63C274.43 144.53 274.62 144.4 274.82 144.22V143.08C274.36 143.13 274 143.21 273.73 143.3C273.46 143.39 273.27 143.5 273.15 143.64C273.03 143.77 272.97 143.93 272.97 144.1C272.97 144.33 273.04 144.5 273.18 144.6C273.33 144.72 273.5 144.77 273.69 144.77ZM276.67 145.14V141.26H277.15L277.2 141.84H277.22C277.39 141.65 277.58 141.5 277.78 141.37C277.99 141.24 278.2 141.17 278.43 141.17C278.73 141.17 278.97 141.24 279.13 141.38C279.3 141.51 279.42 141.69 279.5 141.92C279.71 141.7 279.92 141.51 280.12 141.38C280.33 141.24 280.55 141.17 280.78 141.17C281.18 141.17 281.48 141.3 281.67 141.55C281.86 141.81 281.96 142.18 281.96 142.68V145.14H281.38V142.75C281.38 142.38 281.32 142.1 281.2 141.93C281.08 141.76 280.89 141.67 280.62 141.67C280.47 141.67 280.3 141.72 280.13 141.83C279.97 141.93 279.79 142.09 279.6 142.29V145.13H279.02V142.74C279.02 142.37 278.96 142.09 278.84 141.92C278.72 141.75 278.53 141.66 278.27 141.66C277.96 141.66 277.62 141.87 277.25 142.28V145.12H276.67V145.14ZM283.27 145.14V141.26H283.85V145.14H283.27ZM283.56 140.43C283.45 140.43 283.35 140.39 283.27 140.32C283.19 140.25 283.16 140.15 283.16 140.02C283.16 139.91 283.2 139.81 283.27 139.74C283.35 139.67 283.45 139.63 283.56 139.63C283.68 139.63 283.77 139.67 283.85 139.74C283.92 139.81 283.96 139.91 283.96 140.02C283.96 140.14 283.92 140.24 283.85 140.32C283.78 140.39 283.68 140.43 283.56 140.43ZM286.74 145.24C286.4 145.24 286.09 145.16 285.81 145C285.53 144.83 285.31 144.6 285.15 144.3C284.98 144 284.9 143.63 284.9 143.2C284.9 142.78 284.98 142.42 285.15 142.12C285.32 141.81 285.53 141.57 285.79 141.41C286.06 141.24 286.34 141.16 286.64 141.16C286.96 141.16 287.24 141.23 287.46 141.38C287.69 141.53 287.86 141.74 287.98 142.01C288.1 142.28 288.16 142.6 288.16 142.97C288.16 143.03 288.16 143.09 288.15 143.15C288.14 143.21 288.14 143.27 288.13 143.32H285.35L285.34 142.9H287.64C287.64 142.48 287.55 142.17 287.38 141.96C287.2 141.74 286.96 141.63 286.64 141.63C286.45 141.63 286.26 141.69 286.08 141.8C285.9 141.91 285.75 142.08 285.63 142.31C285.51 142.54 285.45 142.84 285.45 143.2C285.45 143.55 285.51 143.83 285.63 144.06C285.75 144.29 285.92 144.46 286.12 144.58C286.33 144.7 286.55 144.76 286.8 144.76C286.99 144.76 287.17 144.73 287.33 144.67C287.49 144.61 287.64 144.54 287.79 144.45L288.01 144.83C287.84 144.94 287.66 145.03 287.45 145.11C287.25 145.2 287.01 145.24 286.74 145.24ZM289.14 145.14V141.26H289.62L289.67 141.84H289.69C289.88 141.65 290.07 141.49 290.28 141.36C290.49 141.23 290.73 141.17 290.99 141.17C291.4 141.17 291.7 141.3 291.89 141.55C292.08 141.81 292.18 142.18 292.18 142.68V145.14H291.6V142.75C291.6 142.38 291.54 142.1 291.42 141.93C291.3 141.76 291.11 141.67 290.84 141.67C290.63 141.67 290.44 141.72 290.28 141.83C290.12 141.93 289.94 142.09 289.73 142.29V145.13H289.14V145.14ZM294.66 145.24C294.25 145.24 293.97 145.12 293.82 144.89C293.67 144.66 293.59 144.35 293.59 143.98V141.75H293.01V141.31L293.62 141.27L293.69 140.17H294.18V141.27H295.24V141.75H294.18V144C294.18 144.24 294.22 144.43 294.31 144.57C294.4 144.7 294.56 144.77 294.8 144.77C294.87 144.77 294.94 144.76 295.02 144.74C295.1 144.72 295.18 144.69 295.24 144.67L295.36 145.11C295.25 145.15 295.14 145.18 295.01 145.21C294.88 145.22 294.77 145.24 294.66 145.24ZM297.51 145.24C297.2 145.24 296.9 145.16 296.63 145C296.36 144.84 296.14 144.61 295.97 144.31C295.8 144.01 295.72 143.64 295.72 143.21C295.72 142.78 295.8 142.42 295.97 142.11C296.14 141.8 296.35 141.57 296.63 141.41C296.91 141.25 297.2 141.17 297.51 141.17C297.82 141.17 298.12 141.25 298.38 141.41C298.65 141.57 298.87 141.8 299.04 142.11C299.21 142.41 299.3 142.78 299.3 143.21C299.3 143.64 299.21 144.01 299.04 144.31C298.87 144.61 298.66 144.84 298.38 145C298.12 145.16 297.83 145.24 297.51 145.24ZM297.51 144.75C297.74 144.75 297.95 144.69 298.13 144.56C298.31 144.43 298.45 144.25 298.55 144.02C298.65 143.79 298.7 143.51 298.7 143.2C298.7 142.9 298.65 142.63 298.55 142.39C298.45 142.16 298.32 141.97 298.13 141.85C297.95 141.72 297.75 141.65 297.51 141.65C297.28 141.65 297.08 141.72 296.89 141.85C296.71 141.98 296.58 142.16 296.47 142.39C296.37 142.62 296.33 142.89 296.33 143.2C296.33 143.51 296.38 143.78 296.47 144.02C296.57 144.25 296.71 144.43 296.89 144.56C297.08 144.69 297.28 144.75 297.51 144.75ZM301.33 145.24C301.05 145.24 300.79 145.19 300.54 145.09C300.29 144.98 300.07 144.86 299.89 144.71L300.19 144.32C300.36 144.45 300.53 144.57 300.71 144.66C300.9 144.75 301.11 144.8 301.36 144.8C301.63 144.8 301.83 144.74 301.96 144.61C302.09 144.48 302.16 144.33 302.16 144.15C302.16 144.01 302.11 143.9 302.02 143.81C301.93 143.71 301.82 143.63 301.68 143.57C301.55 143.5 301.41 143.44 301.26 143.39C301.08 143.33 300.9 143.25 300.72 143.16C300.54 143.07 300.39 142.95 300.26 142.82C300.14 142.68 300.08 142.5 300.08 142.28C300.08 141.98 300.2 141.72 300.42 141.51C300.65 141.3 300.98 141.19 301.4 141.19C301.64 141.19 301.85 141.23 302.06 141.32C302.27 141.41 302.44 141.51 302.58 141.62L302.3 142C302.17 141.9 302.03 141.82 301.88 141.76C301.74 141.69 301.58 141.66 301.4 141.66C301.14 141.66 300.95 141.72 300.83 141.84C300.71 141.96 300.65 142.09 300.65 142.25C300.65 142.38 300.69 142.48 300.77 142.57C300.85 142.65 300.97 142.72 301.1 142.78C301.23 142.84 301.37 142.9 301.52 142.96C301.71 143.03 301.9 143.11 302.08 143.2C302.27 143.29 302.42 143.4 302.54 143.54C302.66 143.68 302.72 143.88 302.72 144.13C302.72 144.33 302.67 144.52 302.56 144.7C302.45 144.87 302.3 145.01 302.09 145.12C301.88 145.19 301.63 145.24 301.33 145.24Z" fill="white"/>
<path d="M27.54 145.14V144.14H29.27V138.86H27.87V138.09C28.24 138.02 28.56 137.93 28.83 137.84C29.1 137.74 29.35 137.63 29.57 137.49H30.48V144.14H32.02V145.14H27.54ZM35.6 145.29C35.11 145.29 34.67 145.2 34.28 145.03C33.9 144.85 33.59 144.6 33.37 144.29C33.15 143.97 33.05 143.61 33.05 143.2C33.05 142.87 33.12 142.58 33.25 142.34C33.39 142.08 33.56 141.86 33.77 141.68C33.99 141.49 34.21 141.33 34.45 141.2V141.15C34.17 140.94 33.92 140.69 33.71 140.41C33.5 140.12 33.4 139.78 33.4 139.38C33.4 138.97 33.5 138.62 33.69 138.32C33.89 138.02 34.16 137.78 34.49 137.62C34.83 137.45 35.21 137.37 35.64 137.37C36.32 137.37 36.86 137.56 37.25 137.95C37.65 138.33 37.85 138.82 37.85 139.43C37.85 139.69 37.79 139.93 37.68 140.16C37.58 140.39 37.44 140.6 37.28 140.78C37.13 140.96 36.97 141.1 36.8 141.22V141.27C37.03 141.4 37.25 141.55 37.45 141.73C37.66 141.91 37.82 142.12 37.94 142.37C38.07 142.62 38.13 142.91 38.13 143.25C38.13 143.64 38.02 143.99 37.81 144.31C37.6 144.61 37.31 144.86 36.92 145.04C36.54 145.19 36.1 145.29 35.6 145.29ZM35.62 144.41C35.88 144.41 36.12 144.36 36.33 144.27C36.54 144.17 36.7 144.02 36.81 143.84C36.93 143.66 36.99 143.44 36.99 143.19C36.99 142.89 36.9 142.64 36.73 142.45C36.55 142.26 36.32 142.09 36.02 141.96C35.72 141.82 35.4 141.68 35.05 141.54C34.79 141.72 34.56 141.95 34.38 142.21C34.2 142.47 34.12 142.75 34.12 143.07C34.12 143.33 34.18 143.57 34.31 143.78C34.45 143.98 34.63 144.14 34.85 144.25C35.08 144.35 35.34 144.41 35.62 144.41ZM36.12 140.89C36.35 140.67 36.53 140.45 36.65 140.22C36.77 139.98 36.83 139.73 36.83 139.48C36.83 139.24 36.78 139.03 36.69 138.84C36.6 138.65 36.47 138.5 36.28 138.4C36.1 138.29 35.88 138.23 35.62 138.23C35.3 138.23 35.03 138.33 34.82 138.53C34.6 138.73 34.5 139.01 34.5 139.36C34.5 139.63 34.57 139.86 34.72 140.06C34.87 140.24 35.07 140.4 35.32 140.54C35.55 140.66 35.82 140.78 36.12 140.89ZM39.16 145.14V144.14H40.89V138.86H39.49V138.09C39.86 138.02 40.18 137.93 40.45 137.84C40.72 137.74 40.97 137.63 41.19 137.49H42.1V144.14H43.64V145.14H39.16ZM47.89 145.24C47.74 145.24 47.62 145.21 47.52 145.14C47.43 145.08 47.36 144.99 47.32 144.88C47.28 144.76 47.26 144.61 47.26 144.43V139.43H47.84V144.48C47.84 144.58 47.86 144.65 47.9 144.69C47.94 144.73 47.98 144.75 48.03 144.75C48.05 144.75 48.06 144.75 48.09 144.75C48.11 144.74 48.14 144.74 48.18 144.73L48.26 145.18C48.22 145.2 48.17 145.21 48.11 145.22C48.04 145.23 47.97 145.24 47.89 145.24ZM50.14 145.24C49.93 145.24 49.73 145.2 49.56 145.11C49.39 145.02 49.25 144.9 49.15 144.74C49.05 144.57 49 144.38 49 144.15C49 143.72 49.19 143.4 49.58 143.17C49.97 142.94 50.58 142.78 51.42 142.69C51.42 142.52 51.4 142.35 51.35 142.19C51.31 142.02 51.22 141.89 51.1 141.8C50.98 141.7 50.81 141.65 50.59 141.65C50.36 141.65 50.14 141.7 49.93 141.79C49.73 141.88 49.56 141.98 49.41 142.08L49.18 141.68C49.29 141.61 49.43 141.53 49.58 141.45C49.73 141.37 49.91 141.3 50.09 141.25C50.28 141.2 50.47 141.17 50.68 141.17C50.99 141.17 51.24 141.24 51.43 141.37C51.63 141.5 51.77 141.69 51.85 141.92C51.94 142.15 51.99 142.43 51.99 142.74V145.14H51.51L51.46 144.67H51.44C51.25 144.82 51.05 144.96 50.83 145.07C50.62 145.18 50.39 145.24 50.14 145.24ZM50.29 144.77C50.49 144.77 50.67 144.72 50.85 144.63C51.03 144.53 51.22 144.4 51.42 144.22V143.08C50.96 143.13 50.6 143.21 50.33 143.3C50.06 143.39 49.87 143.5 49.75 143.64C49.63 143.77 49.57 143.93 49.57 144.1C49.57 144.33 49.64 144.5 49.78 144.6C49.93 144.72 50.1 144.77 50.29 144.77ZM53.27 145.14V141.26H53.75L53.8 141.84H53.82C54.01 141.65 54.2 141.49 54.41 141.36C54.62 141.23 54.86 141.17 55.12 141.17C55.53 141.17 55.83 141.3 56.02 141.55C56.21 141.81 56.31 142.18 56.31 142.68V145.14H55.73V142.75C55.73 142.38 55.67 142.1 55.55 141.93C55.43 141.76 55.24 141.67 54.97 141.67C54.76 141.67 54.58 141.72 54.41 141.83C54.25 141.93 54.07 142.09 53.86 142.29V145.13H53.27V145.14ZM57.17 145.14V144.83L59.27 141.74H57.4V141.26H60.01V141.57L57.91 144.66H60.09V145.14H57.17ZM61.65 145.24C61.44 145.24 61.25 145.2 61.07 145.11C60.9 145.02 60.76 144.9 60.66 144.74C60.56 144.57 60.51 144.38 60.51 144.15C60.51 143.72 60.7 143.4 61.09 143.17C61.48 142.94 62.09 142.78 62.93 142.69C62.93 142.52 62.91 142.35 62.86 142.19C62.82 142.02 62.74 141.89 62.61 141.8C62.49 141.7 62.32 141.65 62.1 141.65C61.86 141.65 61.65 141.7 61.44 141.79C61.24 141.88 61.07 141.98 60.92 142.08L60.69 141.68C60.8 141.61 60.93 141.53 61.09 141.45C61.25 141.37 61.42 141.3 61.6 141.25C61.79 141.2 61.98 141.17 62.19 141.17C62.5 141.17 62.75 141.24 62.94 141.37C63.14 141.5 63.28 141.69 63.36 141.92C63.45 142.15 63.5 142.43 63.5 142.74V145.14H63.02L62.97 144.67H62.95C62.76 144.82 62.56 144.96 62.34 145.07C62.12 145.18 61.89 145.24 61.65 145.24ZM61.8 144.77C62 144.77 62.18 144.72 62.36 144.63C62.54 144.53 62.72 144.4 62.93 144.22V143.08C62.47 143.13 62.11 143.21 61.84 143.3C61.57 143.39 61.38 143.5 61.26 143.64C61.14 143.77 61.08 143.93 61.08 144.1C61.08 144.33 61.15 144.5 61.29 144.6C61.44 144.72 61.61 144.77 61.8 144.77ZM64.78 145.14V141.26H65.26L65.31 141.84H65.33C65.5 141.65 65.69 141.5 65.89 141.37C66.1 141.24 66.31 141.17 66.54 141.17C66.84 141.17 67.08 141.24 67.24 141.38C67.41 141.51 67.53 141.69 67.61 141.92C67.82 141.7 68.03 141.51 68.23 141.38C68.44 141.24 68.66 141.17 68.89 141.17C69.29 141.17 69.59 141.3 69.78 141.55C69.97 141.81 70.07 142.18 70.07 142.68V145.14H69.49V142.75C69.49 142.38 69.43 142.1 69.31 141.93C69.19 141.76 69 141.67 68.73 141.67C68.57 141.67 68.41 141.72 68.24 141.83C68.07 141.93 67.9 142.09 67.71 142.29V145.13H67.13V142.74C67.13 142.37 67.07 142.09 66.95 141.92C66.83 141.75 66.64 141.66 66.38 141.66C66.07 141.66 65.73 141.87 65.36 142.28V145.12H64.78V145.14ZM71.38 145.14V141.26H71.96V145.14H71.38ZM71.67 140.43C71.56 140.43 71.46 140.39 71.38 140.32C71.31 140.25 71.27 140.15 71.27 140.02C71.27 139.91 71.31 139.81 71.38 139.74C71.46 139.67 71.56 139.63 71.67 139.63C71.79 139.63 71.88 139.67 71.96 139.74C72.04 139.81 72.07 139.91 72.07 140.02C72.07 140.14 72.03 140.24 71.96 140.32C71.89 140.39 71.79 140.43 71.67 140.43ZM74.85 145.24C74.51 145.24 74.2 145.16 73.92 145C73.64 144.83 73.42 144.6 73.26 144.3C73.09 144 73.01 143.63 73.01 143.2C73.01 142.78 73.09 142.42 73.26 142.12C73.43 141.81 73.64 141.57 73.9 141.41C74.17 141.24 74.45 141.16 74.75 141.16C75.07 141.16 75.34 141.23 75.57 141.38C75.8 141.53 75.97 141.74 76.09 142.01C76.21 142.28 76.27 142.6 76.27 142.97C76.27 143.03 76.27 143.09 76.26 143.15C76.25 143.21 76.25 143.27 76.24 143.32H73.46L73.45 142.9H75.75C75.75 142.48 75.66 142.17 75.49 141.96C75.31 141.74 75.07 141.63 74.75 141.63C74.56 141.63 74.37 141.69 74.19 141.8C74.01 141.91 73.86 142.08 73.74 142.31C73.62 142.54 73.56 142.84 73.56 143.2C73.56 143.55 73.62 143.83 73.74 144.06C73.86 144.29 74.02 144.46 74.23 144.58C74.44 144.7 74.66 144.76 74.91 144.76C75.1 144.76 75.28 144.73 75.44 144.67C75.6 144.61 75.75 144.54 75.9 144.45L76.12 144.83C75.95 144.94 75.77 145.03 75.56 145.11C75.36 145.2 75.12 145.24 74.85 145.24ZM77.25 145.14V141.26H77.73L77.78 141.84H77.8C77.99 141.65 78.18 141.49 78.39 141.36C78.6 141.23 78.84 141.17 79.1 141.17C79.51 141.17 79.81 141.3 80 141.55C80.19 141.81 80.29 142.18 80.29 142.68V145.14H79.71V142.75C79.71 142.38 79.65 142.1 79.53 141.93C79.41 141.76 79.22 141.67 78.95 141.67C78.74 141.67 78.56 141.72 78.39 141.83C78.23 141.93 78.05 142.09 77.84 142.29V145.13H77.25V145.14ZM82.77 145.24C82.37 145.24 82.08 145.12 81.93 144.89C81.78 144.66 81.7 144.35 81.7 143.98V141.75H81.12V141.31L81.73 141.27L81.8 140.17H82.29V141.27H83.35V141.75H82.29V144C82.29 144.24 82.33 144.43 82.42 144.57C82.51 144.7 82.67 144.77 82.91 144.77C82.98 144.77 83.05 144.76 83.13 144.74C83.21 144.72 83.29 144.69 83.35 144.67L83.47 145.11C83.36 145.15 83.25 145.18 83.12 145.21C82.99 145.22 82.88 145.24 82.77 145.24ZM85.62 145.24C85.3 145.24 85.01 145.16 84.74 145C84.47 144.84 84.25 144.61 84.08 144.31C83.92 144.01 83.83 143.64 83.83 143.21C83.83 142.78 83.91 142.42 84.08 142.11C84.25 141.8 84.46 141.57 84.74 141.41C85.01 141.25 85.3 141.17 85.62 141.17C85.94 141.17 86.22 141.25 86.49 141.41C86.76 141.57 86.98 141.8 87.15 142.11C87.32 142.41 87.41 142.78 87.41 143.21C87.41 143.64 87.33 144.01 87.15 144.31C86.99 144.61 86.77 144.84 86.49 145C86.23 145.16 85.94 145.24 85.62 145.24ZM85.62 144.75C85.86 144.75 86.06 144.69 86.24 144.56C86.42 144.43 86.56 144.25 86.66 144.02C86.76 143.79 86.81 143.51 86.81 143.2C86.81 142.9 86.76 142.63 86.66 142.39C86.56 142.16 86.42 141.97 86.24 141.85C86.06 141.72 85.86 141.65 85.62 141.65C85.39 141.65 85.19 141.72 85 141.85C84.82 141.98 84.68 142.16 84.58 142.39C84.48 142.62 84.44 142.89 84.44 143.2C84.44 143.51 84.49 143.78 84.58 144.02C84.68 144.25 84.82 144.43 85 144.56C85.19 144.69 85.39 144.75 85.62 144.75ZM89.44 145.24C89.16 145.24 88.9 145.19 88.65 145.09C88.4 144.98 88.18 144.86 88 144.71L88.3 144.32C88.46 144.45 88.64 144.57 88.82 144.66C89.01 144.75 89.22 144.8 89.47 144.8C89.74 144.8 89.94 144.74 90.07 144.61C90.2 144.48 90.27 144.33 90.27 144.15C90.27 144.01 90.22 143.9 90.13 143.81C90.04 143.71 89.92 143.63 89.79 143.57C89.66 143.5 89.52 143.44 89.37 143.39C89.19 143.33 89.01 143.25 88.83 143.16C88.65 143.07 88.5 142.95 88.37 142.82C88.25 142.68 88.19 142.5 88.19 142.28C88.19 141.98 88.3 141.72 88.53 141.51C88.76 141.3 89.09 141.19 89.51 141.19C89.74 141.19 89.96 141.23 90.17 141.32C90.37 141.41 90.55 141.51 90.69 141.62L90.41 142C90.28 141.9 90.14 141.82 89.99 141.76C89.85 141.69 89.69 141.66 89.51 141.66C89.25 141.66 89.06 141.72 88.94 141.84C88.82 141.96 88.76 142.09 88.76 142.25C88.76 142.38 88.8 142.48 88.88 142.57C88.97 142.65 89.07 142.72 89.21 142.78C89.34 142.84 89.48 142.9 89.63 142.96C89.82 143.03 90.01 143.11 90.19 143.2C90.38 143.29 90.53 143.4 90.65 143.54C90.77 143.68 90.83 143.88 90.83 144.13C90.83 144.33 90.78 144.52 90.67 144.7C90.56 144.87 90.41 145.01 90.2 145.12C89.99 145.19 89.74 145.24 89.44 145.24Z" fill="white"/>
<path d="M252.06 174.14C252.11 173.21 252.2 172.38 252.35 171.64C252.5 170.9 252.73 170.21 253.02 169.55C253.32 168.89 253.72 168.21 254.22 167.52H250.52V166.49H255.56V167.23C255.1 167.79 254.74 168.33 254.46 168.85C254.18 169.36 253.96 169.88 253.8 170.41C253.65 170.94 253.53 171.5 253.45 172.1C253.38 172.7 253.33 173.38 253.29 174.13H252.06V174.14ZM260.03 174.24C259.82 174.24 259.62 174.2 259.45 174.11C259.28 174.02 259.14 173.9 259.04 173.74C258.94 173.57 258.89 173.38 258.89 173.15C258.89 172.72 259.08 172.4 259.47 172.17C259.86 171.94 260.47 171.78 261.31 171.69C261.31 171.52 261.29 171.35 261.24 171.19C261.2 171.02 261.11 170.89 260.99 170.8C260.87 170.7 260.7 170.65 260.48 170.65C260.25 170.65 260.03 170.7 259.82 170.79C259.62 170.88 259.45 170.98 259.3 171.08L259.07 170.68C259.18 170.61 259.31 170.53 259.47 170.45C259.62 170.37 259.8 170.3 259.98 170.25C260.17 170.2 260.36 170.17 260.57 170.17C260.88 170.17 261.13 170.24 261.32 170.37C261.52 170.5 261.66 170.69 261.74 170.92C261.83 171.15 261.88 171.43 261.88 171.74V174.14H261.4L261.35 173.67H261.33C261.14 173.82 260.94 173.96 260.72 174.07C260.51 174.18 260.28 174.24 260.03 174.24ZM260.18 173.77C260.38 173.77 260.56 173.72 260.74 173.63C260.92 173.53 261.1 173.4 261.31 173.22V172.08C260.85 172.13 260.49 172.21 260.22 172.3C259.95 172.39 259.76 172.5 259.64 172.64C259.52 172.77 259.46 172.93 259.46 173.1C259.46 173.33 259.53 173.5 259.67 173.6C259.82 173.72 259.99 173.77 260.18 173.77ZM264.23 174.24C263.83 174.24 263.55 174.12 263.39 173.89C263.24 173.66 263.16 173.35 263.16 172.98V170.75H262.58V170.31L263.19 170.27L263.26 169.17H263.75V170.27H264.81V170.75H263.75V173C263.75 173.24 263.79 173.43 263.88 173.57C263.97 173.7 264.13 173.77 264.37 173.77C264.44 173.77 264.51 173.76 264.59 173.74C264.67 173.72 264.75 173.69 264.81 173.67L264.93 174.11C264.82 174.15 264.71 174.18 264.58 174.21C264.45 174.22 264.34 174.24 264.23 174.24ZM267.14 174.24C266.8 174.24 266.49 174.16 266.21 174C265.93 173.83 265.71 173.6 265.55 173.3C265.38 173 265.3 172.63 265.3 172.2C265.3 171.78 265.38 171.42 265.55 171.12C265.72 170.81 265.93 170.57 266.19 170.41C266.46 170.24 266.74 170.16 267.04 170.16C267.36 170.16 267.63 170.23 267.86 170.38C268.09 170.53 268.26 170.74 268.38 171.01C268.5 171.28 268.56 171.6 268.56 171.97C268.56 172.03 268.56 172.09 268.55 172.15C268.54 172.21 268.54 172.27 268.53 172.32H265.75L265.74 171.9H268.04C268.04 171.48 267.95 171.17 267.78 170.96C267.6 170.74 267.36 170.63 267.04 170.63C266.85 170.63 266.66 170.69 266.48 170.8C266.3 170.91 266.15 171.08 266.03 171.31C265.91 171.54 265.85 171.84 265.85 172.2C265.85 172.55 265.91 172.83 266.03 173.06C266.15 173.29 266.32 173.46 266.52 173.58C266.73 173.7 266.95 173.76 267.2 173.76C267.39 173.76 267.57 173.73 267.73 173.67C267.89 173.61 268.04 173.54 268.19 173.45L268.41 173.83C268.24 173.94 268.06 174.03 267.85 174.11C267.65 174.2 267.41 174.24 267.14 174.24ZM269.54 174.14V170.26H270.02L270.07 170.97H270.09C270.22 170.72 270.38 170.53 270.57 170.39C270.76 170.24 270.97 170.17 271.19 170.17C271.27 170.17 271.34 170.18 271.41 170.19C271.47 170.2 271.54 170.22 271.59 170.25L271.48 170.76C271.42 170.74 271.36 170.72 271.3 170.71C271.25 170.7 271.19 170.69 271.11 170.69C270.95 170.69 270.77 170.76 270.59 170.9C270.41 171.03 270.25 171.27 270.11 171.61V174.14H269.54ZM272.26 174.14V170.26H272.74L272.79 170.97H272.81C272.94 170.72 273.1 170.53 273.29 170.39C273.48 170.24 273.69 170.17 273.91 170.17C273.99 170.17 274.06 170.18 274.13 170.19C274.19 170.2 274.25 170.22 274.31 170.25L274.2 170.76C274.14 170.74 274.08 170.72 274.02 170.71C273.97 170.7 273.91 170.69 273.83 170.69C273.66 170.69 273.49 170.76 273.31 170.9C273.13 171.03 272.97 171.27 272.83 171.61V174.14H272.26ZM274.98 174.14V170.26H275.56V174.14H274.98ZM275.28 169.43C275.17 169.43 275.07 169.39 274.99 169.32C274.91 169.25 274.88 169.15 274.88 169.02C274.88 168.91 274.92 168.81 274.99 168.74C275.07 168.67 275.17 168.63 275.28 168.63C275.4 168.63 275.49 168.67 275.57 168.74C275.64 168.81 275.68 168.91 275.68 169.02C275.68 169.14 275.64 169.24 275.57 169.32C275.49 169.39 275.39 169.43 275.28 169.43ZM276.48 174.14V173.83L278.58 170.74H276.71V170.26H279.32V170.57L277.22 173.66H279.4V174.14H276.48ZM280.95 174.24C280.74 174.24 280.54 174.2 280.37 174.11C280.2 174.02 280.06 173.9 279.96 173.74C279.86 173.57 279.81 173.38 279.81 173.15C279.81 172.72 280 172.4 280.39 172.17C280.78 171.94 281.39 171.78 282.23 171.69C282.23 171.52 282.21 171.35 282.16 171.19C282.12 171.02 282.03 170.89 281.91 170.8C281.79 170.7 281.62 170.65 281.4 170.65C281.16 170.65 280.95 170.7 280.74 170.79C280.54 170.88 280.37 170.98 280.22 171.08L279.99 170.68C280.1 170.61 280.23 170.53 280.39 170.45C280.54 170.37 280.72 170.3 280.9 170.25C281.09 170.2 281.28 170.17 281.49 170.17C281.8 170.17 282.05 170.24 282.24 170.37C282.44 170.5 282.58 170.69 282.66 170.92C282.75 171.15 282.8 171.43 282.8 171.74V174.14H282.32L282.27 173.67H282.25C282.06 173.82 281.86 173.96 281.64 174.07C281.43 174.18 281.2 174.24 280.95 174.24ZM281.11 173.77C281.31 173.77 281.49 173.72 281.67 173.63C281.85 173.53 282.04 173.4 282.24 173.22V172.08C281.78 172.13 281.42 172.21 281.15 172.3C280.88 172.39 280.69 172.5 280.57 172.64C280.45 172.77 280.39 172.93 280.39 173.1C280.39 173.33 280.46 173.5 280.6 173.6C280.75 173.72 280.91 173.77 281.11 173.77ZM283.66 175.9C283.55 175.9 283.45 175.89 283.36 175.87C283.26 175.85 283.18 175.83 283.11 175.81L283.23 175.36C283.28 175.38 283.33 175.39 283.4 175.4C283.47 175.42 283.54 175.42 283.61 175.42C283.81 175.42 283.94 175.35 284 175.2C284.06 175.06 284.1 174.87 284.1 174.64L284.11 170.26H284.69V174.65C284.69 174.91 284.66 175.14 284.59 175.32C284.52 175.51 284.41 175.65 284.26 175.74C284.1 175.85 283.9 175.9 283.66 175.9ZM283.66 175.9C283.55 175.9 283.45 175.89 283.36 175.87C283.26 175.85 283.18 175.83 283.11 175.81L283.23 175.36C283.28 175.38 283.33 175.39 283.4 175.4C283.47 175.42 283.54 175.42 283.61 175.42C283.81 175.42 283.94 175.35 284 175.2C284.06 175.06 284.1 174.87 284.1 174.64L284.11 170.26H284.69V174.65C284.69 174.91 284.66 175.14 284.59 175.32C284.52 175.51 284.41 175.65 284.26 175.74C284.1 175.85 283.9 175.9 283.66 175.9ZM284.38 169.43C284.27 169.43 284.17 169.39 284.09 169.32C284.02 169.25 283.98 169.15 283.98 169.02C283.98 168.91 284.02 168.81 284.09 168.74C284.17 168.67 284.27 168.63 284.38 168.63C284.5 168.63 284.59 168.67 284.67 168.74C284.75 168.81 284.78 168.91 284.78 169.02C284.78 169.14 284.74 169.24 284.67 169.32C284.59 169.39 284.49 169.43 284.38 169.43ZM287.55 174.24C287.21 174.24 286.9 174.16 286.62 174C286.34 173.83 286.12 173.6 285.96 173.3C285.8 173 285.71 172.63 285.71 172.2C285.71 171.78 285.79 171.42 285.96 171.12C286.13 170.81 286.34 170.57 286.6 170.41C286.87 170.24 287.15 170.16 287.45 170.16C287.77 170.16 288.05 170.23 288.27 170.38C288.5 170.53 288.67 170.74 288.79 171.01C288.91 171.28 288.97 171.6 288.97 171.97C288.97 172.03 288.97 172.09 288.96 172.15C288.96 172.21 288.95 172.27 288.94 172.32H286.16L286.15 171.9H288.45C288.45 171.48 288.36 171.17 288.19 170.96C288.01 170.74 287.77 170.63 287.45 170.63C287.26 170.63 287.07 170.69 286.89 170.8C286.71 170.91 286.56 171.08 286.44 171.31C286.32 171.54 286.26 171.84 286.26 172.2C286.26 172.55 286.32 172.83 286.44 173.06C286.56 173.29 286.73 173.46 286.93 173.58C287.14 173.7 287.36 173.76 287.61 173.76C287.8 173.76 287.98 173.73 288.14 173.67C288.3 173.61 288.45 173.54 288.6 173.45L288.82 173.83C288.65 173.94 288.47 174.03 288.26 174.11C288.06 174.2 287.83 174.24 287.55 174.24ZM290.95 174.24C290.67 174.24 290.41 174.19 290.16 174.09C289.91 173.98 289.69 173.86 289.51 173.71L289.81 173.32C289.98 173.45 290.15 173.57 290.33 173.66C290.52 173.75 290.73 173.8 290.98 173.8C291.25 173.8 291.45 173.74 291.58 173.61C291.71 173.48 291.78 173.33 291.78 173.15C291.78 173.01 291.73 172.9 291.64 172.81C291.55 172.71 291.44 172.63 291.3 172.57C291.17 172.5 291.03 172.44 290.88 172.39C290.7 172.33 290.52 172.25 290.34 172.16C290.16 172.07 290.01 171.95 289.88 171.82C289.76 171.68 289.7 171.5 289.7 171.28C289.7 170.98 289.82 170.72 290.04 170.51C290.28 170.3 290.6 170.19 291.02 170.19C291.25 170.19 291.47 170.23 291.68 170.32C291.88 170.41 292.06 170.51 292.2 170.62L291.92 171C291.79 170.9 291.65 170.82 291.5 170.76C291.36 170.69 291.2 170.66 291.02 170.66C290.76 170.66 290.57 170.72 290.45 170.84C290.33 170.96 290.27 171.09 290.27 171.25C290.27 171.38 290.31 171.48 290.39 171.57C290.48 171.65 290.58 171.72 290.72 171.78C290.85 171.84 290.99 171.9 291.14 171.96C291.33 172.03 291.52 172.11 291.7 172.2C291.89 172.29 292.04 172.4 292.16 172.54C292.28 172.68 292.34 172.88 292.34 173.13C292.34 173.33 292.29 173.52 292.18 173.7C292.07 173.87 291.92 174.01 291.71 174.12C291.5 174.19 291.25 174.24 290.95 174.24Z" fill="white"/>
<path d="M27.54 174.14V173.14H29.27V167.86H27.87V167.09C28.24 167.02 28.56 166.93 28.83 166.84C29.1 166.74 29.35 166.63 29.57 166.49H30.48V173.14H32.02V174.14H27.54ZM36.16 174.14V169.22C36.16 169 36.17 168.75 36.18 168.45C36.2 168.15 36.21 167.89 36.22 167.68H36.17C36.07 167.86 35.97 168.05 35.87 168.24C35.77 168.42 35.66 168.62 35.55 168.82L33.99 171.16H38.3V172.11H32.77V171.29L35.9 166.49H37.3V174.13H36.16V174.14ZM39.16 174.14V173.14H40.89V167.86H39.49V167.09C39.86 167.02 40.18 166.93 40.45 166.84C40.72 166.74 40.97 166.63 41.19 166.49H42.1V173.14H43.64V174.14H39.16ZM48.14 174.24C47.93 174.24 47.73 174.2 47.56 174.11C47.39 174.02 47.25 173.9 47.15 173.74C47.05 173.57 47 173.38 47 173.15C47 172.72 47.19 172.4 47.58 172.17C47.97 171.94 48.58 171.78 49.42 171.69C49.42 171.52 49.4 171.35 49.35 171.19C49.31 171.02 49.22 170.89 49.1 170.8C48.98 170.7 48.81 170.65 48.59 170.65C48.36 170.65 48.14 170.7 47.93 170.79C47.73 170.88 47.56 170.98 47.41 171.08L47.18 170.68C47.29 170.61 47.43 170.53 47.58 170.45C47.73 170.37 47.91 170.3 48.09 170.25C48.28 170.2 48.47 170.17 48.68 170.17C48.99 170.17 49.24 170.24 49.43 170.37C49.63 170.5 49.77 170.69 49.85 170.92C49.94 171.15 49.99 171.43 49.99 171.74V174.14H49.51L49.46 173.67H49.44C49.25 173.82 49.05 173.96 48.83 174.07C48.62 174.18 48.39 174.24 48.14 174.24ZM48.29 173.77C48.49 173.77 48.67 173.72 48.85 173.63C49.03 173.53 49.22 173.4 49.42 173.22V172.08C48.96 172.13 48.6 172.21 48.33 172.3C48.06 172.39 47.87 172.5 47.75 172.64C47.63 172.77 47.57 172.93 47.57 173.1C47.57 173.33 47.64 173.5 47.78 173.6C47.93 173.72 48.1 173.77 48.29 173.77ZM52.34 174.24C51.93 174.24 51.65 174.12 51.5 173.89C51.35 173.66 51.27 173.35 51.27 172.98V170.75H50.69V170.31L51.3 170.27L51.37 169.17H51.86V170.27H52.92V170.75H51.86V173C51.86 173.24 51.9 173.43 51.99 173.57C52.08 173.7 52.24 173.77 52.48 173.77C52.55 173.77 52.62 173.76 52.7 173.74C52.79 173.72 52.86 173.69 52.92 173.67L53.04 174.11C52.93 174.15 52.82 174.18 52.69 174.21C52.56 174.22 52.45 174.24 52.34 174.24ZM55.25 174.24C54.91 174.24 54.6 174.16 54.32 174C54.04 173.83 53.82 173.6 53.66 173.3C53.49 173 53.41 172.63 53.41 172.2C53.41 171.78 53.49 171.42 53.66 171.12C53.83 170.81 54.04 170.57 54.3 170.41C54.57 170.24 54.85 170.16 55.15 170.16C55.47 170.16 55.74 170.23 55.97 170.38C56.2 170.53 56.37 170.74 56.49 171.01C56.61 171.28 56.67 171.6 56.67 171.97C56.67 172.03 56.67 172.09 56.66 172.15C56.65 172.21 56.65 172.27 56.64 172.32H53.86L53.85 171.9H56.15C56.15 171.48 56.06 171.17 55.89 170.96C55.71 170.74 55.47 170.63 55.15 170.63C54.96 170.63 54.77 170.69 54.59 170.8C54.41 170.91 54.26 171.08 54.14 171.31C54.02 171.54 53.96 171.84 53.96 172.2C53.96 172.55 54.02 172.83 54.14 173.06C54.26 173.29 54.43 173.46 54.63 173.58C54.84 173.7 55.06 173.76 55.31 173.76C55.5 173.76 55.68 173.73 55.84 173.67C56 173.61 56.15 173.54 56.3 173.45L56.52 173.83C56.35 173.94 56.17 174.03 55.96 174.11C55.76 174.2 55.52 174.24 55.25 174.24ZM57.65 174.14V170.26H58.13L58.18 170.97H58.2C58.33 170.72 58.49 170.53 58.68 170.39C58.87 170.24 59.08 170.17 59.3 170.17C59.38 170.17 59.45 170.18 59.52 170.19C59.58 170.2 59.64 170.22 59.7 170.25L59.59 170.76C59.53 170.74 59.47 170.72 59.41 170.71C59.36 170.7 59.3 170.69 59.22 170.69C59.05 170.69 58.88 170.76 58.7 170.9C58.52 171.03 58.36 171.27 58.22 171.61V174.14H57.65ZM60.37 174.14V170.26H60.85L60.9 170.97H60.92C61.05 170.72 61.21 170.53 61.4 170.39C61.59 170.24 61.8 170.17 62.02 170.17C62.1 170.17 62.17 170.18 62.24 170.19C62.3 170.2 62.37 170.22 62.42 170.25L62.31 170.76C62.25 170.74 62.19 170.72 62.13 170.71C62.08 170.7 62.02 170.69 61.94 170.69C61.77 170.69 61.6 170.76 61.42 170.9C61.24 171.03 61.08 171.27 60.94 171.61V174.14H60.37ZM63.09 174.14V170.26H63.67V174.14H63.09ZM63.38 169.43C63.27 169.43 63.17 169.39 63.09 169.32C63.02 169.25 62.98 169.15 62.98 169.02C62.98 168.91 63.02 168.81 63.09 168.74C63.17 168.67 63.27 168.63 63.38 168.63C63.5 168.63 63.59 168.67 63.67 168.74C63.74 168.81 63.78 168.91 63.78 169.02C63.78 169.14 63.74 169.24 63.67 169.32C63.6 169.39 63.5 169.43 63.38 169.43ZM64.59 174.14V173.83L66.69 170.74H64.82V170.26H67.43V170.57L65.33 173.66H67.51V174.14H64.59ZM69.06 174.24C68.85 174.24 68.65 174.2 68.48 174.11C68.31 174.02 68.17 173.9 68.07 173.74C67.97 173.57 67.92 173.38 67.92 173.15C67.92 172.72 68.11 172.4 68.5 172.17C68.89 171.94 69.5 171.78 70.34 171.69C70.34 171.52 70.32 171.35 70.27 171.19C70.23 171.02 70.15 170.89 70.02 170.8C69.9 170.7 69.73 170.65 69.51 170.65C69.27 170.65 69.06 170.7 68.85 170.79C68.65 170.88 68.48 170.98 68.33 171.08L68.1 170.68C68.21 170.61 68.35 170.53 68.5 170.45C68.65 170.37 68.83 170.3 69.01 170.25C69.2 170.2 69.39 170.17 69.6 170.17C69.91 170.17 70.16 170.24 70.35 170.37C70.55 170.5 70.69 170.69 70.77 170.92C70.86 171.15 70.91 171.43 70.91 171.74V174.14H70.43L70.38 173.67H70.36C70.17 173.82 69.97 173.96 69.75 174.07C69.54 174.18 69.31 174.24 69.06 174.24ZM69.21 173.77C69.41 173.77 69.59 173.72 69.77 173.63C69.95 173.53 70.13 173.4 70.34 173.22V172.08C69.88 172.13 69.52 172.21 69.25 172.3C68.98 172.39 68.79 172.5 68.67 172.64C68.55 172.78 68.49 172.93 68.49 173.1C68.49 173.33 68.56 173.5 68.7 173.6C68.85 173.72 69.02 173.77 69.21 173.77ZM71.77 175.9C71.66 175.9 71.56 175.89 71.47 175.87C71.37 175.85 71.29 175.83 71.22 175.81L71.34 175.36C71.39 175.38 71.44 175.39 71.51 175.4C71.58 175.42 71.65 175.42 71.72 175.42C71.92 175.42 72.05 175.35 72.11 175.2C72.17 175.06 72.21 174.87 72.21 174.64L72.22 170.26H72.8V174.65C72.8 174.91 72.77 175.14 72.7 175.32C72.63 175.51 72.52 175.65 72.37 175.74C72.21 175.85 72.01 175.9 71.77 175.9ZM71.77 175.9C71.66 175.9 71.56 175.89 71.47 175.87C71.37 175.85 71.29 175.83 71.22 175.81L71.34 175.36C71.39 175.38 71.44 175.39 71.51 175.4C71.58 175.42 71.65 175.42 71.72 175.42C71.92 175.42 72.05 175.35 72.11 175.2C72.17 175.06 72.21 174.87 72.21 174.64L72.22 170.26H72.8V174.65C72.8 174.91 72.77 175.14 72.7 175.32C72.63 175.51 72.52 175.65 72.37 175.74C72.21 175.85 72.01 175.9 71.77 175.9ZM72.49 169.43C72.38 169.43 72.28 169.39 72.2 169.32C72.13 169.25 72.09 169.15 72.09 169.02C72.09 168.91 72.13 168.81 72.2 168.74C72.28 168.67 72.38 168.63 72.49 168.63C72.61 168.63 72.7 168.67 72.78 168.74C72.85 168.81 72.89 168.91 72.89 169.02C72.89 169.14 72.85 169.24 72.78 169.32C72.7 169.39 72.6 169.43 72.49 169.43ZM75.66 174.24C75.32 174.24 75.01 174.16 74.73 174C74.45 173.83 74.23 173.6 74.07 173.3C73.9 173 73.82 172.63 73.82 172.2C73.82 171.78 73.9 171.42 74.07 171.12C74.24 170.81 74.45 170.57 74.71 170.41C74.98 170.24 75.26 170.16 75.56 170.16C75.88 170.16 76.16 170.23 76.38 170.38C76.61 170.53 76.78 170.74 76.9 171.01C77.02 171.28 77.08 171.6 77.08 171.97C77.08 172.03 77.08 172.09 77.07 172.15C77.06 172.21 77.06 172.27 77.05 172.32H74.27L74.26 171.9H76.56C76.56 171.48 76.47 171.17 76.3 170.96C76.12 170.74 75.88 170.63 75.56 170.63C75.37 170.63 75.18 170.69 75 170.8C74.82 170.91 74.67 171.08 74.55 171.31C74.43 171.54 74.37 171.84 74.37 172.2C74.37 172.55 74.43 172.83 74.55 173.06C74.67 173.29 74.84 173.46 75.04 173.58C75.25 173.7 75.47 173.76 75.72 173.76C75.91 173.76 76.09 173.73 76.25 173.67C76.41 173.61 76.56 173.54 76.71 173.45L76.93 173.83C76.77 173.94 76.58 174.03 76.37 174.11C76.17 174.2 75.94 174.24 75.66 174.24ZM79.06 174.24C78.78 174.24 78.52 174.19 78.27 174.09C78.02 173.98 77.8 173.86 77.62 173.71L77.92 173.32C78.09 173.45 78.26 173.57 78.44 173.66C78.63 173.75 78.84 173.8 79.09 173.8C79.36 173.8 79.56 173.74 79.69 173.61C79.82 173.48 79.89 173.33 79.89 173.15C79.89 173.01 79.84 172.9 79.75 172.81C79.66 172.71 79.54 172.63 79.41 172.57C79.28 172.5 79.13 172.44 78.99 172.39C78.81 172.33 78.63 172.25 78.45 172.16C78.27 172.07 78.12 171.95 77.99 171.82C77.87 171.68 77.81 171.5 77.81 171.28C77.81 170.98 77.92 170.72 78.15 170.51C78.38 170.3 78.71 170.19 79.13 170.19C79.36 170.19 79.58 170.23 79.79 170.32C79.99 170.41 80.17 170.51 80.31 170.62L80.03 171C79.9 170.9 79.76 170.82 79.61 170.76C79.47 170.69 79.31 170.66 79.13 170.66C78.87 170.66 78.68 170.72 78.56 170.84C78.44 170.96 78.38 171.09 78.38 171.25C78.38 171.38 78.42 171.48 78.5 171.57C78.58 171.65 78.69 171.72 78.83 171.78C78.96 171.84 79.1 171.9 79.25 171.96C79.44 172.03 79.63 172.11 79.81 172.2C80 172.29 80.15 172.4 80.27 172.54C80.39 172.68 80.45 172.88 80.45 173.13C80.45 173.33 80.4 173.52 80.29 173.7C80.18 173.87 80.03 174.01 79.82 174.12C79.61 174.19 79.36 174.24 79.06 174.24Z" fill="white"/>
<path d="M253.61 203.14V198.22C253.61 198 253.62 197.75 253.63 197.45C253.65 197.15 253.66 196.89 253.67 196.68H253.62C253.52 196.86 253.42 197.05 253.32 197.24C253.22 197.42 253.11 197.62 253 197.82L251.44 200.16H255.75V201.11H250.22V200.29L253.35 195.49H254.75V203.13H253.61V203.14ZM259.15 203.14V199.26H259.63L259.68 199.97H259.7C259.83 199.72 259.99 199.53 260.18 199.39C260.37 199.24 260.58 199.17 260.8 199.17C260.88 199.17 260.95 199.18 261.02 199.19C261.08 199.2 261.14 199.22 261.2 199.25L261.09 199.76C261.03 199.74 260.97 199.72 260.91 199.71C260.86 199.7 260.8 199.69 260.72 199.69C260.55 199.69 260.38 199.76 260.2 199.9C260.02 200.03 259.86 200.27 259.72 200.61V203.14H259.15ZM263.33 203.24C262.99 203.24 262.68 203.16 262.4 203C262.12 202.83 261.9 202.6 261.74 202.3C261.57 202 261.49 201.63 261.49 201.2C261.49 200.78 261.57 200.42 261.74 200.12C261.91 199.81 262.12 199.57 262.38 199.41C262.65 199.24 262.93 199.16 263.23 199.16C263.55 199.16 263.83 199.23 264.05 199.38C264.28 199.53 264.45 199.74 264.57 200.01C264.69 200.28 264.75 200.6 264.75 200.97C264.75 201.03 264.75 201.09 264.74 201.15C264.73 201.21 264.73 201.27 264.72 201.32H261.94L261.93 200.9H264.23C264.23 200.48 264.14 200.17 263.97 199.96C263.79 199.74 263.55 199.63 263.23 199.63C263.04 199.63 262.85 199.69 262.67 199.8C262.49 199.91 262.34 200.08 262.22 200.31C262.1 200.54 262.04 200.83 262.04 201.2C262.04 201.55 262.1 201.83 262.22 202.06C262.34 202.29 262.51 202.46 262.71 202.58C262.92 202.7 263.14 202.76 263.39 202.76C263.58 202.76 263.76 202.73 263.92 202.67C264.08 202.61 264.23 202.54 264.38 202.45L264.6 202.83C264.43 202.94 264.25 203.03 264.04 203.11C263.84 203.2 263.6 203.24 263.33 203.24ZM265.46 201.37V200.91H267.28V201.37H265.46ZM269.05 203.14L267.63 199.26H268.23L269 201.52C269.06 201.71 269.12 201.9 269.18 202.09C269.24 202.28 269.3 202.47 269.36 202.66H269.39C269.45 202.47 269.51 202.28 269.57 202.09C269.63 201.9 269.69 201.71 269.75 201.52L270.52 199.26H271.1L269.71 203.14H269.05ZM273.01 203.24C272.61 203.24 272.31 203.11 272.12 202.86C271.93 202.6 271.83 202.23 271.83 201.73V199.27H272.41V201.66C272.41 202.03 272.47 202.31 272.59 202.48C272.71 202.65 272.91 202.74 273.18 202.74C273.38 202.74 273.57 202.69 273.73 202.58C273.89 202.47 274.07 202.29 274.27 202.05V199.27H274.85V203.15H274.36L274.31 202.53H274.29C274.11 202.74 273.92 202.92 273.71 203.05C273.52 203.17 273.29 203.24 273.01 203.24ZM277.75 203.24C277.41 203.24 277.1 203.16 276.82 203C276.54 202.83 276.32 202.6 276.16 202.3C275.99 202 275.91 201.63 275.91 201.2C275.91 200.78 275.99 200.42 276.16 200.12C276.33 199.81 276.54 199.57 276.8 199.41C277.07 199.24 277.35 199.16 277.65 199.16C277.97 199.16 278.25 199.23 278.47 199.38C278.69 199.53 278.87 199.74 278.99 200.01C279.11 200.28 279.17 200.6 279.17 200.97C279.17 201.03 279.17 201.09 279.16 201.15C279.15 201.21 279.15 201.27 279.14 201.32H276.36L276.35 200.9H278.65C278.65 200.48 278.56 200.17 278.39 199.96C278.21 199.74 277.97 199.63 277.65 199.63C277.46 199.63 277.27 199.69 277.09 199.8C276.91 199.91 276.76 200.08 276.64 200.31C276.52 200.54 276.46 200.83 276.46 201.2C276.46 201.55 276.52 201.83 276.64 202.06C276.76 202.29 276.93 202.46 277.13 202.58C277.34 202.7 277.56 202.76 277.81 202.76C278 202.76 278.18 202.73 278.34 202.67C278.5 202.61 278.65 202.54 278.8 202.45L279.02 202.83C278.85 202.94 278.67 203.03 278.46 203.11C278.26 203.2 278.02 203.24 277.75 203.24ZM280.78 203.24C280.63 203.24 280.51 203.21 280.41 203.14C280.32 203.08 280.25 202.99 280.21 202.88C280.17 202.76 280.15 202.61 280.15 202.43V197.43H280.73V202.48C280.73 202.58 280.75 202.64 280.79 202.69C280.83 202.73 280.87 202.75 280.92 202.75C280.94 202.75 280.95 202.75 280.98 202.75C281 202.74 281.03 202.74 281.07 202.73L281.15 203.18C281.11 203.2 281.06 203.21 281 203.22C280.93 203.23 280.86 203.24 280.78 203.24ZM283.63 203.24C283.31 203.24 283.02 203.16 282.75 203C282.48 202.84 282.26 202.61 282.09 202.31C281.92 202.01 281.84 201.64 281.84 201.21C281.84 200.78 281.92 200.42 282.09 200.11C282.26 199.8 282.47 199.57 282.75 199.41C283.03 199.25 283.32 199.17 283.63 199.17C283.94 199.17 284.24 199.25 284.5 199.41C284.77 199.57 284.99 199.81 285.16 200.11C285.33 200.41 285.42 200.78 285.42 201.21C285.42 201.64 285.33 202.01 285.16 202.31C284.99 202.61 284.78 202.84 284.5 203C284.24 203.16 283.95 203.24 283.63 203.24ZM283.63 202.75C283.86 202.75 284.07 202.69 284.25 202.56C284.43 202.43 284.57 202.25 284.67 202.02C284.77 201.78 284.82 201.51 284.82 201.2C284.82 200.9 284.77 200.63 284.67 200.39C284.57 200.15 284.43 199.97 284.25 199.85C284.07 199.72 283.87 199.65 283.63 199.65C283.4 199.65 283.2 199.72 283.01 199.85C282.83 199.98 282.69 200.16 282.59 200.39C282.49 200.63 282.45 200.89 282.45 201.2C282.45 201.51 282.5 201.78 282.59 202.02C282.69 202.25 282.83 202.43 283.01 202.56C283.2 202.69 283.4 202.75 283.63 202.75ZM287.45 203.24C287.17 203.24 286.91 203.19 286.66 203.09C286.41 202.98 286.19 202.85 286.01 202.71L286.31 202.32C286.48 202.45 286.65 202.56 286.83 202.66C287.02 202.75 287.23 202.8 287.48 202.8C287.75 202.8 287.95 202.74 288.08 202.61C288.21 202.48 288.28 202.33 288.28 202.15C288.28 202.01 288.23 201.9 288.14 201.81C288.05 201.71 287.94 201.63 287.8 201.57C287.67 201.5 287.53 201.44 287.38 201.39C287.2 201.33 287.02 201.25 286.84 201.16C286.66 201.07 286.51 200.96 286.38 200.82C286.26 200.68 286.2 200.5 286.2 200.28C286.2 199.98 286.32 199.72 286.54 199.51C286.78 199.3 287.1 199.19 287.52 199.19C287.75 199.19 287.97 199.23 288.18 199.32C288.38 199.41 288.56 199.51 288.7 199.62L288.42 200C288.29 199.9 288.15 199.82 288 199.76C287.86 199.69 287.7 199.66 287.52 199.66C287.26 199.66 287.07 199.72 286.95 199.84C286.83 199.96 286.77 200.09 286.77 200.25C286.77 200.38 286.81 200.49 286.89 200.57C286.98 200.65 287.08 200.72 287.22 200.78C287.35 200.84 287.49 200.9 287.64 200.96C287.83 201.03 288.02 201.11 288.2 201.2C288.39 201.28 288.54 201.4 288.66 201.54C288.78 201.68 288.84 201.88 288.84 202.13C288.84 202.33 288.79 202.52 288.68 202.7C288.57 202.87 288.42 203.01 288.21 203.12C288 203.19 287.75 203.24 287.45 203.24Z" fill="white"/>
<path d="M27.54 203.14V202.14H29.27V196.86H27.87V196.09C28.24 196.02 28.56 195.93 28.83 195.84C29.1 195.74 29.35 195.63 29.57 195.49H30.48V202.14H32.02V203.14H27.54ZM33.09 203.14V202.14H34.82V196.86H33.42V196.09C33.79 196.02 34.11 195.93 34.38 195.84C34.65 195.74 34.9 195.63 35.12 195.49H36.03V202.14H37.57V203.14H33.09ZM40.65 203.29C40.21 203.29 39.83 203.21 39.51 203.05C39.19 202.88 38.92 202.68 38.69 202.45L39.35 201.71C39.49 201.89 39.68 202.03 39.9 202.14C40.12 202.24 40.35 202.3 40.58 202.3C40.92 202.3 41.24 202.2 41.53 202C41.82 201.79 42.05 201.46 42.21 200.99C42.39 200.52 42.47 199.88 42.47 199.07C42.47 198.44 42.41 197.92 42.28 197.51C42.15 197.1 41.97 196.8 41.73 196.6C41.5 196.4 41.22 196.3 40.9 196.3C40.67 196.3 40.46 196.36 40.28 196.49C40.1 196.61 39.95 196.79 39.84 197.02C39.74 197.24 39.68 197.52 39.68 197.85C39.68 198.16 39.73 198.43 39.82 198.65C39.92 198.87 40.07 199.03 40.26 199.15C40.45 199.26 40.69 199.32 40.97 199.32C41.2 199.32 41.45 199.24 41.73 199.09C42 198.94 42.25 198.68 42.49 198.31L42.54 199.2C42.32 199.5 42.04 199.75 41.71 199.93C41.38 200.11 41.07 200.21 40.76 200.21C40.32 200.21 39.93 200.12 39.6 199.95C39.27 199.77 39.02 199.51 38.83 199.17C38.65 198.82 38.55 198.38 38.55 197.85C38.55 197.35 38.65 196.91 38.86 196.54C39.08 196.16 39.36 195.88 39.71 195.68C40.07 195.47 40.46 195.37 40.89 195.37C41.27 195.37 41.62 195.45 41.95 195.6C42.28 195.74 42.56 195.97 42.8 196.28C43.05 196.58 43.24 196.97 43.39 197.43C43.53 197.89 43.61 198.44 43.61 199.07C43.61 199.82 43.53 200.47 43.36 201C43.2 201.54 42.98 201.97 42.7 202.31C42.43 202.65 42.11 202.89 41.75 203.05C41.4 203.21 41.04 203.29 40.65 203.29ZM47.26 203.14V199.26H47.74L47.79 199.97H47.81C47.94 199.72 48.1 199.53 48.29 199.39C48.48 199.24 48.69 199.17 48.91 199.17C48.99 199.17 49.06 199.18 49.13 199.19C49.19 199.2 49.26 199.22 49.31 199.25L49.2 199.76C49.14 199.74 49.08 199.72 49.02 199.71C48.97 199.7 48.91 199.69 48.83 199.69C48.66 199.69 48.49 199.76 48.31 199.9C48.13 200.03 47.97 200.27 47.83 200.61V203.14H47.26ZM51.44 203.24C51.1 203.24 50.79 203.16 50.51 203C50.23 202.83 50.01 202.6 49.85 202.3C49.68 202 49.6 201.63 49.6 201.2C49.6 200.78 49.68 200.42 49.85 200.12C50.02 199.81 50.23 199.57 50.49 199.41C50.76 199.24 51.04 199.16 51.34 199.16C51.66 199.16 51.93 199.23 52.16 199.38C52.39 199.53 52.56 199.74 52.68 200.01C52.8 200.28 52.86 200.6 52.86 200.97C52.86 201.03 52.86 201.09 52.85 201.15C52.84 201.21 52.84 201.27 52.83 201.32H50.05L50.04 200.9H52.34C52.34 200.48 52.25 200.17 52.08 199.96C51.9 199.74 51.66 199.63 51.34 199.63C51.15 199.63 50.96 199.69 50.78 199.8C50.6 199.91 50.45 200.08 50.33 200.31C50.21 200.54 50.15 200.83 50.15 201.2C50.15 201.55 50.21 201.83 50.33 202.06C50.45 202.29 50.62 202.46 50.82 202.58C51.03 202.7 51.25 202.76 51.5 202.76C51.69 202.76 51.87 202.73 52.03 202.67C52.19 202.61 52.34 202.54 52.49 202.45L52.71 202.83C52.54 202.94 52.36 203.03 52.15 203.11C51.95 203.2 51.71 203.24 51.44 203.24ZM53.56 201.37V200.91H55.38V201.37H53.56ZM57.16 203.14L55.74 199.26H56.34L57.11 201.52C57.17 201.71 57.23 201.9 57.29 202.09C57.35 202.28 57.42 202.47 57.47 202.66H57.5C57.56 202.47 57.62 202.28 57.68 202.09C57.74 201.9 57.81 201.71 57.86 201.52L58.63 199.26H59.21L57.82 203.14H57.16ZM61.12 203.24C60.72 203.24 60.42 203.11 60.23 202.86C60.04 202.6 59.94 202.23 59.94 201.73V199.27H60.52V201.66C60.52 202.03 60.58 202.31 60.7 202.48C60.82 202.65 61.02 202.74 61.29 202.74C61.49 202.74 61.68 202.69 61.84 202.58C62.01 202.47 62.18 202.29 62.38 202.05V199.27H62.96V203.15H62.47L62.42 202.53H62.41C62.23 202.74 62.04 202.92 61.83 203.05C61.63 203.17 61.39 203.24 61.12 203.24ZM65.86 203.24C65.52 203.24 65.21 203.16 64.93 203C64.65 202.83 64.43 202.6 64.27 202.3C64.1 202 64.02 201.63 64.02 201.2C64.02 200.78 64.1 200.42 64.27 200.12C64.44 199.81 64.65 199.57 64.91 199.41C65.18 199.24 65.46 199.16 65.76 199.16C66.08 199.16 66.35 199.23 66.58 199.38C66.81 199.53 66.98 199.74 67.1 200.01C67.22 200.28 67.28 200.6 67.28 200.97C67.28 201.03 67.28 201.09 67.27 201.15C67.26 201.21 67.26 201.27 67.25 201.32H64.47L64.46 200.9H66.76C66.76 200.48 66.67 200.17 66.5 199.96C66.32 199.74 66.08 199.63 65.76 199.63C65.57 199.63 65.38 199.69 65.2 199.8C65.02 199.91 64.87 200.08 64.75 200.31C64.63 200.54 64.57 200.83 64.57 201.2C64.57 201.55 64.63 201.83 64.75 202.06C64.87 202.29 65.04 202.46 65.24 202.58C65.45 202.7 65.67 202.76 65.92 202.76C66.11 202.76 66.29 202.73 66.45 202.67C66.61 202.61 66.76 202.54 66.91 202.45L67.13 202.83C66.96 202.94 66.78 203.03 66.57 203.11C66.37 203.2 66.13 203.24 65.86 203.24ZM68.89 203.24C68.74 203.24 68.62 203.21 68.52 203.14C68.43 203.08 68.36 202.99 68.32 202.88C68.28 202.76 68.26 202.61 68.26 202.43V197.43H68.84V202.48C68.84 202.58 68.86 202.64 68.9 202.69C68.94 202.73 68.98 202.75 69.03 202.75C69.05 202.75 69.06 202.75 69.09 202.75C69.11 202.74 69.14 202.74 69.18 202.73L69.26 203.18C69.22 203.2 69.17 203.21 69.11 203.22C69.04 203.23 68.97 203.24 68.89 203.24ZM71.74 203.24C71.43 203.24 71.13 203.16 70.86 203C70.59 202.84 70.37 202.61 70.2 202.31C70.03 202.01 69.95 201.64 69.95 201.21C69.95 200.78 70.03 200.42 70.2 200.11C70.37 199.8 70.58 199.57 70.86 199.41C71.14 199.25 71.43 199.17 71.74 199.17C72.06 199.17 72.35 199.25 72.61 199.41C72.88 199.57 73.1 199.81 73.27 200.11C73.44 200.41 73.53 200.78 73.53 201.21C73.53 201.64 73.45 202.01 73.27 202.31C73.11 202.61 72.89 202.84 72.61 203C72.35 203.16 72.06 203.24 71.74 203.24ZM71.74 202.75C71.98 202.75 72.18 202.69 72.36 202.56C72.54 202.43 72.68 202.25 72.78 202.02C72.88 201.78 72.93 201.51 72.93 201.2C72.93 200.9 72.88 200.63 72.78 200.39C72.68 200.15 72.54 199.97 72.36 199.85C72.18 199.72 71.98 199.65 71.74 199.65C71.51 199.65 71.31 199.72 71.12 199.85C70.94 199.98 70.8 200.16 70.7 200.39C70.6 200.63 70.56 200.89 70.56 201.2C70.56 201.51 70.61 201.78 70.7 202.02C70.8 202.25 70.94 202.43 71.12 202.56C71.31 202.69 71.51 202.75 71.74 202.75ZM75.56 203.24C75.28 203.24 75.02 203.19 74.77 203.09C74.52 202.98 74.3 202.85 74.12 202.71L74.42 202.32C74.59 202.45 74.76 202.56 74.94 202.66C75.13 202.75 75.34 202.8 75.59 202.8C75.86 202.8 76.06 202.74 76.19 202.61C76.32 202.48 76.39 202.33 76.39 202.15C76.39 202.01 76.34 201.9 76.25 201.81C76.16 201.71 76.04 201.63 75.91 201.57C75.78 201.5 75.63 201.44 75.49 201.39C75.31 201.33 75.13 201.25 74.95 201.16C74.77 201.07 74.62 200.96 74.49 200.82C74.37 200.68 74.31 200.5 74.31 200.28C74.31 199.98 74.42 199.72 74.65 199.51C74.88 199.3 75.21 199.19 75.63 199.19C75.86 199.19 76.08 199.23 76.29 199.32C76.49 199.41 76.67 199.51 76.81 199.62L76.53 200C76.4 199.9 76.26 199.82 76.11 199.76C75.97 199.69 75.81 199.66 75.63 199.66C75.37 199.66 75.18 199.72 75.06 199.84C74.94 199.96 74.88 200.09 74.88 200.25C74.88 200.38 74.92 200.49 75 200.57C75.08 200.65 75.19 200.72 75.33 200.78C75.46 200.84 75.6 200.9 75.75 200.96C75.94 201.03 76.13 201.11 76.31 201.2C76.5 201.28 76.65 201.4 76.77 201.54C76.89 201.68 76.95 201.88 76.95 202.13C76.95 202.33 76.9 202.52 76.79 202.7C76.68 202.87 76.53 203.01 76.32 203.12C76.11 203.19 75.86 203.24 75.56 203.24Z" fill="white"/>
<path d="M188.14 98.35C188.34 98.55 188.65 98.55 188.85 98.35L192.03 95.17C192.23 94.97 192.23 94.66 192.03 94.46C191.83 94.26 191.52 94.26 191.32 94.46L188.49 97.29L185.66 94.46C185.46 94.26 185.15 94.26 184.95 94.46C184.75 94.66 184.75 94.97 184.95 95.17L188.14 98.35ZM188 12V98H189V12H188V12Z" fill="white"/>
<path d="M138.14 97.35C138.34 97.55 138.65 97.55 138.85 97.35L142.03 94.17C142.23 93.97 142.23 93.66 142.03 93.46C141.83 93.26 141.52 93.26 141.32 93.46L138.49 96.29L135.66 93.46C135.46 93.26 135.15 93.26 134.95 93.46C134.75 93.66 134.75 93.97 134.95 94.17L138.14 97.35ZM138 12V97H139V12H138V12Z" fill="white"/>
<path d="M155.706 199V195.715H157.571V196.03H156.076V197.19H157.341V197.5H156.076V199H155.706ZM158.672 199.06C158.539 199.06 158.419 199.033 158.312 198.98C158.206 198.927 158.121 198.85 158.057 198.75C157.994 198.647 157.962 198.522 157.962 198.375C157.962 198.112 158.082 197.91 158.322 197.77C158.566 197.627 158.949 197.527 159.472 197.47C159.472 197.36 159.457 197.255 159.427 197.155C159.401 197.055 159.349 196.975 159.272 196.915C159.199 196.852 159.092 196.82 158.952 196.82C158.806 196.82 158.669 196.848 158.542 196.905C158.419 196.962 158.311 197.022 158.217 197.085L158.072 196.835C158.142 196.788 158.226 196.74 158.322 196.69C158.419 196.64 158.526 196.598 158.642 196.565C158.759 196.532 158.882 196.515 159.012 196.515C159.209 196.515 159.367 196.557 159.487 196.64C159.607 196.723 159.694 196.838 159.747 196.985C159.804 197.132 159.832 197.303 159.832 197.5V199H159.532L159.502 198.705H159.487C159.371 198.802 159.244 198.885 159.107 198.955C158.971 199.025 158.826 199.06 158.672 199.06ZM158.767 198.765C158.894 198.765 159.011 198.737 159.117 198.68C159.227 198.62 159.346 198.535 159.472 198.425V197.715C159.186 197.748 158.959 197.795 158.792 197.855C158.626 197.912 158.506 197.982 158.432 198.065C158.359 198.148 158.322 198.245 158.322 198.355C158.322 198.498 158.366 198.603 158.452 198.67C158.542 198.733 158.647 198.765 158.767 198.765ZM161.247 199.06C161.074 199.06 160.909 199.028 160.752 198.965C160.595 198.898 160.46 198.818 160.347 198.725L160.532 198.48C160.639 198.563 160.749 198.633 160.862 198.69C160.975 198.747 161.109 198.775 161.262 198.775C161.429 198.775 161.554 198.735 161.637 198.655C161.72 198.575 161.762 198.48 161.762 198.37C161.762 198.283 161.734 198.212 161.677 198.155C161.62 198.095 161.549 198.045 161.462 198.005C161.375 197.962 161.287 197.923 161.197 197.89C161.084 197.85 160.97 197.802 160.857 197.745C160.744 197.688 160.649 197.617 160.572 197.53C160.499 197.443 160.462 197.332 160.462 197.195C160.462 197.005 160.534 196.845 160.677 196.715C160.824 196.582 161.027 196.515 161.287 196.515C161.434 196.515 161.57 196.542 161.697 196.595C161.824 196.648 161.932 196.712 162.022 196.785L161.847 197.02C161.764 196.96 161.677 196.91 161.587 196.87C161.5 196.827 161.4 196.805 161.287 196.805C161.127 196.805 161.009 196.843 160.932 196.92C160.855 196.993 160.817 197.078 160.817 197.175C160.817 197.255 160.842 197.322 160.892 197.375C160.945 197.425 161.014 197.468 161.097 197.505C161.18 197.542 161.269 197.578 161.362 197.615C161.482 197.658 161.599 197.708 161.712 197.765C161.829 197.818 161.925 197.89 162.002 197.98C162.079 198.07 162.117 198.193 162.117 198.35C162.117 198.477 162.084 198.595 162.017 198.705C161.95 198.812 161.852 198.898 161.722 198.965C161.592 199.028 161.434 199.06 161.247 199.06ZM163.667 199.06C163.457 199.06 163.264 199.01 163.087 198.91C162.914 198.807 162.776 198.662 162.672 198.475C162.569 198.285 162.517 198.057 162.517 197.79C162.517 197.527 162.569 197.3 162.672 197.11C162.776 196.92 162.909 196.773 163.072 196.67C163.239 196.567 163.416 196.515 163.602 196.515C163.802 196.515 163.974 196.562 164.117 196.655C164.261 196.748 164.369 196.88 164.442 197.05C164.519 197.217 164.557 197.417 164.557 197.65C164.557 197.69 164.556 197.73 164.552 197.77C164.552 197.807 164.549 197.84 164.542 197.87H162.802L162.797 197.605H164.232C164.232 197.345 164.177 197.148 164.067 197.015C163.957 196.878 163.804 196.81 163.607 196.81C163.487 196.81 163.371 196.845 163.257 196.915C163.144 196.985 163.051 197.092 162.977 197.235C162.904 197.378 162.867 197.563 162.867 197.79C162.867 198.007 162.906 198.187 162.982 198.33C163.059 198.473 163.161 198.582 163.287 198.655C163.417 198.728 163.559 198.765 163.712 198.765C163.836 198.765 163.946 198.747 164.042 198.71C164.142 198.673 164.237 198.627 164.327 198.57L164.462 198.81C164.359 198.877 164.242 198.935 164.112 198.985C163.986 199.035 163.837 199.06 163.667 199.06ZM165.989 199V198.695H166.724V196.27H166.144V196.035C166.287 196.012 166.412 195.982 166.519 195.945C166.626 195.905 166.722 195.86 166.809 195.81H167.089V198.695H167.754V199H165.989Z" fill="white"/>
<path d="M155.501 159V155.715H157.366V156.03H155.871V157.19H157.136V157.5H155.871V159H155.501ZM158.467 159.06C158.334 159.06 158.214 159.033 158.107 158.98C158.001 158.927 157.916 158.85 157.852 158.75C157.789 158.647 157.757 158.522 157.757 158.375C157.757 158.112 157.877 157.91 158.117 157.77C158.361 157.627 158.744 157.527 159.267 157.47C159.267 157.36 159.252 157.255 159.222 157.155C159.196 157.055 159.144 156.975 159.067 156.915C158.994 156.852 158.887 156.82 158.747 156.82C158.601 156.82 158.464 156.848 158.337 156.905C158.214 156.962 158.106 157.022 158.012 157.085L157.867 156.835C157.937 156.788 158.021 156.74 158.117 156.69C158.214 156.64 158.321 156.598 158.437 156.565C158.554 156.532 158.677 156.515 158.807 156.515C159.004 156.515 159.162 156.557 159.282 156.64C159.402 156.723 159.489 156.838 159.542 156.985C159.599 157.132 159.627 157.303 159.627 157.5V159H159.327L159.297 158.705H159.282C159.166 158.802 159.039 158.885 158.902 158.955C158.766 159.025 158.621 159.06 158.467 159.06ZM158.562 158.765C158.689 158.765 158.806 158.737 158.912 158.68C159.022 158.62 159.141 158.535 159.267 158.425V157.715C158.981 157.748 158.754 157.795 158.587 157.855C158.421 157.912 158.301 157.982 158.227 158.065C158.154 158.148 158.117 158.245 158.117 158.355C158.117 158.498 158.161 158.603 158.247 158.67C158.337 158.733 158.442 158.765 158.562 158.765ZM161.042 159.06C160.869 159.06 160.704 159.028 160.547 158.965C160.39 158.898 160.255 158.818 160.142 158.725L160.327 158.48C160.434 158.563 160.544 158.633 160.657 158.69C160.77 158.747 160.904 158.775 161.057 158.775C161.224 158.775 161.349 158.735 161.432 158.655C161.515 158.575 161.557 158.48 161.557 158.37C161.557 158.283 161.529 158.212 161.472 158.155C161.415 158.095 161.344 158.045 161.257 158.005C161.17 157.962 161.082 157.923 160.992 157.89C160.879 157.85 160.765 157.802 160.652 157.745C160.539 157.688 160.444 157.617 160.367 157.53C160.294 157.443 160.257 157.332 160.257 157.195C160.257 157.005 160.329 156.845 160.472 156.715C160.619 156.582 160.822 156.515 161.082 156.515C161.229 156.515 161.365 156.542 161.492 156.595C161.619 156.648 161.727 156.712 161.817 156.785L161.642 157.02C161.559 156.96 161.472 156.91 161.382 156.87C161.295 156.827 161.195 156.805 161.082 156.805C160.922 156.805 160.804 156.843 160.727 156.92C160.65 156.993 160.612 157.078 160.612 157.175C160.612 157.255 160.637 157.322 160.687 157.375C160.74 157.425 160.809 157.468 160.892 157.505C160.975 157.542 161.064 157.578 161.157 157.615C161.277 157.658 161.394 157.708 161.507 157.765C161.624 157.818 161.72 157.89 161.797 157.98C161.874 158.07 161.912 158.193 161.912 158.35C161.912 158.477 161.879 158.595 161.812 158.705C161.745 158.812 161.647 158.898 161.517 158.965C161.387 159.028 161.229 159.06 161.042 159.06ZM163.462 159.06C163.252 159.06 163.059 159.01 162.882 158.91C162.709 158.807 162.57 158.662 162.467 158.475C162.364 158.285 162.312 158.057 162.312 157.79C162.312 157.527 162.364 157.3 162.467 157.11C162.57 156.92 162.704 156.773 162.867 156.67C163.034 156.567 163.21 156.515 163.397 156.515C163.597 156.515 163.769 156.562 163.912 156.655C164.055 156.748 164.164 156.88 164.237 157.05C164.314 157.217 164.352 157.417 164.352 157.65C164.352 157.69 164.35 157.73 164.347 157.77C164.347 157.807 164.344 157.84 164.337 157.87H162.597L162.592 157.605H164.027C164.027 157.345 163.972 157.148 163.862 157.015C163.752 156.878 163.599 156.81 163.402 156.81C163.282 156.81 163.165 156.845 163.052 156.915C162.939 156.985 162.845 157.092 162.772 157.235C162.699 157.378 162.662 157.563 162.662 157.79C162.662 158.007 162.7 158.187 162.777 158.33C162.854 158.473 162.955 158.582 163.082 158.655C163.212 158.728 163.354 158.765 163.507 158.765C163.63 158.765 163.74 158.747 163.837 158.71C163.937 158.673 164.032 158.627 164.122 158.57L164.257 158.81C164.154 158.877 164.037 158.935 163.907 158.985C163.78 159.035 163.632 159.06 163.462 159.06ZM165.739 159V158.785C166.066 158.455 166.342 158.167 166.569 157.92C166.796 157.67 166.967 157.447 167.084 157.25C167.201 157.053 167.259 156.867 167.259 156.69C167.259 156.503 167.207 156.35 167.104 156.23C167.004 156.11 166.846 156.05 166.629 156.05C166.496 156.05 166.369 156.087 166.249 156.16C166.132 156.233 166.027 156.327 165.934 156.44L165.719 156.23C165.852 156.087 165.994 155.972 166.144 155.885C166.294 155.795 166.471 155.75 166.674 155.75C166.867 155.75 167.034 155.788 167.174 155.865C167.317 155.942 167.427 156.05 167.504 156.19C167.581 156.327 167.619 156.488 167.619 156.675C167.619 156.878 167.561 157.083 167.444 157.29C167.331 157.497 167.172 157.717 166.969 157.95C166.769 158.18 166.537 158.433 166.274 158.71C166.361 158.703 166.451 158.698 166.544 158.695C166.637 158.688 166.726 158.685 166.809 158.685H167.774V159H165.739Z" fill="white"/>
<path d="M155.501 125V121.715H157.366V122.03H155.871V123.19H157.136V123.5H155.871V125H155.501ZM158.467 125.06C158.334 125.06 158.214 125.033 158.107 124.98C158.001 124.927 157.916 124.85 157.852 124.75C157.789 124.647 157.757 124.522 157.757 124.375C157.757 124.112 157.877 123.91 158.117 123.77C158.361 123.627 158.744 123.527 159.267 123.47C159.267 123.36 159.252 123.255 159.222 123.155C159.196 123.055 159.144 122.975 159.067 122.915C158.994 122.852 158.887 122.82 158.747 122.82C158.601 122.82 158.464 122.848 158.337 122.905C158.214 122.962 158.106 123.022 158.012 123.085L157.867 122.835C157.937 122.788 158.021 122.74 158.117 122.69C158.214 122.64 158.321 122.598 158.437 122.565C158.554 122.532 158.677 122.515 158.807 122.515C159.004 122.515 159.162 122.557 159.282 122.64C159.402 122.723 159.489 122.838 159.542 122.985C159.599 123.132 159.627 123.303 159.627 123.5V125H159.327L159.297 124.705H159.282C159.166 124.802 159.039 124.885 158.902 124.955C158.766 125.025 158.621 125.06 158.467 125.06ZM158.562 124.765C158.689 124.765 158.806 124.737 158.912 124.68C159.022 124.62 159.141 124.535 159.267 124.425V123.715C158.981 123.748 158.754 123.795 158.587 123.855C158.421 123.912 158.301 123.982 158.227 124.065C158.154 124.148 158.117 124.245 158.117 124.355C158.117 124.498 158.161 124.603 158.247 124.67C158.337 124.733 158.442 124.765 158.562 124.765ZM161.042 125.06C160.869 125.06 160.704 125.028 160.547 124.965C160.39 124.898 160.255 124.818 160.142 124.725L160.327 124.48C160.434 124.563 160.544 124.633 160.657 124.69C160.77 124.747 160.904 124.775 161.057 124.775C161.224 124.775 161.349 124.735 161.432 124.655C161.515 124.575 161.557 124.48 161.557 124.37C161.557 124.283 161.529 124.212 161.472 124.155C161.415 124.095 161.344 124.045 161.257 124.005C161.17 123.962 161.082 123.923 160.992 123.89C160.879 123.85 160.765 123.802 160.652 123.745C160.539 123.688 160.444 123.617 160.367 123.53C160.294 123.443 160.257 123.332 160.257 123.195C160.257 123.005 160.329 122.845 160.472 122.715C160.619 122.582 160.822 122.515 161.082 122.515C161.229 122.515 161.365 122.542 161.492 122.595C161.619 122.648 161.727 122.712 161.817 122.785L161.642 123.02C161.559 122.96 161.472 122.91 161.382 122.87C161.295 122.827 161.195 122.805 161.082 122.805C160.922 122.805 160.804 122.843 160.727 122.92C160.65 122.993 160.612 123.078 160.612 123.175C160.612 123.255 160.637 123.322 160.687 123.375C160.74 123.425 160.809 123.468 160.892 123.505C160.975 123.542 161.064 123.578 161.157 123.615C161.277 123.658 161.394 123.708 161.507 123.765C161.624 123.818 161.72 123.89 161.797 123.98C161.874 124.07 161.912 124.193 161.912 124.35C161.912 124.477 161.879 124.595 161.812 124.705C161.745 124.812 161.647 124.898 161.517 124.965C161.387 125.028 161.229 125.06 161.042 125.06ZM163.462 125.06C163.252 125.06 163.059 125.01 162.882 124.91C162.709 124.807 162.57 124.662 162.467 124.475C162.364 124.285 162.312 124.057 162.312 123.79C162.312 123.527 162.364 123.3 162.467 123.11C162.57 122.92 162.704 122.773 162.867 122.67C163.034 122.567 163.21 122.515 163.397 122.515C163.597 122.515 163.769 122.562 163.912 122.655C164.055 122.748 164.164 122.88 164.237 123.05C164.314 123.217 164.352 123.417 164.352 123.65C164.352 123.69 164.35 123.73 164.347 123.77C164.347 123.807 164.344 123.84 164.337 123.87H162.597L162.592 123.605H164.027C164.027 123.345 163.972 123.148 163.862 123.015C163.752 122.878 163.599 122.81 163.402 122.81C163.282 122.81 163.165 122.845 163.052 122.915C162.939 122.985 162.845 123.092 162.772 123.235C162.699 123.378 162.662 123.563 162.662 123.79C162.662 124.007 162.7 124.187 162.777 124.33C162.854 124.473 162.955 124.582 163.082 124.655C163.212 124.728 163.354 124.765 163.507 124.765C163.63 124.765 163.74 124.747 163.837 124.71C163.937 124.673 164.032 124.627 164.122 124.57L164.257 124.81C164.154 124.877 164.037 124.935 163.907 124.985C163.78 125.035 163.632 125.06 163.462 125.06ZM166.714 125.06C166.544 125.06 166.394 125.038 166.264 124.995C166.134 124.952 166.021 124.897 165.924 124.83C165.827 124.76 165.744 124.687 165.674 124.61L165.859 124.37C165.956 124.47 166.069 124.56 166.199 124.64C166.332 124.717 166.497 124.755 166.694 124.755C166.894 124.755 167.057 124.7 167.184 124.59C167.314 124.477 167.379 124.327 167.379 124.14C167.379 124.01 167.344 123.895 167.274 123.795C167.207 123.695 167.097 123.618 166.944 123.565C166.794 123.508 166.591 123.48 166.334 123.48V123.195C166.564 123.195 166.746 123.168 166.879 123.115C167.016 123.058 167.114 122.983 167.174 122.89C167.234 122.797 167.264 122.692 167.264 122.575C167.264 122.415 167.212 122.288 167.109 122.195C167.006 122.098 166.866 122.05 166.689 122.05C166.552 122.05 166.426 122.082 166.309 122.145C166.192 122.205 166.087 122.283 165.994 122.38L165.794 122.145C165.917 122.032 166.052 121.938 166.199 121.865C166.346 121.788 166.512 121.75 166.699 121.75C166.879 121.75 167.039 121.782 167.179 121.845C167.319 121.908 167.429 122 167.509 122.12C167.592 122.237 167.634 122.38 167.634 122.55C167.634 122.747 167.579 122.908 167.469 123.035C167.362 123.158 167.221 123.252 167.044 123.315V123.335C167.174 123.365 167.292 123.417 167.399 123.49C167.506 123.56 167.591 123.652 167.654 123.765C167.717 123.875 167.749 124.003 167.749 124.15C167.749 124.34 167.702 124.503 167.609 124.64C167.516 124.773 167.391 124.877 167.234 124.95C167.077 125.023 166.904 125.06 166.714 125.06Z" fill="white"/>
<path d="M142 165L175 165" stroke="#BBECF9" stroke-width="0.5" stroke-dasharray="2 2"/>
<path d="M142 151L184 151" stroke="#BBECF9" stroke-width="0.5" stroke-dasharray="2 2"/>
<path d="M139 106L188 106" stroke="#BBECF9" stroke-width="0.5" stroke-dasharray="2 2"/>
<path d="M137 250L188 250" stroke="#BBECF9" stroke-width="0.5" stroke-dasharray="2 2"/>
</svg>
