<svg width="391" height="320" viewBox="0 0 391 320" fill="none" xmlns="http://www.w3.org/2000/svg">
<g clip-path="url(#clip0_25_7)">
<g filter="url(#filter0_d_25_7)">
<path d="M204.163 300.043L194.521 297.102V118.735L191.63 118.1L190.007 106.63L197.869 105.881V102.262L192.443 102.056V89.6858H190.273V86.5552H197.869V83.9509H196.784V76.4309C196.784 76.4309 189.741 77.2882 190.007 77.2285V68.1189L197.869 67.012V62.4165L190.414 62.6878V61.3151L197.869 60.2354V52.6232L190.517 52.8945V51.511L197.869 50.4421V43.7903L196.513 44.0724V40.421C196.513 40.421 200.582 39.2057 202.752 38.9018V35.9883H205.291V11.7465H207.576L208.172 0L209.263 11.7465H211.053V35.9883H214.146V38.9072C214.146 38.9072 218.638 39.6777 219.919 40.4373V44.067L219.029 43.812V50.3445L226.321 51.5056V53.1658L219.029 52.6124V60.1595L226.218 61.3097V62.9699L219.029 62.4219V67.1802L225.811 68.1189V78.1075C225.811 78.1075 221.199 76.5666 220.114 76.6046V83.9454H219.029V86.5498H226.082V89.6803H223.739V102.051L219.029 102.3V106.131L225.811 106.625L224.428 118.094L221.742 118.751V297.173L204.163 300.043Z" fill="#D9D9D9" fill-opacity="0.4" stroke="black"/>
</g>
<path d="M57.3733 113V112.573H58.4023V109.178H57.5903V108.849C57.7909 108.816 57.9659 108.774 58.1153 108.723C58.2646 108.667 58.3999 108.604 58.5213 108.534H58.9133V112.573H59.8443V113H57.3733ZM60.5315 113V112.573H61.5605V109.178H60.7485V108.849C60.9491 108.816 61.1241 108.774 61.2735 108.723C61.4228 108.667 61.5581 108.604 61.6795 108.534H62.0715V112.573H63.0025V113H60.5315ZM64.7607 113.084C64.5273 113.084 64.3243 113.04 64.1517 112.951C63.979 112.862 63.8343 112.753 63.7177 112.622L64.0047 112.3C64.098 112.412 64.21 112.501 64.3407 112.566C64.4713 112.627 64.6043 112.657 64.7397 112.657C64.9637 112.657 65.1667 112.592 65.3487 112.461C65.5353 112.33 65.6823 112.113 65.7897 111.81C65.9017 111.507 65.9577 111.098 65.9577 110.585C65.9577 110.221 65.918 109.911 65.8387 109.654C65.764 109.393 65.6497 109.194 65.4957 109.059C65.3417 108.924 65.1503 108.856 64.9217 108.856C64.7723 108.856 64.637 108.9 64.5157 108.989C64.3943 109.073 64.2963 109.192 64.2217 109.346C64.1517 109.495 64.1167 109.67 64.1167 109.871C64.1167 110.072 64.147 110.247 64.2077 110.396C64.273 110.545 64.3687 110.662 64.4947 110.746C64.6207 110.825 64.7817 110.865 64.9777 110.865C65.127 110.865 65.2903 110.816 65.4677 110.718C65.645 110.615 65.8153 110.445 65.9787 110.207L65.9927 110.634C65.8527 110.821 65.6823 110.972 65.4817 111.089C65.2857 111.201 65.0897 111.257 64.8937 111.257C64.637 111.257 64.413 111.206 64.2217 111.103C64.0303 110.996 63.8833 110.839 63.7807 110.634C63.678 110.429 63.6267 110.174 63.6267 109.871C63.6267 109.591 63.685 109.344 63.8017 109.129C63.923 108.914 64.0817 108.749 64.2777 108.632C64.4737 108.511 64.6883 108.45 64.9217 108.45C65.1457 108.45 65.3487 108.494 65.5307 108.583C65.7173 108.672 65.8783 108.807 66.0137 108.989C66.149 109.166 66.254 109.39 66.3287 109.661C66.408 109.927 66.4477 110.235 66.4477 110.585C66.4477 111.038 66.401 111.425 66.3077 111.747C66.2143 112.064 66.0883 112.321 65.9297 112.517C65.771 112.713 65.5913 112.858 65.3907 112.951C65.19 113.04 64.98 113.084 64.7607 113.084ZM68.7884 113V109.605H69.2084L69.2504 110.109H69.2714C69.4207 109.946 69.584 109.808 69.7614 109.696C69.9434 109.579 70.1324 109.521 70.3284 109.521C70.5944 109.521 70.7997 109.582 70.9444 109.703C71.0937 109.82 71.201 109.978 71.2664 110.179C71.4484 109.983 71.6304 109.824 71.8124 109.703C71.999 109.582 72.1927 109.521 72.3934 109.521C72.7434 109.521 73.0024 109.633 73.1704 109.857C73.3384 110.081 73.4224 110.41 73.4224 110.844V113H72.9114V110.907C72.9114 110.58 72.8577 110.342 72.7504 110.193C72.643 110.044 72.475 109.969 72.2464 109.969C72.111 109.969 71.9687 110.016 71.8194 110.109C71.6747 110.198 71.5207 110.333 71.3574 110.515V113H70.8464V110.907C70.8464 110.58 70.7927 110.342 70.6854 110.193C70.5827 110.044 70.417 109.969 70.1884 109.969C69.9177 109.969 69.619 110.151 69.2924 110.515V113H68.7884Z" fill="white"/>
<path d="M317.159 50V49.573H318.188V46.178H317.376V45.849C317.577 45.8163 317.752 45.7743 317.901 45.723C318.051 45.667 318.186 45.604 318.307 45.534H318.699V49.573H319.63V50H317.159ZM320.255 50V49.699C320.712 49.237 321.099 48.8333 321.417 48.488C321.734 48.138 321.974 47.8253 322.138 47.55C322.301 47.2747 322.383 47.0133 322.383 46.766C322.383 46.5047 322.31 46.29 322.166 46.122C322.026 45.954 321.804 45.87 321.501 45.87C321.314 45.87 321.137 45.9213 320.969 46.024C320.805 46.1267 320.658 46.2573 320.528 46.416L320.227 46.122C320.413 45.9213 320.612 45.7603 320.822 45.639C321.032 45.513 321.279 45.45 321.564 45.45C321.834 45.45 322.068 45.5037 322.264 45.611C322.464 45.7183 322.618 45.87 322.726 46.066C322.833 46.2573 322.887 46.4837 322.887 46.745C322.887 47.0297 322.805 47.3167 322.642 47.606C322.483 47.8953 322.261 48.2033 321.977 48.53C321.697 48.852 321.372 49.2067 321.004 49.594C321.125 49.5847 321.251 49.5777 321.382 49.573C321.512 49.5637 321.636 49.559 321.753 49.559H323.104V50H320.255ZM324.68 50C324.703 49.4307 324.762 48.9197 324.855 48.467C324.948 48.0143 325.086 47.5897 325.268 47.193C325.45 46.7917 325.688 46.3857 325.982 45.975H323.728V45.534H326.57V45.842C326.304 46.1827 326.087 46.5117 325.919 46.829C325.751 47.1417 325.618 47.459 325.52 47.781C325.427 48.103 325.357 48.4437 325.31 48.803C325.263 49.1623 325.228 49.5613 325.205 50H324.68ZM327.327 51.162L327.194 50.854C327.386 50.77 327.535 50.6533 327.642 50.504C327.75 50.3547 327.803 50.182 327.803 49.986L327.733 49.496L328.006 49.895C327.974 49.9417 327.932 49.9743 327.88 49.993C327.834 50.007 327.785 50.014 327.733 50.014C327.626 50.014 327.533 49.9813 327.453 49.916C327.379 49.8507 327.341 49.7573 327.341 49.636C327.341 49.5193 327.381 49.4283 327.46 49.363C327.544 49.2977 327.638 49.265 327.74 49.265C327.885 49.265 327.997 49.321 328.076 49.433C328.156 49.545 328.195 49.699 328.195 49.895C328.195 50.1843 328.116 50.4387 327.957 50.658C327.803 50.8773 327.593 51.0453 327.327 51.162ZM330.206 50.084C329.968 50.084 329.758 50.0537 329.576 49.993C329.394 49.9323 329.235 49.8553 329.1 49.762C328.964 49.664 328.848 49.5613 328.75 49.454L329.009 49.118C329.144 49.258 329.303 49.384 329.485 49.496C329.671 49.6033 329.902 49.657 330.178 49.657C330.458 49.657 330.686 49.58 330.864 49.426C331.046 49.2673 331.137 49.0573 331.137 48.796C331.137 48.614 331.088 48.453 330.99 48.313C330.896 48.173 330.742 48.0657 330.528 47.991C330.318 47.9117 330.033 47.872 329.674 47.872V47.473C329.996 47.473 330.25 47.4357 330.437 47.361C330.628 47.2817 330.766 47.1767 330.85 47.046C330.934 46.9153 330.976 46.7683 330.976 46.605C330.976 46.381 330.903 46.2037 330.759 46.073C330.614 45.9377 330.418 45.87 330.171 45.87C329.979 45.87 329.802 45.9143 329.639 46.003C329.475 46.087 329.328 46.1967 329.198 46.332L328.918 46.003C329.09 45.8443 329.279 45.7137 329.485 45.611C329.69 45.5037 329.923 45.45 330.185 45.45C330.437 45.45 330.661 45.4943 330.857 45.583C331.053 45.6717 331.207 45.8 331.319 45.968C331.435 46.1313 331.494 46.332 331.494 46.57C331.494 46.8453 331.417 47.0717 331.263 47.249C331.113 47.4217 330.915 47.5523 330.668 47.641V47.669C330.85 47.711 331.015 47.7833 331.165 47.886C331.314 47.984 331.433 48.1123 331.522 48.271C331.61 48.425 331.655 48.6047 331.655 48.81C331.655 49.076 331.589 49.3047 331.459 49.496C331.328 49.6827 331.153 49.8273 330.934 49.93C330.714 50.0327 330.472 50.084 330.206 50.084ZM334.002 50V46.605H334.422L334.464 47.109H334.485C334.635 46.9457 334.798 46.808 334.975 46.696C335.157 46.5793 335.346 46.521 335.542 46.521C335.808 46.521 336.014 46.5817 336.158 46.703C336.308 46.8197 336.415 46.9783 336.48 47.179C336.662 46.983 336.844 46.8243 337.026 46.703C337.213 46.5817 337.407 46.521 337.607 46.521C337.957 46.521 338.216 46.633 338.384 46.857C338.552 47.081 338.636 47.41 338.636 47.844V50H338.125V47.907C338.125 47.5803 338.072 47.3423 337.964 47.193C337.857 47.0437 337.689 46.969 337.46 46.969C337.325 46.969 337.183 47.0157 337.033 47.109C336.889 47.1977 336.735 47.333 336.571 47.515V50H336.06V47.907C336.06 47.5803 336.007 47.3423 335.899 47.193C335.797 47.0437 335.631 46.969 335.402 46.969C335.132 46.969 334.833 47.151 334.506 47.515V50H334.002Z" fill="white"/>
<path d="M275.191 37V31.093H273.178V29.828H278.711V31.093H276.698V37H275.191ZM282.734 37.132C282.096 37.132 281.532 36.9817 281.04 36.681C280.556 36.3803 280.179 35.9513 279.907 35.394C279.636 34.8293 279.5 34.1583 279.5 33.381C279.5 32.6037 279.636 31.94 279.907 31.39C280.179 30.84 280.556 30.422 281.04 30.136C281.532 29.8427 282.096 29.696 282.734 29.696C283.372 29.696 283.933 29.8427 284.417 30.136C284.901 30.422 285.279 30.84 285.55 31.39C285.822 31.94 285.957 32.6037 285.957 33.381C285.957 34.1583 285.822 34.8293 285.55 35.394C285.279 35.9513 284.901 36.3803 284.417 36.681C283.933 36.9817 283.372 37.132 282.734 37.132ZM282.734 35.823C283.072 35.823 283.365 35.724 283.614 35.526C283.871 35.328 284.065 35.0457 284.197 34.679C284.337 34.3123 284.406 33.8797 284.406 33.381C284.406 32.8823 284.337 32.457 284.197 32.105C284.065 31.7457 283.871 31.4707 283.614 31.28C283.365 31.0893 283.072 30.994 282.734 30.994C282.39 30.994 282.089 31.0893 281.832 31.28C281.583 31.4707 281.389 31.7457 281.249 32.105C281.117 32.457 281.051 32.8823 281.051 33.381C281.051 33.8797 281.117 34.3123 281.249 34.679C281.389 35.0457 281.583 35.328 281.832 35.526C282.089 35.724 282.39 35.823 282.734 35.823ZM287.34 37V29.828H289.87C290.376 29.828 290.834 29.894 291.245 30.026C291.655 30.158 291.982 30.3853 292.224 30.708C292.473 31.0307 292.598 31.4707 292.598 32.028C292.598 32.5633 292.473 33.0033 292.224 33.348C291.982 33.6853 291.655 33.9383 291.245 34.107C290.834 34.2683 290.376 34.349 289.87 34.349H288.847V37H287.34ZM291.234 37L289.595 33.942L290.651 32.996L292.928 37H291.234ZM288.847 33.139H289.738C290.185 33.139 290.526 33.0473 290.761 32.864C290.995 32.6733 291.113 32.3947 291.113 32.028C291.113 31.654 290.995 31.3937 290.761 31.247C290.526 31.1003 290.185 31.027 289.738 31.027H288.847V33.139ZM294.011 37V29.828H296.541C297.047 29.828 297.505 29.894 297.916 30.026C298.326 30.158 298.653 30.3853 298.895 30.708C299.144 31.0307 299.269 31.4707 299.269 32.028C299.269 32.5633 299.144 33.0033 298.895 33.348C298.653 33.6853 298.326 33.9383 297.916 34.107C297.505 34.2683 297.047 34.349 296.541 34.349H295.518V37H294.011ZM297.905 37L296.266 33.942L297.322 32.996L299.599 37H297.905ZM295.518 33.139H296.409C296.856 33.139 297.197 33.0473 297.432 32.864C297.666 32.6733 297.784 32.3947 297.784 32.028C297.784 31.654 297.666 31.3937 297.432 31.247C297.197 31.1003 296.856 31.027 296.409 31.027H295.518V33.139ZM300.682 37V29.828H305.126V31.093H302.189V32.655H304.686V33.931H302.189V35.735H305.236V37H300.682ZM308.878 37V29.828H313.322V31.093H310.385V32.655H312.882V33.931H310.385V35.735H313.432V37H308.878ZM314.872 37V29.828H316.423L318.403 33.546L319.129 35.108H319.173C319.136 34.7267 319.092 34.3087 319.041 33.854C318.997 33.3993 318.975 32.963 318.975 32.545V29.828H320.416V37H318.865L316.885 33.271L316.159 31.72H316.115C316.152 32.1013 316.192 32.5157 316.236 32.963C316.287 33.4103 316.313 33.843 316.313 34.261V37H314.872ZM323.574 37V31.093H321.561V29.828H327.094V31.093H325.081V37H323.574ZM328.235 37V29.828H332.679V31.093H329.742V32.655H332.239V33.931H329.742V35.735H332.789V37H328.235ZM334.229 37V29.828H335.736V35.735H338.618V37H334.229Z" fill="white"/>
<path d="M218.5 41.5H340.5" stroke="#BBECF9"/>
<circle r="1.5" transform="matrix(-1 0 0 1 218.5 41.5)" fill="white"/>
<path d="M171.176 292.15L178.908 276.959L178.571 162.749L177.144 153.39L178.539 147.829V138.062H182.744V139.69H185.863V138.062H193.73V139.69H196.443C196.308 139.148 196.118 138.062 196.443 138.062H200.241L200.377 147.829C200.599 149.717 201.006 151.583 201.598 153.39L200.241 162.206V276.959L208.244 292.15V299.611L206.752 300.018L201.326 297.034L201.435 298.932H199.943L201.435 301.103H177.665L178.75 298.932H177.529L177.643 297.034L173.732 300.018L171.154 299.611L171.176 292.15Z" fill="#B2B2B2"/>
<path d="M166.016 123.956L178.495 90.588C178.463 79.3461 178.495 60.1556 178.756 47.7255L170.221 45.6909V39.8529L185.223 18.9642C186.91 15.1174 188.592 12.1821 189.753 12.1821C190.915 12.1821 192.797 15.1011 194.599 18.9642L209.014 39.8529V46.0924L200.333 47.7201C200.534 58.8752 200.719 75.5753 200.719 90.5826L212.926 123.95V136.022L204.11 138.057H196.677V139.685H193.692V138.057H185.825V139.685H182.706V138.057H174.703L166.022 136.022L166.016 123.956Z" fill="#DADADA"/>
<path d="M178.501 90.588L166.022 123.956V136.028L174.703 138.062M178.501 90.588C178.468 79.3461 178.501 60.1556 178.761 47.7255M178.501 90.588L181.078 133.179L178.501 138.062M178.501 90.588L174.703 138.062M200.746 90.588L212.953 123.956V136.028L204.137 138.062M200.746 90.588C200.746 75.5753 200.561 58.8752 200.361 47.7255M200.746 90.588L198.44 133.179L200.203 138.062M200.746 90.588L204.137 138.062M174.703 138.062H178.501M178.501 138.062H182.841M178.501 138.062V147.693M178.88 276.959L171.149 292.15V299.611L173.726 300.018L177.638 297.033M178.88 276.959L177.638 297.033M178.88 276.959L178.55 164.105M200.176 276.959L208.179 292.15V299.611L206.687 300.018L201.261 297.033M200.176 276.959L201.261 297.033M200.176 276.959V164.105M200.176 138.062H204.11M200.176 138.062H196.481M200.176 138.062L200.22 147.693M185.228 18.9642C182.559 25.0463 179.895 33.4018 179.315 36.0549C179.065 37.1943 178.886 41.6542 178.772 47.72M185.239 18.9642C186.927 15.1174 188.609 12.1821 189.77 12.1821C190.931 12.1821 192.814 15.1011 194.615 18.9642M185.239 18.9642L170.237 39.8529V45.6854L178.772 47.72M194.615 18.9642C197.328 24.7479 199.916 32.6422 200.078 36.0549C200.165 37.9539 200.274 42.1479 200.371 47.72M194.615 18.9642L209.031 39.8529V46.0924L200.35 47.72M177.665 297.033L177.551 298.932H178.772M201.315 297.033L201.424 298.932H199.932M178.772 298.932L177.687 301.103H201.446L199.954 298.932M178.794 298.932H180.286M199.954 298.932H199.14M182.863 138.062C183.118 131.036 184.805 125.269 185.684 123.142V138.062M182.863 138.062C182.863 138.643 182.863 139.229 182.863 139.826H185.711V138.062M185.711 138.062H193.714M193.714 138.062V139.826H196.563C196.563 139.229 196.563 138.643 196.53 138.062M193.714 138.062V123.142C194.588 125.269 196.275 131.036 196.53 138.062M178.539 147.693H181.631L183.937 155.967L181.631 164.105H178.588M178.539 147.693L177.155 153.39L178.588 164.105M200.241 147.693H197.154L194.848 155.967L197.154 164.105H200.198M200.241 147.693L201.63 153.39L200.198 164.105M186.091 298.932L185.684 276.28L180.259 292.693V298.932M186.091 298.932L180.259 300.018V298.932M186.091 298.932H193.009M193.009 298.932L199.113 300.018V298.932M193.009 298.932L193.416 276.145L199.113 292.693V298.932M182.564 30.7649H197.078C195.673 25.7462 192.249 15.7359 189.753 15.8444C187.258 15.9529 183.926 25.8385 182.57 30.7649H182.564Z" stroke="#010101" stroke-width="0.5"/>
<path d="M166.016 123.956L178.495 90.588C178.463 79.3461 178.495 60.1556 178.756 47.7255L170.221 45.6909V39.8529L185.223 18.9642C186.91 15.1174 188.592 12.1821 189.753 12.1821C190.915 12.1821 192.797 15.1011 194.599 18.9642L209.014 39.8529V46.0924L200.333 47.72C200.534 58.8752 200.719 75.5753 200.719 90.5826L212.926 123.95V136.022L204.11 138.057H200.176V276.953L208.179 292.145V299.605L206.687 300.012L201.261 297.028L201.37 298.927H199.878L201.37 301.097H177.665L178.75 298.927H177.529L177.643 297.028L173.732 300.012L171.154 299.605V292.15L178.886 276.959L178.479 138.062H174.681L166 136.028L166.016 123.956Z" stroke="#010101" stroke-width="1.5"/>
<path d="M58.644 223V218.401H59.918C60.2587 218.401 60.5573 218.445 60.814 218.534C61.0707 218.618 61.269 218.758 61.409 218.954C61.5537 219.145 61.626 219.407 61.626 219.738C61.626 220.055 61.556 220.317 61.416 220.522C61.276 220.727 61.08 220.881 60.828 220.984C60.576 221.087 60.282 221.138 59.946 221.138H59.162V223H58.644ZM59.162 220.711H59.869C60.289 220.711 60.5993 220.634 60.8 220.48C61.0053 220.321 61.108 220.074 61.108 219.738C61.108 219.393 61.0007 219.155 60.786 219.024C60.576 218.889 60.261 218.821 59.841 218.821H59.162V220.711ZM62.5257 223V219.605H62.9457L62.9877 220.228H63.0087C63.1253 220.013 63.2653 219.843 63.4287 219.717C63.5967 219.586 63.7787 219.521 63.9747 219.521C64.0447 219.521 64.1077 219.528 64.1637 219.542C64.2197 219.551 64.2733 219.568 64.3247 219.591L64.2267 220.039C64.1707 220.02 64.1193 220.006 64.0727 219.997C64.0307 219.988 63.9747 219.983 63.9047 219.983C63.76 219.983 63.6083 220.044 63.4497 220.165C63.291 220.282 63.151 220.489 63.0297 220.788V223H62.5257ZM66.1312 223.084C65.8559 223.084 65.5992 223.014 65.3612 222.874C65.1232 222.734 64.9319 222.533 64.7872 222.272C64.6425 222.006 64.5702 221.684 64.5702 221.306C64.5702 220.928 64.6425 220.606 64.7872 220.34C64.9319 220.074 65.1232 219.871 65.3612 219.731C65.5992 219.591 65.8559 219.521 66.1312 219.521C66.4065 219.521 66.6609 219.591 66.8942 219.731C67.1322 219.871 67.3235 220.074 67.4682 220.34C67.6175 220.606 67.6922 220.928 67.6922 221.306C67.6922 221.684 67.6175 222.006 67.4682 222.272C67.3235 222.533 67.1322 222.734 66.8942 222.874C66.6609 223.014 66.4065 223.084 66.1312 223.084ZM66.1312 222.657C66.3365 222.657 66.5162 222.601 66.6702 222.489C66.8289 222.377 66.9502 222.221 67.0342 222.02C67.1229 221.815 67.1672 221.577 67.1672 221.306C67.1672 221.04 67.1229 220.804 67.0342 220.599C66.9502 220.394 66.8289 220.235 66.6702 220.123C66.5162 220.006 66.3365 219.948 66.1312 219.948C65.9305 219.948 65.7509 220.006 65.5922 220.123C65.4382 220.235 65.3169 220.394 65.2282 220.599C65.1442 220.804 65.1022 221.04 65.1022 221.306C65.1022 221.577 65.1442 221.815 65.2282 222.02C65.3169 222.221 65.4382 222.377 65.5922 222.489C65.7509 222.601 65.9305 222.657 66.1312 222.657ZM68.6165 224.456V219.605H69.0365L69.0785 220.011H69.0995C69.2535 219.876 69.4238 219.761 69.6105 219.668C69.8018 219.57 69.9978 219.521 70.1985 219.521C70.4925 219.521 70.7398 219.593 70.9405 219.738C71.1412 219.878 71.2905 220.079 71.3885 220.34C71.4912 220.597 71.5425 220.9 71.5425 221.25C71.5425 221.637 71.4725 221.969 71.3325 222.244C71.1972 222.515 71.0175 222.722 70.7935 222.867C70.5695 223.012 70.3292 223.084 70.0725 223.084C69.9185 223.084 69.7598 223.049 69.5965 222.979C69.4332 222.909 69.2698 222.811 69.1065 222.685L69.1205 223.287V224.456H68.6165ZM69.9885 222.65C70.1892 222.65 70.3665 222.594 70.5205 222.482C70.6745 222.37 70.7958 222.209 70.8845 221.999C70.9732 221.789 71.0175 221.542 71.0175 221.257C71.0175 221 70.9848 220.774 70.9195 220.578C70.8588 220.382 70.7585 220.23 70.6185 220.123C70.4832 220.011 70.3035 219.955 70.0795 219.955C69.9302 219.955 69.7762 219.997 69.6175 220.081C69.4635 220.16 69.2978 220.282 69.1205 220.445V222.279C69.2885 222.414 69.4472 222.51 69.5965 222.566C69.7458 222.622 69.8765 222.65 69.9885 222.65ZM73.4588 223.084C73.1088 223.084 72.8498 222.972 72.6818 222.748C72.5138 222.524 72.4298 222.195 72.4298 221.761V219.605H72.9338V221.698C72.9338 222.025 72.9875 222.265 73.0948 222.419C73.2021 222.568 73.3748 222.643 73.6128 222.643C73.7901 222.643 73.9511 222.596 74.0958 222.503C74.2405 222.405 74.3968 222.251 74.5648 222.041V219.605H75.0758V223H74.6488L74.6068 222.461H74.5858C74.4271 222.648 74.2591 222.799 74.0818 222.916C73.9045 223.028 73.6968 223.084 73.4588 223.084ZM76.8121 223.084C76.6861 223.084 76.5811 223.056 76.4971 223C76.4131 222.949 76.3524 222.872 76.3151 222.769C76.2777 222.662 76.2591 222.531 76.2591 222.377V218.002H76.7631V222.419C76.7631 222.503 76.7794 222.564 76.8121 222.601C76.8447 222.638 76.8821 222.657 76.9241 222.657C76.9381 222.657 76.9544 222.657 76.9731 222.657C76.9917 222.652 77.0174 222.648 77.0501 222.643L77.1201 223.035C77.0827 223.044 77.0384 223.054 76.9871 223.063C76.9404 223.077 76.8821 223.084 76.8121 223.084ZM78.8771 223.084C78.6344 223.084 78.4034 223.04 78.1841 222.951C77.9647 222.858 77.7757 222.746 77.6171 222.615L77.8761 222.272C78.0254 222.389 78.1794 222.487 78.3381 222.566C78.4967 222.645 78.6834 222.685 78.8981 222.685C79.1314 222.685 79.3064 222.629 79.4231 222.517C79.5397 222.405 79.5981 222.272 79.5981 222.118C79.5981 221.997 79.5584 221.896 79.4791 221.817C79.3997 221.733 79.2994 221.663 79.1781 221.607C79.0567 221.546 78.9331 221.493 78.8071 221.446C78.6484 221.39 78.4897 221.322 78.3311 221.243C78.1724 221.164 78.0394 221.063 77.9321 220.942C77.8294 220.821 77.7781 220.664 77.7781 220.473C77.7781 220.207 77.8784 219.983 78.0791 219.801C78.2844 219.614 78.5691 219.521 78.9331 219.521C79.1384 219.521 79.3297 219.558 79.5071 219.633C79.6844 219.708 79.8361 219.796 79.9621 219.899L79.7171 220.228C79.6004 220.144 79.4791 220.074 79.3531 220.018C79.2317 219.957 79.0917 219.927 78.9331 219.927C78.7091 219.927 78.5434 219.981 78.4361 220.088C78.3287 220.191 78.2751 220.31 78.2751 220.445C78.2751 220.557 78.3101 220.65 78.3801 220.725C78.4547 220.795 78.5504 220.856 78.6671 220.907C78.7837 220.958 78.9074 221.01 79.0381 221.061C79.2061 221.122 79.3694 221.192 79.5281 221.271C79.6914 221.346 79.8267 221.446 79.9341 221.572C80.0414 221.698 80.0951 221.871 80.0951 222.09C80.0951 222.267 80.0484 222.433 79.9551 222.587C79.8617 222.736 79.7241 222.858 79.5421 222.951C79.3601 223.04 79.1384 223.084 78.8771 223.084ZM82.2162 223.084C81.9408 223.084 81.6842 223.014 81.4462 222.874C81.2082 222.734 81.0168 222.533 80.8722 222.272C80.7275 222.006 80.6552 221.684 80.6552 221.306C80.6552 220.928 80.7275 220.606 80.8722 220.34C81.0168 220.074 81.2082 219.871 81.4462 219.731C81.6842 219.591 81.9408 219.521 82.2162 219.521C82.4915 219.521 82.7458 219.591 82.9792 219.731C83.2172 219.871 83.4085 220.074 83.5532 220.34C83.7025 220.606 83.7772 220.928 83.7772 221.306C83.7772 221.684 83.7025 222.006 83.5532 222.272C83.4085 222.533 83.2172 222.734 82.9792 222.874C82.7458 223.014 82.4915 223.084 82.2162 223.084ZM82.2162 222.657C82.4215 222.657 82.6012 222.601 82.7552 222.489C82.9138 222.377 83.0352 222.221 83.1192 222.02C83.2078 221.815 83.2522 221.577 83.2522 221.306C83.2522 221.04 83.2078 220.804 83.1192 220.599C83.0352 220.394 82.9138 220.235 82.7552 220.123C82.6012 220.006 82.4215 219.948 82.2162 219.948C82.0155 219.948 81.8358 220.006 81.6772 220.123C81.5232 220.235 81.4018 220.394 81.3132 220.599C81.2292 220.804 81.1872 221.04 81.1872 221.306C81.1872 221.577 81.2292 221.815 81.3132 222.02C81.4018 222.221 81.5232 222.377 81.6772 222.489C81.8358 222.601 82.0155 222.657 82.2162 222.657ZM84.7014 223V219.605H85.1214L85.1634 220.228H85.1844C85.3011 220.013 85.4411 219.843 85.6044 219.717C85.7724 219.586 85.9544 219.521 86.1504 219.521C86.2204 219.521 86.2834 219.528 86.3394 219.542C86.3954 219.551 86.4491 219.568 86.5004 219.591L86.4024 220.039C86.3464 220.02 86.2951 220.006 86.2484 219.997C86.2064 219.988 86.1504 219.983 86.0804 219.983C85.9358 219.983 85.7841 220.044 85.6254 220.165C85.4668 220.282 85.3268 220.489 85.2054 220.788V223H84.7014ZM89.6227 223.084C89.1981 223.084 88.8597 222.93 88.6077 222.622C88.3557 222.309 88.2297 221.871 88.2297 221.306C88.2297 220.942 88.2974 220.627 88.4327 220.361C88.5727 220.095 88.7547 219.89 88.9787 219.745C89.2027 219.596 89.4454 219.521 89.7067 219.521C89.9074 219.521 90.0801 219.556 90.2247 219.626C90.3694 219.696 90.5187 219.794 90.6727 219.92L90.6517 219.332V218.002H91.1557V223H90.7357L90.6937 222.587H90.6727C90.5421 222.722 90.3857 222.839 90.2037 222.937C90.0264 223.035 89.8327 223.084 89.6227 223.084ZM89.7347 222.65C89.8981 222.65 90.0544 222.61 90.2037 222.531C90.3531 222.447 90.5024 222.326 90.6517 222.167V220.326C90.4977 220.191 90.3507 220.095 90.2107 220.039C90.0707 219.983 89.9284 219.955 89.7837 219.955C89.5924 219.955 89.4174 220.013 89.2587 220.13C89.1047 220.242 88.9811 220.401 88.8877 220.606C88.7991 220.807 88.7547 221.04 88.7547 221.306C88.7547 221.721 88.8387 222.05 89.0067 222.293C89.1794 222.531 89.4221 222.65 89.7347 222.65ZM93.688 223.084C93.394 223.084 93.1234 223.014 92.876 222.874C92.6334 222.729 92.4397 222.526 92.295 222.265C92.1504 221.999 92.078 221.679 92.078 221.306C92.078 220.937 92.1504 220.62 92.295 220.354C92.4397 220.088 92.6264 219.883 92.855 219.738C93.0884 219.593 93.3357 219.521 93.597 219.521C93.877 219.521 94.1174 219.586 94.318 219.717C94.5187 219.848 94.6704 220.032 94.773 220.27C94.8804 220.503 94.934 220.783 94.934 221.11C94.934 221.166 94.9317 221.222 94.927 221.278C94.927 221.329 94.9224 221.376 94.913 221.418H92.477L92.47 221.047H94.479C94.479 220.683 94.402 220.408 94.248 220.221C94.094 220.03 93.8794 219.934 93.604 219.934C93.436 219.934 93.2727 219.983 93.114 220.081C92.9554 220.179 92.8247 220.328 92.722 220.529C92.6194 220.73 92.568 220.989 92.568 221.306C92.568 221.609 92.6217 221.861 92.729 222.062C92.8364 222.263 92.9787 222.414 93.156 222.517C93.338 222.62 93.5364 222.671 93.751 222.671C93.9237 222.671 94.0777 222.645 94.213 222.594C94.353 222.543 94.486 222.477 94.612 222.398L94.801 222.734C94.6564 222.827 94.493 222.909 94.311 222.979C94.1337 223.049 93.926 223.084 93.688 223.084ZM97.7437 223.084C97.6177 223.084 97.5127 223.056 97.4287 223C97.3447 222.949 97.284 222.872 97.2467 222.769C97.2094 222.662 97.1907 222.531 97.1907 222.377V218.002H97.6947V222.419C97.6947 222.503 97.711 222.564 97.7437 222.601C97.7764 222.638 97.8137 222.657 97.8557 222.657C97.8697 222.657 97.886 222.657 97.9047 222.657C97.9234 222.652 97.949 222.648 97.9817 222.643L98.0517 223.035C98.0144 223.044 97.97 223.054 97.9187 223.063C97.872 223.077 97.8137 223.084 97.7437 223.084ZM99.7107 223.084C99.524 223.084 99.356 223.047 99.2067 222.972C99.0574 222.897 98.9384 222.79 98.8497 222.65C98.761 222.505 98.7167 222.33 98.7167 222.125C98.7167 221.756 98.8847 221.474 99.2207 221.278C99.5614 221.077 100.098 220.937 100.831 220.858C100.831 220.704 100.81 220.557 100.768 220.417C100.73 220.277 100.658 220.165 100.551 220.081C100.448 219.992 100.299 219.948 100.103 219.948C99.8974 219.948 99.706 219.988 99.5287 220.067C99.356 220.146 99.2044 220.23 99.0737 220.319L98.8707 219.969C98.9687 219.904 99.0854 219.836 99.2207 219.766C99.356 219.696 99.5054 219.638 99.6687 219.591C99.832 219.544 100.005 219.521 100.187 219.521C100.462 219.521 100.684 219.579 100.852 219.696C101.02 219.813 101.141 219.974 101.216 220.179C101.295 220.384 101.335 220.625 101.335 220.9V223H100.915L100.873 222.587H100.852C100.688 222.722 100.511 222.839 100.32 222.937C100.128 223.035 99.9254 223.084 99.7107 223.084ZM99.8437 222.671C100.021 222.671 100.184 222.631 100.334 222.552C100.488 222.468 100.653 222.349 100.831 222.195V221.201C100.429 221.248 100.112 221.313 99.8787 221.397C99.6454 221.476 99.4774 221.574 99.3747 221.691C99.272 221.808 99.2207 221.943 99.2207 222.097C99.2207 222.298 99.2814 222.445 99.4027 222.538C99.5287 222.627 99.6757 222.671 99.8437 222.671ZM102.448 223V219.605H102.868L102.91 220.109H102.931C103.094 219.941 103.267 219.801 103.449 219.689C103.635 219.577 103.843 219.521 104.072 219.521C104.431 219.521 104.692 219.633 104.856 219.857C105.024 220.081 105.108 220.41 105.108 220.844V223H104.597V220.907C104.597 220.58 104.543 220.342 104.436 220.193C104.333 220.044 104.163 219.969 103.925 219.969C103.747 219.969 103.586 220.016 103.442 220.109C103.297 220.198 103.134 220.333 102.952 220.515V223H102.448ZM105.863 223V222.727L107.704 220.025H106.066V219.605H108.348V219.878L106.507 222.58H108.411V223H105.863ZM109.78 223.084C109.593 223.084 109.425 223.047 109.276 222.972C109.127 222.897 109.008 222.79 108.919 222.65C108.83 222.505 108.786 222.33 108.786 222.125C108.786 221.756 108.954 221.474 109.29 221.278C109.631 221.077 110.167 220.937 110.9 220.858C110.9 220.704 110.879 220.557 110.837 220.417C110.8 220.277 110.727 220.165 110.62 220.081C110.517 219.992 110.368 219.948 110.172 219.948C109.967 219.948 109.775 219.988 109.598 220.067C109.425 220.146 109.274 220.23 109.143 220.319L108.94 219.969C109.038 219.904 109.155 219.836 109.29 219.766C109.425 219.696 109.575 219.638 109.738 219.591C109.901 219.544 110.074 219.521 110.256 219.521C110.531 219.521 110.753 219.579 110.921 219.696C111.089 219.813 111.21 219.974 111.285 220.179C111.364 220.384 111.404 220.625 111.404 220.9V223H110.984L110.942 222.587H110.921C110.758 222.722 110.58 222.839 110.389 222.937C110.198 223.035 109.995 223.084 109.78 223.084ZM109.913 222.671C110.09 222.671 110.254 222.631 110.403 222.552C110.557 222.468 110.723 222.349 110.9 222.195V221.201C110.499 221.248 110.181 221.313 109.948 221.397C109.715 221.476 109.547 221.574 109.444 221.691C109.341 221.808 109.29 221.943 109.29 222.097C109.29 222.298 109.351 222.445 109.472 222.538C109.598 222.627 109.745 222.671 109.913 222.671ZM112.517 223V219.605H112.937L112.979 220.109H113C113.149 219.946 113.313 219.808 113.49 219.696C113.672 219.579 113.861 219.521 114.057 219.521C114.323 219.521 114.528 219.582 114.673 219.703C114.822 219.82 114.93 219.978 114.995 220.179C115.177 219.983 115.359 219.824 115.541 219.703C115.728 219.582 115.921 219.521 116.122 219.521C116.472 219.521 116.731 219.633 116.899 219.857C117.067 220.081 117.151 220.41 117.151 220.844V223H116.64V220.907C116.64 220.58 116.586 220.342 116.479 220.193C116.372 220.044 116.204 219.969 115.975 219.969C115.84 219.969 115.697 220.016 115.548 220.109C115.403 220.198 115.249 220.333 115.086 220.515V223H114.575V220.907C114.575 220.58 114.521 220.342 114.414 220.193C114.311 220.044 114.146 219.969 113.917 219.969C113.646 219.969 113.348 220.151 113.021 220.515V223H112.517ZM118.293 223V219.605H118.797V223H118.293ZM118.552 218.877C118.454 218.877 118.37 218.844 118.3 218.779C118.235 218.714 118.202 218.627 118.202 218.52C118.202 218.417 118.235 218.336 118.3 218.275C118.37 218.21 118.454 218.177 118.552 218.177C118.655 218.177 118.739 218.21 118.804 218.275C118.87 218.336 118.902 218.417 118.902 218.52C118.902 218.627 118.87 218.714 118.804 218.779C118.739 218.844 118.655 218.877 118.552 218.877ZM121.333 223.084C121.039 223.084 120.768 223.014 120.521 222.874C120.278 222.729 120.084 222.526 119.94 222.265C119.795 221.999 119.723 221.679 119.723 221.306C119.723 220.937 119.795 220.62 119.94 220.354C120.084 220.088 120.271 219.883 120.5 219.738C120.733 219.593 120.98 219.521 121.242 219.521C121.522 219.521 121.762 219.586 121.963 219.717C122.163 219.848 122.315 220.032 122.418 220.27C122.525 220.503 122.579 220.783 122.579 221.11C122.579 221.166 122.576 221.222 122.572 221.278C122.572 221.329 122.567 221.376 122.558 221.418H120.122L120.115 221.047H122.124C122.124 220.683 122.047 220.408 121.893 220.221C121.739 220.03 121.524 219.934 121.249 219.934C121.081 219.934 120.917 219.983 120.759 220.081C120.6 220.179 120.469 220.328 120.367 220.529C120.264 220.73 120.213 220.989 120.213 221.306C120.213 221.609 120.266 221.861 120.374 222.062C120.481 222.263 120.623 222.414 120.801 222.517C120.983 222.62 121.181 222.671 121.396 222.671C121.568 222.671 121.722 222.645 121.858 222.594C121.998 222.543 122.131 222.477 122.257 222.398L122.446 222.734C122.301 222.827 122.138 222.909 121.956 222.979C121.778 223.049 121.571 223.084 121.333 223.084ZM123.434 223V219.605H123.854L123.896 220.109H123.917C124.08 219.941 124.253 219.801 124.435 219.689C124.622 219.577 124.829 219.521 125.058 219.521C125.417 219.521 125.679 219.633 125.842 219.857C126.01 220.081 126.094 220.41 126.094 220.844V223H125.583V220.907C125.583 220.58 125.529 220.342 125.422 220.193C125.319 220.044 125.149 219.969 124.911 219.969C124.734 219.969 124.573 220.016 124.428 220.109C124.283 220.198 124.12 220.333 123.938 220.515V223H123.434ZM128.264 223.084C127.914 223.084 127.669 222.981 127.529 222.776C127.393 222.571 127.326 222.305 127.326 221.978V220.025H126.815V219.64L127.347 219.605L127.41 218.646H127.837V219.605H128.768V220.025H127.837V221.992C127.837 222.202 127.874 222.368 127.949 222.489C128.028 222.606 128.17 222.664 128.376 222.664C128.436 222.664 128.502 222.655 128.572 222.636C128.646 222.617 128.712 222.596 128.768 222.573L128.873 222.958C128.779 222.991 128.679 223.019 128.572 223.042C128.464 223.07 128.362 223.084 128.264 223.084ZM130.758 223.084C130.483 223.084 130.226 223.014 129.988 222.874C129.75 222.734 129.559 222.533 129.414 222.272C129.269 222.006 129.197 221.684 129.197 221.306C129.197 220.928 129.269 220.606 129.414 220.34C129.559 220.074 129.75 219.871 129.988 219.731C130.226 219.591 130.483 219.521 130.758 219.521C131.033 219.521 131.288 219.591 131.521 219.731C131.759 219.871 131.95 220.074 132.095 220.34C132.244 220.606 132.319 220.928 132.319 221.306C132.319 221.684 132.244 222.006 132.095 222.272C131.95 222.533 131.759 222.734 131.521 222.874C131.288 223.014 131.033 223.084 130.758 223.084ZM130.758 222.657C130.963 222.657 131.143 222.601 131.297 222.489C131.456 222.377 131.577 222.221 131.661 222.02C131.75 221.815 131.794 221.577 131.794 221.306C131.794 221.04 131.75 220.804 131.661 220.599C131.577 220.394 131.456 220.235 131.297 220.123C131.143 220.006 130.963 219.948 130.758 219.948C130.557 219.948 130.378 220.006 130.219 220.123C130.065 220.235 129.944 220.394 129.855 220.599C129.771 220.804 129.729 221.04 129.729 221.306C129.729 221.577 129.771 221.815 129.855 222.02C129.944 222.221 130.065 222.377 130.219 222.489C130.378 222.601 130.557 222.657 130.758 222.657ZM58.595 233.456V228.605H59.015L59.057 229.011H59.078C59.232 228.876 59.4023 228.761 59.589 228.668C59.7803 228.57 59.9763 228.521 60.177 228.521C60.471 228.521 60.7183 228.593 60.919 228.738C61.1197 228.878 61.269 229.079 61.367 229.34C61.4697 229.597 61.521 229.9 61.521 230.25C61.521 230.637 61.451 230.969 61.311 231.244C61.1757 231.515 60.996 231.722 60.772 231.867C60.548 232.012 60.3077 232.084 60.051 232.084C59.897 232.084 59.7383 232.049 59.575 231.979C59.4117 231.909 59.2483 231.811 59.085 231.685L59.099 232.287V233.456H58.595ZM59.967 231.65C60.1677 231.65 60.345 231.594 60.499 231.482C60.653 231.37 60.7743 231.209 60.863 230.999C60.9517 230.789 60.996 230.542 60.996 230.257C60.996 230 60.9633 229.774 60.898 229.578C60.8373 229.382 60.737 229.23 60.597 229.123C60.4617 229.011 60.282 228.955 60.058 228.955C59.9087 228.955 59.7547 228.997 59.596 229.081C59.442 229.16 59.2763 229.282 59.099 229.445V231.279C59.267 231.414 59.4257 231.51 59.575 231.566C59.7243 231.622 59.855 231.65 59.967 231.65ZM63.7523 232.084C63.477 232.084 63.2203 232.014 62.9823 231.874C62.7443 231.734 62.553 231.533 62.4083 231.272C62.2636 231.006 62.1913 230.684 62.1913 230.306C62.1913 229.928 62.2636 229.606 62.4083 229.34C62.553 229.074 62.7443 228.871 62.9823 228.731C63.2203 228.591 63.477 228.521 63.7523 228.521C64.0276 228.521 64.282 228.591 64.5153 228.731C64.7533 228.871 64.9446 229.074 65.0893 229.34C65.2386 229.606 65.3133 229.928 65.3133 230.306C65.3133 230.684 65.2386 231.006 65.0893 231.272C64.9446 231.533 64.7533 231.734 64.5153 231.874C64.282 232.014 64.0276 232.084 63.7523 232.084ZM63.7523 231.657C63.9576 231.657 64.1373 231.601 64.2913 231.489C64.45 231.377 64.5713 231.221 64.6553 231.02C64.744 230.815 64.7883 230.577 64.7883 230.306C64.7883 230.04 64.744 229.804 64.6553 229.599C64.5713 229.394 64.45 229.235 64.2913 229.123C64.1373 229.006 63.9576 228.948 63.7523 228.948C63.5516 228.948 63.372 229.006 63.2133 229.123C63.0593 229.235 62.938 229.394 62.8493 229.599C62.7653 229.804 62.7233 230.04 62.7233 230.306C62.7233 230.577 62.7653 230.815 62.8493 231.02C62.938 231.221 63.0593 231.377 63.2133 231.489C63.372 231.601 63.5516 231.657 63.7523 231.657ZM67.1572 232.084C66.8072 232.084 66.5622 231.981 66.4222 231.776C66.2869 231.571 66.2192 231.305 66.2192 230.978V229.025H65.7082V228.64L66.2402 228.605L66.3032 227.646H66.7302V228.605H67.6612V229.025H66.7302V230.992C66.7302 231.202 66.7675 231.368 66.8422 231.489C66.9215 231.606 67.0639 231.664 67.2692 231.664C67.3299 231.664 67.3952 231.655 67.4652 231.636C67.5399 231.617 67.6052 231.596 67.6612 231.573L67.7662 231.958C67.6729 231.991 67.5725 232.019 67.4652 232.042C67.3579 232.07 67.2552 232.084 67.1572 232.084ZM69.7007 232.084C69.4067 232.084 69.1361 232.014 68.8887 231.874C68.6461 231.729 68.4524 231.526 68.3077 231.265C68.1631 230.999 68.0907 230.679 68.0907 230.306C68.0907 229.937 68.1631 229.62 68.3077 229.354C68.4524 229.088 68.6391 228.883 68.8677 228.738C69.1011 228.593 69.3484 228.521 69.6097 228.521C69.8897 228.521 70.1301 228.586 70.3307 228.717C70.5314 228.848 70.6831 229.032 70.7857 229.27C70.8931 229.503 70.9467 229.783 70.9467 230.11C70.9467 230.166 70.9444 230.222 70.9397 230.278C70.9397 230.329 70.9351 230.376 70.9257 230.418H68.4897L68.4827 230.047H70.4917C70.4917 229.683 70.4147 229.408 70.2607 229.221C70.1067 229.03 69.8921 228.934 69.6167 228.934C69.4487 228.934 69.2854 228.983 69.1267 229.081C68.9681 229.179 68.8374 229.328 68.7347 229.529C68.6321 229.73 68.5807 229.989 68.5807 230.306C68.5807 230.609 68.6344 230.861 68.7417 231.062C68.8491 231.263 68.9914 231.414 69.1687 231.517C69.3507 231.62 69.5491 231.671 69.7637 231.671C69.9364 231.671 70.0904 231.645 70.2257 231.594C70.3657 231.543 70.4987 231.477 70.6247 231.398L70.8137 231.734C70.6691 231.827 70.5057 231.909 70.3237 231.979C70.1464 232.049 69.9387 232.084 69.7007 232.084ZM71.802 232V228.605H72.222L72.264 229.109H72.285C72.4484 228.941 72.621 228.801 72.803 228.689C72.9897 228.577 73.1974 228.521 73.426 228.521C73.7854 228.521 74.0467 228.633 74.21 228.857C74.378 229.081 74.462 229.41 74.462 229.844V232H73.951V229.907C73.951 229.58 73.8974 229.342 73.79 229.193C73.6874 229.044 73.517 228.969 73.279 228.969C73.1017 228.969 72.9407 229.016 72.796 229.109C72.6514 229.198 72.488 229.333 72.306 229.515V232H71.802ZM76.9188 232.084C76.6201 232.084 76.3518 232.014 76.1138 231.874C75.8758 231.734 75.6868 231.533 75.5468 231.272C75.4068 231.006 75.3368 230.684 75.3368 230.306C75.3368 229.928 75.4115 229.606 75.5608 229.34C75.7148 229.074 75.9131 228.871 76.1558 228.731C76.3985 228.591 76.6645 228.521 76.9538 228.521C77.1778 228.521 77.3691 228.563 77.5278 228.647C77.6865 228.726 77.8241 228.82 77.9408 228.927L77.6748 229.263C77.5768 229.17 77.4695 229.095 77.3528 229.039C77.2408 228.978 77.1148 228.948 76.9748 228.948C76.7601 228.948 76.5688 229.006 76.4008 229.123C76.2375 229.235 76.1068 229.394 76.0088 229.599C75.9155 229.804 75.8688 230.04 75.8688 230.306C75.8688 230.577 75.9131 230.815 76.0018 231.02C76.0951 231.221 76.2235 231.377 76.3868 231.489C76.5501 231.601 76.7415 231.657 76.9608 231.657C77.1241 231.657 77.2758 231.622 77.4158 231.552C77.5558 231.482 77.6795 231.4 77.7868 231.307L78.0108 231.65C77.8615 231.785 77.6935 231.893 77.5068 231.972C77.3201 232.047 77.1241 232.084 76.9188 232.084ZM78.7815 232V228.605H79.2855V232H78.7815ZM79.0405 227.877C78.9425 227.877 78.8585 227.844 78.7885 227.779C78.7232 227.714 78.6905 227.627 78.6905 227.52C78.6905 227.417 78.7232 227.336 78.7885 227.275C78.8585 227.21 78.9425 227.177 79.0405 227.177C79.1432 227.177 79.2272 227.21 79.2925 227.275C79.3579 227.336 79.3905 227.417 79.3905 227.52C79.3905 227.627 79.3579 227.714 79.2925 227.779C79.2272 227.844 79.1432 227.877 79.0405 227.877ZM81.2468 232.084C81.0602 232.084 80.8922 232.047 80.7428 231.972C80.5935 231.897 80.4745 231.79 80.3858 231.65C80.2972 231.505 80.2528 231.33 80.2528 231.125C80.2528 230.756 80.4208 230.474 80.7568 230.278C81.0975 230.077 81.6342 229.937 82.3668 229.858C82.3668 229.704 82.3458 229.557 82.3038 229.417C82.2665 229.277 82.1942 229.165 82.0868 229.081C81.9842 228.992 81.8348 228.948 81.6388 228.948C81.4335 228.948 81.2422 228.988 81.0648 229.067C80.8922 229.146 80.7405 229.23 80.6098 229.319L80.4068 228.969C80.5048 228.904 80.6215 228.836 80.7568 228.766C80.8922 228.696 81.0415 228.638 81.2048 228.591C81.3682 228.544 81.5408 228.521 81.7228 228.521C81.9982 228.521 82.2198 228.579 82.3878 228.696C82.5558 228.813 82.6772 228.974 82.7518 229.179C82.8312 229.384 82.8708 229.625 82.8708 229.9V232H82.4508L82.4088 231.587H82.3878C82.2245 231.722 82.0472 231.839 81.8558 231.937C81.6645 232.035 81.4615 232.084 81.2468 232.084ZM81.3798 231.671C81.5572 231.671 81.7205 231.631 81.8698 231.552C82.0238 231.468 82.1895 231.349 82.3668 231.195V230.201C81.9655 230.248 81.6482 230.313 81.4148 230.397C81.1815 230.476 81.0135 230.574 80.9108 230.691C80.8082 230.808 80.7568 230.943 80.7568 231.097C80.7568 231.298 80.8175 231.445 80.9388 231.538C81.0648 231.627 81.2118 231.671 81.3798 231.671ZM85.1247 232.084C84.7 232.084 84.3617 231.93 84.1097 231.622C83.8577 231.309 83.7317 230.871 83.7317 230.306C83.7317 229.942 83.7993 229.627 83.9347 229.361C84.0747 229.095 84.2567 228.89 84.4807 228.745C84.7047 228.596 84.9473 228.521 85.2087 228.521C85.4093 228.521 85.582 228.556 85.7267 228.626C85.8713 228.696 86.0207 228.794 86.1747 228.92L86.1537 228.332V227.002H86.6577V232H86.2377L86.1957 231.587H86.1747C86.044 231.722 85.8877 231.839 85.7057 231.937C85.5283 232.035 85.3347 232.084 85.1247 232.084ZM85.2367 231.65C85.4 231.65 85.5563 231.61 85.7057 231.531C85.855 231.447 86.0043 231.326 86.1537 231.167V229.326C85.9997 229.191 85.8527 229.095 85.7127 229.039C85.5727 228.983 85.4303 228.955 85.2857 228.955C85.0943 228.955 84.9193 229.013 84.7607 229.13C84.6067 229.242 84.483 229.401 84.3897 229.606C84.301 229.807 84.2567 230.04 84.2567 230.306C84.2567 230.721 84.3407 231.05 84.5087 231.293C84.6813 231.531 84.924 231.65 85.2367 231.65ZM89.141 232.084C88.8656 232.084 88.609 232.014 88.371 231.874C88.133 231.734 87.9416 231.533 87.797 231.272C87.6523 231.006 87.58 230.684 87.58 230.306C87.58 229.928 87.6523 229.606 87.797 229.34C87.9416 229.074 88.133 228.871 88.371 228.731C88.609 228.591 88.8656 228.521 89.141 228.521C89.4163 228.521 89.6706 228.591 89.904 228.731C90.142 228.871 90.3333 229.074 90.478 229.34C90.6273 229.606 90.702 229.928 90.702 230.306C90.702 230.684 90.6273 231.006 90.478 231.272C90.3333 231.533 90.142 231.734 89.904 231.874C89.6706 232.014 89.4163 232.084 89.141 232.084ZM89.141 231.657C89.3463 231.657 89.526 231.601 89.68 231.489C89.8386 231.377 89.96 231.221 90.044 231.02C90.1326 230.815 90.177 230.577 90.177 230.306C90.177 230.04 90.1326 229.804 90.044 229.599C89.96 229.394 89.8386 229.235 89.68 229.123C89.526 229.006 89.3463 228.948 89.141 228.948C88.9403 228.948 88.7606 229.006 88.602 229.123C88.448 229.235 88.3266 229.394 88.238 229.599C88.154 229.804 88.112 230.04 88.112 230.306C88.112 230.577 88.154 230.815 88.238 231.02C88.3266 231.221 88.448 231.377 88.602 231.489C88.7606 231.601 88.9403 231.657 89.141 231.657ZM93.0276 233.456V228.605H93.4476L93.4896 229.011H93.5106C93.6646 228.876 93.835 228.761 94.0216 228.668C94.213 228.57 94.409 228.521 94.6096 228.521C94.9036 228.521 95.151 228.593 95.3516 228.738C95.5523 228.878 95.7016 229.079 95.7996 229.34C95.9023 229.597 95.9536 229.9 95.9536 230.25C95.9536 230.637 95.8836 230.969 95.7436 231.244C95.6083 231.515 95.4286 231.722 95.2046 231.867C94.9806 232.012 94.7403 232.084 94.4836 232.084C94.3296 232.084 94.171 232.049 94.0076 231.979C93.8443 231.909 93.681 231.811 93.5176 231.685L93.5316 232.287V233.456H93.0276ZM94.3996 231.65C94.6003 231.65 94.7776 231.594 94.9316 231.482C95.0856 231.37 95.207 231.209 95.2956 230.999C95.3843 230.789 95.4286 230.542 95.4286 230.257C95.4286 230 95.396 229.774 95.3306 229.578C95.27 229.382 95.1696 229.23 95.0296 229.123C94.8943 229.011 94.7146 228.955 94.4906 228.955C94.3413 228.955 94.1873 228.997 94.0286 229.081C93.8746 229.16 93.709 229.282 93.5316 229.445V231.279C93.6996 231.414 93.8583 231.51 94.0076 231.566C94.157 231.622 94.2876 231.65 94.3996 231.65ZM98.1849 232.084C97.9096 232.084 97.6529 232.014 97.4149 231.874C97.1769 231.734 96.9856 231.533 96.8409 231.272C96.6963 231.006 96.6239 230.684 96.6239 230.306C96.6239 229.928 96.6963 229.606 96.8409 229.34C96.9856 229.074 97.1769 228.871 97.4149 228.731C97.6529 228.591 97.9096 228.521 98.1849 228.521C98.4603 228.521 98.7146 228.591 98.9479 228.731C99.1859 228.871 99.3773 229.074 99.5219 229.34C99.6713 229.606 99.7459 229.928 99.7459 230.306C99.7459 230.684 99.6713 231.006 99.5219 231.272C99.3773 231.533 99.1859 231.734 98.9479 231.874C98.7146 232.014 98.4603 232.084 98.1849 232.084ZM98.1849 231.657C98.3903 231.657 98.5699 231.601 98.7239 231.489C98.8826 231.377 99.0039 231.221 99.0879 231.02C99.1766 230.815 99.2209 230.577 99.2209 230.306C99.2209 230.04 99.1766 229.804 99.0879 229.599C99.0039 229.394 98.8826 229.235 98.7239 229.123C98.5699 229.006 98.3903 228.948 98.1849 228.948C97.9843 228.948 97.8046 229.006 97.6459 229.123C97.4919 229.235 97.3706 229.394 97.2819 229.599C97.1979 229.804 97.1559 230.04 97.1559 230.306C97.1559 230.577 97.1979 230.815 97.2819 231.02C97.3706 231.221 97.4919 231.377 97.6459 231.489C97.8046 231.601 97.9843 231.657 98.1849 231.657ZM100.67 232V228.605H101.09L101.132 229.228H101.153C101.27 229.013 101.41 228.843 101.573 228.717C101.741 228.586 101.923 228.521 102.119 228.521C102.189 228.521 102.252 228.528 102.308 228.542C102.364 228.551 102.418 228.568 102.469 228.591L102.371 229.039C102.315 229.02 102.264 229.006 102.217 228.997C102.175 228.988 102.119 228.983 102.049 228.983C101.905 228.983 101.753 229.044 101.594 229.165C101.436 229.282 101.296 229.489 101.174 229.788V232H100.67ZM105.5 232.084C105.262 232.084 105.052 232.054 104.87 231.993C104.688 231.932 104.53 231.855 104.394 231.762C104.259 231.664 104.142 231.561 104.044 231.454L104.303 231.118C104.439 231.258 104.597 231.384 104.779 231.496C104.966 231.603 105.197 231.657 105.472 231.657C105.752 231.657 105.981 231.58 106.158 231.426C106.34 231.267 106.431 231.057 106.431 230.796C106.431 230.614 106.382 230.453 106.284 230.313C106.191 230.173 106.037 230.066 105.822 229.991C105.612 229.912 105.328 229.872 104.968 229.872V229.473C105.29 229.473 105.545 229.436 105.731 229.361C105.923 229.282 106.06 229.177 106.144 229.046C106.228 228.915 106.27 228.768 106.27 228.605C106.27 228.381 106.198 228.204 106.053 228.073C105.909 227.938 105.713 227.87 105.465 227.87C105.274 227.87 105.097 227.914 104.933 228.003C104.77 228.087 104.623 228.197 104.492 228.332L104.212 228.003C104.385 227.844 104.574 227.714 104.779 227.611C104.985 227.504 105.218 227.45 105.479 227.45C105.731 227.45 105.955 227.494 106.151 227.583C106.347 227.672 106.501 227.8 106.613 227.968C106.73 228.131 106.788 228.332 106.788 228.57C106.788 228.845 106.711 229.072 106.557 229.249C106.408 229.422 106.21 229.552 105.962 229.641V229.669C106.144 229.711 106.31 229.783 106.459 229.886C106.609 229.984 106.728 230.112 106.816 230.271C106.905 230.425 106.949 230.605 106.949 230.81C106.949 231.076 106.884 231.305 106.753 231.496C106.623 231.683 106.448 231.827 106.228 231.93C106.009 232.033 105.766 232.084 105.5 232.084ZM108.946 232.084C108.708 232.084 108.498 232.054 108.316 231.993C108.134 231.932 107.975 231.855 107.84 231.762C107.704 231.664 107.588 231.561 107.49 231.454L107.749 231.118C107.884 231.258 108.043 231.384 108.225 231.496C108.411 231.603 108.642 231.657 108.918 231.657C109.198 231.657 109.426 231.58 109.604 231.426C109.786 231.267 109.877 231.057 109.877 230.796C109.877 230.614 109.828 230.453 109.73 230.313C109.636 230.173 109.482 230.066 109.268 229.991C109.058 229.912 108.773 229.872 108.414 229.872V229.473C108.736 229.473 108.99 229.436 109.177 229.361C109.368 229.282 109.506 229.177 109.59 229.046C109.674 228.915 109.716 228.768 109.716 228.605C109.716 228.381 109.643 228.204 109.499 228.073C109.354 227.938 109.158 227.87 108.911 227.87C108.719 227.87 108.542 227.914 108.379 228.003C108.215 228.087 108.068 228.197 107.938 228.332L107.658 228.003C107.83 227.844 108.019 227.714 108.225 227.611C108.43 227.504 108.663 227.45 108.925 227.45C109.177 227.45 109.401 227.494 109.597 227.583C109.793 227.672 109.947 227.8 110.059 227.968C110.175 228.131 110.234 228.332 110.234 228.57C110.234 228.845 110.157 229.072 110.003 229.249C109.853 229.422 109.655 229.552 109.408 229.641V229.669C109.59 229.711 109.755 229.783 109.905 229.886C110.054 229.984 110.173 230.112 110.262 230.271C110.35 230.425 110.395 230.605 110.395 230.81C110.395 231.076 110.329 231.305 110.199 231.496C110.068 231.683 109.893 231.827 109.674 231.93C109.454 232.033 109.212 232.084 108.946 232.084ZM112.742 232V228.605H113.162L113.204 229.109H113.225C113.375 228.946 113.538 228.808 113.715 228.696C113.897 228.579 114.086 228.521 114.282 228.521C114.548 228.521 114.754 228.582 114.898 228.703C115.048 228.82 115.155 228.978 115.22 229.179C115.402 228.983 115.584 228.824 115.766 228.703C115.953 228.582 116.147 228.521 116.347 228.521C116.697 228.521 116.956 228.633 117.124 228.857C117.292 229.081 117.376 229.41 117.376 229.844V232H116.865V229.907C116.865 229.58 116.812 229.342 116.704 229.193C116.597 229.044 116.429 228.969 116.2 228.969C116.065 228.969 115.923 229.016 115.773 229.109C115.629 229.198 115.475 229.333 115.311 229.515V232H114.8V229.907C114.8 229.58 114.747 229.342 114.639 229.193C114.537 229.044 114.371 228.969 114.142 228.969C113.872 228.969 113.573 229.151 113.246 229.515V232H112.742ZM119.814 232.084C119.538 232.084 119.282 232.014 119.044 231.874C118.806 231.734 118.614 231.533 118.47 231.272C118.325 231.006 118.253 230.684 118.253 230.306C118.253 229.928 118.325 229.606 118.47 229.34C118.614 229.074 118.806 228.871 119.044 228.731C119.282 228.591 119.538 228.521 119.814 228.521C120.089 228.521 120.343 228.591 120.577 228.731C120.815 228.871 121.006 229.074 121.151 229.34C121.3 229.606 121.375 229.928 121.375 230.306C121.375 230.684 121.3 231.006 121.151 231.272C121.006 231.533 120.815 231.734 120.577 231.874C120.343 232.014 120.089 232.084 119.814 232.084ZM119.814 231.657C120.019 231.657 120.199 231.601 120.353 231.489C120.511 231.377 120.633 231.221 120.717 231.02C120.805 230.815 120.85 230.577 120.85 230.306C120.85 230.04 120.805 229.804 120.717 229.599C120.633 229.394 120.511 229.235 120.353 229.123C120.199 229.006 120.019 228.948 119.814 228.948C119.613 228.948 119.433 229.006 119.275 229.123C119.121 229.235 118.999 229.394 118.911 229.599C118.827 229.804 118.785 230.04 118.785 230.306C118.785 230.577 118.827 230.815 118.911 231.02C118.999 231.221 119.121 231.377 119.275 231.489C119.433 231.601 119.613 231.657 119.814 231.657ZM123.219 232.084C122.869 232.084 122.624 231.981 122.484 231.776C122.348 231.571 122.281 231.305 122.281 230.978V229.025H121.77V228.64L122.302 228.605L122.365 227.646H122.792V228.605H123.723V229.025H122.792V230.992C122.792 231.202 122.829 231.368 122.904 231.489C122.983 231.606 123.125 231.664 123.331 231.664C123.391 231.664 123.457 231.655 123.527 231.636C123.601 231.617 123.667 231.596 123.723 231.573L123.828 231.958C123.734 231.991 123.634 232.019 123.527 232.042C123.419 232.07 123.317 232.084 123.219 232.084ZM125.713 232.084C125.438 232.084 125.181 232.014 124.943 231.874C124.705 231.734 124.514 231.533 124.369 231.272C124.225 231.006 124.152 230.684 124.152 230.306C124.152 229.928 124.225 229.606 124.369 229.34C124.514 229.074 124.705 228.871 124.943 228.731C125.181 228.591 125.438 228.521 125.713 228.521C125.989 228.521 126.243 228.591 126.476 228.731C126.714 228.871 126.906 229.074 127.05 229.34C127.2 229.606 127.274 229.928 127.274 230.306C127.274 230.684 127.2 231.006 127.05 231.272C126.906 231.533 126.714 231.734 126.476 231.874C126.243 232.014 125.989 232.084 125.713 232.084ZM125.713 231.657C125.919 231.657 126.098 231.601 126.252 231.489C126.411 231.377 126.532 231.221 126.616 231.02C126.705 230.815 126.749 230.577 126.749 230.306C126.749 230.04 126.705 229.804 126.616 229.599C126.532 229.394 126.411 229.235 126.252 229.123C126.098 229.006 125.919 228.948 125.713 228.948C125.513 228.948 125.333 229.006 125.174 229.123C125.02 229.235 124.899 229.394 124.81 229.599C124.726 229.804 124.684 230.04 124.684 230.306C124.684 230.577 124.726 230.815 124.81 231.02C124.899 231.221 125.02 231.377 125.174 231.489C125.333 231.601 125.513 231.657 125.713 231.657ZM128.199 232V228.605H128.619L128.661 229.228H128.682C128.798 229.013 128.938 228.843 129.102 228.717C129.27 228.586 129.452 228.521 129.648 228.521C129.718 228.521 129.781 228.528 129.837 228.542C129.893 228.551 129.946 228.568 129.998 228.591L129.9 229.039C129.844 229.02 129.792 229.006 129.746 228.997C129.704 228.988 129.648 228.983 129.578 228.983C129.433 228.983 129.281 229.044 129.123 229.165C128.964 229.282 128.824 229.489 128.703 229.788V232H128.199ZM131.853 232.084C131.559 232.084 131.288 232.014 131.041 231.874C130.798 231.729 130.605 231.526 130.46 231.265C130.315 230.999 130.243 230.679 130.243 230.306C130.243 229.937 130.315 229.62 130.46 229.354C130.605 229.088 130.791 228.883 131.02 228.738C131.253 228.593 131.501 228.521 131.762 228.521C132.042 228.521 132.282 228.586 132.483 228.717C132.684 228.848 132.835 229.032 132.938 229.27C133.045 229.503 133.099 229.783 133.099 230.11C133.099 230.166 133.097 230.222 133.092 230.278C133.092 230.329 133.087 230.376 133.078 230.418H130.642L130.635 230.047H132.644C132.644 229.683 132.567 229.408 132.413 229.221C132.259 229.03 132.044 228.934 131.769 228.934C131.601 228.934 131.438 228.983 131.279 229.081C131.12 229.179 130.99 229.328 130.887 229.529C130.784 229.73 130.733 229.989 130.733 230.306C130.733 230.609 130.787 230.861 130.894 231.062C131.001 231.263 131.144 231.414 131.321 231.517C131.503 231.62 131.701 231.671 131.916 231.671C132.089 231.671 132.243 231.645 132.378 231.594C132.518 231.543 132.651 231.477 132.777 231.398L132.966 231.734C132.821 231.827 132.658 231.909 132.476 231.979C132.299 232.049 132.091 232.084 131.853 232.084ZM134.822 232.084C134.58 232.084 134.349 232.04 134.129 231.951C133.91 231.858 133.721 231.746 133.562 231.615L133.821 231.272C133.971 231.389 134.125 231.487 134.283 231.566C134.442 231.645 134.629 231.685 134.843 231.685C135.077 231.685 135.252 231.629 135.368 231.517C135.485 231.405 135.543 231.272 135.543 231.118C135.543 230.997 135.504 230.896 135.424 230.817C135.345 230.733 135.245 230.663 135.123 230.607C135.002 230.546 134.878 230.493 134.752 230.446C134.594 230.39 134.435 230.322 134.276 230.243C134.118 230.164 133.985 230.063 133.877 229.942C133.775 229.821 133.723 229.664 133.723 229.473C133.723 229.207 133.824 228.983 134.024 228.801C134.23 228.614 134.514 228.521 134.878 228.521C135.084 228.521 135.275 228.558 135.452 228.633C135.63 228.708 135.781 228.796 135.907 228.899L135.662 229.228C135.546 229.144 135.424 229.074 135.298 229.018C135.177 228.957 135.037 228.927 134.878 228.927C134.654 228.927 134.489 228.981 134.381 229.088C134.274 229.191 134.22 229.31 134.22 229.445C134.22 229.557 134.255 229.65 134.325 229.725C134.4 229.795 134.496 229.856 134.612 229.907C134.729 229.958 134.853 230.01 134.983 230.061C135.151 230.122 135.315 230.192 135.473 230.271C135.637 230.346 135.772 230.446 135.879 230.572C135.987 230.698 136.04 230.871 136.04 231.09C136.04 231.267 135.994 231.433 135.9 231.587C135.807 231.736 135.669 231.858 135.487 231.951C135.305 232.04 135.084 232.084 134.822 232.084ZM138.317 232V227.401H139.724C140.032 227.401 140.305 227.443 140.543 227.527C140.781 227.606 140.968 227.739 141.103 227.926C141.238 228.113 141.306 228.362 141.306 228.675C141.306 228.974 141.238 229.223 141.103 229.424C140.968 229.62 140.781 229.767 140.543 229.865C140.305 229.963 140.032 230.012 139.724 230.012H138.835V232H138.317ZM140.844 232L139.619 229.872L140.039 229.62L141.432 232H140.844ZM138.835 229.592H139.64C140.009 229.592 140.291 229.517 140.487 229.368C140.688 229.214 140.788 228.983 140.788 228.675C140.788 228.362 140.688 228.143 140.487 228.017C140.291 227.886 140.009 227.821 139.64 227.821H138.835V229.592ZM142.962 232.084C142.775 232.084 142.607 232.047 142.458 231.972C142.308 231.897 142.189 231.79 142.101 231.65C142.012 231.505 141.968 231.33 141.968 231.125C141.968 230.756 142.136 230.474 142.472 230.278C142.812 230.077 143.349 229.937 144.082 229.858C144.082 229.704 144.061 229.557 144.019 229.417C143.981 229.277 143.909 229.165 143.802 229.081C143.699 228.992 143.55 228.948 143.354 228.948C143.148 228.948 142.957 228.988 142.78 229.067C142.607 229.146 142.455 229.23 142.325 229.319L142.122 228.969C142.22 228.904 142.336 228.836 142.472 228.766C142.607 228.696 142.756 228.638 142.92 228.591C143.083 228.544 143.256 228.521 143.438 228.521C143.713 228.521 143.935 228.579 144.103 228.696C144.271 228.813 144.392 228.974 144.467 229.179C144.546 229.384 144.586 229.625 144.586 229.9V232H144.166L144.124 231.587H144.103C143.939 231.722 143.762 231.839 143.571 231.937C143.379 232.035 143.176 232.084 142.962 232.084ZM143.095 231.671C143.272 231.671 143.435 231.631 143.585 231.552C143.739 231.468 143.904 231.349 144.082 231.195V230.201C143.68 230.248 143.363 230.313 143.13 230.397C142.896 230.476 142.728 230.574 142.626 230.691C142.523 230.808 142.472 230.943 142.472 231.097C142.472 231.298 142.532 231.445 142.654 231.538C142.78 231.627 142.927 231.671 143.095 231.671ZM145.699 233.456V228.605H146.119L146.161 229.011H146.182C146.336 228.876 146.506 228.761 146.693 228.668C146.884 228.57 147.08 228.521 147.281 228.521C147.575 228.521 147.822 228.593 148.023 228.738C148.223 228.878 148.373 229.079 148.471 229.34C148.573 229.597 148.625 229.9 148.625 230.25C148.625 230.637 148.555 230.969 148.415 231.244C148.279 231.515 148.1 231.722 147.876 231.867C147.652 232.012 147.411 232.084 147.155 232.084C147.001 232.084 146.842 232.049 146.679 231.979C146.515 231.909 146.352 231.811 146.189 231.685L146.203 232.287V233.456H145.699ZM147.071 231.65C147.271 231.65 147.449 231.594 147.603 231.482C147.757 231.37 147.878 231.209 147.967 230.999C148.055 230.789 148.1 230.542 148.1 230.257C148.1 230 148.067 229.774 148.002 229.578C147.941 229.382 147.841 229.23 147.701 229.123C147.565 229.011 147.386 228.955 147.162 228.955C147.012 228.955 146.858 228.997 146.7 229.081C146.546 229.16 146.38 229.282 146.203 229.445V231.279C146.371 231.414 146.529 231.51 146.679 231.566C146.828 231.622 146.959 231.65 147.071 231.65ZM150.48 232.084C150.13 232.084 149.885 231.981 149.745 231.776C149.61 231.571 149.542 231.305 149.542 230.978V229.025H149.031V228.64L149.563 228.605L149.626 227.646H150.053V228.605H150.984V229.025H150.053V230.992C150.053 231.202 150.091 231.368 150.165 231.489C150.245 231.606 150.387 231.664 150.592 231.664C150.653 231.664 150.718 231.655 150.788 231.636C150.863 231.617 150.928 231.596 150.984 231.573L151.089 231.958C150.996 231.991 150.896 232.019 150.788 232.042C150.681 232.07 150.578 232.084 150.48 232.084ZM152.975 232.084C152.7 232.084 152.443 232.014 152.205 231.874C151.967 231.734 151.776 231.533 151.631 231.272C151.486 231.006 151.414 230.684 151.414 230.306C151.414 229.928 151.486 229.606 151.631 229.34C151.776 229.074 151.967 228.871 152.205 228.731C152.443 228.591 152.7 228.521 152.975 228.521C153.25 228.521 153.505 228.591 153.738 228.731C153.976 228.871 154.167 229.074 154.312 229.34C154.461 229.606 154.536 229.928 154.536 230.306C154.536 230.684 154.461 231.006 154.312 231.272C154.167 231.533 153.976 231.734 153.738 231.874C153.505 232.014 153.25 232.084 152.975 232.084ZM152.975 231.657C153.18 231.657 153.36 231.601 153.514 231.489C153.673 231.377 153.794 231.221 153.878 231.02C153.967 230.815 154.011 230.577 154.011 230.306C154.011 230.04 153.967 229.804 153.878 229.599C153.794 229.394 153.673 229.235 153.514 229.123C153.36 229.006 153.18 228.948 152.975 228.948C152.774 228.948 152.595 229.006 152.436 229.123C152.282 229.235 152.161 229.394 152.072 229.599C151.988 229.804 151.946 230.04 151.946 230.306C151.946 230.577 151.988 230.815 152.072 231.02C152.161 231.221 152.282 231.377 152.436 231.489C152.595 231.601 152.774 231.657 152.975 231.657ZM155.46 232V228.605H155.88L155.922 229.228H155.943C156.06 229.013 156.2 228.843 156.363 228.717C156.531 228.586 156.713 228.521 156.909 228.521C156.979 228.521 157.042 228.528 157.098 228.542C157.154 228.551 157.208 228.568 157.259 228.591L157.161 229.039C157.105 229.02 157.054 229.006 157.007 228.997C156.965 228.988 156.909 228.983 156.839 228.983C156.695 228.983 156.543 229.044 156.384 229.165C156.226 229.282 156.086 229.489 155.964 229.788V232H155.46Z" fill="white"/>
<path d="M60.036 210.132C59.5667 210.132 59.0973 210.044 58.628 209.868C58.166 209.685 57.7553 209.424 57.396 209.087L58.265 208.053C58.5217 208.288 58.8077 208.475 59.123 208.614C59.4457 208.753 59.761 208.823 60.069 208.823C60.4283 208.823 60.696 208.757 60.872 208.625C61.0553 208.486 61.147 208.295 61.147 208.053C61.147 207.892 61.103 207.76 61.015 207.657C60.927 207.554 60.8023 207.466 60.641 207.393C60.487 207.312 60.3037 207.228 60.091 207.14L59.145 206.733C58.8957 206.63 58.661 206.495 58.441 206.326C58.221 206.157 58.0413 205.948 57.902 205.699C57.7627 205.442 57.693 205.142 57.693 204.797C57.693 204.401 57.7993 204.045 58.012 203.73C58.232 203.415 58.529 203.165 58.903 202.982C59.2843 202.791 59.717 202.696 60.201 202.696C60.619 202.696 61.026 202.777 61.422 202.938C61.8253 203.099 62.1773 203.327 62.478 203.62L61.708 204.577C61.4807 204.394 61.246 204.251 61.004 204.148C60.762 204.045 60.4943 203.994 60.201 203.994C59.9077 203.994 59.6693 204.056 59.486 204.181C59.31 204.306 59.222 204.482 59.222 204.709C59.222 204.863 59.2697 204.991 59.365 205.094C59.4603 205.197 59.5923 205.288 59.761 205.369C59.937 205.442 60.1277 205.523 60.333 205.611L61.257 205.985C61.5503 206.102 61.8033 206.249 62.016 206.425C62.2287 206.601 62.3937 206.814 62.511 207.063C62.6357 207.305 62.698 207.595 62.698 207.932C62.698 208.328 62.5917 208.695 62.379 209.032C62.1737 209.362 61.8693 209.63 61.466 209.835C61.07 210.033 60.5933 210.132 60.036 210.132ZM66.7213 210.132C66.274 210.132 65.8743 210.066 65.5223 209.934C65.1703 209.802 64.8733 209.6 64.6313 209.329C64.3893 209.058 64.206 208.706 64.0813 208.273C63.9567 207.84 63.8943 207.327 63.8943 206.733V202.828H65.4123V206.876C65.4123 207.36 65.4637 207.745 65.5663 208.031C65.669 208.317 65.8193 208.522 66.0173 208.647C66.2153 208.764 66.45 208.823 66.7213 208.823C67 208.823 67.2383 208.764 67.4363 208.647C67.6343 208.522 67.7883 208.317 67.8983 208.031C68.0083 207.745 68.0633 207.36 68.0633 206.876V202.828H69.5153V206.733C69.5153 207.327 69.453 207.84 69.3283 208.273C69.211 208.706 69.0313 209.058 68.7893 209.329C68.5547 209.6 68.2613 209.802 67.9093 209.934C67.5647 210.066 67.1687 210.132 66.7213 210.132ZM71.2215 210V202.828H73.6195C74.1475 202.828 74.6242 202.898 75.0495 203.037C75.4749 203.176 75.8122 203.415 76.0615 203.752C76.3182 204.082 76.4465 204.533 76.4465 205.105C76.4465 205.655 76.3219 206.106 76.0725 206.458C75.8232 206.81 75.4859 207.074 75.0605 207.25C74.6425 207.419 74.1769 207.503 73.6635 207.503H72.7285V210H71.2215ZM72.7285 206.293H73.5645C74.0412 206.293 74.3932 206.194 74.6205 205.996C74.8479 205.791 74.9615 205.494 74.9615 205.105C74.9615 204.702 74.8369 204.423 74.5875 204.269C74.3455 204.108 73.9899 204.027 73.5205 204.027H72.7285V206.293ZM77.7313 210V202.828H82.1753V204.093H79.2383V205.655H81.7353V206.931H79.2383V208.735H82.2853V210H77.7313ZM83.7254 210V202.828H86.2554C86.7614 202.828 87.2198 202.894 87.6304 203.026C88.0411 203.158 88.3674 203.385 88.6094 203.708C88.8588 204.031 88.9834 204.471 88.9834 205.028C88.9834 205.563 88.8588 206.003 88.6094 206.348C88.3674 206.685 88.0411 206.938 87.6304 207.107C87.2198 207.268 86.7614 207.349 86.2554 207.349H85.2324V210H83.7254ZM87.6194 210L85.9804 206.942L87.0364 205.996L89.3134 210H87.6194ZM85.2324 206.139H86.1234C86.5708 206.139 86.9118 206.047 87.1464 205.864C87.3811 205.673 87.4984 205.395 87.4984 205.028C87.4984 204.654 87.3811 204.394 87.1464 204.247C86.9118 204.1 86.5708 204.027 86.1234 204.027H85.2324V206.139ZM90.3963 210V202.828H91.9033V205.622H94.5213V202.828H96.0283V210H94.5213V206.942H91.9033V210H90.3963ZM97.7655 210V202.828H102.209V204.093H99.2725V205.655H101.769V206.931H99.2725V208.735H102.319V210H97.7655ZM102.836 210L105.113 202.828H106.917L109.194 210H107.599L106.609 206.304C106.506 205.937 106.403 205.552 106.301 205.149C106.205 204.746 106.106 204.353 106.004 203.972H105.96C105.872 204.353 105.776 204.746 105.674 205.149C105.578 205.552 105.479 205.937 105.377 206.304L104.376 210H102.836ZM104.288 208.218V207.041H107.72V208.218H104.288ZM111.266 210L109.077 202.828H110.672L111.585 206.249C111.702 206.652 111.801 207.041 111.882 207.415C111.97 207.782 112.069 208.167 112.179 208.57H112.223C112.34 208.167 112.443 207.782 112.531 207.415C112.619 207.041 112.714 206.652 112.817 206.249L113.708 202.828H115.259L113.07 210H111.266ZM117.28 210V207.404L115.113 202.828H116.73L117.423 204.533C117.519 204.804 117.614 205.068 117.709 205.325C117.812 205.582 117.915 205.846 118.017 206.117H118.061C118.171 205.846 118.278 205.582 118.38 205.325C118.483 205.068 118.586 204.804 118.688 204.533L119.37 202.828H120.954L118.787 207.404V210H117.28Z" fill="white"/>
<path d="M179.5 213.5H57.5" stroke="#BBECF9"/>
<circle cx="179.5" cy="213.5" r="1.5" fill="white"/>
<path d="M58.61 104V99.842H57.196V99.401H60.535V99.842H59.128V104H58.61ZM61.3274 104V100.605H61.7474L61.7894 101.228H61.8104C61.9271 101.013 62.0671 100.843 62.2304 100.717C62.3984 100.586 62.5804 100.521 62.7764 100.521C62.8464 100.521 62.9094 100.528 62.9654 100.542C63.0214 100.551 63.0751 100.568 63.1264 100.591L63.0284 101.039C62.9724 101.02 62.9211 101.006 62.8744 100.997C62.8324 100.988 62.7764 100.983 62.7064 100.983C62.5618 100.983 62.4101 101.044 62.2514 101.165C62.0928 101.282 61.9528 101.489 61.8314 101.788V104H61.3274ZM64.4763 104.084C64.2897 104.084 64.1217 104.047 63.9723 103.972C63.823 103.897 63.704 103.79 63.6153 103.65C63.5267 103.505 63.4823 103.33 63.4823 103.125C63.4823 102.756 63.6503 102.474 63.9863 102.278C64.327 102.077 64.8637 101.937 65.5963 101.858C65.5963 101.704 65.5753 101.557 65.5333 101.417C65.496 101.277 65.4237 101.165 65.3163 101.081C65.2137 100.992 65.0643 100.948 64.8683 100.948C64.663 100.948 64.4717 100.988 64.2943 101.067C64.1217 101.146 63.97 101.23 63.8393 101.319L63.6363 100.969C63.7343 100.904 63.851 100.836 63.9863 100.766C64.1217 100.696 64.271 100.638 64.4343 100.591C64.5977 100.544 64.7703 100.521 64.9523 100.521C65.2277 100.521 65.4493 100.579 65.6173 100.696C65.7853 100.813 65.9067 100.974 65.9813 101.179C66.0607 101.384 66.1003 101.625 66.1003 101.9V104H65.6803L65.6383 103.587H65.6173C65.454 103.722 65.2767 103.839 65.0853 103.937C64.894 104.035 64.691 104.084 64.4763 104.084ZM64.6093 103.671C64.7867 103.671 64.95 103.631 65.0993 103.552C65.2533 103.468 65.419 103.349 65.5963 103.195V102.201C65.195 102.248 64.8777 102.313 64.6443 102.397C64.411 102.476 64.243 102.574 64.1403 102.691C64.0377 102.808 63.9863 102.943 63.9863 103.097C63.9863 103.298 64.047 103.445 64.1683 103.538C64.2943 103.627 64.4413 103.671 64.6093 103.671ZM67.2132 104V100.605H67.6332L67.6752 101.109H67.6962C67.8595 100.941 68.0322 100.801 68.2142 100.689C68.4008 100.577 68.6085 100.521 68.8372 100.521C69.1965 100.521 69.4578 100.633 69.6212 100.857C69.7892 101.081 69.8732 101.41 69.8732 101.844V104H69.3622V101.907C69.3622 101.58 69.3085 101.342 69.2012 101.193C69.0985 101.044 68.9282 100.969 68.6902 100.969C68.5128 100.969 68.3518 101.016 68.2072 101.109C68.0625 101.198 67.8992 101.333 67.7172 101.515V104H67.2132ZM71.8819 104.084C71.6393 104.084 71.4083 104.04 71.1889 103.951C70.9696 103.858 70.7806 103.746 70.6219 103.615L70.8809 103.272C71.0303 103.389 71.1843 103.487 71.3429 103.566C71.5016 103.645 71.6883 103.685 71.9029 103.685C72.1363 103.685 72.3113 103.629 72.4279 103.517C72.5446 103.405 72.6029 103.272 72.6029 103.118C72.6029 102.997 72.5633 102.896 72.4839 102.817C72.4046 102.733 72.3043 102.663 72.1829 102.607C72.0616 102.546 71.9379 102.493 71.8119 102.446C71.6533 102.39 71.4946 102.322 71.3359 102.243C71.1773 102.164 71.0443 102.063 70.9369 101.942C70.8343 101.821 70.7829 101.664 70.7829 101.473C70.7829 101.207 70.8833 100.983 71.0839 100.801C71.2893 100.614 71.5739 100.521 71.9379 100.521C72.1433 100.521 72.3346 100.558 72.5119 100.633C72.6893 100.708 72.8409 100.796 72.9669 100.899L72.7219 101.228C72.6053 101.144 72.4839 101.074 72.3579 101.018C72.2366 100.957 72.0966 100.927 71.9379 100.927C71.7139 100.927 71.5483 100.981 71.4409 101.088C71.3336 101.191 71.2799 101.31 71.2799 101.445C71.2799 101.557 71.3149 101.65 71.3849 101.725C71.4596 101.795 71.5553 101.856 71.6719 101.907C71.7886 101.958 71.9123 102.01 72.0429 102.061C72.2109 102.122 72.3743 102.192 72.5329 102.271C72.6963 102.346 72.8316 102.446 72.9389 102.572C73.0463 102.698 73.0999 102.871 73.0999 103.09C73.0999 103.267 73.0533 103.433 72.9599 103.587C72.8666 103.736 72.7289 103.858 72.5469 103.951C72.3649 104.04 72.1433 104.084 71.8819 104.084ZM73.9261 105.456V100.605H74.3461L74.3881 101.011H74.4091C74.5631 100.876 74.7334 100.761 74.9201 100.668C75.1114 100.57 75.3074 100.521 75.5081 100.521C75.8021 100.521 76.0494 100.593 76.2501 100.738C76.4507 100.878 76.6001 101.079 76.6981 101.34C76.8007 101.597 76.8521 101.9 76.8521 102.25C76.8521 102.637 76.7821 102.969 76.6421 103.244C76.5067 103.515 76.3271 103.722 76.1031 103.867C75.8791 104.012 75.6387 104.084 75.3821 104.084C75.2281 104.084 75.0694 104.049 74.9061 103.979C74.7427 103.909 74.5794 103.811 74.4161 103.685L74.4301 104.287V105.456H73.9261ZM75.2981 103.65C75.4987 103.65 75.6761 103.594 75.8301 103.482C75.9841 103.37 76.1054 103.209 76.1941 102.999C76.2827 102.789 76.3271 102.542 76.3271 102.257C76.3271 102 76.2944 101.774 76.2291 101.578C76.1684 101.382 76.0681 101.23 75.9281 101.123C75.7927 101.011 75.6131 100.955 75.3891 100.955C75.2397 100.955 75.0857 100.997 74.9271 101.081C74.7731 101.16 74.6074 101.282 74.4301 101.445V103.279C74.5981 103.414 74.7567 103.51 74.9061 103.566C75.0554 103.622 75.1861 103.65 75.2981 103.65ZM79.0834 104.084C78.808 104.084 78.5514 104.014 78.3134 103.874C78.0754 103.734 77.884 103.533 77.7394 103.272C77.5947 103.006 77.5224 102.684 77.5224 102.306C77.5224 101.928 77.5947 101.606 77.7394 101.34C77.884 101.074 78.0754 100.871 78.3134 100.731C78.5514 100.591 78.808 100.521 79.0834 100.521C79.3587 100.521 79.613 100.591 79.8464 100.731C80.0844 100.871 80.2757 101.074 80.4204 101.34C80.5697 101.606 80.6444 101.928 80.6444 102.306C80.6444 102.684 80.5697 103.006 80.4204 103.272C80.2757 103.533 80.0844 103.734 79.8464 103.874C79.613 104.014 79.3587 104.084 79.0834 104.084ZM79.0834 103.657C79.2887 103.657 79.4684 103.601 79.6224 103.489C79.781 103.377 79.9024 103.221 79.9864 103.02C80.075 102.815 80.1194 102.577 80.1194 102.306C80.1194 102.04 80.075 101.804 79.9864 101.599C79.9024 101.394 79.781 101.235 79.6224 101.123C79.4684 101.006 79.2887 100.948 79.0834 100.948C78.8827 100.948 78.703 101.006 78.5444 101.123C78.3904 101.235 78.269 101.394 78.1804 101.599C78.0964 101.804 78.0544 102.04 78.0544 102.306C78.0544 102.577 78.0964 102.815 78.1804 103.02C78.269 103.221 78.3904 103.377 78.5444 103.489C78.703 103.601 78.8827 103.657 79.0834 103.657ZM81.5686 104V100.605H81.9886L82.0306 101.228H82.0516C82.1683 101.013 82.3083 100.843 82.4716 100.717C82.6396 100.586 82.8216 100.521 83.0176 100.521C83.0876 100.521 83.1506 100.528 83.2066 100.542C83.2626 100.551 83.3163 100.568 83.3676 100.591L83.2696 101.039C83.2136 101.02 83.1623 101.006 83.1156 100.997C83.0736 100.988 83.0176 100.983 82.9476 100.983C82.803 100.983 82.6513 101.044 82.4926 101.165C82.334 101.282 82.194 101.489 82.0726 101.788V104H81.5686ZM84.9765 104.084C84.6265 104.084 84.3815 103.981 84.2415 103.776C84.1062 103.571 84.0385 103.305 84.0385 102.978V101.025H83.5275V100.64L84.0595 100.605L84.1225 99.646H84.5495V100.605H85.4805V101.025H84.5495V102.992C84.5495 103.202 84.5869 103.368 84.6615 103.489C84.7409 103.606 84.8832 103.664 85.0885 103.664C85.1492 103.664 85.2145 103.655 85.2845 103.636C85.3592 103.617 85.4245 103.596 85.4805 103.573L85.5855 103.958C85.4922 103.991 85.3919 104.019 85.2845 104.042C85.1772 104.07 85.0745 104.084 84.9765 104.084ZM87.6089 104.084C87.3149 104.084 87.0443 104.014 86.7969 103.874C86.5543 103.729 86.3606 103.526 86.2159 103.265C86.0713 102.999 85.9989 102.679 85.9989 102.306C85.9989 101.937 86.0713 101.62 86.2159 101.354C86.3606 101.088 86.5473 100.883 86.7759 100.738C87.0093 100.593 87.2566 100.521 87.5179 100.521C87.7979 100.521 88.0383 100.586 88.2389 100.717C88.4396 100.848 88.5913 101.032 88.6939 101.27C88.8013 101.503 88.8549 101.783 88.8549 102.11C88.8549 102.166 88.8526 102.222 88.8479 102.278C88.8479 102.329 88.8433 102.376 88.8339 102.418H86.3979L86.3909 102.047H88.3999C88.3999 101.683 88.3229 101.408 88.1689 101.221C88.0149 101.03 87.8003 100.934 87.5249 100.934C87.3569 100.934 87.1936 100.983 87.0349 101.081C86.8763 101.179 86.7456 101.328 86.6429 101.529C86.5403 101.73 86.4889 101.989 86.4889 102.306C86.4889 102.609 86.5426 102.861 86.6499 103.062C86.7573 103.263 86.8996 103.414 87.0769 103.517C87.2589 103.62 87.4573 103.671 87.6719 103.671C87.8446 103.671 87.9986 103.645 88.1339 103.594C88.2739 103.543 88.4069 103.477 88.5329 103.398L88.7219 103.734C88.5773 103.827 88.4139 103.909 88.2319 103.979C88.0546 104.049 87.8469 104.084 87.6089 104.084ZM92.2526 104.084C91.8279 104.084 91.4896 103.93 91.2376 103.622C90.9856 103.309 90.8596 102.871 90.8596 102.306C90.8596 101.942 90.9273 101.627 91.0626 101.361C91.2026 101.095 91.3846 100.89 91.6086 100.745C91.8326 100.596 92.0753 100.521 92.3366 100.521C92.5373 100.521 92.7099 100.556 92.8546 100.626C92.9993 100.696 93.1486 100.794 93.3026 100.92L93.2816 100.332V99.002H93.7856V104H93.3656L93.3236 103.587H93.3026C93.1719 103.722 93.0156 103.839 92.8336 103.937C92.6563 104.035 92.4626 104.084 92.2526 104.084ZM92.3646 103.65C92.5279 103.65 92.6843 103.61 92.8336 103.531C92.9829 103.447 93.1323 103.326 93.2816 103.167V101.326C93.1276 101.191 92.9806 101.095 92.8406 101.039C92.7006 100.983 92.5583 100.955 92.4136 100.955C92.2223 100.955 92.0473 101.013 91.8886 101.13C91.7346 101.242 91.6109 101.401 91.5176 101.606C91.4289 101.807 91.3846 102.04 91.3846 102.306C91.3846 102.721 91.4686 103.05 91.6366 103.293C91.8093 103.531 92.0519 103.65 92.3646 103.65ZM96.3179 104.084C96.0239 104.084 95.7532 104.014 95.5059 103.874C95.2632 103.729 95.0696 103.526 94.9249 103.265C94.7802 102.999 94.7079 102.679 94.7079 102.306C94.7079 101.937 94.7802 101.62 94.9249 101.354C95.0696 101.088 95.2562 100.883 95.4849 100.738C95.7182 100.593 95.9656 100.521 96.2269 100.521C96.5069 100.521 96.7472 100.586 96.9479 100.717C97.1486 100.848 97.3002 101.032 97.4029 101.27C97.5102 101.503 97.5639 101.783 97.5639 102.11C97.5639 102.166 97.5616 102.222 97.5569 102.278C97.5569 102.329 97.5522 102.376 97.5429 102.418H95.1069L95.0999 102.047H97.1089C97.1089 101.683 97.0319 101.408 96.8779 101.221C96.7239 101.03 96.5092 100.934 96.2339 100.934C96.0659 100.934 95.9026 100.983 95.7439 101.081C95.5852 101.179 95.4546 101.328 95.3519 101.529C95.2492 101.73 95.1979 101.989 95.1979 102.306C95.1979 102.609 95.2516 102.861 95.3589 103.062C95.4662 103.263 95.6086 103.414 95.7859 103.517C95.9679 103.62 96.1662 103.671 96.3809 103.671C96.5536 103.671 96.7076 103.645 96.8429 103.594C96.9829 103.543 97.1159 103.477 97.2419 103.398L97.4309 103.734C97.2862 103.827 97.1229 103.909 96.9409 103.979C96.7636 104.049 96.5559 104.084 96.3179 104.084ZM101.137 104.084C100.838 104.084 100.57 104.014 100.332 103.874C100.094 103.734 99.9046 103.533 99.7646 103.272C99.6246 103.006 99.5546 102.684 99.5546 102.306C99.5546 101.928 99.6293 101.606 99.7786 101.34C99.9326 101.074 100.131 100.871 100.374 100.731C100.616 100.591 100.882 100.521 101.172 100.521C101.396 100.521 101.587 100.563 101.746 100.647C101.904 100.726 102.042 100.82 102.159 100.927L101.893 101.263C101.795 101.17 101.687 101.095 101.571 101.039C101.459 100.978 101.333 100.948 101.193 100.948C100.978 100.948 100.787 101.006 100.619 101.123C100.455 101.235 100.325 101.394 100.227 101.599C100.133 101.804 100.087 102.04 100.087 102.306C100.087 102.577 100.131 102.815 100.22 103.02C100.313 103.221 100.441 103.377 100.605 103.489C100.768 103.601 100.959 103.657 101.179 103.657C101.342 103.657 101.494 103.622 101.634 103.552C101.774 103.482 101.897 103.4 102.005 103.307L102.229 103.65C102.079 103.785 101.911 103.893 101.725 103.972C101.538 104.047 101.342 104.084 101.137 104.084ZM103.769 104.084C103.583 104.084 103.415 104.047 103.265 103.972C103.116 103.897 102.997 103.79 102.908 103.65C102.82 103.505 102.775 103.33 102.775 103.125C102.775 102.756 102.943 102.474 103.279 102.278C103.62 102.077 104.157 101.937 104.889 101.858C104.889 101.704 104.868 101.557 104.826 101.417C104.789 101.277 104.717 101.165 104.609 101.081C104.507 100.992 104.357 100.948 104.161 100.948C103.956 100.948 103.765 100.988 103.587 101.067C103.415 101.146 103.263 101.23 103.132 101.319L102.929 100.969C103.027 100.904 103.144 100.836 103.279 100.766C103.415 100.696 103.564 100.638 103.727 100.591C103.891 100.544 104.063 100.521 104.245 100.521C104.521 100.521 104.742 100.579 104.91 100.696C105.078 100.813 105.2 100.974 105.274 101.179C105.354 101.384 105.393 101.625 105.393 101.9V104H104.973L104.931 103.587H104.91C104.747 103.722 104.57 103.839 104.378 103.937C104.187 104.035 103.984 104.084 103.769 104.084ZM103.902 103.671C104.08 103.671 104.243 103.631 104.392 103.552C104.546 103.468 104.712 103.349 104.889 103.195V102.201C104.488 102.248 104.171 102.313 103.937 102.397C103.704 102.476 103.536 102.574 103.433 102.691C103.331 102.808 103.279 102.943 103.279 103.097C103.279 103.298 103.34 103.445 103.461 103.538C103.587 103.627 103.734 103.671 103.902 103.671ZM106.506 104V100.605H106.926L106.968 101.228H106.989C107.106 101.013 107.246 100.843 107.409 100.717C107.577 100.586 107.759 100.521 107.955 100.521C108.025 100.521 108.088 100.528 108.144 100.542C108.2 100.551 108.254 100.568 108.305 100.591L108.207 101.039C108.151 101.02 108.1 101.006 108.053 100.997C108.011 100.988 107.955 100.983 107.885 100.983C107.74 100.983 107.589 101.044 107.43 101.165C107.271 101.282 107.131 101.489 107.01 101.788V104H106.506ZM110.019 105.582C109.739 105.582 109.494 105.545 109.284 105.47C109.074 105.395 108.911 105.29 108.794 105.155C108.677 105.02 108.619 104.856 108.619 104.665C108.619 104.516 108.663 104.373 108.752 104.238C108.841 104.103 108.962 103.984 109.116 103.881V103.853C109.032 103.797 108.96 103.725 108.899 103.636C108.843 103.543 108.815 103.431 108.815 103.3C108.815 103.155 108.855 103.029 108.934 102.922C109.018 102.815 109.102 102.731 109.186 102.67V102.642C109.079 102.553 108.978 102.43 108.885 102.271C108.796 102.112 108.752 101.933 108.752 101.732C108.752 101.485 108.808 101.272 108.92 101.095C109.037 100.913 109.188 100.773 109.375 100.675C109.566 100.572 109.776 100.521 110.005 100.521C110.098 100.521 110.185 100.53 110.264 100.549C110.348 100.563 110.418 100.582 110.474 100.605H111.65V101.004H110.929C111.018 101.088 111.09 101.193 111.146 101.319C111.202 101.445 111.23 101.585 111.23 101.739C111.23 101.982 111.174 102.192 111.062 102.369C110.955 102.546 110.808 102.684 110.621 102.782C110.439 102.875 110.234 102.922 110.005 102.922C109.921 102.922 109.832 102.913 109.739 102.894C109.65 102.871 109.566 102.84 109.487 102.803C109.422 102.854 109.366 102.913 109.319 102.978C109.277 103.043 109.256 103.125 109.256 103.223C109.256 103.335 109.298 103.428 109.382 103.503C109.471 103.573 109.629 103.608 109.858 103.608H110.537C110.929 103.608 111.221 103.673 111.412 103.804C111.608 103.93 111.706 104.133 111.706 104.413C111.706 104.618 111.636 104.81 111.496 104.987C111.361 105.164 111.167 105.307 110.915 105.414C110.663 105.526 110.364 105.582 110.019 105.582ZM110.089 105.218C110.313 105.218 110.507 105.183 110.67 105.113C110.838 105.043 110.969 104.952 111.062 104.84C111.155 104.728 111.202 104.609 111.202 104.483C111.202 104.32 111.141 104.205 111.02 104.14C110.903 104.075 110.728 104.042 110.495 104.042H109.872C109.821 104.042 109.755 104.037 109.676 104.028C109.601 104.019 109.522 104.005 109.438 103.986C109.307 104.079 109.212 104.177 109.151 104.28C109.095 104.387 109.067 104.492 109.067 104.595C109.067 104.786 109.158 104.938 109.34 105.05C109.522 105.162 109.772 105.218 110.089 105.218ZM110.005 102.572C110.14 102.572 110.264 102.537 110.376 102.467C110.493 102.397 110.586 102.299 110.656 102.173C110.726 102.047 110.761 101.9 110.761 101.732C110.761 101.559 110.726 101.412 110.656 101.291C110.591 101.165 110.5 101.069 110.383 101.004C110.271 100.934 110.145 100.899 110.005 100.899C109.795 100.899 109.615 100.974 109.466 101.123C109.317 101.268 109.242 101.471 109.242 101.732C109.242 101.9 109.277 102.047 109.347 102.173C109.417 102.299 109.51 102.397 109.627 102.467C109.744 102.537 109.87 102.572 110.005 102.572ZM113.155 104.084C112.968 104.084 112.8 104.047 112.651 103.972C112.502 103.897 112.383 103.79 112.294 103.65C112.205 103.505 112.161 103.33 112.161 103.125C112.161 102.756 112.329 102.474 112.665 102.278C113.006 102.077 113.542 101.937 114.275 101.858C114.275 101.704 114.254 101.557 114.212 101.417C114.175 101.277 114.102 101.165 113.995 101.081C113.892 100.992 113.743 100.948 113.547 100.948C113.342 100.948 113.15 100.988 112.973 101.067C112.8 101.146 112.649 101.23 112.518 101.319L112.315 100.969C112.413 100.904 112.53 100.836 112.665 100.766C112.8 100.696 112.95 100.638 113.113 100.591C113.276 100.544 113.449 100.521 113.631 100.521C113.906 100.521 114.128 100.579 114.296 100.696C114.464 100.813 114.585 100.974 114.66 101.179C114.739 101.384 114.779 101.625 114.779 101.9V104H114.359L114.317 103.587H114.296C114.133 103.722 113.955 103.839 113.764 103.937C113.573 104.035 113.37 104.084 113.155 104.084ZM113.288 103.671C113.465 103.671 113.629 103.631 113.778 103.552C113.932 103.468 114.098 103.349 114.275 103.195V102.201C113.874 102.248 113.556 102.313 113.323 102.397C113.09 102.476 112.922 102.574 112.819 102.691C112.716 102.808 112.665 102.943 112.665 103.097C112.665 103.298 112.726 103.445 112.847 103.538C112.973 103.627 113.12 103.671 113.288 103.671ZM117.3 105.484C117.226 105.484 117.156 105.477 117.09 105.463C117.025 105.449 116.967 105.433 116.915 105.414L117.013 105.001C117.051 105.015 117.093 105.027 117.139 105.036C117.191 105.05 117.237 105.057 117.279 105.057C117.475 105.057 117.639 104.982 117.769 104.833C117.9 104.688 118 104.504 118.07 104.28L118.154 104.021L116.782 100.605H117.307L118.035 102.551C118.091 102.696 118.147 102.852 118.203 103.02C118.264 103.183 118.32 103.344 118.371 103.503H118.399C118.451 103.349 118.502 103.19 118.553 103.027C118.605 102.859 118.651 102.7 118.693 102.551L119.33 100.605H119.827L118.539 104.315C118.46 104.53 118.367 104.726 118.259 104.903C118.152 105.08 118.019 105.22 117.86 105.323C117.706 105.43 117.52 105.484 117.3 105.484ZM121.908 105.456V100.605H122.328L122.37 101.011H122.391C122.545 100.876 122.715 100.761 122.902 100.668C123.093 100.57 123.289 100.521 123.49 100.521C123.784 100.521 124.031 100.593 124.232 100.738C124.432 100.878 124.582 101.079 124.68 101.34C124.782 101.597 124.834 101.9 124.834 102.25C124.834 102.637 124.764 102.969 124.624 103.244C124.488 103.515 124.309 103.722 124.085 103.867C123.861 104.012 123.62 104.084 123.364 104.084C123.21 104.084 123.051 104.049 122.888 103.979C122.724 103.909 122.561 103.811 122.398 103.685L122.412 104.287V105.456H121.908ZM123.28 103.65C123.48 103.65 123.658 103.594 123.812 103.482C123.966 103.37 124.087 103.209 124.176 102.999C124.264 102.789 124.309 102.542 124.309 102.257C124.309 102 124.276 101.774 124.211 101.578C124.15 101.382 124.05 101.23 123.91 101.123C123.774 101.011 123.595 100.955 123.37 100.955C123.221 100.955 123.067 100.997 122.909 101.081C122.755 101.16 122.589 101.282 122.412 101.445V103.279C122.58 103.414 122.738 103.51 122.888 103.566C123.037 103.622 123.168 103.65 123.28 103.65ZM126.54 104.084C126.353 104.084 126.185 104.047 126.036 103.972C125.886 103.897 125.767 103.79 125.679 103.65C125.59 103.505 125.546 103.33 125.546 103.125C125.546 102.756 125.714 102.474 126.05 102.278C126.39 102.077 126.927 101.937 127.66 101.858C127.66 101.704 127.639 101.557 127.597 101.417C127.559 101.277 127.487 101.165 127.38 101.081C127.277 100.992 127.128 100.948 126.932 100.948C126.726 100.948 126.535 100.988 126.358 101.067C126.185 101.146 126.033 101.23 125.903 101.319L125.7 100.969C125.798 100.904 125.914 100.836 126.05 100.766C126.185 100.696 126.334 100.638 126.498 100.591C126.661 100.544 126.834 100.521 127.016 100.521C127.291 100.521 127.513 100.579 127.681 100.696C127.849 100.813 127.97 100.974 128.045 101.179C128.124 101.384 128.164 101.625 128.164 101.9V104H127.744L127.702 103.587H127.681C127.517 103.722 127.34 103.839 127.149 103.937C126.957 104.035 126.754 104.084 126.54 104.084ZM126.673 103.671C126.85 103.671 127.013 103.631 127.163 103.552C127.317 103.468 127.482 103.349 127.66 103.195V102.201C127.258 102.248 126.941 102.313 126.708 102.397C126.474 102.476 126.306 102.574 126.204 102.691C126.101 102.808 126.05 102.943 126.05 103.097C126.05 103.298 126.11 103.445 126.232 103.538C126.358 103.627 126.505 103.671 126.673 103.671ZM130.145 104.084C129.902 104.084 129.671 104.04 129.452 103.951C129.232 103.858 129.043 103.746 128.885 103.615L129.144 103.272C129.293 103.389 129.447 103.487 129.606 103.566C129.764 103.645 129.951 103.685 130.166 103.685C130.399 103.685 130.574 103.629 130.691 103.517C130.807 103.405 130.866 103.272 130.866 103.118C130.866 102.997 130.826 102.896 130.747 102.817C130.667 102.733 130.567 102.663 130.446 102.607C130.324 102.546 130.201 102.493 130.075 102.446C129.916 102.39 129.757 102.322 129.599 102.243C129.44 102.164 129.307 102.063 129.2 101.942C129.097 101.821 129.046 101.664 129.046 101.473C129.046 101.207 129.146 100.983 129.347 100.801C129.552 100.614 129.837 100.521 130.201 100.521C130.406 100.521 130.597 100.558 130.775 100.633C130.952 100.708 131.104 100.796 131.23 100.899L130.985 101.228C130.868 101.144 130.747 101.074 130.621 101.018C130.499 100.957 130.359 100.927 130.201 100.927C129.977 100.927 129.811 100.981 129.704 101.088C129.596 101.191 129.543 101.31 129.543 101.445C129.543 101.557 129.578 101.65 129.648 101.725C129.722 101.795 129.818 101.856 129.935 101.907C130.051 101.958 130.175 102.01 130.306 102.061C130.474 102.122 130.637 102.192 130.796 102.271C130.959 102.346 131.094 102.446 131.202 102.572C131.309 102.698 131.363 102.871 131.363 103.09C131.363 103.267 131.316 103.433 131.223 103.587C131.129 103.736 130.992 103.858 130.81 103.951C130.628 104.04 130.406 104.084 130.145 104.084ZM132.959 104.084C132.772 104.084 132.604 104.047 132.455 103.972C132.305 103.897 132.186 103.79 132.098 103.65C132.009 103.505 131.965 103.33 131.965 103.125C131.965 102.756 132.133 102.474 132.469 102.278C132.809 102.077 133.346 101.937 134.079 101.858C134.079 101.704 134.058 101.557 134.016 101.417C133.978 101.277 133.906 101.165 133.799 101.081C133.696 100.992 133.547 100.948 133.351 100.948C133.145 100.948 132.954 100.988 132.777 101.067C132.604 101.146 132.452 101.23 132.322 101.319L132.119 100.969C132.217 100.904 132.333 100.836 132.469 100.766C132.604 100.696 132.753 100.638 132.917 100.591C133.08 100.544 133.253 100.521 133.435 100.521C133.71 100.521 133.932 100.579 134.1 100.696C134.268 100.813 134.389 100.974 134.464 101.179C134.543 101.384 134.583 101.625 134.583 101.9V104H134.163L134.121 103.587H134.1C133.936 103.722 133.759 103.839 133.568 103.937C133.376 104.035 133.173 104.084 132.959 104.084ZM133.092 103.671C133.269 103.671 133.432 103.631 133.582 103.552C133.736 103.468 133.901 103.349 134.079 103.195V102.201C133.677 102.248 133.36 102.313 133.127 102.397C132.893 102.476 132.725 102.574 132.623 102.691C132.52 102.808 132.469 102.943 132.469 103.097C132.469 103.298 132.529 103.445 132.651 103.538C132.777 103.627 132.924 103.671 133.092 103.671ZM135.332 105.54C135.234 105.54 135.145 105.531 135.066 105.512C134.982 105.493 134.909 105.475 134.849 105.456L134.954 105.064C134.996 105.078 135.045 105.09 135.101 105.099C135.161 105.113 135.222 105.12 135.283 105.12C135.455 105.12 135.57 105.057 135.626 104.931C135.682 104.81 135.71 104.646 135.71 104.441L135.717 100.605H136.221V104.448C136.221 104.677 136.19 104.873 136.13 105.036C136.069 105.199 135.973 105.323 135.843 105.407C135.712 105.496 135.542 105.54 135.332 105.54ZM135.332 105.54C135.234 105.54 135.145 105.531 135.066 105.512C134.982 105.493 134.909 105.475 134.849 105.456L134.954 105.064C134.996 105.078 135.045 105.09 135.101 105.099C135.161 105.113 135.222 105.12 135.283 105.12C135.455 105.12 135.57 105.057 135.626 104.931C135.682 104.81 135.71 104.646 135.71 104.441L135.717 100.605H136.221V104.448C136.221 104.677 136.19 104.873 136.13 105.036C136.069 105.199 135.973 105.323 135.843 105.407C135.712 105.496 135.542 105.54 135.332 105.54ZM135.955 99.877C135.857 99.877 135.773 99.8443 135.703 99.779C135.637 99.7137 135.605 99.6273 135.605 99.52C135.605 99.4173 135.637 99.3357 135.703 99.275C135.773 99.2097 135.857 99.177 135.955 99.177C136.057 99.177 136.141 99.2097 136.207 99.275C136.272 99.3357 136.305 99.4173 136.305 99.52C136.305 99.6273 136.272 99.7137 136.207 99.779C136.141 99.8443 136.057 99.877 135.955 99.877ZM138.735 104.084C138.441 104.084 138.17 104.014 137.923 103.874C137.68 103.729 137.487 103.526 137.342 103.265C137.197 102.999 137.125 102.679 137.125 102.306C137.125 101.937 137.197 101.62 137.342 101.354C137.487 101.088 137.673 100.883 137.902 100.738C138.135 100.593 138.383 100.521 138.644 100.521C138.924 100.521 139.164 100.586 139.365 100.717C139.566 100.848 139.717 101.032 139.82 101.27C139.927 101.503 139.981 101.783 139.981 102.11C139.981 102.166 139.979 102.222 139.974 102.278C139.974 102.329 139.969 102.376 139.96 102.418H137.524L137.517 102.047H139.526C139.526 101.683 139.449 101.408 139.295 101.221C139.141 101.03 138.926 100.934 138.651 100.934C138.483 100.934 138.32 100.983 138.161 101.081C138.002 101.179 137.872 101.328 137.769 101.529C137.666 101.73 137.615 101.989 137.615 102.306C137.615 102.609 137.669 102.861 137.776 103.062C137.883 103.263 138.026 103.414 138.203 103.517C138.385 103.62 138.583 103.671 138.798 103.671C138.971 103.671 139.125 103.645 139.26 103.594C139.4 103.543 139.533 103.477 139.659 103.398L139.848 103.734C139.703 103.827 139.54 103.909 139.358 103.979C139.181 104.049 138.973 104.084 138.735 104.084ZM140.836 104V100.605H141.256L141.298 101.228H141.319C141.436 101.013 141.576 100.843 141.739 100.717C141.907 100.586 142.089 100.521 142.285 100.521C142.355 100.521 142.418 100.528 142.474 100.542C142.53 100.551 142.584 100.568 142.635 100.591L142.537 101.039C142.481 101.02 142.43 101.006 142.383 100.997C142.341 100.988 142.285 100.983 142.215 100.983C142.071 100.983 141.919 101.044 141.76 101.165C141.602 101.282 141.462 101.489 141.34 101.788V104H140.836ZM144.51 104.084C144.235 104.084 143.978 104.014 143.74 103.874C143.502 103.734 143.311 103.533 143.166 103.272C143.021 103.006 142.949 102.684 142.949 102.306C142.949 101.928 143.021 101.606 143.166 101.34C143.311 101.074 143.502 100.871 143.74 100.731C143.978 100.591 144.235 100.521 144.51 100.521C144.785 100.521 145.04 100.591 145.273 100.731C145.511 100.871 145.702 101.074 145.847 101.34C145.996 101.606 146.071 101.928 146.071 102.306C146.071 102.684 145.996 103.006 145.847 103.272C145.702 103.533 145.511 103.734 145.273 103.874C145.04 104.014 144.785 104.084 144.51 104.084ZM144.51 103.657C144.715 103.657 144.895 103.601 145.049 103.489C145.208 103.377 145.329 103.221 145.413 103.02C145.502 102.815 145.546 102.577 145.546 102.306C145.546 102.04 145.502 101.804 145.413 101.599C145.329 101.394 145.208 101.235 145.049 101.123C144.895 101.006 144.715 100.948 144.51 100.948C144.309 100.948 144.13 101.006 143.971 101.123C143.817 101.235 143.696 101.394 143.607 101.599C143.523 101.804 143.481 102.04 143.481 102.306C143.481 102.577 143.523 102.815 143.607 103.02C143.696 103.221 143.817 103.377 143.971 103.489C144.13 103.601 144.309 103.657 144.51 103.657ZM147.863 104.084C147.621 104.084 147.39 104.04 147.17 103.951C146.951 103.858 146.762 103.746 146.603 103.615L146.862 103.272C147.012 103.389 147.166 103.487 147.324 103.566C147.483 103.645 147.67 103.685 147.884 103.685C148.118 103.685 148.293 103.629 148.409 103.517C148.526 103.405 148.584 103.272 148.584 103.118C148.584 102.997 148.545 102.896 148.465 102.817C148.386 102.733 148.286 102.663 148.164 102.607C148.043 102.546 147.919 102.493 147.793 102.446C147.635 102.39 147.476 102.322 147.317 102.243C147.159 102.164 147.026 102.063 146.918 101.942C146.816 101.821 146.764 101.664 146.764 101.473C146.764 101.207 146.865 100.983 147.065 100.801C147.271 100.614 147.555 100.521 147.919 100.521C148.125 100.521 148.316 100.558 148.493 100.633C148.671 100.708 148.822 100.796 148.948 100.899L148.703 101.228C148.587 101.144 148.465 101.074 148.339 101.018C148.218 100.957 148.078 100.927 147.919 100.927C147.695 100.927 147.53 100.981 147.422 101.088C147.315 101.191 147.261 101.31 147.261 101.445C147.261 101.557 147.296 101.65 147.366 101.725C147.441 101.795 147.537 101.856 147.653 101.907C147.77 101.958 147.894 102.01 148.024 102.061C148.192 102.122 148.356 102.192 148.514 102.271C148.678 102.346 148.813 102.446 148.92 102.572C149.028 102.698 149.081 102.871 149.081 103.09C149.081 103.267 149.035 103.433 148.941 103.587C148.848 103.736 148.71 103.858 148.528 103.951C148.346 104.04 148.125 104.084 147.863 104.084Z" fill="white"/>
<path d="M59.036 91.132C58.5667 91.132 58.0973 91.044 57.628 90.868C57.166 90.6847 56.7553 90.4243 56.396 90.087L57.265 89.053C57.5217 89.2877 57.8077 89.4747 58.123 89.614C58.4457 89.7533 58.761 89.823 59.069 89.823C59.4283 89.823 59.696 89.757 59.872 89.625C60.0553 89.4857 60.147 89.295 60.147 89.053C60.147 88.8917 60.103 88.7597 60.015 88.657C59.927 88.5543 59.8023 88.4663 59.641 88.393C59.487 88.3123 59.3037 88.228 59.091 88.14L58.145 87.733C57.8957 87.6303 57.661 87.4947 57.441 87.326C57.221 87.1573 57.0413 86.9483 56.902 86.699C56.7627 86.4423 56.693 86.1417 56.693 85.797C56.693 85.401 56.7993 85.0453 57.012 84.73C57.232 84.4147 57.529 84.1653 57.903 83.982C58.2843 83.7913 58.717 83.696 59.201 83.696C59.619 83.696 60.026 83.7767 60.422 83.938C60.8253 84.0993 61.1773 84.3267 61.478 84.62L60.708 85.577C60.4807 85.3937 60.246 85.2507 60.004 85.148C59.762 85.0453 59.4943 84.994 59.201 84.994C58.9077 84.994 58.6693 85.0563 58.486 85.181C58.31 85.3057 58.222 85.4817 58.222 85.709C58.222 85.863 58.2697 85.9913 58.365 86.094C58.4603 86.1967 58.5923 86.2883 58.761 86.369C58.937 86.4423 59.1277 86.523 59.333 86.611L60.257 86.985C60.5503 87.1023 60.8033 87.249 61.016 87.425C61.2287 87.601 61.3937 87.8137 61.511 88.063C61.6357 88.305 61.698 88.5947 61.698 88.932C61.698 89.328 61.5917 89.6947 61.379 90.032C61.1737 90.362 60.8693 90.6297 60.466 90.835C60.07 91.033 59.5933 91.132 59.036 91.132ZM64.3573 91V85.093H62.3443V83.828H67.8773V85.093H65.8643V91H64.3573ZM68.0944 91L70.3714 83.828H72.1754L74.4524 91H72.8574L71.8674 87.304C71.7647 86.9373 71.6621 86.5523 71.5594 86.149C71.4641 85.7457 71.3651 85.3533 71.2624 84.972H71.2184C71.1304 85.3533 71.0351 85.7457 70.9324 86.149C70.8371 86.5523 70.7381 86.9373 70.6354 87.304L69.6344 91H68.0944ZM69.5464 89.218V88.041H72.9784V89.218H69.5464ZM75.2704 91V83.828H77.8004C78.3064 83.828 78.7647 83.894 79.1754 84.026C79.586 84.158 79.9124 84.3853 80.1544 84.708C80.4037 85.0307 80.5284 85.4707 80.5284 86.028C80.5284 86.5633 80.4037 87.0033 80.1544 87.348C79.9124 87.6853 79.586 87.9383 79.1754 88.107C78.7647 88.2683 78.3064 88.349 77.8004 88.349H76.7774V91H75.2704ZM79.1644 91L77.5254 87.942L78.5814 86.996L80.8584 91H79.1644ZM76.7774 87.139H77.6684C78.1157 87.139 78.4567 87.0473 78.6914 86.864C78.926 86.6733 79.0434 86.3947 79.0434 86.028C79.0434 85.654 78.926 85.3937 78.6914 85.247C78.4567 85.1003 78.1157 85.027 77.6684 85.027H76.7774V87.139ZM84.1083 91.132C83.6389 91.132 83.1696 91.044 82.7003 90.868C82.2383 90.6847 81.8276 90.4243 81.4683 90.087L82.3373 89.053C82.5939 89.2877 82.8799 89.4747 83.1953 89.614C83.5179 89.7533 83.8333 89.823 84.1413 89.823C84.5006 89.823 84.7683 89.757 84.9443 89.625C85.1276 89.4857 85.2193 89.295 85.2193 89.053C85.2193 88.8917 85.1753 88.7597 85.0873 88.657C84.9993 88.5543 84.8746 88.4663 84.7133 88.393C84.5593 88.3123 84.3759 88.228 84.1633 88.14L83.2173 87.733C82.9679 87.6303 82.7333 87.4947 82.5133 87.326C82.2933 87.1573 82.1136 86.9483 81.9743 86.699C81.8349 86.4423 81.7653 86.1417 81.7653 85.797C81.7653 85.401 81.8716 85.0453 82.0843 84.73C82.3043 84.4147 82.6013 84.1653 82.9753 83.982C83.3566 83.7913 83.7893 83.696 84.2733 83.696C84.6913 83.696 85.0983 83.7767 85.4943 83.938C85.8976 84.0993 86.2496 84.3267 86.5503 84.62L85.7803 85.577C85.5529 85.3937 85.3183 85.2507 85.0763 85.148C84.8343 85.0453 84.5666 84.994 84.2733 84.994C83.9799 84.994 83.7416 85.0563 83.5583 85.181C83.3823 85.3057 83.2943 85.4817 83.2943 85.709C83.2943 85.863 83.3419 85.9913 83.4373 86.094C83.5326 86.1967 83.6646 86.2883 83.8333 86.369C84.0093 86.4423 84.1999 86.523 84.4053 86.611L85.3293 86.985C85.6226 87.1023 85.8756 87.249 86.0883 87.425C86.3009 87.601 86.4659 87.8137 86.5833 88.063C86.7079 88.305 86.7703 88.5947 86.7703 88.932C86.7703 89.328 86.6639 89.6947 86.4513 90.032C86.2459 90.362 85.9416 90.6297 85.5383 90.835C85.1423 91.033 84.6656 91.132 84.1083 91.132ZM88.0106 91V83.828H89.5176V86.622H92.1356V83.828H93.6426V91H92.1356V87.942H89.5176V91H88.0106ZM95.3797 91V83.828H96.8867V91H95.3797ZM98.6239 91V83.828H101.022C101.55 83.828 102.027 83.8977 102.452 84.037C102.877 84.1763 103.215 84.4147 103.464 84.752C103.721 85.082 103.849 85.533 103.849 86.105C103.849 86.655 103.724 87.106 103.475 87.458C103.226 87.81 102.888 88.074 102.463 88.25C102.045 88.4187 101.579 88.503 101.066 88.503H100.131V91H98.6239ZM100.131 87.293H100.967C101.444 87.293 101.796 87.194 102.023 86.996C102.25 86.7907 102.364 86.4937 102.364 86.105C102.364 85.7017 102.239 85.423 101.99 85.269C101.748 85.1077 101.392 85.027 100.923 85.027H100.131V87.293Z" fill="white"/>
<path d="M178.5 94.5H56.5" stroke="#BBECF9"/>
<circle cx="178.5" cy="94.5" r="1.5" fill="white"/>
</g>
<defs>
<filter id="filter0_d_25_7" x="185.439" y="-0.0462036" width="45.3821" height="308.602" filterUnits="userSpaceOnUse" color-interpolation-filters="sRGB">
<feFlood flood-opacity="0" result="BackgroundImageFix"/>
<feColorMatrix in="SourceAlpha" type="matrix" values="0 0 0 0 0 0 0 0 0 0 0 0 0 0 0 0 0 0 127 0" result="hardAlpha"/>
<feOffset dy="4"/>
<feGaussianBlur stdDeviation="2"/>
<feComposite in2="hardAlpha" operator="out"/>
<feColorMatrix type="matrix" values="0 0 0 0 0 0 0 0 0 0 0 0 0 0 0 0 0 0 0.25 0"/>
<feBlend mode="normal" in2="BackgroundImageFix" result="effect1_dropShadow_25_7"/>
<feBlend mode="normal" in="SourceGraphic" in2="effect1_dropShadow_25_7" result="shape"/>
</filter>
<clipPath id="clip0_25_7">
<rect width="391" height="320" fill="white"/>
</clipPath>
</defs>
</svg>
